<?xml version="1.0" encoding="iso-8859-1"?>
<!-- Generator: Adobe Illustrator 13.0.2, SVG Export Plug-In . SVG Version: 6.00 Build 14948)  -->
<!DOCTYPE svg PUBLIC "-//W3C//DTD SVG 1.1//EN" "http://www.w3.org/Graphics/SVG/1.1/DTD/svg11.dtd">
<svg version="1.1" id="Layer_1" xmlns="http://www.w3.org/2000/svg" xmlns:xlink="http://www.w3.org/1999/xlink" x="0px" y="0px"
	 width="144px" height="52px" viewBox="0 0 144 52" style="enable-background:new 0 0 144 52;" xml:space="preserve">
<g>
	<g>
		<path style="fill-rule:evenodd;clip-rule:evenodd;fill:#B49D3D;" d="M74,15c0.394-3.607,1.294-6.706,2-10
			c2.388,1.811,0.563,7.83,0,10C75.333,15,74.667,15,74,15z"/>
		<path style="fill-rule:evenodd;clip-rule:evenodd;fill:#B49D3D;" d="M81,16c0.688-4.021-0.958-5.708-1-9
			c2.009,1.991,3.422,4.579,3,9C82.333,16,81.667,16,81,16z"/>
		<path style="fill-rule:evenodd;clip-rule:evenodd;fill:#F1F0EE;" d="M12,16c-2.43-1.853,6.592-0.675,9-1c0,0.333,0,0.667,0,1
			C18,16,15,16,12,16z"/>
		<path style="fill-rule:evenodd;clip-rule:evenodd;fill:#9F9C9B;" d="M11,17c0.333,0,0.667,0,1,0c1.772,0.228,5.008-1.008,4,2
			c-3.914-0.989-5.806,2.209-8,0C8.015,17.349,10.774,18.44,11,17z"/>
		<path style="fill-rule:evenodd;clip-rule:evenodd;fill:#BBBBBB;" d="M91,17c0.667,0,1.333,0,2,0c2.333,0,4.667,0,7,0
			c0.5,3.146-2.18,3.909,0,6c-3.078,0.745-1.922-2.745-5-2c-0.043-1.376,0.471-2.196,1-3C94.547,17.453,90.831,19.168,91,17z"/>
		<path style="fill-rule:evenodd;clip-rule:evenodd;fill:#EDEC29;" d="M101,23c-1.434-1.464-0.767-3.169,2-3
			c1.503,1.498,4.211,1.789,5,4c-1.003-0.003-1.19,0.81-2,1c-1,0-2,0-3,0C102.557,24.11,102.122,23.211,101,23z"/>
		<path style="fill-rule:evenodd;clip-rule:evenodd;fill:#AEAEAE;" d="M93,28c0-0.333,0-0.667,0-1c3.333,0,6.667,0,10,0
			c-0.221,0.779-0.837,1.163-2,1C98.333,28,95.667,28,93,28z"/>
		<path style="fill-rule:evenodd;clip-rule:evenodd;fill:#FFFFFF;" d="M144,52c-48,0-96,0-144,0C0,34.667,0,17.333,0,0
			c48,0,96,0,144,0C144,17.333,144,34.667,144,52z M142,40c-3.384-9.288-23.687-10.31-34-16c-0.789-2.211-3.497-2.502-5-4
			c0-0.333,0-0.667,0-1c0.968-6.635-5.833-5.5-8-9c-5.251-3.082-10.498-6.168-18-7c-0.414-3.522-12.463-2.869-13,0
			c-4.515,0.485-6.805,3.195-11,4c-2.279-0.279-3.759,0.241-4,2c-0.779,0.221-1.163,0.837-1,2c-1.278,0.055-1.385,1.282-3,1
			c-4.621,1.713-11.082,1.584-16,3c-2.667,0-5.333,0-8,0c-2.408,0.325-11.43-0.853-9,1c0,0.333,0,0.667,0,1c-0.333,0-0.667,0-1,0
			c-13.008,0.253-2.663,8.864,1,12c-0.433,3.767,2.113,4.554,4,6c0.168,1.165,1.581,1.086,3,1c0,0.333,0,0.667,0,1
			c5.423,0.243,9.73,1.604,16,1c3.292,0.042,4.979,1.688,9,1c0.667,0,1.333,0,2,0c1.836,2.164,5.895,2.104,10,2c0.333,0,0.667,0,1,0
			c1.084,2.915,2.086,5.913,5,7c0.221,0.779,0.837,1.162,2,1c4.387,3.23,14.602,2.459,17-2c1.893-1.774,6.604-0.729,10-1
			c6.778-0.778,10.635,1.365,17,1c0.261,1.406,2.193,1.14,3,2c5.245,2.353,21.117,4.819,21-4c1.377,0.043,2.195-0.471,3-1
			C138.656,43.989,140.357,42.024,142,40z"/>
		<path style="fill-rule:evenodd;clip-rule:evenodd;fill:#F1F0EE;" d="M29,15c4.918-1.416,11.379-1.287,16-3
			c-0.272,2.062-4.428,0.238-4,3c-0.333,0-0.667,0-1,0s-0.667,0-1,0C35.667,15,32.333,15,29,15z"/>
		<path style="fill-rule:evenodd;clip-rule:evenodd;fill:#BBBBBB;" d="M98,14c-0.294-2.039-2.706-1.961-3-4
			c2.167,3.5,8.968,2.365,8,9C101.894,16.773,101.236,14.097,98,14z"/>
		<path style="fill-rule:evenodd;clip-rule:evenodd;fill:#B49D3D;" d="M87,16c1.146-4.146-2.104-3.896-2-7
			c2.024,1.643,3.989,3.344,4,7C88.333,16,87.667,16,87,16z"/>
		<path style="fill-rule:evenodd;clip-rule:evenodd;fill:#B49D3D;" d="M67,14c1.388-3.279,2.601-6.733,6-8
			c-1.474,2.526-3.533,4.467-4,8C68.333,14,67.667,14,67,14z"/>
		<path style="fill-rule:evenodd;clip-rule:evenodd;fill:#9A7156;" d="M64,14c-2.89-2.444-9.268-1.399-11-5c0-0.667,0-1.333,0-2
			c4.195-0.805,6.485-3.515,11-4c4.333,0,8.667,0,13,0c7.502,0.832,12.749,3.918,18,7c0.294,2.039,2.706,1.961,3,4
			c0,0.667,0,1.333,0,2c-1.453,0.547-5.169-1.168-5,1c-0.667,0-1.333,0-2,0c-0.027-0.973-1.224-0.776-2-1
			c-0.011-3.656-1.976-5.357-4-7c-0.104,3.104,3.146,2.854,2,7c-1.333,0-2.667,0-4,0c0.422-4.421-0.991-7.009-3-9
			c0.042,3.292,1.688,4.979,1,9c-1,0-2,0-3,0c-0.81-0.19-0.997-1.003-2-1c0.563-2.17,2.388-8.189,0-10
			c-0.706,3.294-1.606,6.393-2,10c-1,0-2,0-3,0c-0.027-0.973-1.224-0.776-2-1c0.467-3.533,2.526-5.474,4-8
			c-3.399,1.267-4.612,4.721-6,8C66,14,65,14,64,14z"/>
		<path style="fill-rule:evenodd;clip-rule:evenodd;fill:#9F9C9B;" d="M53,7c0,0.667,0,1.333,0,2c1.732,3.601,8.11,2.556,11,5
			c-3.008-1.008-1.772,2.228-2,4c-2.942-1.058-6.625-1.375-9-3c1.172-0.162,0.843-1.823,1-3c-1.812-0.854-2.758-2.576-5-3
			C49.241,7.241,50.721,6.721,53,7z"/>
		<path style="fill-rule:evenodd;clip-rule:evenodd;fill:#AEAEAE;" d="M64,14c1,0,2,0,3,0c0.667,0,1.333,0,2,0
			c0.776,0.224,1.973,0.027,2,1c-1,0-2,0-3,0c-0.689,2.689,2.067,1.933,3,3c0,0.333,0,0.667,0,1c-1.659-1.674-5.871-0.796-9-1
			C62.228,16.228,60.992,12.992,64,14z"/>
		<path style="fill-rule:evenodd;clip-rule:evenodd;fill:#BBBBBB;" d="M45,16c0.125-2.208,4.242-0.425,6-1
			c-0.027,0.973-1.224,0.776-2,1c0.027,0.973,1.224,0.776,2,1c0,0.333,0,0.667,0,1C48.126,18.207,45.92,17.747,45,16z"/>
		<path style="fill-rule:evenodd;clip-rule:evenodd;fill:#C8C8C7;" d="M53,15c2.375,1.625,6.058,1.942,9,3
			c3.129,0.204,7.341-0.674,9,1c3.975,2.632,8.189,0.363,7-3c1,0,2,0,3,0c0.667,0,1.333,0,2,0c1.333,0,2.667,0,4,0
			c0.667,0,1.333,0,2,0c0.776,0.224,1.973,0.027,2,1c-0.169,2.168,3.547,0.453,5,1c-0.529,0.804-1.043,1.624-1,3
			c3.078-0.745,1.922,2.745,5,2c0.333,0,0.667,0,1,0c1.122,0.211,1.557,1.11,2,2c-11.979,0.312-23.36,0.027-33-2
			c-6.705-1.295-13.764-2.236-19-5c0-0.333,0-0.667,0-1c-0.776-0.224-1.973-0.027-2-1c0.776-0.224,1.973-0.027,2-1
			C51.667,15,52.333,15,53,15z"/>
		<path style="fill-rule:evenodd;clip-rule:evenodd;fill:#AEAEAE;" d="M12,16c3,0,6,0,9,0c5.68-0.653,13.982,1.315,18-1
			c0.333,0,0.667,0,1,0c-0.282,1.615,0.945,1.722,1,3c-14.726,1.044-21.014,4.729-32,4c-0.422,3.422,2.995,3.005,4,5
			c-1.454,0.443,0.102,0.878,0,2c-0.333,0-0.667,0-1,0c-3.663-3.136-14.008-11.747-1-12c-0.226,1.44-2.985,0.349-3,2
			c2.194,2.209,4.086-0.989,8,0c1.008-3.008-2.228-1.772-4-2C12,16.667,12,16.333,12,16z"/>
		<path style="fill-rule:evenodd;clip-rule:evenodd;fill:#BBBBBB;" d="M13,27c-1.005-1.995-4.422-1.578-4-5
			c10.986,0.729,17.274-2.956,32-4c5.354,1.646,11.492,2.508,16,5c-6.714,3.935-9.732,8.57-18,9c0.226,1.44,2.985,0.349,3,2
			C31.372,32.628,22.959,29.04,13,27z"/>
		<path style="fill-rule:evenodd;clip-rule:evenodd;fill:#C8C8C7;" d="M95,34c3.172,1.828,4.762,5.238,9,6
			c1.172,0.161,0.844,1.823,1,3c-0.667,0-1.333,0-2,0c-1.712-2.288-7.633-0.367-11-1c-17.455-1.878-34.379-4.287-50-8
			c-0.015-1.651-2.774-0.56-3-2c8.268-0.43,11.286-5.065,18-9c5.118-0.785,7.264,1.403,12,1c6.751,1.915,15.393,1.941,23,3
			C88.183,28.66,92.64,32.613,95,34z M50,28c0.796,3.688,5.003,3.521,6,1c-1.177-0.156-2.838,0.172-3-1c0.555,0.003,1.135-0.81,0-1
			C52.832,28.165,51.419,28.086,50,28z"/>
		<path style="fill-rule:evenodd;clip-rule:evenodd;fill:#BBBBBB;" d="M53,27c1.135,0.19,0.555,1.003,0,1
			c0.162,1.172,1.823,0.844,3,1c-0.997,2.521-5.204,2.688-6-1C51.419,28.086,52.832,28.165,53,27z"/>
		<path style="fill-rule:evenodd;clip-rule:evenodd;fill:#AEAEAE;" d="M108,24c10.313,5.69,30.616,6.712,34,16
			c-3.257-3.076-10.711-1.956-13-6c-1.553,1.447-4.666,1.334-6,3c-3.518-1.712,2.509-2.015,2-4c-4.323-0.876-11.482-6.133-20-6
			c0.19-0.81,1.003-0.997,1-2C106.81,24.81,106.997,23.997,108,24z"/>
		<path style="fill-rule:evenodd;clip-rule:evenodd;fill:#595756;" d="M108,43c6.016,1.664,18.984,1.664,25,0
			c1.163-0.162,1.779,0.221,2,1c-0.805,0.529-1.623,1.043-3,1c-3.808,0.859-6.626,2.708-12,2c-4,0-8,0-12,0
			c-6.365,0.365-10.222-1.778-17-1c-1.387-2.28-6.961-0.373-10-1c-1,0-2,0-3,0c-1.978-1.689-6.241-1.092-9-2
			c-5.374,0.708-8.193-1.141-12-2c-0.333,0-0.667,0-1,0c-2.45-1.55-6.508-1.491-10-2c-0.667,0-1.333,0-2,0
			c-2.169-1.498-5.629-1.705-9-2c-3.257-1.41-7.055-2.278-11-3c-2.269-2.064-6.623-2.044-9-4c-1.003,0.003-1.19-0.81-2-1
			c0.102-1.122-1.454-1.557,0-2c9.959,2.04,18.372,5.628,29,7c15.621,3.713,32.545,6.122,50,8c1.712,2.288,7.633,0.367,11,1
			c0.667,0,1.333,0,2,0c0.81-0.19,0.997-1.003,2-1C106.816,42.851,107.39,42.943,108,43z"/>
		<path style="fill-rule:evenodd;clip-rule:evenodd;fill:#9A7156;" d="M69,43c2.759,0.908,7.022,0.311,9,2
			c-1.721-0.054-2.563,0.77-3,2c-1.333,0-2.667,0-4,0c-0.027-0.973-1.224-0.776-2-1C69,45,69,44,69,43z"/>
		<path style="fill-rule:evenodd;clip-rule:evenodd;fill:#9A7156;" d="M15,30c2.377,1.956,6.731,1.936,9,4
			c-3.081-0.748-1.219,3.447-5,2c-1.419,0.086-2.832,0.165-3-1c-0.56-1.44-1.56-2.44-3-3c0.41-1.705,1.29,0.21,3,0
			C16.003,30.997,15.19,30.81,15,30z"/>
		<path style="fill-rule:evenodd;clip-rule:evenodd;fill:#BBBBBB;" d="M103,27c0.667,0,1.333,0,2,0c8.518-0.133,15.677,5.124,20,6
			c0.509,1.985-5.518,2.288-2,4c1.334-1.666,4.447-1.553,6-3c2.289,4.044,9.743,2.924,13,6c-1.643,2.024-3.344,3.989-7,4
			c-0.221-0.779-0.837-1.162-2-1c-3.333,0-6.667,0-10,0c-0.227-3.156-9.773-2.16-10-2c-0.901-1.764-0.08-2.254-4-1
			c0.443-0.891,0.878-1.788,2-2c-2.463,0.471-6.262-5.746-10-4c2.912-2.82-2.991-1.247-2-5c2.59,1.366,3.143,3.23,2-1
			C102.163,28.163,102.779,27.779,103,27z"/>
		<path style="fill-rule:evenodd;clip-rule:evenodd;fill:#C8C8C7;" d="M101,28c1.143,4.23,0.59,2.366-2,1
			c-0.991,3.753,4.912,2.18,2,5c3.738-1.746,7.537,4.471,10,4c-1.122,0.212-1.557,1.109-2,2c3.92-1.254,3.099-0.764,4,1
			c0.227-0.16,9.773-1.156,10,2c-5,0-10,0-15,0c-0.61-0.057-1.184-0.149-1-1c-0.764-2.903-4.739-2.594-4-7
			c-5.625,0.599-10.055-5.242-10-7C95.667,28,98.333,28,101,28z"/>
		<path style="fill-rule:evenodd;clip-rule:evenodd;fill:#BBBBBB;" d="M93,28c-0.055,1.758,4.375,7.599,10,7
			c-0.739,4.406,3.236,4.097,4,7c-1.003-0.003-1.19,0.81-2,1c-0.156-1.177,0.172-2.839-1-3c-2.108-2.259-6.607-7.348-9-6
			c-2.36-1.387-6.817-5.34-3-7c0.333,0,0.667,0,1,0C93,27.333,93,27.667,93,28z"/>
		<path style="fill-rule:evenodd;clip-rule:evenodd;fill:#AB8B70;" d="M12,29c0.333,0,0.667,0,1,0c0.81,0.19,0.997,1.003,2,1
			c0.19,0.81,1.003,0.997,1,2c-1.71,0.21-2.59-1.705-3,0c1.44,0.56,2.44,1.56,3,3C14.113,33.554,11.567,32.767,12,29z"/>
		<path style="fill-rule:evenodd;clip-rule:evenodd;fill:#9F9C9B;" d="M95,34c2.393-1.348,6.892,3.741,9,6
			C99.762,39.238,98.172,35.828,95,34z"/>
		<path style="fill-rule:evenodd;clip-rule:evenodd;fill:#AB8B70;" d="M57,41c3.807,0.859,6.626,2.708,12,2c0,1,0,2,0,3
			c-4.108,1.838,6.722,5.645,6,1c0.437-1.23,1.279-2.054,3-2c1,0,2,0,3,0c0,0.667,0,1.333,0,2c-2.398,4.459-12.613,5.23-17,2
			c8.439,0.29-2.314-1.393,3-3c-2.142-2.346-10.195-1.062-5,2C59.086,46.913,58.084,43.915,57,41z"/>
		<path style="fill-rule:evenodd;clip-rule:evenodd;fill:#BBBBBB;" d="M81,45c3.039,0.627,8.613-1.28,10,1
			c-3.396,0.271-8.107-0.774-10,1C81,46.333,81,45.667,81,45z"/>
		<path style="fill-rule:evenodd;clip-rule:evenodd;fill:#F1F0EE;" d="M77,3c-4.333,0-8.667,0-13,0C64.537,0.131,76.586-0.522,77,3z
			"/>
		<path style="fill-rule:evenodd;clip-rule:evenodd;fill:#7C7C7B;" d="M48,11c-0.163-1.163,0.221-1.779,1-2
			c2.242,0.424,3.188,2.146,5,3c-0.157,1.177,0.172,2.838-1,3c-0.667,0-1.333,0-2,0c-0.162-1.172-1.823-0.843-3-1C48,13,48,12,48,11
			z"/>
		<path style="fill-rule:evenodd;clip-rule:evenodd;fill:#C8C8C7;" d="M29,15c3.333,0,6.667,0,10,0c-4.018,2.315-12.32,0.347-18,1
			c0-0.333,0-0.667,0-1C23.667,15,26.333,15,29,15z"/>
		<path style="fill-rule:evenodd;clip-rule:evenodd;fill:#BBBBBB;" d="M71,15c1,0,2,0,3,0c0.667,0,1.333,0,2,0
			c1.003-0.003,1.19,0.81,2,1c1.189,3.363-3.025,5.632-7,3c0-0.333,0-0.667,0-1c-0.933-1.067-3.689-0.311-3-3C69,15,70,15,71,15z"/>
		<path style="fill-rule:evenodd;clip-rule:evenodd;fill:#AEAEAE;" d="M98,14c3.236,0.097,3.894,2.773,5,5c0,0.333,0,0.667,0,1
			c-2.767-0.169-3.434,1.536-2,3c-0.333,0-0.667,0-1,0c-2.18-2.091,0.5-2.854,0-6c-2.333,0-4.667,0-7,0
			c-0.169-2.168,3.547-0.453,5-1C98,15.333,98,14.667,98,14z"/>
		<path style="fill-rule:evenodd;clip-rule:evenodd;fill:#7C7C7B;" d="M70,23c9.64,2.027,21.021,2.312,33,2c1,0,2,0,3,0
			c0.003,1.003-0.81,1.19-1,2c-0.667,0-1.333,0-2,0c-3.333,0-6.667,0-10,0c-0.333,0-0.667,0-1,0c-7.607-1.059-16.249-1.085-23-3
			C69.851,24.184,69.943,23.61,70,23z"/>
		<path style="fill-rule:evenodd;clip-rule:evenodd;fill:#AB8B70;" d="M24,34c3.945,0.722,7.743,1.59,11,3c0,0.333,0,0.667,0,1
			c-6.27,0.604-10.577-0.757-16-1c0-0.333,0-0.667,0-1C22.781,37.447,20.919,33.252,24,34z"/>
		<path style="fill-rule:evenodd;clip-rule:evenodd;fill:#BBBBBB;" d="M35,37c3.371,0.295,6.831,0.502,9,2
			c-4.021,0.688-5.708-0.958-9-1C35,37.667,35,37.333,35,37z"/>
		<path style="fill-rule:evenodd;clip-rule:evenodd;fill:#7C7C7B;" d="M46,39c3.492,0.509,7.55,0.45,10,2
			C51.895,41.104,47.836,41.164,46,39z"/>
		<path style="fill-rule:evenodd;clip-rule:evenodd;fill:#9F9C9B;" d="M92,42c3.367,0.633,9.288-1.288,11,1
			C99.633,42.367,93.712,44.288,92,42z"/>
		<path style="fill-rule:evenodd;clip-rule:evenodd;fill:#7C7C7B;" d="M108,43c5,0,10,0,15,0c3.333,0,6.667,0,10,0
			C126.984,44.664,114.016,44.664,108,43z"/>
		<path style="fill-rule:evenodd;clip-rule:evenodd;fill:#AEAEAE;" d="M69,46c0.776,0.224,1.973,0.027,2,1c1.333,0,2.667,0,4,0
			C75.722,51.645,64.892,47.838,69,46z"/>
		<path style="fill-rule:evenodd;clip-rule:evenodd;fill:#9A7156;" d="M64,49c-1.163,0.162-1.779-0.221-2-1
			c-5.195-3.062,2.858-4.346,5-2C61.686,47.607,72.439,49.29,64,49z"/>
		<path style="fill-rule:evenodd;clip-rule:evenodd;fill:#AEAEAE;" d="M41,15c-0.428-2.762,3.728-0.938,4-3
			c1.615,0.282,1.722-0.945,3-1c0,1,0,2,0,3c1.177,0.157,2.838-0.172,3,1c-1.758,0.575-5.875-1.208-6,1
			C43.207,16.127,42.891,14.776,41,15z"/>
		<path style="fill-rule:evenodd;clip-rule:evenodd;fill:#AB8B70;" d="M120,47c5.374,0.708,8.192-1.141,12-2
			c0.117,8.819-15.755,6.353-21,4C114.371,48.705,117.831,48.498,120,47z"/>
		<path style="fill-rule:evenodd;clip-rule:evenodd;fill:#9A7156;" d="M108,47c4,0,8,0,12,0c-2.169,1.498-5.629,1.705-9,2
			C110.193,48.14,108.261,48.406,108,47z"/>
		<path style="fill-rule:evenodd;clip-rule:evenodd;fill:#595756;" d="M41,18c-0.055-1.278-1.282-1.385-1-3c0.333,0,0.667,0,1,0
			c1.891-0.224,2.207,1.127,4,1c0.92,1.747,3.126,2.207,6,2c5.236,2.764,12.295,3.705,19,5c-0.057,0.61-0.149,1.184-1,1
			c-4.736,0.403-6.882-1.785-12-1C52.492,20.508,46.354,19.646,41,18z"/>
	</g>
</g>
</svg>
