<?xml version="1.0" encoding="iso-8859-1"?>
<!-- Generator: Adobe Illustrator 13.0.2, SVG Export Plug-In . SVG Version: 6.00 Build 14948)  -->
<!DOCTYPE svg PUBLIC "-//W3C//DTD SVG 1.1//EN" "http://www.w3.org/Graphics/SVG/1.1/DTD/svg11.dtd">
<svg version="1.1" id="Layer_1" xmlns="http://www.w3.org/2000/svg" xmlns:xlink="http://www.w3.org/1999/xlink" x="0px" y="0px"
	 width="144px" height="52px" viewBox="0 0 144 52" style="enable-background:new 0 0 144 52;" xml:space="preserve">
<g>
	<g>
		<path style="fill-rule:evenodd;clip-rule:evenodd;fill:#B9ACA6;" d="M57,8c1,0,2,0,3,0c0.566,4.646,7.497,0.747,12,4
			c-2.333,0-4.667,0-7,0c-0.333,0-0.667,0-1,0c-3.592-0.075-8.143,0.81-9-2C55.012,8.678,56.752,9.086,57,8z"/>
		<path style="fill-rule:evenodd;clip-rule:evenodd;fill:#EDED42;" d="M79,11c0.147-2.186,2.52-2.147,5-2c4.033,0.3,8.299,0.368,9,4
			c-4.9,0.234-7.571-1.762-13-1C79.943,11.39,79.851,10.816,79,11z"/>
		<path style="fill-rule:evenodd;clip-rule:evenodd;fill:#525252;" d="M56,24c0.101-3.101-1.223-4.777-2-7c0.667,0,1.333,0,2,0
			c1.89,1.776,0.006,7.327,4,7c0.558,2.442,3.869,2.131,3,6C59.443,29.224,59.229,25.104,56,24z"/>
		<path style="fill-rule:evenodd;clip-rule:evenodd;fill:#CAC9C9;" d="M118,32c-2.743,0.854-21.043-0.662-14-3
			c3.78,1.554,8.716,1.95,14,2C118,31.333,118,31.667,118,32z"/>
		<path style="fill-rule:evenodd;clip-rule:evenodd;fill:#9C6E61;" d="M93,32c5.092-2.059,5.589,1.961,11,2
			c-2.07,3.162-5.162-0.492-6,3c-0.667,0-1.333,0-2,0c-0.997-1.336-2.703-1.964-3-4C93,32.667,93,32.333,93,32z"/>
		<path style="fill-rule:evenodd;clip-rule:evenodd;fill:#525252;" d="M28,34c-1.685,3.336,0.635,3.414,1,7
			c-1.987-0.013-1.271-2.729-4-2C24.803,36.137,24.875,33.542,28,34z"/>
		<path style="fill-rule:evenodd;clip-rule:evenodd;fill:#525252;" d="M117,41c0.096-1.571-0.134-3.467,2-3
			c0.225-1.891-1.127-2.206-1-4c5.702,0.254,1.581,5.472,0,7C117.667,41,117.333,41,117,41z"/>
		<path style="fill-rule:evenodd;clip-rule:evenodd;fill:#525252;" d="M44,39C39.159,43.229,30.524,37.248,44,39L44,39z"/>
		<path style="fill-rule:evenodd;clip-rule:evenodd;fill:#525252;" d="M63,46c0.125-2.209,4.242-0.425,6-1c3,0,6,0,9,0
			c2.333,0,4.667,0,7,0c0.776,0.224,1.973,0.027,2,1C79,46,71,46,63,46z"/>
		<path style="fill-rule:evenodd;clip-rule:evenodd;fill:#CAC9C9;" d="M87,47c-6.348,1.664-19.652,1.664-26,0
			C69.667,47,78.333,47,87,47z"/>
		<path style="fill-rule:evenodd;clip-rule:evenodd;fill:#FFFFFF;" d="M28,45c-0.134,4.467,3.946,4.721,8,5
			c3.842,3.124,9.515-0.447,13-1c2.44-2.227,7.14-2.193,12-2c6.348,1.664,19.652,1.664,26,0c3.396,0.271,8.107-0.774,10,1
			c0.667,0,1.333,0,2,0c0.15,1.85,3.386,0.613,4,2c1.078,1.655,8.922,1.655,10,0c2.859-1.808,7.6-1.734,7-7
			c2.557-2.11,7.771-1.562,10-4c2.487,0.154,3.096-1.571,5-2c2.925-1.741,6.38-2.954,8-6c0.333,0,0.667,0,1,0c0,7,0,14,0,21
			c-48,0-96,0-144,0C0,34.667,0,17.333,0,0c48,0,96,0,144,0c0,9.667,0,19.333,0,29c-1.912-1.422-2.868-3.799-6-4
			c-2.706-1.96-6.636-2.698-11-3c-4.73-3.604-12.78-3.886-21-4c0.031-3.032-5.031-0.968-5-4c-0.188-2.813-1.739-4.26-5-4
			c-0.981-1.352-2.668-1.999-4-3c-3.935-1.398-7.909-2.758-12-4c-1.752-3-12.249-3-14,0c-1.78,0.553-4.153,0.514-5,2
			c-4.146-1.146-3.896,2.104-7,2c-0.375,2.292-4,1.333-5,3c-2.182-0.182-3.182,0.818-3,3c-10.126,9.54-35.495,3.838-43,16
			c0.949,6.718,7.801,7.533,13,10c2.875,2.459,7.734,2.933,12,4C28,43.667,28,44.333,28,45z"/>
		<path style="fill-rule:evenodd;clip-rule:evenodd;fill:#9C6E61;" d="M66,3c1.333,0,2.667,0,4,0c-0.294,2.039-2.706,1.961-3,4
			c-2,0-4,0-6,0c0.615-0.89,1.208-1.789,0-2C61.847,3.514,64.22,3.553,66,3z"/>
		<path style="fill-rule:evenodd;clip-rule:evenodd;fill:#A7916B;" d="M75,3c0.333,0,0.667,0,1,0c0.529,0.804,1.043,1.624,1,3
			c-1.794-0.127-2.109,1.224-4,1c-3.736-0.09-2.85-1.121-6,0c0.294-2.039,2.706-1.961,3-4c0.333,0,0.667,0,1,0c0,1,0,2,0,3
			c1.333,0,2.667,0,4,0C75,5,75,4,75,3z"/>
		<path style="fill-rule:evenodd;clip-rule:evenodd;fill:#9C6E61;" d="M76,3c1.333,0,2.667,0,4,0c4.091,1.242,8.065,2.602,12,4
			c-2.441,2.698-6.52-1.423-11,0c-2.09,0.423-2.647-0.686-4-1C77.043,4.624,76.529,3.804,76,3z"/>
		<path style="fill-rule:evenodd;clip-rule:evenodd;fill:#7A665F;" d="M54,7c3.104,0.104,2.854-3.146,7-2
			c1.208,0.211,0.615,1.11,0,2c-0.851-0.184-0.943,0.39-1,1c-1,0-2,0-3,0C55.581,8.086,54.168,8.165,54,7z"/>
		<path style="fill-rule:evenodd;clip-rule:evenodd;fill:#CAC9C9;" d="M81,7c4.48-1.423,8.559,2.698,11,0
			c1.332,1.001,3.019,1.648,4,3c-0.367,1.701,0.78,1.887,2,2c0.169,2.168-3.547,0.453-5,1c-0.701-3.632-4.967-3.7-9-4
			C83.773,7.56,81.016,8.651,81,7z"/>
		<path style="fill-rule:evenodd;clip-rule:evenodd;fill:#E3E5E4;" d="M73,7c1.891,0.224,2.206-1.127,4-1
			c1.353,0.314,1.91,1.423,4,1c0.016,1.651,2.773,0.56,3,2c-2.48-0.147-4.853-0.186-5,2c-2,0-4,0-6,0C73,9.667,73,8.333,73,7z"/>
		<path style="fill-rule:evenodd;clip-rule:evenodd;fill:#9C9896;" d="M54,7c0.168,1.165,1.581,1.086,3,1
			c-0.248,1.086-1.988,0.678-2,2c0.857,2.81,5.408,1.925,9,2c-2.696,2.304-9.645,0.355-14,1c0.863-1.753,3.725-3.474-1-3
			C50,8.333,53.625,9.292,54,7z"/>
		<path style="fill-rule:evenodd;clip-rule:evenodd;fill:#767676;" d="M46,13c-0.182-2.182,0.818-3.182,3-3
			c4.725-0.474,1.863,1.247,1,3c4.355-0.645,11.304,1.304,14-1c0.333,0,0.667,0,1,0c2.34,2.841-4.624,2.781-8,3
			c14.998,2.335,34.783-0.117,49,3c8.22,0.114,16.27,0.396,21,4c-0.155,2.822,2.827,2.506,4,4c-2.043,3.93-6.85,2.242-13,1
			c-0.178-3.511,3.378-3.289,4-6c-4.814-0.147-4.243,5.091-8,6c-1.333,0-2.667,0-4,0c0.31-1.357,2.504-0.829,4-1
			c-3.025-2.308-10.314-0.353-15-1c-0.745-2.255-5.609-0.391-8-1c-1.313-1.283-3.687-1.283-5,0c-0.745-2.255-5.609-0.391-8-1
			c-4,0-8,0-12,0c-0.745-2.191,2.745-4.642,2-1c1.274-0.226,1.311-2.985,0-3c0.92-2.726,3.126,1.397,6,0
			c-2.207-4.46-12.516-0.817-18-2c-0.667,0-1.333,0-2,0c-2.333,0-4.667,0-7,0c0-0.333,0-0.667,0-1c0.333,0,0.667,0,1,0
			c3.292-0.042,4.979-1.688,9-1c-1.064-2.27-6.286-0.381-9-1c-0.282-1.615,0.945-1.722,1-3c-0.667,0-1.333,0-2,0
			C47.163,12.163,46.779,12.779,46,13z"/>
		<path style="fill-rule:evenodd;clip-rule:evenodd;fill:#B9ACA6;" d="M96,10c3.261-0.26,4.812,1.187,5,4
			c-0.973-0.027-0.776-1.224-1-2c-1.172,0.162-0.844,1.823-1,3c-2.333-0.304-4.309-2.135-5,1c-0.761-0.686-3.173-4.214-3,0
			c-2.227-3.006-7.14-1.78-12-4c0.333,0,0.667,0,1,0c5.429-0.762,8.1,1.234,13,1c1.453-0.547,5.169,1.168,5-1
			C96.78,11.887,95.633,11.701,96,10z"/>
		<path style="fill-rule:evenodd;clip-rule:evenodd;fill:#9C9896;" d="M79,12c4.86,2.22,9.773,0.994,12,4
			c-0.173-4.214,2.239-0.686,3,0c0.691-3.135,2.667-1.304,5-1c0.156-1.177-0.172-2.838,1-3c0.224,0.776,0.027,1.973,1,2
			c-0.031,3.032,5.031,0.968,5,4c-14.217-3.117-34.002-0.665-49-3c3.376-0.219,10.34-0.159,8-3c2.333,0,4.667,0,7,0
			C74.333,12,76.667,12,79,12z"/>
		<path style="fill-rule:evenodd;clip-rule:evenodd;fill:#525252;" d="M48,14c0,0.667,0,1.333,0,2c-0.333,0-0.667,0-1,0
			s-0.667,0-1,0c-2.831,1.534-1.934,6.067,0,9c-3.042,0.958-10.142-2.142-10,2c-2.333,0-4.667,0-7,0c-4.797,2.185-12.446,2.279-17,7
			c-0.506,2.825,9.804,3.285,4,5c-5.199-2.467-12.051-3.282-13-10c7.505-12.162,32.874-6.46,43-16c0.779-0.221,1.163-0.837,1-2
			c0.667,0,1.333,0,2,0C48.945,12.278,47.718,12.385,48,14z"/>
		<path style="fill-rule:evenodd;clip-rule:evenodd;fill:#616161;" d="M114,27c3.757-0.909,3.186-6.147,8-6
			c-0.622,2.711-4.178,2.489-4,6c6.15,1.242,10.957,2.93,13-1c-1.173-1.494-4.155-1.178-4-4c4.364,0.302,8.294,1.04,11,3
			c-3.874,0.939,2.963,7.063,5,6c-1.62,3.046-5.075,4.259-8,6c0.282-1.615-0.945-1.722-1-3c-0.935,1.682-4.074,3.124-2,0
			c-3.268,0.727,0.248,4.693-4,2c-0.551,2.217,1.909,1.424,2,3c-2.229,2.438-7.443,1.89-10,4c-0.81-0.19-0.997-1.003-2-1
			c0-0.333,0-0.667,0-1c1.581-1.528,5.702-6.746,0-7c-0.333,0-0.667,0-1,0c0.19-0.81,1.003-0.997,1-2
			C121.91,28.983,115.349,28.063,114,27z"/>
		<path style="fill-rule:evenodd;clip-rule:evenodd;fill:#5F5F5F;" d="M36,27c-0.142-4.142,6.958-1.042,10-2
			c-1.934-2.933-2.831-7.466,0-9c-0.274,2.654,2.434,9.956,10,8c3.229,1.104,3.443,5.224,7,6c0.869-3.869-2.442-3.558-3-6
			c1.163,0.163,1.779-0.221,2-1c2.715-0.715-0.715,4.716,2,4c3.331-0.314-3.011-4.74,2-4c4,0,8,0,12,0c0,0.333,0,0.667,0,1
			c-0.304,2.333-2.135,4.309,1,5c-3.587-0.639-1.228,2.69-5,5c1.5,2.146,2.445-0.716,5,1c-3.715,1.603,2.696,5.309-4,6
			c2.492-3.526,1.09-2.849-3-4c-2.259,0.56,1.213,1.56-1,3c-1.377-1.001,0.427-1.648-2-3c-2.156,1.489,1.094,2.823-2,4
			c-1.322-4.453-4.414-1.499-6-3c1.166,1.104,4.26-3.812-2-3c-1.444,1.223-1.517,3.816-3,5c-0.933-1.067-3.689-0.312-3-3
			c-1.017,0.649-1.034,2.299-3,2c1.614,2.924,3.167,0.394,5,2c2.544-0.122,3.878-1.455,4-4c1.137,1.425,0.275,5.425,0,7
			c2.775-0.545,2.829-3.242,5,0c0.973-0.027,0.776-1.224,1-2c1.912,0.421,4.304,0.362,4,3c-1.758,0.575-5.875-1.209-6,1
			c-3.333,0-6.667,0-10,0c0.582-3.582-2.959-3.04-6-3c-0.431-2.236-4.928-0.405-7-1c-4.711-0.564-8.332-1.374-12,1
			c-4.266-1.067-9.125-1.541-12-4c5.804-1.715-4.506-2.175-4-5c4.554-4.721,12.203-4.815,17-7c0,0.333,0,0.667,0,1
			c-0.851-0.184-0.943,0.39-1,1c-4.641,1.821,1.041,5.686,3,7c3.368,1.633,10.817,3.388,15,1c0.256,2.635,2.06,3.282-2,3
			c1.813,4.084,8.65-3.715,4-3c1.497-1.837,4.173-2.493,5-5c-0.87-1.464-1.497-3.17-4-3c-1.105-2.561-5.37-1.964-9-2
			C38.667,27,37.333,27,36,27z M64,36c1.427,0.239,1.687,1.646,3,2C68.772,30.237,68.074,31.925,64,36z M44,39
			C30.524,37.248,39.159,43.229,44,39L44,39z M25,39c2.729-0.729,2.013,1.987,4,2c-0.365-3.586-2.685-3.664-1-7
			C24.875,33.542,24.803,36.137,25,39z"/>
		<path style="fill-rule:evenodd;clip-rule:evenodd;fill:#616161;" d="M46,16c0.333,0,0.667,0,1,0c0,0.333,0,0.667,0,1
			c2.333,0,4.667,0,7,0c0.777,2.223,2.101,3.899,2,7C48.434,25.956,45.726,18.654,46,16z"/>
		<path style="fill-rule:evenodd;clip-rule:evenodd;fill:#5F5F5F;" d="M143,31c-2.037,1.063-8.874-5.061-5-6
			c3.132,0.201,4.088,2.578,6,4c0,0.667,0,1.333,0,2C143.667,31,143.333,31,143,31z"/>
		<path style="fill-rule:evenodd;clip-rule:evenodd;fill:#5F5F5F;" d="M130,39c-0.091-1.576-2.551-0.783-2-3
			c4.248,2.693,0.732-1.273,4-2c-2.074,3.124,1.065,1.682,2,0c0.055,1.278,1.282,1.385,1,3C133.096,37.429,132.487,39.154,130,39z"
			/>
		<path style="fill-rule:evenodd;clip-rule:evenodd;fill:#606060;" d="M78,23c2.391,0.609,7.255-1.255,8,1c-0.667,0-1.333,0-2,0
			c-1.889,0.111-0.694,3.306-3,3c0-1,0-2,0-3c-2.059,1.983-0.941,1.983-3,0C78,23.667,78,23.333,78,23z"/>
		<path style="fill-rule:evenodd;clip-rule:evenodd;fill:#5F5F5F;" d="M81,27c2.306,0.306,1.111-2.889,3-3c0.667,0,1.333,0,2,0
			c1.313-1.283,3.687-1.283,5,0c-0.431,2.236-4.929,0.405-7,1c3.48,2.744,4.371,5.455,5,9c-3.347,2.033-1.492-3.646-3-6
			C85.316,28.772,80.043,30.604,81,27z"/>
		<path style="fill-rule:evenodd;clip-rule:evenodd;fill:#665D5A;" d="M92,33c0.167-2.833,1.833-4.167,2-7
			c4.963,1.935,1.747-0.385,5-1c4.686,0.647,11.975-1.308,15,1c-1.496,0.171-3.69-0.357-4,1c-1.333,0-2.667,0-4,0
			c-5.763,0.237-10.754,1.246-13,5c0,0.333,0,0.667,0,1C92.667,33,92.333,33,92,33z"/>
		<path style="fill-rule:evenodd;clip-rule:evenodd;fill:#616161;" d="M91,24c2.391,0.609,7.255-1.255,8,1
			c-3.253,0.615-0.037,2.935-5,1c-0.167,2.833-1.833,4.167-2,7c0,0.667,0,1.333,0,2c-8.327,2.696-8.599,3.764-17,8
			c-0.296,2.675,3.88-2.658,3,2c-3,0-6,0-9,0c0.304-2.638-2.088-2.579-4-3c-0.224,0.776-0.027,1.973-1,2
			c-2.171-3.242-2.225-0.545-5,0c0.275-1.575,1.137-5.575,0-7c-0.122,2.545-1.456,3.878-4,4c-1.833-1.606-3.386,0.924-5-2
			c1.966,0.299,1.983-1.351,3-2c-0.689,2.688,2.067,1.933,3,3c1.483-1.184,1.556-3.777,3-5c6.26-0.812,3.166,4.104,2,3
			c1.586,1.501,4.678-1.453,6,3c3.094-1.177-0.156-2.511,2-4c2.427,1.352,0.623,1.999,2,3c2.213-1.44-1.259-2.44,1-3
			c4.09,1.151,5.492,0.474,3,4c6.696-0.691,0.285-4.397,4-6c-2.555-1.716-3.5,1.146-5-1c3.772-2.31,1.413-5.639,5-5
			c-3.135-0.691-1.304-2.667-1-5c2.059,1.983,0.941,1.983,3,0c0,1,0,2,0,3c-0.957,3.604,4.316,1.772,5,1
			c1.508,2.354-0.347,8.033,3,6c-0.629-3.545-1.52-6.256-5-9C86.071,24.405,90.569,26.236,91,24z"/>
		<path style="fill-rule:evenodd;clip-rule:evenodd;fill:#B9ACA6;" d="M28,29c0.057-0.61,0.149-1.184,1-1
			c3.431,2.117,14.457,6.583,17,3c0.81,0.19,0.997,1.003,2,1c-2.412,7.153-13.545-0.452-18-1C29.11,30.557,28.211,30.122,28,29z"/>
		<path style="fill-rule:evenodd;clip-rule:evenodd;fill:#B9ACA6;" d="M117,34c-7.326,0.659-12.685-0.649-18-2
			c0.036-3.298,2.844-3.823,6-4c0.184,0.851-0.39,0.943-1,1c-7.043,2.338,11.257,3.854,14,3C118.003,33.003,117.19,33.19,117,34z"/>
		<path style="fill-rule:evenodd;clip-rule:evenodd;fill:#A7916B;" d="M93,32c2.246-3.754,7.237-4.763,13-5
			c0.184,0.851-0.39,0.943-1,1c-3.156,0.177-5.964,0.702-6,4c5.315,1.351,10.674,2.659,18,2c-1.505,2.828-5.183,3.484-9,4
			c-3.396-0.271-8.107,0.774-10-1c0.838-3.492,3.93,0.162,6-3C98.589,33.961,98.092,29.941,93,32z"/>
		<path style="fill-rule:evenodd;clip-rule:evenodd;fill:#9C6E61;" d="M31,36c-1.959-1.314-7.641-5.179-3-7
			c0.211,1.122,1.11,1.557,2,2c0.658,1.342,2.138,1.862,4,2c-0.279,2.318-2.671,2.299-4,1C30.19,34.81,31.003,34.997,31,36z"/>
		<path style="fill-rule:evenodd;clip-rule:evenodd;fill:#A7916B;" d="M31,36c0.003-1.003-0.81-1.19-1-2
			c1.329,1.299,3.721,1.318,4-1c-1.862-0.138-3.342-0.658-4-2c4.455,0.548,15.588,8.153,18,1c-1.003,0.003-1.19-0.81-2-1
			c0-0.333,0-0.667,0-1c0.162-1.172,1.823-0.844,3-1c2.503-0.17,3.13,1.536,4,3c-0.827,2.507-3.503,3.163-5,5c-0.667,0-1.333,0-2,0
			C41.817,39.388,34.368,37.633,31,36z"/>
		<path style="fill-rule:evenodd;clip-rule:evenodd;fill:#5F5F5F;" d="M96,37c-1.162,0.163-1.779-0.221-2-1
			c-3.027,0.306-3.572,3.094-8,2c2.302,0.364,0.956,4.378,4,4c-0.111,3.542-3.306-2.125-3,1c-1.172-0.161-0.844-1.823-1-3
			c-1.313,1.02-3.687,0.98-5,2c0.19,0.81,1.003,0.997,1,2c0.891-0.443,1.788-0.878,2-2c1.567,0.354-0.875,1.761,1,2
			c0,0.333,0,0.667,0,1c-2.333,0-4.667,0-7,0c0.88-4.658-3.296,0.675-3-2c8.401-4.236,8.673-5.304,17-8c0-0.667,0-1.333,0-2
			c0.333,0,0.667,0,1,0C93.297,35.036,95.003,35.664,96,37z"/>
		<path style="fill-rule:evenodd;clip-rule:evenodd;fill:#525252;" d="M48,37c4.65-0.715-2.187,7.084-4,3
			c4.06,0.282,2.256-0.365,2-3C46.667,37,47.333,37,48,37z"/>
		<path style="fill-rule:evenodd;clip-rule:evenodd;fill:#665D5A;" d="M118,34c-0.127,1.794,1.225,2.109,1,4
			c-2.134-0.467-1.904,1.429-2,3c-2.667,0-5.333,0-8,0c0.282-1.615-0.945-1.722-1-3c3.817-0.516,7.495-1.172,9-4
			C117.333,34,117.667,34,118,34z"/>
		<path style="fill-rule:evenodd;clip-rule:evenodd;fill:#616161;" d="M85,45c0-0.333,0-0.667,0-1c-1.875-0.239,0.567-1.646-1-2
			c-0.212,1.122-1.109,1.557-2,2c0.003-1.003-0.81-1.19-1-2c1.313-1.02,3.687-0.98,5-2c0.156,1.177-0.172,2.839,1,3
			c-0.306-3.125,2.889,2.542,3-1c-3.044,0.378-1.698-3.636-4-4c4.428,1.094,4.973-1.694,8-2c0.221,0.779,0.838,1.163,2,1
			c0.667,0,1.333,0,2,0c1.893,1.774,6.604,0.729,10,1c0.055,1.278,1.282,1.385,1,3c-4.424,2.242-14.594-1.26-15,5
			c-2.333,0-4.667,0-7,0C86.973,45.027,85.776,45.224,85,45z"/>
		<path style="fill-rule:evenodd;clip-rule:evenodd;fill:#767676;" d="M49,49c0.87-1.464,1.497-3.17,4-3c3.333,0,6.667,0,10,0
			c8,0,16,0,24,0c2.333,0,4.667,0,7,0c1.71-0.044,2.59,0.743,3,2c-1.893-1.774-6.604-0.729-10-1c-8.667,0-17.333,0-26,0
			C56.14,46.807,51.44,46.773,49,49z"/>
		<path style="fill-rule:evenodd;clip-rule:evenodd;fill:#E3E5E4;" d="M66,3c1.751-3,12.248-3,14,0c-1.333,0-2.667,0-4,0
			c-0.333,0-0.667,0-1,0c-1.479-1.158-2.521-1.158-4,0c-0.333,0-0.667,0-1,0C68.667,3,67.333,3,66,3z"/>
		<path style="fill-rule:evenodd;clip-rule:evenodd;fill:#616161;" d="M48,14c2.714,0.619,7.936-1.27,9,1
			c-4.021-0.688-5.708,0.958-9,1C48,15.333,48,14.667,48,14z"/>
		<path style="fill-rule:evenodd;clip-rule:evenodd;fill:#616161;" d="M66,23c-5.011-0.74,1.331,3.686-2,4
			c-2.715,0.716,0.715-4.715-2-4c-0.221,0.779-0.837,1.163-2,1c-3.994,0.327-2.11-5.224-4-7c5.484,1.183,15.793-2.46,18,2
			c-2.874,1.397-5.08-2.726-6,0c1.311,0.015,1.274,2.774,0,3C68.745,18.358,65.255,20.809,66,23z"/>
		<path style="fill-rule:evenodd;clip-rule:evenodd;fill:#CAC9C9;" d="M36,27c1.333,0,2.667,0,4,0c0,0.333,0,0.667,0,1
			c-2.667,0-5.333,0-8,0c2.545,2.121,7.656,1.677,11,3c1.454-0.443-0.102-0.878,0-2c1.615-0.282,1.722,0.945,3,1
			c0,0.333,0,0.667,0,1c-2.543,3.583-13.569-0.883-17-3c0-0.333,0-0.667,0-1C31.333,27,33.667,27,36,27z"/>
		<path style="fill-rule:evenodd;clip-rule:evenodd;fill:#E3E5E4;" d="M40,28c1.615-0.282,1.722,0.945,3,1
			c-0.102,1.122,1.454,1.557,0,2c-3.344-1.323-8.455-0.879-11-3C34.667,28,37.333,28,40,28z"/>
		<path style="fill-rule:evenodd;clip-rule:evenodd;fill:#E3E5E4;" d="M114,27c1.349,1.063,7.91,1.983,4,5c0-0.333,0-0.667,0-1
			c-5.284-0.05-10.22-0.446-14-2c0.61-0.057,1.184-0.149,1-1c0.61-0.057,1.184-0.149,1-1c1.333,0,2.667,0,4,0S112.667,27,114,27z"/>
		<path style="fill-rule:evenodd;clip-rule:evenodd;fill:#616161;" d="M67,38c-1.313-0.354-1.573-1.761-3-2
			C68.074,31.925,68.772,30.237,67,38z"/>
		<path style="fill-rule:evenodd;clip-rule:evenodd;fill:#9C6E61;" d="M94,46c0.406-6.26,10.576-2.758,15-5c2.667,0,5.333,0,8,0
			c0.333,0,0.667,0,1,0c0,0.333,0,0.667,0,1c-6.043,0.49-13.791,2.06-19,6c-0.667,0-1.333,0-2,0C96.59,46.743,95.71,45.956,94,46z"
			/>
		<path style="fill-rule:evenodd;clip-rule:evenodd;fill:#A7916B;" d="M120,43c0.6,5.266-4.141,5.192-7,7c-3.333,0-6.667,0-10,0
			c-0.614-1.387-3.85-0.15-4-2c5.209-3.94,12.957-5.51,19-6C119.003,41.997,119.19,42.81,120,43z"/>
		<path style="fill-rule:evenodd;clip-rule:evenodd;fill:#9C6E61;" d="M36,50c-4.054-0.279-8.134-0.533-8-5
			c2.795-2.205,8.956-1.044,12-3c2.072,0.595,6.569-1.236,7,1C43.52,45.13,34.46,46.08,36,50z"/>
		<path style="fill-rule:evenodd;clip-rule:evenodd;fill:#A7916B;" d="M49,49c-3.485,0.553-9.158,4.124-13,1
			c-1.54-3.92,7.52-4.87,11-7c3.041-0.04,6.582-0.582,6,3C50.497,45.83,49.87,47.536,49,49z"/>
		<path style="fill-rule:evenodd;clip-rule:evenodd;fill:#B9ACA6;" d="M103,50c3.333,0,6.667,0,10,0
			C111.922,51.655,104.078,51.655,103,50z"/>
		<path style="fill-rule:evenodd;clip-rule:evenodd;fill:#CAC9C9;" d="M67,7c3.15-1.121,2.264-0.09,6,0c0,1.333,0,2.667,0,4
			c2,0,4,0,6,0c0.851-0.184,0.943,0.39,1,1c-0.333,0-0.667,0-1,0c-2.333,0-4.667,0-7,0c-4.503-3.253-11.434,0.646-12-4
			c0.057-0.61,0.149-1.184,1-1C63,7,65,7,67,7z"/>
		<path style="fill-rule:evenodd;clip-rule:evenodd;fill:#9C6E61;" d="M71,3c1.479-1.158,2.521-1.158,4,0c0,1,0,2,0,3
			c-1.333,0-2.667,0-4,0C71,5,71,4,71,3z"/>
		<path style="fill-rule:evenodd;clip-rule:evenodd;fill:#9C6E61;" d="M40,27c3.63,0.036,7.895-0.561,9,2
			c-1.177,0.156-2.838-0.172-3,1c-1.278-0.055-1.385-1.282-3-1c-1.278-0.055-1.385-1.282-3-1C40,27.667,40,27.333,40,27z"/>
		<path style="fill-rule:evenodd;clip-rule:evenodd;fill:#A7916B;" d="M28,43c3.668-2.374,7.289-1.564,12-1
			c-3.044,1.956-9.205,0.795-12,3C28,44.333,28,43.667,28,43z"/>
	</g>
</g>
</svg>
