<?xml version="1.0" encoding="iso-8859-1"?>
<!-- Generator: Adobe Illustrator 13.0.2, SVG Export Plug-In . SVG Version: 6.00 Build 14948)  -->
<!DOCTYPE svg PUBLIC "-//W3C//DTD SVG 1.1//EN" "http://www.w3.org/Graphics/SVG/1.1/DTD/svg11.dtd">
<svg version="1.1" id="Layer_1" xmlns="http://www.w3.org/2000/svg" xmlns:xlink="http://www.w3.org/1999/xlink" x="0px" y="0px"
	 width="144px" height="52px" viewBox="0 0 144 52" style="enable-background:new 0 0 144 52;" xml:space="preserve">
<g>
	<g>
		<path style="fill-rule:evenodd;clip-rule:evenodd;fill:#FFFFFF;" d="M74,8c1.667,0,3.333,0,5,0c1.026,3.36-3.11,1.557-5,2
			C74,9.333,74,8.667,74,8z"/>
		<path style="fill-rule:evenodd;clip-rule:evenodd;fill:#525252;" d="M72,23c0-1,0-2,0-3c1.651,0.015,0.56,2.774,2,3
			c0,0.333,0,0.667,0,1c0.485,1.182,1.066,2.267,2,3c-2.215,2.323-0.883,2.677-2,5C71.718,28.379,72.935,27.204,72,23z"/>
		<path style="fill-rule:evenodd;clip-rule:evenodd;fill:#6D6D6D;" d="M112,25c0-0.333,0-0.667,0-1c3.039,0.627,8.613-1.28,10,1
			C118.667,25,115.333,25,112,25z"/>
		<path style="fill-rule:evenodd;clip-rule:evenodd;fill:#5F5F5F;" d="M88,25c2.862,2.013,0.962,7.902,1,11
			C86.313,32.429,87.962,29.704,88,25z"/>
		<path style="fill-rule:evenodd;clip-rule:evenodd;fill:#5F5F5F;" d="M78,38c-2.039-1.745-1.961,0.745-4-1
			c0.43-1.57,3.146-0.854,2-4c2.078,0.56,2.119,1.56,1,3c1.615,0.282,1.722-0.945,3-1C80.551,37.217,78.091,36.424,78,38z"/>
		<path style="fill-rule:evenodd;clip-rule:evenodd;fill:#5F5F5F;" d="M92,38c-1.164-1.23,3.428-5.189,8-4
			c-1.425,2.241-5.425,1.909-7,4C92.667,38,92.333,38,92,38z"/>
		<path style="fill-rule:evenodd;clip-rule:evenodd;fill:#AC9867;" d="M109,34c4.529,0.021,6.331,2.078,10,0c1.667,0,3.333,0,5,0
			c0.428,2.762-3.729,0.938-4,3c-3.22-0.22-4.231,1.769-8,1c-1.667,0-3.333,0-5,0c-0.221-0.779-0.838-1.162-2-1
			c-0.169-2.169,3.547-0.453,5-1C110.003,34.997,109.19,34.81,109,34z"/>
		<path style="fill-rule:evenodd;clip-rule:evenodd;fill:#5F5F5F;" d="M82,37c0.333,0,0.667,0,1,0c1.544,0.143,6.856,3.698,2,4
			c-0.111-3.542-3.306,2.125-3-1c-0.41-1.705-1.29,0.21-3,0C78.312,37.312,81.067,38.067,82,37z"/>
		<path style="fill-rule:evenodd;clip-rule:evenodd;fill:#AC9867;" d="M20,43c3.141-0.686,4.086,0.115,5-1
			c5.716,1.627-4.8,1.881-4,5C19.643,46.69,20.17,44.496,20,43z"/>
		<path style="fill-rule:evenodd;clip-rule:evenodd;fill:#5F5F5F;" d="M61,46c1.32-2.503-3.954-3.131-1-4
			c1.743,0.924,5.367-0.034,5,3c-1.419-0.086-2.832-0.165-3,1C61.667,46,61.333,46,61,46z"/>
		<path style="fill-rule:evenodd;clip-rule:evenodd;fill:#525252;" d="M62,46c0.168-1.165,1.581-1.086,3-1c0.667,0,1.333,0,2,0
			c2.072,0.595,6.569-1.236,7,1C70,46,66,46,62,46z"/>
		<path style="fill-rule:evenodd;clip-rule:evenodd;fill:#CAC8C7;" d="M63,48c-3.367-0.633-9.289,1.288-11-1c3.667,0,7.333,0,11,0
			C63,47.333,63,47.667,63,48z"/>
		<path style="fill-rule:evenodd;clip-rule:evenodd;fill:#FFFFFF;" d="M144,52c-48,0-96,0-144,0C0,34.667,0,17.333,0,0
			c48,0,96,0,144,0C144,17.333,144,34.667,144,52z M137,32c3.874,0.12,9.532-7.922,3-9c-0.92-1.747-3.126-2.207-6-2
			c0.45-2.784-5.45,0.784-5-2c-4.968-1.699-11.245-2.088-18-2c-3.436-1.231-7.233-2.1-11-3c0.043-1.376-0.471-2.196-1-3
			c-1.779-3.554-7.664-3.002-10-6c-4.589,0.923-4.831-2.502-9-2c-1.592-3.715-12.062-2.248-14,0c-4.329,2.005-10.596,2.071-13,6
			c-0.614,1.386-3.85,0.15-4,2c-1,0-2,0-3,0c-1.388,1.279-0.612,4.721-2,6c-1.862,0.138-3.342,0.658-4,2
			C26.918,23.585,7.834,22.167,2,34c2.188,3.146,6.265,4.402,10,6c1.302,2.364,5.405,1.928,8,3c0.17,1.496-0.357,3.69,1,4
			c-0.652,3.985,3.802,2.864,7,3c4.896,1.406,12.284-1.129,17-3c2.333,0,4.667,0,7,0c1.711,2.288,7.633,0.367,11,1
			c7.178-0.155,15.451,0.785,20-2c1,0,2,0,3,0c2.903,0.764,2.594,4.739,7,4c1.078,1.655,8.922,1.655,10,0
			c0.847-1.486,3.22-1.447,5-2c3.798,0.131,2.074-5.259,5-6c0.61-0.057,1.184-0.149,1-1c4.072-0.594,8.877-0.456,11-3
			c4.51,0.843,4.993-2.34,8-3c0-0.333,0-0.667,0-1C134.862,33.862,136.342,33.342,137,32z"/>
		<path style="fill-rule:evenodd;clip-rule:evenodd;fill:#7C675A;" d="M66,3c2,0,4,0,6,0c0.045,5.173-6.821-2.365-6,4
			c-1.419-0.086-2.832-0.165-3,1c-1.758,0.575-5.875-1.208-6,1c-2.279-1.373-3.759,2.578-4,0C55.404,5.071,61.671,5.005,66,3z"/>
		<path style="fill-rule:evenodd;clip-rule:evenodd;fill:#9C7062;" d="M66,7c-0.821-6.365,6.045,1.173,6-4
			c1.617-1.633,4.183,0.893,8,0c4.169-0.502,4.411,2.923,9,2c3.191,3.485-5.184,1.466-8,2c-1.115-2.009-7.734-1.147-9,0
			c-0.333,0-0.667,0-1,0C69.333,7,67.667,7,66,7z"/>
		<path style="fill-rule:evenodd;clip-rule:evenodd;fill:#E0E4E4;" d="M72,7c1.266-1.147,7.885-2.009,9,0
			c1.158,1.479,1.158,2.521,0,4c-1.496,0.17-3.69-0.357-4,1c-1.333,0-2.667,0-4,0C72.161,10.839,71.681,9.319,72,7z M74,10
			c1.89-0.443,6.026,1.36,5-2c-1.667,0-3.333,0-5,0C74,8.667,74,9.333,74,10z"/>
		<path style="fill-rule:evenodd;clip-rule:evenodd;fill:#CAC8C7;" d="M81,7c2.816-0.534,11.191,1.485,8-2
			c2.336,2.998,8.221,2.446,10,6c-1.479-0.521-2.521-1.479-4-2c-2.378,0.294,1.111,2.706,2,3c-3.185,1.052-13.468-0.917-16-1
			C82.158,9.521,82.158,8.479,81,7z"/>
		<path style="fill-rule:evenodd;clip-rule:evenodd;fill:#B8AFAA;" d="M77,12c0.31-1.357,2.504-0.83,4-1
			c2.532,0.083,12.815,2.052,16,1c-0.889-0.294-4.378-2.706-2-3c1.479,0.521,2.521,1.479,4,2c0.529,0.804,1.043,1.624,1,3
			c-6.433-0.636-7.94,0.171-17,1C83.582,11.418,80.04,11.959,77,12z"/>
		<path style="fill-rule:evenodd;clip-rule:evenodd;fill:#A09896;" d="M72,7c-0.319,2.319,0.161,3.839,1,5c1.333,0,2.667,0,4,0
			c3.04-0.041,6.582-0.582,6,3c9.06-0.829,10.567-1.636,17-1c3.767,0.9,7.564,1.769,11,3c-10.887-1.999-23.622-0.64-38-1
			c-1.422-0.289-28.047,4.269-18,0c3.61-0.1,12.375-0.233,10-3c0.31-1.357,2.504-0.83,4-1c2.186-0.147,2.147-2.52,2-5
			C71.333,7,71.667,7,72,7z"/>
		<path style="fill-rule:evenodd;clip-rule:evenodd;fill:#777777;" d="M49,11c0.667,0,1.333,0,2,0c1.32,2.503-3.954,3.13-1,4
			c0,0.667,0,1.333,0,2c-1.161,0.839-2.681,1.319-5,1c-0.851,0.184-0.943-0.39-1-1c1.388-1.279,0.612-4.721,2-6C47,11,48,11,49,11z"
			/>
		<path style="fill-rule:evenodd;clip-rule:evenodd;fill:#777777;" d="M51,15c1.4-2.933,9.6,0.933,11-2c1,0,2,0,3,0
			c2.375,2.767-6.39,2.9-10,3C54.69,14.643,52.496,15.17,51,15z"/>
		<path style="fill-rule:evenodd;clip-rule:evenodd;fill:#6D6D6D;" d="M123,25c3.141,0.474,4.086-1.247,5-3
			c0.396-2.396-4.555,0.555-3-3c1.333,0,2.667,0,4,0c-0.45,2.784,5.45-0.784,5,2c-1.025,3.308-2.771,5.896-7,6
			c0.826-2.507,3.503-3.163,5-5c-2.423-2.356-5.324,3.292-7,5c-2,0-4,0-6,0C118.284,24.285,123.716,27.716,123,25z"/>
		<path style="fill-rule:evenodd;clip-rule:evenodd;fill:#777777;" d="M112,24c-3.736,0.09-2.851,1.121-6,0
			c-5.118,0.785-7.264-1.403-12-1c-4.727-0.301-12.74-2.557-17,0c-0.851-0.184-0.943,0.39-1,1c-0.667,0-1.333,0-2,0
			c0-0.333,0-0.667,0-1c-0.011-2.656,0.378-5.711-1-7c14.378,0.36,27.113-0.999,38,1c6.755-0.088,13.032,0.301,18,2
			c-1.333,0-2.667,0-4,0c-1.555,3.555,3.396,0.604,3,3c-0.914,1.753-1.859,3.474-5,3c-0.333,0-0.667,0-1,0
			C120.613,22.72,115.039,24.627,112,24z"/>
		<path style="fill-rule:evenodd;clip-rule:evenodd;fill:#6D6D6D;" d="M77,23c4.26-2.557,12.273-0.301,17,0c0,0.333,0,0.667,0,1
			c-4.125,0.125-6.262-1.738-11-1C81,23,79,23,77,23z"/>
		<path style="fill-rule:evenodd;clip-rule:evenodd;fill:#6D6D6D;" d="M55,16c-10.047,4.269,16.578-0.289,18,0
			c1.378,1.289,0.989,4.344,1,7c-1.44-0.226-0.349-2.985-2-3c0,1,0,2,0,3c-0.89,0.615-1.789,1.208-2,0c2.168,0.168,0.453-3.547,1-5
			c-5.124-0.275-1.62,4.275-5,4c0.162,1.172,1.823,0.843,3,1c-0.745,2.255-5.609,0.391-8,1c-0.586-2.081-2.102-3.232-3-5
			c-4.025,0.642-10.633-1.3-13,1c-1.208-0.211-0.615-1.11,0-2c2.319,0.319,3.839-0.161,5-1c0-0.667,0-1.333,0-2c0.333,0,0.667,0,1,0
			C52.496,15.17,54.69,14.643,55,16z"/>
		<path style="fill-rule:evenodd;clip-rule:evenodd;fill:#626262;" d="M140,23c-4.021-0.582,0.497,2.959-1,6c-1,0-2,0-3,0
			c0.156,1.177-0.172,2.839,1,3c-0.658,1.342-2.138,1.862-4,2c-0.027-0.973-1.224-0.776-2-1c0.873-1.763,3.347-3.097,0-4
			c-0.742,0.097-0.742,3.903,0,4c-0.271,3.507-4.428-1.807-4,1c-2.129-0.923,2.979-2.927,3-5c-0.227-1.44-2.984-0.349-3-2
			c4.229-0.104,5.975-2.692,7-6C136.874,20.793,139.08,21.253,140,23z"/>
		<path style="fill-rule:evenodd;clip-rule:evenodd;fill:#5F5F5F;" d="M137,32c-1.172-0.161-0.844-1.823-1-3c1,0,2,0,3,0
			c1.497-3.041-3.021-6.582,1-6C146.532,24.078,140.874,32.12,137,32z"/>
		<path style="fill-rule:evenodd;clip-rule:evenodd;fill:#5F5F5F;" d="M106,29c-3.711,1.616-6.819-2.387-7-1
			c-1.401-0.354-0.086-1.761,1-2c-1.733-1.707-2.62,0.158-6-1c0.43,1.57,3.146,0.854,2,4c-1.162-0.163-1.779,0.221-2,1
			c-3.441-0.554-0.579-3.866,0-6c0-0.333,0-0.667,0-1c4.736-0.403,6.882,1.785,12,1c1.984,2.306-0.251,1.111-1,3
			c3.657,0.658,3.836-2.164,7-2c3.333,0,6.667,0,10,0c0.333,0,0.667,0,1,0c0.716,2.716-4.716-0.715-4,2
			c-2.562,0.105-4.768,0.566-6,2c-0.333,0-0.667,0-1,0s-0.667,0-1,0C110.853,26.769,108.48,30.298,106,29z"/>
		<path style="fill-rule:evenodd;clip-rule:evenodd;fill:#616161;" d="M106,24c3.149,1.121,2.264,0.09,6,0c0,0.333,0,0.667,0,1
			c-3.164-0.164-3.343,2.658-7,2C105.749,25.111,107.984,26.306,106,24z"/>
		<path style="fill-rule:evenodd;clip-rule:evenodd;fill:#5F5F5F;" d="M45,20c1.615,0.982,2.301,2.668,1,4
			c4.688,1.312,10.972,1.028,17,1c-5.717,2.631,0.999,0.471,1,5c0.127,2.475-1.224,1.7-1,0c-2.931,0.847,0.598,3.22,0,5
			c0.443,0.891,0.878,1.788,2,2c-0.789,2.211-3.498,2.503-5,4c-0.333,0-0.667,0-1,0c0-1,0-2,0-3c-1.753-0.276-4.99,2.815-6,0
			c2.016-2.317,7.332-1.335,8-5c-1.275-2.059-1.595-5.072-5-5c-2.698-1.969-8.738-0.595-13-1c-0.333,0-0.667,0-1,0
			c0.162-1.172,1.823-0.844,3-1c-0.658-1.342-2.138-1.862-4-2c-0.547-1.453,1.168-5.168-1-5c0.658-1.342,2.138-1.862,4-2
			c0.057,0.61,0.149,1.184,1,1C44.385,18.89,43.792,19.789,45,20z"/>
		<path style="fill-rule:evenodd;clip-rule:evenodd;fill:#E0E4E4;" d="M43,27c4.262,0.405,10.302-0.969,13,1
			c-0.184,0.851,0.39,0.943,1,1C59.168,32.97,41.027,29.296,43,27z"/>
		<path style="fill-rule:evenodd;clip-rule:evenodd;fill:#CAC8C7;" d="M57,29c0.81,0.19,0.997,1.003,2,1c0,0.667,0,1.333,0,2
			c-7.473-0.193-14.542-0.792-19-4c0-0.333,0-0.667,0-1c0.667,0,1.333,0,2,0c0.333,0,0.667,0,1,0C41.027,29.296,59.168,32.97,57,29z
			"/>
		<path style="fill-rule:evenodd;clip-rule:evenodd;fill:#AC9867;" d="M53,34c2.322,2.203,5.678-0.198,8-1
			c-0.668,3.665-5.984,2.683-8,5c-2,0-4,0-6,0c-1.352-0.314-1.91-1.424-4-1c-2.165-2.055-0.055-4.165,2-2
			c-0.353-1.313-1.761-1.573-2-3C45.597,32.786,51.118,35.815,53,34z"/>
		<path style="fill-rule:evenodd;clip-rule:evenodd;fill:#A09896;" d="M42,31c3.752,0.914,7.069,2.265,11,3
			c-1.882,1.815-7.403-1.214-10-2C42.149,32.184,42.057,31.61,42,31z"/>
		<path style="fill-rule:evenodd;clip-rule:evenodd;fill:#B8AFAA;" d="M40,28c4.458,3.208,11.527,3.807,19,4c0-0.667,0-1.333,0-2
			c-1.003,0.003-1.19-0.81-2-1c-0.61-0.057-1.184-0.149-1-1c3.405-0.072,3.725,2.941,5,5c-2.322,0.802-5.678,3.203-8,1
			c-3.931-0.735-7.248-2.086-11-3c-2.09,0.424-2.648-0.686-4-1c0-0.333,0-0.667,0-1C39.003,29.003,39.19,28.19,40,28z"/>
		<path style="fill-rule:evenodd;clip-rule:evenodd;fill:#616161;" d="M64,30c3.729-2.659,0.068,1.924,2,2
			c-3.228-0.2,0.418,2.551-3,3c0.598-1.78-2.931-4.153,0-5C62.776,31.7,64.127,32.475,64,30z"/>
		<path style="fill-rule:evenodd;clip-rule:evenodd;fill:#AC9867;" d="M106,29c2.48,1.298,4.853-2.231,5,0
			c-1.753,0.914-3.475,1.859-3,5c-0.667,0-1.333,0-2,0c-0.729-2.729,1.987-2.013,2-4c-1.613,1.387-5.154,0.846-6,3
			c-2.896-0.56,1.534-1.56,1-3C104.419,30.086,105.832,30.165,106,29z"/>
		<path style="fill-rule:evenodd;clip-rule:evenodd;fill:#A09896;" d="M108,34c-0.475-3.141,1.247-4.086,3-5c0.333,0,0.667,0,1,0
			c-0.247,1.086-1.988,0.679-2,2c-2.747,2.813,6.335,2.282,9,3c-3.669,2.078-5.471,0.021-10,0C108.667,34,108.333,34,108,34z"/>
		<path style="fill-rule:evenodd;clip-rule:evenodd;fill:#9C7062;" d="M107,38c-4.406,0.739-4.097-3.236-7-4
			c0.421-1.912,0.362-4.305,3-4c0.534,1.44-3.896,2.44-1,3c0.846-2.154,4.387-1.613,6-3c-0.013,1.987-2.729,1.271-2,4
			c0.667,0,1.333,0,2,0c0.333,0,0.667,0,1,0c0.19,0.81,1.003,0.997,1,2c-1.453,0.547-5.169-1.169-5,1
			C106.162,36.838,106.779,37.221,107,38z"/>
		<path style="fill-rule:evenodd;clip-rule:evenodd;fill:#5F5F5F;" d="M127,27c0.016,1.651,2.773,0.56,3,2
			c-0.021,2.073-5.129,4.077-3,5c-0.428-2.807,3.729,2.507,4-1c-0.742-0.097-0.742-3.903,0-4c3.347,0.903,0.873,2.237,0,4
			c0.776,0.224,1.973,0.027,2,1c0,0.333,0,0.667,0,1c-3.007,0.66-3.49,3.843-8,3c0.169-2.169-3.547-0.453-5-1
			c0.271-2.062,4.428-0.238,4-3c0.891-0.443,1.788-0.878,2-2c1.273-0.227,1.311-2.984,0-3c-0.19-0.81-1.003-0.997-1-2
			c1.676-1.708,4.577-7.356,7-5C130.503,23.837,127.826,24.493,127,27z"/>
		<path style="fill-rule:evenodd;clip-rule:evenodd;fill:#9C7062;" d="M43,37c-2.899-0.812-7.754-4.854-5-8c0,0.333,0,0.667,0,1
			c1.352,0.314,1.91,1.424,4,1c0.057,0.61,0.149,1.184,1,1c0.239,1.427,1.647,1.687,2,3C42.945,32.835,40.835,34.945,43,37z"/>
		<path style="fill-rule:evenodd;clip-rule:evenodd;fill:#525252;" d="M25,41c-0.286-8.228,8.725-5.626,11-9
			c1.342,0.658,1.862,2.138,2,4c-4.985-0.755-10.803-2.217-10,5C27,41,26,41,25,41z"/>
		<path style="fill-rule:evenodd;clip-rule:evenodd;fill:#5F5F5F;" d="M47,38c-0.168,2.169,3.547,0.453,5,1
			c-0.248,1.086-1.988,0.679-2,2c0.353,1.401,1.761,0.086,2-1c2.32,2.083-1.121,4.218,2,6c-3,0-6,0-9,0c1.2-1.313,0.39-1.573,0-3
			c0-0.333,0-0.667,0-1c-6.305,0.305-11.842-0.158-17-1c-0.803-7.217,5.015-5.755,10-5c-0.138-1.862-0.658-3.342-2-4
			c-2.275,3.374-11.286,0.772-11,9c0,0.333,0,0.667,0,1c-0.914,1.115-1.859,0.314-5,1c-2.595-1.072-6.698-0.636-8-3
			c6.428,0.947-0.042-1.825,0-2c1.024-4.229,6.863-6.046,10-5c2.259-0.56-1.212-1.56,1-3c6.21-0.456,9.859-3.474,17-3
			c0,0.333,0,0.667,0,1c-0.81,0.19-0.997,1.003-2,1c-2.754,3.146,2.101,7.188,5,8C45.09,36.576,45.648,37.686,47,38z"/>
		<path style="fill-rule:evenodd;clip-rule:evenodd;fill:#626262;" d="M86,45c-4.065-3.769-7.123-1.02-14-1
			c-0.003-1.003,0.81-1.19,1-2c-1.333,0-2.667,0-4,0c3.947,2.645-0.459,0.904-2,3c-0.667,0-1.333,0-2,0c0.367-3.034-3.257-2.076-5-3
			c0-0.333,0-0.667,0-1c1.502-1.497,4.211-1.789,5-4c-1.122-0.212-1.557-1.109-2-2c3.418-0.449-0.228-3.2,3-3
			c-1.932-0.076,1.729-4.659-2-2c-0.001-4.529-6.717-2.369-1-5c-6.028,0.028-12.312,0.312-17-1c1.301-1.332,0.615-3.018-1-4
			c2.367-2.3,8.975-0.358,13-1c0.898,1.768,2.414,2.919,3,5c2.391-0.609,7.255,1.255,8-1c0.333,0,0.667,0,1,0
			c0.211,1.208,1.11,0.615,2,0c0.935,4.204-0.282,5.379,2,9c1.117-2.323-0.215-2.677,2-5c-0.934-0.733-1.515-1.818-2-3
			c0.667,0,1.333,0,2,0c4.317-0.329,6.651,4.938,7-1c4.738-0.738,6.875,1.125,11,1c-0.579,2.134-3.441,5.446,0,6
			c0.221-0.779,0.838-1.163,2-1c1.146-3.146-1.57-2.43-2-4c3.38,1.158,4.267-0.707,6,1c-1.086,0.239-2.401,1.646-1,2
			c0.181-1.387,3.289,2.616,7,1c-0.168,1.165-1.581,1.086-3,1c-2.638-0.305-2.579,2.088-3,4c2.903,0.764,2.594,4.739,7,4
			c1.667,0,3.333,0,5,0c0,0.333,0,0.667,0,1c-2.348,0.319-3.754,1.58-7,1c-3.438-3.778-15.98,1.754-4,1c0,0.333,0,0.667,0,1
			c-0.333,0-0.667,0-1,0C95.297,42.964,88.024,41.358,86,45z M80,35c-1.278,0.055-1.385,1.282-3,1c1.119-1.44,1.078-2.44-1-3
			c1.146,3.146-1.57,2.43-2,4c2.039,1.745,1.961-0.745,4,1c0.003,1.003-0.81,1.19-1,2c1.891-0.225,2.206,1.127,4,1
			c0.057-0.61,0.149-1.184,1-1c-0.306,3.125,2.889-2.542,3,1c2.786,3.043,7.308-0.636,8-3c1.575-2.091,5.575-1.759,7-4
			c-4.572-1.189-9.164,2.77-8,4c-0.212,1.122-1.109,1.557-2,2c0.88-4.658-3.296,0.675-3-2c1.009-0.012,1.258-1.753,0-2
			c-0.869,2.953-1.497-2.32-4-1c0,0.667,0,1.333,0,2c-0.333,0-0.667,0-1,0C81.887,35.78,81.701,34.633,80,35z M89,36
			c-0.038-3.098,1.862-8.987-1-11C87.962,29.704,86.313,32.429,89,36z"/>
		<path style="fill-rule:evenodd;clip-rule:evenodd;fill:#616161;" d="M83,37c0-0.667,0-1.333,0-2c2.503-1.32,3.131,3.953,4,1
			c1.258,0.247,1.009,1.988,0,2c-0.296,2.675,3.88-2.658,3,2c0.891-0.443,1.788-0.878,2-2c0.333,0,0.667,0,1,0
			c-0.692,2.364-5.214,6.043-8,3C89.856,40.698,84.544,37.143,83,37z"/>
		<path style="fill-rule:evenodd;clip-rule:evenodd;fill:#616161;" d="M54,46c-3.121-1.782,0.32-3.917-2-6
			c-0.239,1.086-1.647,2.401-2,1c0.012-1.321,1.752-0.914,2-2c-1.453-0.547-5.168,1.169-5-1c2,0,4,0,6,0c1.01,2.815,4.247-0.276,6,0
			c0,1,0,2,0,3c0.333,0,0.667,0,1,0c0,0.333,0,0.667,0,1c-2.954,0.869,2.32,1.497,1,4C58.667,46,56.333,46,54,46z"/>
		<path style="fill-rule:evenodd;clip-rule:evenodd;fill:#616161;" d="M80,35c1.701-0.367,1.887,0.78,2,2
			c-0.933,1.067-3.688,0.312-3,3c1.71,0.21,2.59-1.705,3,0c-0.851-0.184-0.943,0.39-1,1c-1.794,0.127-2.109-1.225-4-1
			c0.19-0.81,1.003-0.997,1-2C78.091,36.424,80.551,37.217,80,35z"/>
		<path style="fill-rule:evenodd;clip-rule:evenodd;fill:#675C59;" d="M101,41c0.31-1.357,2.504-0.829,4-1
			c3.246,0.58,4.652-0.681,7-1c-1.438,1.759-0.917,2.279,2,2c0.184,0.851-0.39,0.943-1,1c-1.177,0.156-2.839-0.172-3,1
			c-1.659-1.675-5.871-0.796-9-1C101,41.667,101,41.333,101,41z"/>
		<path style="fill-rule:evenodd;clip-rule:evenodd;fill:#9C7062;" d="M28,41c5.158,0.842,10.695,1.305,17,1c0,0.333,0,0.667,0,1
			c-7.867,0.133-14.075,1.925-17,7c-3.198-0.136-7.652,0.985-7-3c-0.8-3.119,9.716-3.373,4-5c0-0.333,0-0.667,0-1C26,41,27,41,28,41
			z"/>
		<path style="fill-rule:evenodd;clip-rule:evenodd;fill:#9C7062;" d="M86,45c2.024-3.642,9.297-2.036,14-3
			c-1.387,2.613-5.166,2.834-8,4c-0.127,1.794,1.225,2.109,1,4c-4.406,0.739-4.097-3.236-7-4C86,45.667,86,45.333,86,45z"/>
		<path style="fill-rule:evenodd;clip-rule:evenodd;fill:#AC9867;" d="M110,43c0.154,2.487-1.571,3.096-2,5
			c-1.78,0.553-4.153,0.514-5,2c-3.333,0-6.667,0-10,0c0.225-1.891-1.127-2.206-1-4c2.834-1.166,6.613-1.387,8-4
			c0.333,0,0.667,0,1,0C104.129,42.204,108.341,41.325,110,43z"/>
		<path style="fill-rule:evenodd;clip-rule:evenodd;fill:#B8AFAA;" d="M110,43c0.161-1.172,1.823-0.844,3-1
			c-2.926,0.741-1.202,6.131-5,6C108.429,46.096,110.154,45.487,110,43z"/>
		<path style="fill-rule:evenodd;clip-rule:evenodd;fill:#E0E4E4;" d="M80,3c-3.817,0.893-6.383-1.633-8,0c-2,0-4,0-6,0
			C67.938,0.752,78.408-0.715,80,3z"/>
		<path style="fill-rule:evenodd;clip-rule:evenodd;fill:#CAC8C7;" d="M63,8c0.168-1.165,1.581-1.086,3-1c1.667,0,3.333,0,5,0
			c0.147,2.48,0.186,4.853-2,5c-0.904-0.877-5.645-2.866-6-1C61.219,10.267,62.856,9.182,63,8z"/>
		<path style="fill-rule:evenodd;clip-rule:evenodd;fill:#A09896;" d="M49,11c0.15-1.85,3.386-0.614,4-2
			c0.241,2.578,1.721-1.373,4,0c-4.807,2.645,0.157,5.215,5,4c-1.4,2.933-9.6-0.933-11,2c-0.333,0-0.667,0-1,0
			c-2.954-0.87,2.32-1.497,1-4C50.333,11,49.667,11,49,11z"/>
		<path style="fill-rule:evenodd;clip-rule:evenodd;fill:#525252;" d="M40,19c2.168-0.168,0.453,3.547,1,5
			c1.862,0.138,3.342,0.658,4,2c-1.177,0.156-2.838-0.172-3,1c-0.667,0-1.333,0-2,0c-7.141-0.474-10.79,2.544-17,3
			c-2.212,1.44,1.259,2.44-1,3c-3.137-1.046-8.976,0.771-10,5c-0.042,0.175,6.428,2.947,0,2c-3.735-1.598-7.812-2.854-10-6
			C7.834,22.167,26.918,23.585,40,19z"/>
		<path style="fill-rule:evenodd;clip-rule:evenodd;fill:#CAC8C7;" d="M126,29c1.311,0.016,1.273,2.773,0,3
			c-6.27,0.604-10.577-0.756-16-1c0.012-1.321,1.753-0.914,2-2c0.333,0,0.667,0,1,0C115.945,29.46,124.423,33.686,126,29z"/>
		<path style="fill-rule:evenodd;clip-rule:evenodd;fill:#B8AFAA;" d="M126,32c-0.212,1.122-1.109,1.557-2,2c-1.667,0-3.333,0-5,0
			c-2.665-0.718-11.747-0.187-9-3C115.423,31.244,119.73,32.604,126,32z"/>
		<path style="fill-rule:evenodd;clip-rule:evenodd;fill:#525252;" d="M120,37c1.453,0.547,5.169-1.169,5,1
			c-2.123,2.544-6.928,2.406-11,3c-2.917,0.279-3.438-0.241-2-2c0-0.333,0-0.667,0-1C115.769,38.769,116.78,36.78,120,37z"/>
		<path style="fill-rule:evenodd;clip-rule:evenodd;fill:#5F5F5F;" d="M101,41c-11.98,0.754,0.562-4.778,4-1
			C103.504,40.171,101.31,39.643,101,41z"/>
		<path style="fill-rule:evenodd;clip-rule:evenodd;fill:#5F5F5F;" d="M83,46c-3,0-6,0-9,0c-0.431-2.236-4.928-0.405-7-1
			c1.541-2.096,5.947-0.355,2-3c1.333,0,2.667,0,4,0c-0.19,0.81-1.003,0.997-1,2c6.877-0.02,9.935-2.769,14,1c0,0.333,0,0.667,0,1
			C85,46,84,46,83,46z"/>
		<path style="fill-rule:evenodd;clip-rule:evenodd;fill:#E0E4E4;" d="M74,46c3,0,6,0,9,0c-4.549,2.785-12.822,1.845-20,2
			c0-0.333,0-0.667,0-1C66.367,46.367,72.289,48.288,74,46z"/>
		<path style="fill-rule:evenodd;clip-rule:evenodd;fill:#AC9867;" d="M45,47c-4.716,1.871-12.104,4.406-17,3
			c2.925-5.075,9.133-6.867,17-7c0.39,1.427,1.2,1.687,0,3C45,46.333,45,46.667,45,47z"/>
		<path style="fill-rule:evenodd;clip-rule:evenodd;fill:#B8AFAA;" d="M93,50c3.333,0,6.667,0,10,0
			C101.922,51.655,94.078,51.655,93,50z"/>
		<path style="fill-rule:evenodd;clip-rule:evenodd;fill:#616161;" d="M77,23c2,0,4,0,6,0c-0.349,5.938-2.683,0.671-7,1
			C76.057,23.39,76.149,22.816,77,23z"/>
		<path style="fill-rule:evenodd;clip-rule:evenodd;fill:#777777;" d="M69,23c-1.177-0.157-2.838,0.172-3-1
			c3.38,0.275-0.124-4.275,5-4c-0.547,1.453,1.168,5.168-1,5C69.667,23,69.333,23,69,23z"/>
		<path style="fill-rule:evenodd;clip-rule:evenodd;fill:#6D6D6D;" d="M45,46c3,0,6,0,9,0c2.333,0,4.667,0,7,0c0.333,0,0.667,0,1,0
			c4,0,8,0,12,0c-1.711,2.288-7.633,0.367-11,1c-3.667,0-7.333,0-11,0c-2.333,0-4.667,0-7,0C45,46.667,45,46.333,45,46z"/>
		<path style="fill-rule:evenodd;clip-rule:evenodd;fill:#B8AFAA;" d="M57,9c0.125-2.208,4.242-0.425,6-1
			c-0.144,1.182-1.781,2.267,0,3c0.355-1.866,5.096,0.123,6,1c-1.496,0.17-3.69-0.357-4,1c-1,0-2,0-3,0
			C57.157,14.215,52.193,11.645,57,9z"/>
		<path style="fill-rule:evenodd;clip-rule:evenodd;fill:#E0E4E4;" d="M126,29c-1.577,4.686-10.055,0.46-13,0
			c1.232-1.434,3.438-1.895,6-2c2,0,4,0,6,0C124.997,28.003,125.81,28.19,126,29z"/>
	</g>
</g>
</svg>
