<?xml version="1.0" encoding="iso-8859-1"?>
<!-- Generator: Adobe Illustrator 13.0.2, SVG Export Plug-In . SVG Version: 6.00 Build 14948)  -->
<!DOCTYPE svg PUBLIC "-//W3C//DTD SVG 1.1//EN" "http://www.w3.org/Graphics/SVG/1.1/DTD/svg11.dtd">
<svg version="1.1" id="Layer_1" xmlns="http://www.w3.org/2000/svg" xmlns:xlink="http://www.w3.org/1999/xlink" x="0px" y="0px"
	 width="144px" height="52px" viewBox="0 0 144 52" style="enable-background:new 0 0 144 52;" xml:space="preserve">
<g>
	<g>
		<path style="fill-rule:evenodd;clip-rule:evenodd;fill:#A89567;" d="M71,3c0.333,0,0.667,0,1,0c-1.476,3.162,5.746,4.809,5,1
			c1.922,4.269,7.941-1.076,9,3c-2,0-4,0-6,0c-3,0-6,0-9,0C71,5.667,71,4.333,71,3z"/>
		<path style="fill-rule:evenodd;clip-rule:evenodd;fill:#CAC9C7;" d="M68,8c3.812-0.479,2.038,4.629,7,3c0.667,0,1.333,0,2,0
			c0.333,0,0.667,0,1,0c-3.728,2.024-13.121,1.148-17,0C61.403,8.069,66.867,10.201,68,8z"/>
		<path style="fill-rule:evenodd;clip-rule:evenodd;fill:#FFFFFF;" d="M75,11c-0.091-1.576-2.55-0.783-2-3c2,0,4,0,6,0
			c0.299,1.966-1.351,1.983-2,3C76.333,11,75.667,11,75,11z"/>
		<path style="fill-rule:evenodd;clip-rule:evenodd;fill:#797979;" d="M54,16c2.342-1.253,8.295-2.205,10-1
			c-2.458,1.875-6.851,1.816-10,3C53.898,16.878,55.454,16.443,54,16z"/>
		<path style="fill-rule:evenodd;clip-rule:evenodd;fill:#525252;" d="M86,26c0.56-1.44,1.56-2.44,3-3c-0.177,3.156-0.702,5.964-4,6
			C84.957,27.623,85.471,26.805,86,26z"/>
		<path style="fill-rule:evenodd;clip-rule:evenodd;fill:#CAC9C7;" d="M119,30c2.146,1.854,7.325,0.675,11,1
			C128.711,32.491,115.665,33.279,119,30z"/>
		<path style="fill-rule:evenodd;clip-rule:evenodd;fill:#525252;" d="M26,41c-0.468-3.135,2.514-2.819,4-4
			c5.685,1.13-3.164,1.15-2,4C27.333,41,26.667,41,26,41z"/>
		<path style="fill-rule:evenodd;clip-rule:evenodd;fill:#A89567;" d="M82,50c0-0.667,0-1.333,0-2c2.117-4.235,10.05-7.925,16-5
			c0.057,0.61,0.149,1.184,1,1c-0.52,2.48-2.438,3.562-4,5c-1.419-0.086-2.832-0.165-3,1C88.667,50,85.333,50,82,50z"/>
		<path style="fill-rule:evenodd;clip-rule:evenodd;fill:#525252;" d="M45,46c0.186-1.48,2.417-0.917,4-1c2,0,4,0,6,0
			c0,0.333,0,0.667,0,1C51.667,46,48.333,46,45,46z"/>
		<path style="fill-rule:evenodd;clip-rule:evenodd;fill:#797979;" d="M44,47c0.057-0.61,0.149-1.184,1-1c3.333,0,6.667,0,10,0
			c1.667,0,3.333,0,5,0C56.644,48.311,49.017,46.351,44,47z"/>
		<path style="fill-rule:evenodd;clip-rule:evenodd;fill:#E0E4E3;" d="M99,13c-1.02-1.314-0.98-3.686-2-5
			c-1.583-0.083-3.814,0.481-4-1c4.079-0.413,6.309,1.024,6,5c1.419-0.086,2.832-0.165,3,1C101,13,100,13,99,13z"/>
		<path style="fill-rule:evenodd;clip-rule:evenodd;fill:#9B7060;" d="M59,5c4.587-0.08,6.793-2.54,12-2c0,1.333,0,2.667,0,4
			c-1.419-0.086-2.832-0.165-3,1c-4.449-0.783-6.001,1.332-10,1C58.558,6.961,61.009,7.039,59,5z"/>
		<path style="fill-rule:evenodd;clip-rule:evenodd;fill:#9B7060;" d="M72,3c5.552-1.182,13.047,0.665,18,3
			c-0.31,1.357-2.504,0.83-4,1c-1.059-4.076-7.078,1.269-9-3C77.746,7.809,70.524,6.162,72,3z"/>
		<path style="fill-rule:evenodd;clip-rule:evenodd;fill:#7D645C;" d="M55,10c-1.793-0.127-2.109,1.224-4,1
			c0.19-0.81,1.003-0.997,1-2c1.931-1.735,5.069-2.265,7-4c2.009,2.039-0.442,1.961-1,4C57.196,9.529,56.376,10.043,55,10z"/>
		<path style="fill-rule:evenodd;clip-rule:evenodd;fill:#E0E4E3;" d="M71,7c3,0,6,0,9,0c0.443,0.89,0.878,1.789,2,2
			c-0.443,0.89-0.878,1.789-2,2c-0.667,0-1.333,0-2,0c-0.333,0-0.667,0-1,0c0.649-1.017,2.299-1.034,2-3c-2,0-4,0-6,0
			c-0.55,2.217,1.909,1.424,2,3c-4.962,1.629-3.188-3.479-7-3C68.168,6.835,69.581,6.914,71,7z"/>
		<path style="fill-rule:evenodd;clip-rule:evenodd;fill:#CAC9C7;" d="M80,7c2,0,4,0,6,0c1.496-0.17,3.69,0.357,4-1
			c0.805,0.529,1.623,1.043,3,1c0.186,1.481,2.417,0.917,4,1c1.02,1.314,0.98,3.686,2,5c-0.333,0-0.667,0-1,0
			c-3.972-3.521-14.368-0.752-18-2c1.122-0.211,1.557-1.11,2-2C80.878,8.789,80.443,7.89,80,7z"/>
		<path style="fill-rule:evenodd;clip-rule:evenodd;fill:#B7AFA9;" d="M68,8c-1.133,2.201-6.597,0.069-7,3
			c3.879,1.148,13.272,2.024,17,0c0.667,0,1.333,0,2,0c3.632,1.248,14.028-1.521,18,2c-6.188-0.354-3.763,2.046-9,3
			c-1.401-0.354-0.086-1.761,1-2c-0.31-1.357-2.504-0.83-4-1c-1.484,0.437,0.395,1.28,0,3c-5.225-7.936-24.49,1.053-32-4
			c0.19-0.81,1.003-0.997,1-2c1.376,0.043,2.196-0.471,3-1C61.999,9.332,63.551,7.217,68,8z"/>
		<path style="fill-rule:evenodd;clip-rule:evenodd;fill:#A09997;" d="M55,10c0.003,1.003-0.81,1.19-1,2
			c7.51,5.053,26.775-3.936,32,4c0.395-1.72-1.484-2.563,0-3c1.496,0.17,3.69-0.357,4,1c-1.086,0.239-2.401,1.646-1,2
			c5.237-0.954,2.812-3.354,9-3c0.333,0,0.667,0,1,0c1,0,2,0,3,0c1.479,0.521,2.521,1.479,4,2c0,0.333,0,0.667,0,1
			c-3.409-0.907-9.95,0.561-16,0c-0.851-0.184-0.943,0.39-1,1c-14.722,0.279-28.553,1.447-41,4c-4.709-0.62,2.589-4.092,6-3
			c3.149-1.184,7.542-1.125,10-3c-1.705-1.205-7.658-0.253-10,1c-1.333,0-2.667,0-4,0c-2.806,0.428,2.506-3.728-1-4
			c0.353-1.313,1.761-1.573,2-3c0.333,0,0.667,0,1,0c0.003,1.003-0.81,1.19-1,2C52.891,11.224,53.207,9.873,55,10z"/>
		<path style="fill-rule:evenodd;clip-rule:evenodd;fill:#797979;" d="M44,18c0-1.333,0-2.667,0-4c1.904-0.429,2.512-2.154,5-2
			c3.506,0.272-1.806,4.428,1,4C48.767,17.434,46.561,17.895,44,18z"/>
		<path style="fill-rule:evenodd;clip-rule:evenodd;fill:#797979;" d="M126,17c4.608,0.058,8.871,0.462,12,2c-3,0-6,0-9,0
			c-0.396,2.396,4.555-0.555,3,3c-2.182-0.182-3.182,0.818-3,3c-0.333,0-0.667,0-1,0c-1.659-1.674-5.871-0.796-9-1
			c-3.224-1.443-8.388-0.945-13-1c-4.024,0.642-10.634-1.3-13,1c-0.891-0.615-1.788-1.208-2,0c-3.253-1.816,2.103-6.034-1-8
			c6.05,0.561,12.591-0.907,16,0c2,0,4,0,6,0C114.695,18.304,121.645,16.355,126,17z"/>
		<path style="fill-rule:evenodd;clip-rule:evenodd;fill:#626262;" d="M48,21c6.412,0.746,10.166-1.167,16-1
			c-2.056,4.044,0.449,4.562,2,5c-1.908,0.86,1.08,0.594,1,2c-4.025,0.642-10.633-1.3-13,1c-1.615-0.282-1.722,0.945-3,1
			c-0.333,0-0.667,0-1,0c-2.542-2.635-1.678,2.562-4,3c-0.973-0.027-0.776-1.224-1-2c-1.23,0.437-2.054,1.279-2,3
			c-3.863,0.196-7.369,0.035-10-1c4.382-0.054,9.488-4.112,14-3c0.728-3.779-4.627-5.377,1-6c-1.752-1.581-5.328-1.339-8-2
			c0-0.333,0-0.667,0-1c1.987-0.013,1.271-2.729,4-2c2.561-0.105,4.767-0.566,6-2c1.333,0,2.667,0,4,0c1.454,0.443-0.102,0.878,0,2
			C50.589,16.908,43.291,20.38,48,21z"/>
		<path style="fill-rule:evenodd;clip-rule:evenodd;fill:#626262;" d="M128,25c0.333,0,0.667,0,1,0c-0.182-2.182,0.818-3.182,3-3
			c1.555-3.555-3.396-0.604-3-3c3,0,6,0,9,0c-0.86,0.807-0.594,2.739-2,3c0.733,0.934,1.818,1.515,3,2c0,0.333,0,0.667,0,1
			c-2.88,0.56-1.735,0.727-5,2c0.529-0.805,1.043-1.624,1-3c-5.668,1.025-2.449,2.771-2,7c-0.333,0-0.667,0-1,0
			c0.917-4.25-2.396-4.271-6-4C126.247,25.914,127.988,26.321,128,25z"/>
		<path style="fill-rule:evenodd;clip-rule:evenodd;fill:#5F5F5F;" d="M133,31c-0.449-4.229-3.668-5.975,2-7
			c0.043,1.376-0.471,2.195-1,3c3.265-1.273,2.12-1.44,5-2c-0.184,0.851,0.39,0.943,1,1c-1.002,2.665-4.036,3.297-6,5
			C133.667,31,133.333,31,133,31z"/>
		<path style="fill-rule:evenodd;clip-rule:evenodd;fill:#5F5F5F;" d="M138,19c1.678,0.734,6.86,3.033,4,5
			c0.17-3.851-4.47-3.851-2,0c-0.333,0-0.667,0-1,0c-1.182-0.485-2.267-1.066-3-2C137.406,21.739,137.14,19.807,138,19z"/>
		<path style="fill-rule:evenodd;clip-rule:evenodd;fill:#FFFFFF;" d="M144,52c-48,0-96,0-144,0C0,34.667,0,17.333,0,0
			c48,0,96,0,144,0C144,17.333,144,34.667,144,52z M142,24c2.86-1.967-2.322-4.266-4-5c-3.129-1.538-7.392-1.942-12-2
			c-0.168-1.165-1.581-1.086-3-1c-3.687-2.313-11.651-0.349-17-1c-1.479-0.521-2.521-1.479-4-2c-0.168-1.165-1.581-1.086-3-1
			c0.309-3.976-1.921-5.413-6-5c-1.377,0.043-2.195-0.471-3-1c-4.953-2.335-12.448-4.182-18-3c-0.333,0-0.667,0-1,0
			c-5.207-0.54-7.413,1.92-12,2c-1.931,1.735-5.069,2.265-7,4c-0.333,0-0.667,0-1,0c-0.239,1.427-1.647,1.687-2,3
			c-2.488-0.154-3.096,1.571-5,2c0,1.333,0,2.667,0,4c-2.729-0.729-2.013,1.987-4,2c-1.122,0.211-1.557,1.11-2,2
			C26.286,26.619,9.697,26.363,3,36c0.148,4.519,5.046,4.287,8,6c0.627,2.039,5.053,0.28,4,4c0.057,0.61,0.149,1.184,1,1
			c0,0.667,0,1.333,0,2c1.278,0.055,1.385,1.282,3,1c7.331,0.804,12.866,0.432,19-2c9.612-0.722,22.443,1.776,29-2c3,0,6,0,9,0
			c1.446,1.888,2.233,4.433,6,4c1.078,1.655,8.922,1.655,10,0c0.168-1.165,1.581-1.086,3-1c4.072-0.262,4.659-4.008,6-7
			c-0.45-2.784,5.45,0.784,5-2c3.16,0.16,6.035,0.035,7-2c5.607-0.393,10.416-1.584,15-3c2.717-0.616,4.684-1.983,6-4
			c1.964-1.703,4.998-2.335,6-5C141.22,25.887,142.367,25.701,142,24z"/>
		<path style="fill-rule:evenodd;clip-rule:evenodd;fill:#5F5F5F;" d="M29,33c2.689,0.688,1.933-2.067,3-3
			c4.846,0.179,8.539-0.794,12-2c0.149-1.332-4.066-3.018-1-4c-2.103-0.659-3.227-3.866-5-2c0.443-0.89,0.878-1.789,2-2
			c0,0.333,0,0.667,0,1c2.672,0.661,6.248,0.419,8,2c-5.627,0.623-0.272,2.221-1,6c-4.512-1.112-9.618,2.946-14,3
			c2.631,1.035,6.137,1.196,10,1c-0.054-1.721,0.77-2.563,2-3c0.224,0.776,0.027,1.973,1,2c2.322-0.438,1.458-5.635,4-3
			c-0.729,4.729,0.586,7.414,4,8c5.608,1.292,10.416,1.026,15-1c0.282,1.615-0.945,1.722-1,3c1.71,0.21,2.59-1.705,3,0
			c-0.933,1.067-3.689,0.312-3,3c-0.811-3.95-12.286,0.42-10-3c-1.333,0-2.667,0-4,0c-1.816,4.578,5.243,1.849,2,5
			c1.78,0.598,4.153-2.931,5,0c1.172-0.161,0.843-1.823,1-3c2.078,0.56,2.119,1.56,1,3c5.409-2.117,14.627,0.023,11-3
			c0.067-4.671,2.286,1.171,4,1c3.061-0.764-6.028-4.739,1-4c-0.628-0.829-5.053-3.508-4,0c-0.805-0.529-1.623-1.043-3-1
			c2.133-3.172,7.518-4.402,8-4c2.435-1.881-1.959-3.632,3-2c-1.561-4.295,0.717-1.539,3-5c-0.529,0.805-1.043,1.623-1,3
			c3.298-0.036,3.823-2.844,4-6c0.184-0.851-0.39-0.943-1-1c0.839-1.161,1.319-2.681,1-5c0.057-0.61,0.149-1.184,1-1
			c3.103,1.966-2.253,6.184,1,8c0.212-1.208,1.109-0.615,2,0c4.333,0,8.667,0,13,0c1.162-0.163,1.779,0.221,2,1
			c-1.938,0.564-10.907-0.396-16,0c-5.316,5.608-6.247,6.517-11,10c0.903,1.125,2.237-0.063,4,2c-3.778-4.661,6.71-3.786,6,0
			c-2.826-0.826-2.591,1.409-5,1c0.19,0.81,1.003,0.997,1,2c4.336-2.077,2.303-0.928,7,0c1.235-3.235-3.235-0.765-2-4
			c5.3,2.286,3.105-1.913,8-2c-0.564,3.311-0.856,4.354-4,3c0.707,4.003,4.693,0.057,6,2c0.31,1.357,2.504,0.829,4,1
			c0.45,2.784-5.45-0.784-5,2c-0.667,0-1.333,0-2,0c-6.389-1.373-19.942-1.288-23,4c-3,0-6,0-9,0c-2.333,0-4.667,0-7,0
			c-1.667,0-3.333,0-5,0c0-0.333,0-0.667,0-1c2.805-1.577-5.395-3.577-2-6c0.396-2.396-4.555,0.555-3-3
			c-4.556,1.898-8.986,1.816-10-1c-2.691,0.976-5.128,2.205-8,3c3.465,2.51,7.692-0.534,11,4c1.161-0.839,2.681-1.319,5-1
			c-0.127,1.794,1.224,2.109,1,4c-1.583,0.083-3.814-0.48-4,1c-0.851-0.184-0.943,0.39-1,1c-1,0-2,0-3,0c0.19-0.81,1.003-0.997,1-2
			c0.724-4.977-8.11-2.989-14-4c-1.164-2.85,7.685-2.87,2-4c0.85-1.483,2.517-2.15,5-2C34.072,31.219,27.728,37.521,29,33z M79,39
			c2.928-0.261,3.072,2.261,6,2C85.695,38.21,80.025,36.77,79,39z"/>
		<path style="fill-rule:evenodd;clip-rule:evenodd;fill:#5F5F5F;" d="M11,42c4.038,0.788-1.498-4.788,4-4
			c-0.248,1.086-1.988,0.679-2,2c3.898-1.523,6.581,1.297,7-3c1.985,0.682,2.288,3.045,4,4c-1.419-0.086-2.832-0.165-3,1
			c-1.163,1.837-6.526-0.526-5,4c-0.333,0-0.667,0-1,0C16.053,42.28,11.627,44.039,11,42z"/>
		<path style="fill-rule:evenodd;clip-rule:evenodd;fill:#626262;" d="M89,23c-1.44,0.56-2.44,1.56-3,3
			c-2.283,3.461-4.561,0.705-3,5c-4.959-1.632-0.565,0.119-3,2c-0.482-0.402-5.867,0.828-8,4c1.377-0.043,2.195,0.471,3,1
			c-1.053-3.508,3.372-0.829,4,0c-7.028-0.739,2.061,3.236-1,4c-1.714,0.171-3.933-5.671-4-1c-1.71,0.21-2.59-1.705-3,0
			c-1.454-0.443,0.102-0.878,0-2c-0.41-1.705-1.29,0.21-3,0c0.055-1.278,1.282-1.385,1-3c0.89-0.443,1.789-0.878,2-2
			c1.23-0.437,2.054-1.279,2-3c0-0.333,0-0.667,0-1c0.851-0.184,0.943,0.39,1,1c1.889-0.111,0.694-3.306,3-3
			c-0.161-1.172-1.823-0.844-3-1c2.905-3.767,5.079,3.751,7-1c-0.745-2.255-5.609-0.391-8-1c2.78-3.22,13.713,1.713,15-3
			C88.61,22.057,89.184,22.149,89,23z"/>
		<path style="fill-rule:evenodd;clip-rule:evenodd;fill:#5F5F5F;" d="M70,28c-0.162-1.172-1.823-0.844-3-1
			c0.08-1.406-2.908-1.14-1-2c2.333,0,4.667,0,7,0c2.391,0.609,7.255-1.255,8,1c-1.921,4.751-4.095-2.767-7,1
			c1.177,0.156,2.839-0.172,3,1c-2.306-0.306-1.111,2.889-3,3c-0.057-0.61-0.149-1.184-1-1C72.267,29.066,71.182,28.485,70,28z"/>
		<path style="fill-rule:evenodd;clip-rule:evenodd;fill:#626262;" d="M100,34c-4.895,0.087-2.7,4.286-8,2
			c-1.235,3.235,3.235,0.765,2,4c-4.697-0.928-2.664-2.077-7,0c0.003-1.003-0.81-1.19-1-2c2.409,0.409,2.174-1.826,5-1
			c0.71-3.786-9.778-4.661-6,0c-1.763-2.063-3.097-0.875-4-2c4.753-3.483,5.684-4.392,11-10c5.093-0.396,14.062,0.564,16,0
			c0.891,0.443,1.788,0.878,2,2c-2.111,0.889-2.956,3.044-6,3c-0.34-2.007,0.204-3.129,2-3c-0.31-1.357-2.504-0.829-4-1
			c-0.279,2.279,0.241,3.759,2,4c-3.888,0.782-1.096,0.393-3,4C100.667,34,100.333,34,100,34z"/>
		<path style="fill-rule:evenodd;clip-rule:evenodd;fill:#5F5F5F;" d="M101,34c1.904-3.607-0.888-3.218,3-4
			c-1.759-0.241-2.279-1.721-2-4c1.496,0.171,3.69-0.357,4,1c-1.796-0.129-2.34,0.993-2,3c3.044,0.044,3.889-2.111,6-3
			c1.923-1.061,7.592,0.871,9-3c3.129,0.204,7.341-0.674,9,1c-0.012,1.321-1.753,0.914-2,2c-0.333,0-0.667,0-1,0
			c-9.727-1.06-13.862,3.471-21,5c-0.857,3.19,1.574,3.093,2,5c-0.933-0.611-3.688-2.327-3,1C101.241,37.759,100.721,36.279,101,34z
			"/>
		<path style="fill-rule:evenodd;clip-rule:evenodd;fill:#CAC9C7;" d="M54,28c5.375,1.292,10.01,3.323,17,3
			c1.783-2.688-4.404-1.933-1-3c1.182,0.485,2.267,1.066,3,2c0,0.333,0,0.667,0,1C67.721,33.211,53.854,31.214,54,28z"/>
		<path style="fill-rule:evenodd;clip-rule:evenodd;fill:#9B7060;" d="M106,37c-0.426-1.907-2.857-1.81-2-5
			c7.138-1.529,11.273-6.06,21-5c-0.844,2.156-5.156,0.844-6,3c-1.427,0.239-1.687,1.646-3,2c-0.891,0.443-1.788,0.878-2,2
			c-3.081-0.748-1.219,3.447-5,2c0.016,1.651,2.773,0.56,3,2c-1.333,0-2.667,0-4,0C107.973,37.027,106.776,37.224,106,37z"/>
		<path style="fill-rule:evenodd;clip-rule:evenodd;fill:#B7AFA9;" d="M51,29c1.278-0.055,1.385-1.282,3-1
			c-0.146,3.214,13.721,5.211,19,3c0.054,1.721-0.77,2.563-2,3c-0.667,0-1.333,0-2,0c-4.754-1.579-11.474-1.193-16-3
			C51.299,31.367,51.113,30.22,51,29z"/>
		<path style="fill-rule:evenodd;clip-rule:evenodd;fill:#606060;" d="M101,34c-0.279,2.279,0.241,3.759,2,4
			c-0.688-3.327,2.067-1.611,3-1c0.776,0.224,1.973,0.027,2,1c-2.355-0.022-2.944,1.723-6,1c-1.307-1.943-5.293,2.003-6-2
			c3.144,1.354,3.436,0.311,4-3C100.333,34,100.667,34,101,34z"/>
		<path style="fill-rule:evenodd;clip-rule:evenodd;fill:#E0E4E3;" d="M126,27c3.604-0.271,6.917-0.25,6,4c-0.667,0-1.333,0-2,0
			c-3.675-0.325-8.854,0.854-11-1c0.844-2.156,5.156-0.844,6-3C125.333,27,125.667,27,126,27z"/>
		<path style="fill-rule:evenodd;clip-rule:evenodd;fill:#A09997;" d="M54,32c-0.851,0.184-0.943-0.39-1-1
			c4.526,1.807,11.246,1.421,16,3C62.945,34.388,57.734,33.933,54,32z"/>
		<path style="fill-rule:evenodd;clip-rule:evenodd;fill:#626262;" d="M15,38c3.253-3.049,9.14-6.633,14-5
			c-1.272,4.521,5.072-1.781,6,2c-2.483-0.15-4.15,0.517-5,2c-1.486,1.181-4.468,0.865-4,4c-0.667,0-1.333,0-2,0
			c-1.712-0.955-2.015-3.318-4-4c-0.419,4.297-3.102,1.477-7,3C13.012,38.679,14.752,39.086,15,38z"/>
		<path style="fill-rule:evenodd;clip-rule:evenodd;fill:#B7AFA9;" d="M134,31c-1.316,2.017-3.283,3.384-6,4
			c-0.168-1.165-1.581-1.086-3-1c-2.768-0.898-9.388,2.055-9-2c1.313-0.354,1.573-1.761,3-2c-3.335,3.279,9.711,2.491,11,1
			c0.667,0,1.333,0,2,0c0.333,0,0.667,0,1,0S133.667,31,134,31z"/>
		<path style="fill-rule:evenodd;clip-rule:evenodd;fill:#A09997;" d="M116,32c-0.388,4.055,6.232,1.102,9,2
			c-2.055,2.312-8.636,0.692-11,0C114.212,32.878,115.109,32.443,116,32z"/>
		<path style="fill-rule:evenodd;clip-rule:evenodd;fill:#A89567;" d="M54,32c3.734,1.933,8.945,2.388,15,2c0.667,0,1.333,0,2,0
			c-0.211,1.122-1.11,1.557-2,2c-4.584,2.026-9.392,2.292-15,1C53.39,32.753,57.628,34.326,54,32z"/>
		<path style="fill-rule:evenodd;clip-rule:evenodd;fill:#9B7060;" d="M54,37c-3.414-0.586-4.729-3.271-4-8c0.333,0,0.667,0,1,0
			c0.113,1.22,0.299,2.367,2,2c0.057,0.61,0.149,1.184,1,1C57.628,34.326,53.39,32.753,54,37z"/>
		<path style="fill-rule:evenodd;clip-rule:evenodd;fill:#626262;" d="M49,45c0.224-1.891-1.127-2.206-1-4
			c-2.319-0.319-3.839,0.161-5,1c-3.308-4.534-7.535-1.49-11-4c2.872-0.795,5.309-2.024,8-3c1.014,2.816,5.444,2.898,10,1
			c-1.555,3.555,3.396,0.604,3,3c-3.395,2.423,4.805,4.423,2,6C53,45,51,45,49,45z"/>
		<path style="fill-rule:evenodd;clip-rule:evenodd;fill:#616161;" d="M74,41c3.627,3.023-5.591,0.883-11,3
			c1.119-1.44,1.078-2.44-1-3c-0.157,1.177,0.172,2.839-1,3c-0.847-2.931-3.22,0.598-5,0c3.243-3.151-3.816-0.422-2-5
			c1.333,0,2.667,0,4,0c-2.286,3.42,9.189-0.95,10,3c-0.689-2.688,2.067-1.933,3-3c0.102,1.122-1.454,1.557,0,2
			C71.41,39.295,72.29,41.21,74,41z"/>
		<path style="fill-rule:evenodd;clip-rule:evenodd;fill:#A89567;" d="M19,50c5.417-2.708,16.127-10.371,23-5
			c0.003,1.003-0.81,1.19-1,2c-1.419-0.086-2.832-0.165-3,1C31.866,50.432,26.331,50.804,19,50z"/>
		<path style="fill-rule:evenodd;clip-rule:evenodd;fill:#A89567;" d="M15,46c0.333,0,0.667,0,1,0c-1.526-4.526,3.837-2.163,5-4
			c14.37-0.133-2.849,1.683-5,5C15.149,47.184,15.057,46.61,15,46z"/>
		<path style="fill-rule:evenodd;clip-rule:evenodd;fill:#9B7060;" d="M82,50c-3.767,0.433-4.554-2.112-6-4
			c3.058-5.288,16.611-5.373,23-4c0,0.667,0,1.333,0,2c-0.851,0.184-0.943-0.39-1-1c-5.95-2.925-13.883,0.765-16,5
			C82,48.667,82,49.333,82,50z"/>
		<path style="fill-rule:evenodd;clip-rule:evenodd;fill:#B7AFA9;" d="M95,49c1.562-1.438,3.48-2.52,4-5c0-0.667,0-1.333,0-2
			c0.667,0,1.333,0,2,0C99.659,44.992,99.072,48.738,95,49z"/>
		<path style="fill-rule:evenodd;clip-rule:evenodd;fill:#A09997;" d="M112,16c3.667,0,7.333,0,11,0c1.419-0.086,2.832-0.165,3,1
			C121.645,16.355,114.695,18.304,112,16z"/>
		<path style="fill-rule:evenodd;clip-rule:evenodd;fill:#616161;" d="M93,24c2.366-2.3,8.976-0.358,13-1c0,0.333,0,0.667,0,1
			C101.667,24,97.333,24,93,24z"/>
		<path style="fill-rule:evenodd;clip-rule:evenodd;fill:#525252;" d="M142,24c0.367,1.701-0.78,1.887-2,2
			c-0.61-0.057-1.184-0.149-1-1c0-0.333,0-0.667,0-1c0.333,0,0.667,0,1,0C137.53,20.149,142.17,20.149,142,24z"/>
		<path style="fill-rule:evenodd;clip-rule:evenodd;fill:#525252;" d="M11,42c-2.954-1.713-7.852-1.481-8-6
			c6.697-9.637,23.286-9.381,35-14c1.773-1.866,2.897,1.341,5,2c-3.066,0.982,1.149,2.668,1,4c-3.461,1.206-7.154,2.179-12,2
			c-1.067,0.933-0.311,3.688-3,3c-4.86-1.633-10.747,1.951-14,5C9.502,37.212,15.038,42.788,11,42z"/>
		<path style="fill-rule:evenodd;clip-rule:evenodd;fill:#A89567;" d="M128,35c-4.584,1.416-9.393,2.607-15,3c-0.333,0-0.667,0-1,0
			c-0.227-1.44-2.984-0.349-3-2c3.781,1.447,1.919-2.748,5-2c2.364,0.692,8.945,2.312,11,0C126.419,33.914,127.832,33.835,128,35z"
			/>
		<path style="fill-rule:evenodd;clip-rule:evenodd;fill:#616161;" d="M85,41c-2.928,0.261-3.072-2.261-6-2
			C80.025,36.77,85.695,38.21,85,41z"/>
		<path style="fill-rule:evenodd;clip-rule:evenodd;fill:#525252;" d="M113,38c-0.965,2.035-3.84,2.16-7,2
			c-1.496-0.171-3.69,0.357-4-1c3.056,0.723,3.645-1.022,6-1c1.333,0,2.667,0,4,0C112.333,38,112.667,38,113,38z"/>
		<path style="fill-rule:evenodd;clip-rule:evenodd;fill:#9B7060;" d="M21,42c0.168-1.165,1.581-1.086,3-1c0.667,0,1.333,0,2,0
			s1.333,0,2,0c5.89,1.011,14.724-0.977,14,4c-6.873-5.371-17.583,2.292-23,5c-1.615,0.282-1.722-0.945-3-1c0-0.667,0-1.333,0-2
			C18.151,43.683,35.37,41.867,21,42z"/>
		<path style="fill-rule:evenodd;clip-rule:evenodd;fill:#CAC9C7;" d="M60,46c2.333,0,4.667,0,7,0c-6.557,3.776-19.388,1.278-29,2
			c0.168-1.165,1.581-1.086,3-1c1,0,2,0,3,0C49.017,46.351,56.644,48.311,60,46z"/>
		<path style="fill-rule:evenodd;clip-rule:evenodd;fill:#B7AFA9;" d="M82,50c3.333,0,6.667,0,10,0
			C90.922,51.655,83.078,51.655,82,50z"/>
		<path style="fill-rule:evenodd;clip-rule:evenodd;fill:#606060;" d="M106,23c4.612,0.055,9.776-0.443,13,1
			c-1.408,3.871-7.077,1.939-9,3c-0.212-1.122-1.109-1.557-2-2c-0.221-0.779-0.838-1.163-2-1C106,23.667,106,23.333,106,23z"/>
		<path style="fill-rule:evenodd;clip-rule:evenodd;fill:#E0E4E3;" d="M54,28c2.367-2.3,8.975-0.358,13-1
			c1.177,0.156,2.838-0.172,3,1c-3.404,1.067,2.783,0.312,1,3C64.01,31.323,59.375,29.292,54,28z"/>
		<path style="fill-rule:evenodd;clip-rule:evenodd;fill:#E0E4E3;" d="M106,15c5.349,0.651,13.313-1.313,17,1c-3.667,0-7.333,0-11,0
			c-2,0-4,0-6,0C106,15.667,106,15.333,106,15z"/>
		<path style="fill-rule:evenodd;clip-rule:evenodd;fill:#797979;" d="M89,17c0.319,2.319-0.161,3.839-1,5
			c-1.287,4.713-12.22-0.22-15,3c-2.333,0-4.667,0-7,0c-1.551-0.438-4.056-0.956-2-5c-5.834-0.167-9.588,1.746-16,1
			C60.447,18.447,74.278,17.279,89,17z"/>
	</g>
</g>
</svg>
