<?xml version="1.0" encoding="iso-8859-1"?>
<!-- Generator: Adobe Illustrator 13.0.2, SVG Export Plug-In . SVG Version: 6.00 Build 14948)  -->
<!DOCTYPE svg PUBLIC "-//W3C//DTD SVG 1.1//EN" "http://www.w3.org/Graphics/SVG/1.1/DTD/svg11.dtd">
<svg version="1.1" id="Layer_1" xmlns="http://www.w3.org/2000/svg" xmlns:xlink="http://www.w3.org/1999/xlink" x="0px" y="0px"
	 width="144px" height="52px" viewBox="0 0 144 52" style="enable-background:new 0 0 144 52;" xml:space="preserve">
<g>
	<g>
		<path style="fill-rule:evenodd;clip-rule:evenodd;fill:#FFFFFF;" d="M79,8c0.652,3.986-3.802,2.865-7,3
			C72.078,7.744,76.532,8.866,79,8z"/>
		<path style="fill-rule:evenodd;clip-rule:evenodd;fill:#D3D4D3;" d="M84,9c-0.169-2.168,3.547-0.453,5-1
			c-1.117,1.23-0.871,2.054,1,2c0.169,2.168-3.547,0.453-5,1C85.163,9.837,84.779,9.221,84,9z"/>
		<path style="fill-rule:evenodd;clip-rule:evenodd;fill:#AEAAA7;" d="M56,16c-1,0-2,0-3,0c0.674-2.326,5.247-0.753,4-5
			c0.333,0,0.667,0,1,0c1.343,2.657,4.404,3.596,9,3c-0.759,2.907-8.241-0.907-9,2C57.333,16,56.667,16,56,16z"/>
		<path style="fill-rule:evenodd;clip-rule:evenodd;fill:#AEAAA7;" d="M97,17c-0.333,0-0.667,0-1,0c-1.165-0.168-1.086-1.581-1-3
			c2.826-0.826,2.591,1.409,5,1C99.984,16.651,97.227,15.56,97,17z"/>
		<path style="fill-rule:evenodd;clip-rule:evenodd;fill:#7B7B7B;" d="M56,17c0-0.333,0-0.667,0-1c0.667,0,1.333,0,2,0
			c2.333,0,4.667,0,7,0c-0.979,2.354-5.771,0.896-7,3c-0.333,0-0.667,0-1,0s-0.667,0-1,0C55.898,17.878,57.454,17.443,56,17z"/>
		<path style="fill-rule:evenodd;clip-rule:evenodd;fill:#6F6D6C;" d="M81,25c2.366-2.3,8.976-0.358,13-1
			C91.634,26.3,85.024,24.358,81,25z"/>
		<path style="fill-rule:evenodd;clip-rule:evenodd;fill:#494949;" d="M42,31c-2.126,3.02-3.724-2.864-6-3
			C38.426,24.68,40.656,29.932,42,31z"/>
		<path style="fill-rule:evenodd;clip-rule:evenodd;fill:#575756;" d="M57,44c0.532-3.42,4.818-1.53,7-1
			C63.569,45.236,59.072,43.405,57,44z"/>
		<path style="fill-rule:evenodd;clip-rule:evenodd;fill:#E7E9E8;" d="M95,7c-3.511,1.86-3.289-0.76-6-2c-0.333,0-0.667,0-1,0
			c-3.414-0.253-4.805-2.528-9-2c-1.063-2.27-6.286-0.381-9-1C79.255-1.242,88.433,4.224,95,7z"/>
		<path style="fill-rule:evenodd;clip-rule:evenodd;fill:#FFFFFF;" d="M51,10c-2.156,2.51-5.829,3.504-8,6c0,1.333,0,2.667,0,4
			c-1.494,1.506-5.701,0.299-5,4c0.184,0.851-0.39,0.943-1,1c0.91-3.761-9.604,1.894-8,2c-2.198,2.135-7.494,1.173-9,4
			c-6.709,1.625-13.926,2.74-17,8c0.352,3.981,5.991,2.676,8,5c1.443,3.224,2.157,7.176,7,7c0,0.333,0,0.667,0,1c-6,0-12,0-18,0
			C0,34.667,0,17.333,0,0c48,0,96,0,144,0c0,17.333,0,34.667,0,52c-38,0-76,0-114,0c0-0.667,0-1.333,0-2
			c0.845-2.155,6.375,0.375,7-2c3.92-1.08,12.315,2.315,13-2c1.667,0,3.333,0,5,0c6.124-1.124,8.898,1.102,12,3
			c0.804,0.529,1.624,1.043,3,1c8.567,0.233,17.02,0.353,17-8c0-0.333,0-0.667,0-1c2.391-0.609,7.255,1.255,8-1
			c1.419,0.086,2.832,0.165,3-1c4.367,0.034,7.798-0.868,11-2c0.667,0,1.333,0,2,0c0,0.333,0,0.667,0,1
			c1.725,1.658,10.275,1.658,12,0c0-0.333,0-0.667,0-1c3.988,0.988,3.012-2.988,7-2c0.333,0,0.667,0,1,0c0.667,0,1.333,0,2,0
			c0.838-2.162,2.589-3.411,2-7c0-0.333,0-0.667,0-1c2.323-0.677,2.677-3.323,5-4c2.976-0.087,2.676-5.963-1-5
			c0.169-2.168-3.547-0.453-5-1c0-0.333,0-0.667,0-1c-6.343-2.324-16.992-0.341-25-1c-4.557,1.223-3.924-2.743-8-2
			c-0.161-1.172-1.823-0.843-3-1c-0.809-1.858-1.293-4.041-3-5c-6.567-2.776-15.745-8.242-25-5c-2.744-0.147-5.156-0.186-3,2
			c-4.017,0.317-7.968,0.699-10,3C54.016,7.016,53.6,9.6,51,10z"/>
		<path style="fill-rule:evenodd;clip-rule:evenodd;fill:#A09795;" d="M14,46c-0.599,2.599,0.401,3.599,3,3
			c1.091,2.159,4.909-1.619,6,2c-1.667,0-3.333,0-5,0c-4.843,0.176-5.557-3.776-7-7c0.333,0,0.667,0,1,0
			c0.027,0.973,1.224,0.776,2,1C14,45.333,14,45.667,14,46z"/>
		<path style="fill-rule:evenodd;clip-rule:evenodd;fill:#A59268;" d="M66,9c4.622-0.855,0.247-5.504,4-6
			c-0.163,1.163,0.221,1.779,1,2c0,1,0,2,0,3c-1.419-0.086-2.832-0.165-3,1C67.333,9,66.667,9,66,9z"/>
		<path style="fill-rule:evenodd;clip-rule:evenodd;fill:#907044;" d="M70,3c4.521-0.521,7.206,0.794,8,4c-1,0-2,0-3,0
			c0.74-2.217-3.685-4.12-4-2C70.221,4.779,69.837,4.163,70,3z"/>
		<path style="fill-rule:evenodd;clip-rule:evenodd;fill:#D3D4D3;" d="M75,7c1,0,2,0,3,0c0.667,0,1.333,0,2,0
			c0.406,1.927,3.877,0.79,3,4c-1.419-0.086-2.832-0.165-3,1c-0.333,0-0.667,0-1,0c-4.612-0.055-9.776,0.443-13-1
			c0.248-1.086,1.988-0.678,2-2c0.168-1.165,1.581-1.086,3-1C72.793,8.127,73.109,6.776,75,7z M72,11c3.198-0.135,7.652,0.986,7-3
			C76.532,8.866,72.078,7.744,72,11z"/>
		<path style="fill-rule:evenodd;clip-rule:evenodd;fill:#C4C0BB;" d="M80,12c0.168-1.165,1.581-1.086,3-1
			c0.877-3.21-2.594-2.073-3-4c2.974-0.622,12.125,1.625,9-2c2.711,1.24,2.489,3.86,6,2c1.707,0.959,2.191,3.142,3,5
			C91.847,11.249,87.816,12.314,80,12z M85,11c1.453-0.547,5.169,1.168,5-1c-1.871,0.054-2.117-0.77-1-2
			c-1.453,0.547-5.169-1.168-5,1C84.779,9.221,85.163,9.837,85,11z"/>
		<path style="fill-rule:evenodd;clip-rule:evenodd;fill:#575756;" d="M57,7c0.729,2.729-1.987,2.013-2,4
			c-1.793-0.127-2.109,1.224-4,1c-1.454-0.443,0.102-0.878,0-2C53.6,9.6,54.016,7.016,57,7z"/>
		<path style="fill-rule:evenodd;clip-rule:evenodd;fill:#C4C0BB;" d="M66,9c0.667,0,1.333,0,2,0c-0.012,1.322-1.752,0.914-2,2
			c3.224,1.443,8.388,0.945,13,1c-1.4,2.933-9.6-0.933-11,2c-0.333,0-0.667,0-1,0c-4.596,0.596-7.657-0.343-9-3
			c-0.729-2.729,1.987-2.013,2-4c1.57,0.43,0.854,3.146,4,2C64.667,9,65.333,9,66,9z"/>
		<path style="fill-rule:evenodd;clip-rule:evenodd;fill:#7B7B7B;" d="M43,16c2.171-2.496,5.844-3.49,8-6
			c0.102,1.122-1.454,1.557,0,2c-0.897,2.103-1.554,4.446-3,6c-0.804,0.529-1.624,1.043-3,1c0.353-1.313,1.761-1.573,2-3
			C46.85,13.513,43.614,15.708,43,16z"/>
		<path style="fill-rule:evenodd;clip-rule:evenodd;fill:#A09795;" d="M51,12c1.891,0.224,2.207-1.127,4-1c0.667,0,1.333,0,2,0
			c1.247,4.247-3.326,2.674-4,5c1,0,2,0,3,0c0,0.333,0,0.667,0,1c-3.22-0.22-4.231,1.769-8,1C49.446,16.446,50.103,14.103,51,12z"/>
		<path style="fill-rule:evenodd;clip-rule:evenodd;fill:#A09795;" d="M77,19c2.487-0.896,9.041-2.892,11-1
			C83.875,17.875,81.738,19.738,77,19z"/>
		<path style="fill-rule:evenodd;clip-rule:evenodd;fill:#A09795;" d="M57,19c-0.19,0.81-1.003,0.997-1,2
			c4.564,0.564,6.228-1.772,11-1c-2.745,2.255-9.255,0.745-12,3c-5.285,0.715-10.643,1.357-15,3c-1.667,0-3.333,0-5,0
			c0.027-0.973,1.224-0.776,2-1c0.61-0.057,1.184-0.149,1-1c2.705-0.962,5.716-1.617,8-3c3.799-0.201,7.115-0.885,10-2
			C56.333,19,56.667,19,57,19z"/>
		<path style="fill-rule:evenodd;clip-rule:evenodd;fill:#A09795;" d="M67,14c0.333,0,0.667,0,1,0c4.333,0,8.667,0,13,0
			c-4.551,2.121-14.978,3.42-23,5c1.229-2.104,6.021-0.646,7-3c-2.333,0-4.667,0-7,0C58.759,13.093,66.241,16.907,67,14z"/>
		<path style="fill-rule:evenodd;clip-rule:evenodd;fill:#7B7B7B;" d="M97,17c3.129-0.204,7.341,0.674,9-1
			c-1.735,4.931-4.592,8.741-12,8c-4.024,0.642-10.634-1.3-13,1c-0.333,0-0.667,0-1,0c-2.711-2.968-7.378,0.564-11,0
			c3.338-4.219,7.413-1.856,12-4c-0.31-1.357-2.504-0.83-4-1c-0.333,0-0.667,0-1,0c-0.184-0.851,0.39-0.943,1-1
			c4.738,0.738,6.875-1.125,11-1c0.333,0,0.667,0,1,0c2.071-0.595,6.569,1.236,7-1C96.333,17,96.667,17,97,17z"/>
		<path style="fill-rule:evenodd;clip-rule:evenodd;fill:#A09795;" d="M101,13c4.076-0.743,3.443,3.223,8,2c0,0.333,0,0.667,0,1
			c-0.667,0-1.333,0-2,0c-0.333,0-0.667,0-1,0c-1.659,1.674-5.871,0.796-9,1c0.227-1.44,2.984-0.349,3-2
			c-2.409,0.409-2.174-1.826-5-1c-0.086,1.419-0.165,2.832,1,3c-0.431,2.236-4.929,0.405-7,1c-0.169-2.168,3.547-0.453,5-1
			c-0.86-0.807-0.594-2.739-2-3C93.063,11.73,98.286,13.619,101,13z"/>
		<path style="fill-rule:evenodd;clip-rule:evenodd;fill:#575756;" d="M135,27c-0.667,0-1.333,0-2,0c1.998-2.997,6.946-4.959,6-8
			c3.492-0.895,1.708,3.262,1,4C137.677,23.677,137.323,26.323,135,27z"/>
		<path style="fill-rule:evenodd;clip-rule:evenodd;fill:#616060;" d="M111,23c7.084-0.417,12.966,0.368,19,1
			c2.041-1.292,1.818-4.848,6-4c-0.161-1.172-1.823-0.843-3-1c0.125-2.208,4.242-0.425,6-1c3.676-0.963,3.976,4.913,1,5
			c0.708-0.738,2.492-4.895-1-4c0.946,3.041-4.002,5.003-6,8c0.667,0,1.333,0,2,0c0,0.333,0,0.667,0,1c-1.333,0-2.667,0-4,0
			c-9.239-3.226-16.963,3.694-25,5c-0.182,2.182,0.818,3.182,3,3c0,0.333,0,0.667,0,1c-3.202,1.132-6.633,2.034-11,2
			c-3.494-2.231-6.914,0.22-10,0c0.431,2.236,4.929,0.405,7,1c-0.745,2.255-5.609,0.391-8,1c0,0.333,0,0.667,0,1
			c-2.333,0-4.667,0-7,0c-6.066,0.268-10.357,2.31-15,4c-1.078-1.655-8.922-1.655-10,0c-1.667,0-3.333,0-5,0
			c-4.772-0.772-6.436,1.563-11,1c3.258-3.657,1.394-4.424-4-5c0.306-3.125-2.889,2.542-3-1c1.57-0.43,0.854-3.146,4-2
			c-1.303-1.88-7.38-0.113-8,2c0,0.333,0,0.667,0,1c-4.491-0.491-7.493,0.507-11,1c-0.354-8.141,29.516-12.676,40-6
			c-0.409-3.417-2.701-1.271-1-5c-2.096,4.095-8.161,0.236-12,0c5.003-0.789,1.657-7.276-4-6c4.357-1.643,9.715-2.285,15-3
			c2.667,0,5.333,0,8,0c-0.997,1.336-2.703,1.964-3,4c1.183,2.693,5.214-0.004,7,0c0,0.333,0,0.667,0,1s0,0.667,0,1
			c-1.615-0.282-1.722,0.945-3,1c-4.699,1.879,0.108,6.619,3,7c5.779,1.853,12.554,0.322,16-3c3.088-0.022,4.941-7.506,0-7
			c-1,0-2,0-3,0c0-0.667,0-1.333,0-2c0.333,0,0.667,0,1,0c4.024-0.642,10.634,1.3,13-1c7.408,0.741,10.265-3.069,12-8
			c0.333,0,0.667,0,1,0c0.792,3.458-1.111,4.222-2,6C106.394,25.144,109.936,20.625,111,23z M76,41c-1.496,0.171-3.69-0.357-4,1
			c1.667,0,3.333,0,5,0c1.881-4.957-10.927-3.513-6,0C69.458,38.981,76.175,39.369,76,41z M64,43c-2.182-0.53-6.468-2.42-7,1
			C59.072,43.405,63.569,45.236,64,43z M96,29c3.108-0.892,6.971-1.029,7-5C99.854,24.853,96.855,25.855,96,29z"/>
		<path style="fill-rule:evenodd;clip-rule:evenodd;fill:#575756;" d="M71,42c-4.927-3.513,7.881-4.957,6,0c-1.667,0-3.333,0-5,0
			c0.31-1.357,2.504-0.829,4-1C76.175,39.369,69.458,38.981,71,42z"/>
		<path style="fill-rule:evenodd;clip-rule:evenodd;fill:#575756;" d="M28,41c0.62-2.113,6.697-3.88,8-2c-3.146-1.146-2.43,1.57-4,2
			C30.667,41,29.333,41,28,41z"/>
		<path style="fill-rule:evenodd;clip-rule:evenodd;fill:#575756;" d="M40,26c5.657-1.276,9.003,5.211,4,6
			c3.839,0.236,9.904,4.095,12,0c-1.701,3.729,0.591,1.583,1,5c-10.484-6.676-40.354-2.141-40,6c-2.007-0.34-3.129,0.204-3,2
			c-0.776-0.224-1.973-0.027-2-1c2.259-1.683-3.525-3.741-6-4c2.549-5.784,10.956-5.711,17-8c-0.162-1.172-1.823-0.844-3-1
			c1.506-2.827,6.802-1.865,9-4c2.465,0.132,4.818,0.151,6-1C36.667,26,38.333,26,40,26z M36,28c2.276,0.136,3.874,6.02,6,3
			C40.656,29.932,38.426,24.68,36,28z"/>
		<path style="fill-rule:evenodd;clip-rule:evenodd;fill:#575756;" d="M103,24c-0.029,3.971-3.892,4.108-7,5
			C96.855,25.855,99.854,24.853,103,24z"/>
		<path style="fill-rule:evenodd;clip-rule:evenodd;fill:#494949;" d="M43,20c1.419-0.086,2.832-0.165,3,1
			c-2.284,1.383-5.295,2.038-8,3C37.299,20.299,41.506,21.506,43,20z"/>
		<path style="fill-rule:evenodd;clip-rule:evenodd;fill:#494949;" d="M20,31c1.177,0.156,2.838-0.172,3,1
			c-6.044,2.289-14.451,2.216-17,8c2.475,0.259,8.259,2.317,6,4c-0.333,0-0.667,0-1,0c-2.009-2.324-7.648-1.019-8-5
			C6.074,33.74,13.291,32.625,20,31z"/>
		<path style="fill-rule:evenodd;clip-rule:evenodd;fill:#E7E9E8;" d="M71,27c3,0,6,0,9,0c1,0,2,0,3,0c0,0.333,0,0.667,0,1
			c2.239,4.09-10.217,1.404-13,1C70.19,28.19,71.003,28.003,71,27z"/>
		<path style="fill-rule:evenodd;clip-rule:evenodd;fill:#D3D4D3;" d="M83,28c2.134-0.467,1.904,1.429,2,3
			c-6.54,0.54-11.384-0.616-17-1c0.19-0.81,1.003-0.997,1-2c0.027-0.973,1.224-0.776,2-1c0.003,1.003-0.81,1.19-1,2
			C72.783,29.404,85.239,32.09,83,28z"/>
		<path style="fill-rule:evenodd;clip-rule:evenodd;fill:#9B7065;" d="M109,36c-2.182,0.182-3.182-0.818-3-3
			c8.037-1.306,15.761-8.226,25-5c-2.224,0.776-5.423,0.577-6,3c-1.163-0.163-1.779,0.221-2,1c-1.162-0.162-1.779,0.221-2,1
			C117.191,30.704,112.638,34.934,109,36z"/>
		<path style="fill-rule:evenodd;clip-rule:evenodd;fill:#A59268;" d="M121,33c-0.027,0.973-1.224,0.776-2,1
			c2.323,3.54,9.533-1.684,11,1c-3.988-0.988-3.012,2.988-7,2c-4.331,0.948-10.476-1.458-12,0c-0.667,0-1.333,0-2,0
			c0-0.333,0-0.667,0-1C112.638,34.934,117.191,30.704,121,33z"/>
		<path style="fill-rule:evenodd;clip-rule:evenodd;fill:#C4C0BB;" d="M67,28c0.667,0,1.333,0,2,0c0.003,1.003-0.81,1.19-1,2
			c5.616,0.384,10.46,1.54,17,1c0.184,0.851-0.39,0.943-1,1c-5.981-0.25-17.817,0.801-17-3C67,28.667,67,28.333,67,28z"/>
		<path style="fill-rule:evenodd;clip-rule:evenodd;fill:#D3D4D3;" d="M131,28c1.333,0,2.667,0,4,0c0.589,3.589-1.162,4.838-2,7
			c-0.667,0-1.333,0-2,0c-0.149-1.332,4.065-3.019,1-4c-1.786-0.004-5.817,2.693-7,0C125.577,28.577,128.776,28.776,131,28z"/>
		<path style="fill-rule:evenodd;clip-rule:evenodd;fill:#AEAAA7;" d="M64,30c1.278-0.055,1.385-1.282,3-1
			c-0.817,3.801,11.019,2.75,17,3c-2.366,2.3-8.976,0.358-13,1c-1.793,0.127-2.109-1.225-4-1C64.993,32.34,63.871,31.796,64,30z"/>
		<path style="fill-rule:evenodd;clip-rule:evenodd;fill:#A09795;" d="M84,32c0.61-0.057,1.184-0.149,1-1
			c-0.096-1.571,0.134-3.467-2-3c0-0.333,0-0.667,0-1c4.941-0.506,3.088,6.978,0,7c-3.695-0.638-9.962,1.295-12-1
			C75.024,32.358,81.634,34.3,84,32z"/>
		<path style="fill-rule:evenodd;clip-rule:evenodd;fill:#C4C0BB;" d="M125,31c1.183,2.693,5.214-0.004,7,0
			c-0.585,2.148-7.431,3.146-9,1C123.221,31.221,123.837,30.837,125,31z"/>
		<path style="fill-rule:evenodd;clip-rule:evenodd;fill:#A59268;" d="M67,32c1.891-0.225,2.207,1.127,4,1
			c2.038,2.295,8.305,0.362,12,1c-3.446,3.322-10.221,4.853-16,3c-3.249-3.16,2.983-0.371,2-4C67.837,33.163,67.221,32.779,67,32z"
			/>
		<path style="fill-rule:evenodd;clip-rule:evenodd;fill:#9B7065;" d="M67,37c-2.892-0.381-7.699-5.121-3-7
			c-0.129,1.796,0.993,2.34,3,2c0.221,0.779,0.837,1.163,2,1C69.983,36.629,63.751,33.84,67,37z"/>
		<path style="fill-rule:evenodd;clip-rule:evenodd;fill:#9B7065;" d="M32,41c0.111,3.542,3.306-2.125,3,1
			c-5.634,2.699-12.13,4.536-18,7c-2.599,0.599-3.599-0.401-3-3c6.554-1.576,8.886-2.208,14-4c0-0.333,0-0.667,0-1
			C29.333,41,30.667,41,32,41z"/>
		<path style="fill-rule:evenodd;clip-rule:evenodd;fill:#9B7065;" d="M65,46c4.643-1.69,8.934-3.732,15-4
			c-4.546,2.673-5.66,2.844-11,5c-0.282,1.615,0.945,1.722,1,3c-1.376,0.043-2.196-0.471-3-1C66.646,47.687,65.24,47.427,65,46z"/>
		<path style="fill-rule:evenodd;clip-rule:evenodd;fill:#C4C0BB;" d="M55,46c1.078-1.655,8.922-1.655,10,0
			c0.24,1.427,1.646,1.687,2,3C63.898,47.102,61.124,44.876,55,46z"/>
		<path style="fill-rule:evenodd;clip-rule:evenodd;fill:#A59268;" d="M87,42c0.02,8.353-8.433,8.233-17,8
			c-0.055-1.278-1.282-1.385-1-3c5.34-2.156,6.454-2.327,11-5C82.333,42,84.667,42,87,42z"/>
		<path style="fill-rule:evenodd;clip-rule:evenodd;fill:#9B7065;" d="M67,4c-2.156-2.186,0.256-2.147,3-2
			c2.714,0.619,7.937-1.27,9,1c-4.078-0.483-0.525,3.069,2,2c-0.19,0.81-1.003,0.997-1,2c-0.667,0-1.333,0-2,0
			c-0.794-3.206-3.479-4.521-8-4c-3.753,0.496,0.622,5.145-4,6c-0.667,0-1.333,0-2,0C63.527,5.86,66.691,6.358,67,4z"/>
		<path style="fill-rule:evenodd;clip-rule:evenodd;fill:#907044;" d="M79,3c4.195-0.528,5.586,1.747,9,2
			c-1.183,2.693-5.214-0.004-7,0C78.475,6.069,74.922,2.517,79,3z"/>
		<path style="fill-rule:evenodd;clip-rule:evenodd;fill:#A59268;" d="M81,5c1.786-0.004,5.817,2.693,7,0c0.333,0,0.667,0,1,0
			c3.125,3.625-6.026,1.378-9,2C79.997,5.997,80.81,5.81,81,5z"/>
		<path style="fill-rule:evenodd;clip-rule:evenodd;fill:#9B7065;" d="M75,7c-1.891-0.224-2.207,1.127-4,1c0-1,0-2,0-3
			C71.315,2.88,75.74,4.783,75,7z"/>
		<path style="fill-rule:evenodd;clip-rule:evenodd;fill:#D3D4D3;" d="M109,15c8.008,0.659,18.657-1.324,25,1
			c-8.333,0-16.667,0-25,0C109,15.667,109,15.333,109,15z"/>
		<path style="fill-rule:evenodd;clip-rule:evenodd;fill:#7B7B7B;" d="M109,16c8.333,0,16.667,0,25,0c0,0.333,0,0.667,0,1
			c-7.667,0-15.333,0-23,0c5.61,3.282,12.055-0.269,18,2c-0.84,6.494-14.17,0.497-18,4c-1.064-2.375-4.606,2.144-6-1
			c0.889-1.778,2.792-2.542,2-6C107.667,16,108.333,16,109,16z"/>
		<path style="fill-rule:evenodd;clip-rule:evenodd;fill:#6F6D6C;" d="M111,23c3.83-3.503,17.16,2.494,18-4
			c-5.945-2.269-12.39,1.282-18-2c7.667,0,15.333,0,23,0c1.453,0.547,5.169-1.168,5,1c-1.758,0.575-5.875-1.208-6,1
			c1.177,0.157,2.839-0.172,3,1c-4.182-0.848-3.959,2.708-6,4C123.966,23.368,118.084,22.583,111,23z"/>
		<path style="fill-rule:evenodd;clip-rule:evenodd;fill:#616060;" d="M43,16c0.614-0.292,3.85-2.487,4,0
			c-0.239,1.427-1.647,1.687-2,3c1.376,0.043,2.196-0.471,3-1c3.769,0.769,4.78-1.22,8-1c1.454,0.443-0.102,0.878,0,2
			c-2.885,1.115-6.201,1.799-10,2c-0.168-1.165-1.581-1.086-3-1C43,18.667,43,17.333,43,16z"/>
		<path style="fill-rule:evenodd;clip-rule:evenodd;fill:#AEAAA7;" d="M77,19c-0.61,0.057-1.184,0.149-1,1c-3,0-6,0-9,0
			c-4.772-0.772-6.436,1.564-11,1c-0.003-1.003,0.81-1.19,1-2c0.333,0,0.667,0,1,0c8.022-1.58,18.449-2.879,23-5
			c-4.333,0-8.667,0-13,0c1.4-2.933,9.6,0.933,11-2c0.333,0,0.667,0,1,0c7.816,0.314,11.847-0.751,18,0c1.177,0.157,2.839-0.172,3,1
			c-2.714,0.619-7.937-1.27-9,1c1.406,0.261,1.14,2.193,2,3c-1.453,0.547-5.169-1.168-5,1c-0.333,0-0.667,0-1,0
			C86.041,16.108,79.487,18.104,77,19z"/>
		<path style="fill-rule:evenodd;clip-rule:evenodd;fill:#E7E9E8;" d="M29,27c-1.604-0.106,8.91-5.761,8-2
			c-0.776,0.224-1.973,0.027-2,1C33.818,27.151,31.465,27.132,29,27z"/>
		<path style="fill-rule:evenodd;clip-rule:evenodd;fill:#A09795;" d="M123,32c1.569,2.146,8.415,1.148,9-1
			c3.065,0.981-1.149,2.668-1,4c-0.333,0-0.667,0-1,0c-1.467-2.684-8.677,2.54-11-1c0.776-0.224,1.973-0.027,2-1
			C121.221,32.221,121.838,31.838,123,32z"/>
		<path style="fill-rule:evenodd;clip-rule:evenodd;fill:#E7E9E8;" d="M111,38c4,0,8,0,12,0C121.275,39.658,112.725,39.658,111,38z"
			/>
		<path style="fill-rule:evenodd;clip-rule:evenodd;fill:#575756;" d="M95,40c-2.071-0.595-6.569,1.236-7-1
			c3.086,0.22,6.506-2.231,10,0C97.832,40.165,96.419,40.086,95,40z"/>
		<path style="fill-rule:evenodd;clip-rule:evenodd;fill:#A59268;" d="M14,45c-0.129-1.796,0.993-2.34,3-2
			c3.507-0.493,6.509-1.491,11-1c-5.114,1.792-7.446,2.424-14,4C14,45.667,14,45.333,14,45z"/>
		<path style="fill-rule:evenodd;clip-rule:evenodd;fill:#D3D4D3;" d="M50,46c-0.685,4.315-9.08,0.92-13,2
			c0.027-0.973,1.224-0.776,2-1C43.564,47.563,45.228,45.228,50,46z"/>
		<path style="fill-rule:evenodd;clip-rule:evenodd;fill:#A59268;" d="M37,48c-0.625,2.375-6.155-0.155-7,2
			c-2.656,0.011-5.711-0.378-7,1c-1.091-3.619-4.909,0.159-6-2c5.87-2.464,12.366-4.301,18-7c5.394,0.576,7.258,1.343,4,5
			C38.224,47.224,37.027,47.027,37,48z"/>
		<path style="fill-rule:evenodd;clip-rule:evenodd;fill:#D3D4D3;" d="M18,51c1.667,0,3.333,0,5,0c1.289-1.378,4.344-0.989,7-1
			c0,0.667,0,1.333,0,2c-4,0-8,0-12,0C18,51.667,18,51.333,18,51z"/>
		<path style="fill-rule:evenodd;clip-rule:evenodd;fill:#6F6D6C;" d="M67,20c3,0,6,0,9,0c0.333,0,0.667,0,1,0
			c1.496,0.17,3.69-0.357,4,1c-4.587,2.144-8.662-0.219-12,4c3.622,0.564,8.289-2.968,11,0c0,0.667,0,1.333,0,2c-3,0-6,0-9,0
			c-0.776,0.224-1.973,0.027-2,1c-0.667,0-1.333,0-2,0c0-0.333,0-0.667,0-1c-1.786-0.004-5.817,2.693-7,0
			c0.297-2.036,2.003-2.664,3-4c-2.667,0-5.333,0-8,0C57.745,20.745,64.255,22.255,67,20z"/>
		<path style="fill-rule:evenodd;clip-rule:evenodd;fill:#A09795;" d="M111,37c1.524-1.458,7.669,0.948,12,0c0,0.333,0,0.667,0,1
			c-4,0-8,0-12,0C111,37.667,111,37.333,111,37z"/>
		<path style="fill-rule:evenodd;clip-rule:evenodd;fill:#907044;" d="M57,7c2.032-2.301,5.983-2.683,10-3
			c-0.309,2.358-3.473,1.86-3,5c-3.146,1.146-2.43-1.57-4-2c-0.013,1.987-2.729,1.271-2,4c-0.333,0-0.667,0-1,0
			c-0.667,0-1.333,0-2,0C55.013,9.013,57.729,9.729,57,7z"/>
	</g>
</g>
</svg>
