<?xml version="1.0" encoding="iso-8859-1"?>
<!-- Generator: Adobe Illustrator 13.0.2, SVG Export Plug-In . SVG Version: 6.00 Build 14948)  -->
<!DOCTYPE svg PUBLIC "-//W3C//DTD SVG 1.1//EN" "http://www.w3.org/Graphics/SVG/1.1/DTD/svg11.dtd">
<svg version="1.1" id="Layer_1" xmlns="http://www.w3.org/2000/svg" xmlns:xlink="http://www.w3.org/1999/xlink" x="0px" y="0px"
	 width="144px" height="52px" viewBox="0 0 144 52" style="enable-background:new 0 0 144 52;" xml:space="preserve">
<g>
	<g>
		<path style="fill-rule:evenodd;clip-rule:evenodd;fill:#9E6E63;" d="M65,9c-0.25-2.917,1.883-3.45,3-5
			c1.481,0.186,0.917,2.417,1,4c-1.177,0.157-2.838-0.172-3,1C65.667,9,65.333,9,65,9z"/>
		<path style="fill-rule:evenodd;clip-rule:evenodd;fill:#BDB9B7;" d="M61,10c0.667,0,1.333,0,2,0c1.003-0.003,1.19,0.81,2,1
			c-0.521,1.479-1.479,2.521-2,4c-2.396,0.396,0.555-4.555-3-3C59.997,10.997,60.81,10.81,61,10z"/>
		<path style="fill-rule:evenodd;clip-rule:evenodd;fill:#777777;" d="M120,21c-0.333,0-0.667,0-1,0c0.898-1.768,2.414-2.919,3-5
			c2.403,2.828,6.047-1.377,8,1c-0.905,1.762-3.681,1.652-4,4C124,21,122,21,120,21z"/>
		<path style="fill-rule:evenodd;clip-rule:evenodd;fill:#545453;" d="M56,25c1.703-2.597,2.335,4.252,5,4
			c1.838,2.828,7.612,1.722,8,6C63.403,32.931,57.248,31.419,56,25z"/>
		<path style="fill-rule:evenodd;clip-rule:evenodd;fill:#A19163;" d="M129,28c0.286,1.763-4.709,3.097-2,4
			c-2.988,2.012-7.91,2.09-12,3c-0.168-1.165-1.581-1.086-3-1C116.227,30.561,122.173,28.839,129,28z"/>
		<path style="fill-rule:evenodd;clip-rule:evenodd;fill:#A19163;" d="M85,32c2,0,4,0,6,0c-0.479,3.188-6.65,0.684-8,3
			c-0.333,0-0.667,0-1,0C81.312,32.312,84.067,33.067,85,32z"/>
		<path style="fill-rule:evenodd;clip-rule:evenodd;fill:#A19163;" d="M26,47c2.533-4.801,10.244-4.423,15-7
			c0.261,1.406,2.193,1.14,3,2C40.339,45.814,35.313,46.943,26,47z"/>
		<path style="fill-rule:evenodd;clip-rule:evenodd;fill:#A19163;" d="M63,47c-2.813-3.107,3.989-2.661,4-6c1,0,2,0,3,0
			c1.01,2.815,4.247-0.276,6,0c0.753,3.753-3.82,2.18-4,5C67.882,45.215,66.868,47.535,63,47z"/>
		<path style="fill-rule:evenodd;clip-rule:evenodd;fill:#FFFFFF;" d="M54,9c-3.442,3.225-8.72,4.613-9,11
			c-1.71-0.044-2.59,0.743-3,2c-1.009,1.991-3.717,2.283-5,4c-3.049-0.049-5.091,0.908-6,3c-8.191,2.809-16.91,5.09-23,10
			c2.885,1.781,5.344,3.99,10,4c4.352,8.465,22.579,4.951,28,0c3.774,0.226,9.05-1.05,10,2c1.907,0.426,1.81,2.857,5,2
			c2.487,2.421,9.042,0.425,11-1c3.784-0.549,5.784-2.883,6-7c1.289-1.378,4.344-0.989,7-1c7.009-1.991,14.538-3.462,22-5
			c2.091,0.576,2.854,2.479,6,2c2.823,3.08,6.902-1.041,11,0c11.528,0.195,9.596-13.071,17-17c0.19-0.81,1.003-0.997,1-2
			c0.184-0.851-0.39-0.943-1-1c-3.346-3.67-17.08-2.232-22-1c-10.095,2.095-11.681-4.319-20-4c-1.386-0.614-0.15-3.85-2-4
			c-1.394-1.606-4.936-1.065-6-3c-0.667,0-1.333,0-2,0c-2.562-0.105-4.768-0.566-6-2c0.851,0.184,0.943-0.39,1-1c20,0,40,0,60,0
			c0,17.333,0,34.667,0,52c-48,0-96,0-144,0C0,34.667,0,17.333,0,0c24,0,48,0,72,0c-0.226,1.44-2.985,0.349-3,2
			C63.264,3.597,57.819,5.486,54,9z"/>
		<path style="fill-rule:evenodd;clip-rule:evenodd;fill:#A6A6A6;" d="M46,42c3.333,0,6.667,0,10,0c0,1,0,2,0,3
			c-0.95-3.05-6.226-1.774-10-2C46,42.667,46,42.333,46,42z"/>
		<path style="fill-rule:evenodd;clip-rule:evenodd;fill:#E6E6E5;" d="M124,35c4.624-2.043,10.517-2.817,9-11
			c3.104-1.562,4.371-4.962,8-6C133.596,21.929,135.528,35.195,124,35z"/>
		<path style="fill-rule:evenodd;clip-rule:evenodd;fill:#CFCDCC;" d="M82,6c3.333,0,6.667,0,10,0c0.282-1.615-0.945-1.722-1-3
			c1.064,1.935,4.606,1.394,6,3c-2.599-0.599-3.599,0.401-3,3c-2.007,0.34-3.129-0.205-3-2c-1.172,0.162-0.844,1.823-1,3
			c-0.973-0.027-0.776-1.224-1-2c-1.127,2.207-4.403,2.264-7,3c3.402-3.902-2.846-4.559-7-4c0-0.333,0-0.667,0-1c1,0,2,0,3,0
			C79.333,6,80.667,6,82,6z"/>
		<path style="fill-rule:evenodd;clip-rule:evenodd;fill:#9E6E63;" d="M59,10c0.529-0.804,1.043-1.624,1-3
			c1.419,0.086,2.832,0.165,3-1c1.484,0.437-0.395,1.28,0,3c0,0.333,0,0.667,0,1c-0.667,0-1.333,0-2,0S59.667,10,59,10z"/>
		<path style="fill-rule:evenodd;clip-rule:evenodd;fill:#8A643F;" d="M54,9c3.819-3.514,9.264-5.403,15-7
			c2.465,0.132,4.818,0.151,6-1c0.027,0.973,1.224,0.776,2,1c-2.6,2.629,1.616,0.787,1,4c-1,0-2,0-3,0c0.437-4.118-6.317-2.003-4,2
			c-0.333,0-0.667,0-1,0s-0.667,0-1,0c-0.083-1.583,0.481-3.814-1-4c-1.117,1.55-3.25,2.083-3,5c-0.667,0-1.333,0-2,0
			c-0.395-1.72,1.484-2.563,0-3c-0.168,1.165-1.581,1.086-3,1c0.043,1.376-0.471,2.196-1,3c0.184,0.851-0.39,0.943-1,1c-1,0-2,0-3,0
			C54.027,10.973,54.224,9.776,54,9z"/>
		<path style="fill-rule:evenodd;clip-rule:evenodd;fill:#9E6E63;" d="M83,1c1.232,1.434,3.438,1.895,6,2
			c2.714,4.037-6.036,1.389-7,0c-1.484,0.437,0.395,1.28,0,3c-1.333,0-2.667,0-4,0c0.616-3.213-3.6-1.371-1-4
			c-0.776-0.224-1.973-0.027-2-1C77.667,1,80.333,1,83,1z"/>
		<path style="fill-rule:evenodd;clip-rule:evenodd;fill:#A19163;" d="M91,3c0.055,1.278,1.282,1.385,1,3c-3.333,0-6.667,0-10,0
			c0.395-1.72-1.484-2.563,0-3c0.964,1.389,9.714,4.037,7,0C89.667,3,90.333,3,91,3z"/>
		<path style="fill-rule:evenodd;clip-rule:evenodd;fill:#A6A6A6;" d="M63,10c0-0.333,0-0.667,0-1c0.667,0,1.333,0,2,0
			c0.333,0,0.667,0,1,0c-1.038,0.945-0.914,5.152,2,5c0.451,2.784-5.451-0.784-5,2c-1.583,0.083-3.814-0.481-4,1
			c-1.667,0-3.333,0-5,0c-2.857-0.521,1.614-1.479,2-2c0.163-1.163-0.221-1.779-1-2c0.226-1.44,2.985-0.349,3-2
			c0.61-0.057,1.184-0.149,1-1c0.667,0,1.333,0,2,0c-0.19,0.81-1.003,0.997-1,2c3.555-1.555,0.604,3.396,3,3
			c0.521-1.479,1.479-2.521,2-4C64.19,10.81,64.003,9.997,63,10z"/>
		<path style="fill-rule:evenodd;clip-rule:evenodd;fill:#A6A6A6;" d="M99,10c8.319-0.319,9.905,6.095,20,4c0.333,0,0.667,0,1,0
			c0,0.333,0,0.667,0,1c-16.422,1.912-33.152,3.514-48,7c-4.736-0.403-6.882,1.785-12,1c-3.578-1.797-6.342,1.101-10,2
			c-0.851-0.184-0.943,0.39-1,1c-0.667,0-1.333,0-2,0c-3.333,0-6.667,0-10,0c1.283-1.717,3.991-2.009,5-4
			c0.813,3.921,7.508-2.087,11-2c1.279-1.388,4.721-0.612,6-2c1.333,0,2.667,0,4,0c5.421-0.912,9.885-2.782,16-3
			c-0.431-2.236-4.929-0.405-7-1c0.136-2.864,6.864,0.864,7-2c0.333,0,0.667,0,1,0C86.981,12.104,94.561,9.321,99,10z M97,13
			c2.409-2.719,7.27,2.814,8-2C101.977,11.31,97.223,9.89,97,13z"/>
		<path style="fill-rule:evenodd;clip-rule:evenodd;fill:#908F8F;" d="M50,25c3.658-0.899,6.422-3.797,10-2
			C56.546,23.696,55.619,24.756,50,25z"/>
		<path style="fill-rule:evenodd;clip-rule:evenodd;fill:#908F8F;" d="M68,14c1.333,0,2.667,0,4,0c2.071,0.595,6.569-1.236,7,1
			c-6.115,0.218-10.579,2.088-16,3c1.182-1.434,5.304-1.895,0-2C62.549,13.216,68.451,16.784,68,14z"/>
		<path style="fill-rule:evenodd;clip-rule:evenodd;fill:#908F8F;" d="M50,18c-1.485-1.551,4.12-4.498,5-7c1,0,2,0,3,0
			c-0.015,1.651-2.774,0.56-3,2c0.779,0.221,1.163,0.837,1,2c-0.386,0.521-4.857,1.479-2,2C53.69,18.357,51.496,17.83,50,18z"/>
		<path style="fill-rule:evenodd;clip-rule:evenodd;fill:#777777;" d="M55,11c-0.88,2.502-6.485,5.449-5,7c0,0.333,0,0.667,0,1
			c-2.826-0.826-2.591,1.409-5,1c0.28-6.387,5.558-7.775,9-11C54.224,9.776,54.027,10.973,55,11z"/>
		<path style="fill-rule:evenodd;clip-rule:evenodd;fill:#6C6867;" d="M76,27c2.286-1.714,7.05-0.95,9-3
			c1.454,0.443-0.102,0.878,0,2c-0.81,0.19-0.997,1.003-2,1c-0.89,0.776-2.258,1.075-4,1C78.889,24.458,75.694,30.125,76,27z"/>
		<path style="fill-rule:evenodd;clip-rule:evenodd;fill:#777777;" d="M72,22c14.848-3.486,31.578-5.088,48-7
			c0.745,3.078-2.745,1.922-2,5c-5.08,3.586-15.833,1.5-22,4c-2.391,0.609-7.255-1.255-8,1c-0.333,0-0.667,0-1,0
			c-0.81,0.19-0.997,1.003-2,1c-0.102-1.122,1.454-1.557,0-2c-1.95,2.05-6.714,1.286-9,3c-0.333,0-0.667,0-1,0
			c-2.319,0.319-3.839-0.161-5-1c0.733-1.781,1.818-0.144,3,0c-0.832-3.21-0.852-2.073,1-4C73.333,22,72.667,22,72,22z"/>
		<path style="fill-rule:evenodd;clip-rule:evenodd;fill:#605F5F;" d="M139,15c0.667,0,1.333,0,2,0c0.61,0.057,1.184,0.149,1,1
			c0.003,1.003-0.81,1.19-1,2c-3.629,1.038-4.896,4.438-8,6c-0.851-0.184-0.943,0.39-1,1c-7.242-0.436-18.634,3.264-25,7
			c-3.414,1.818-4.805-0.135-9,0c0.19-0.81,1.003-0.997,1-2c2.689,0.031,2.689-5.032,0-5c-0.333,0-0.667,0-1,0
			c-0.027-0.973-1.224-0.776-2-1c6.167-2.5,16.92-0.414,22-4c-0.551,2.051,1.909,2.386,2,1c2,0,4,0,6,0c3.297,0.53,11.622-0.05,10-6
			C137,15,138,15,139,15z"/>
		<path style="fill-rule:evenodd;clip-rule:evenodd;fill:#6C6867;" d="M126,21c0.319-2.348,3.095-2.238,4-4
			c-1.953-2.377-5.597,1.828-8-1c-0.586,2.081-2.102,3.232-3,5c0.333,0,0.667,0,1,0c-0.091,1.386-2.551,1.051-2-1
			c-0.745-3.078,2.745-1.922,2-5c5.333,0,10.667,0,16,0C137.622,20.95,129.297,21.53,126,21z"/>
		<path style="fill-rule:evenodd;clip-rule:evenodd;fill:#6C6867;" d="M50,25c5.619-0.244,6.546-1.304,10-2
			c5.118,0.785,7.264-1.403,12-1c0.667,0,1.333,0,2,0c-1.852,1.927-1.832,0.79-1,4c-1.182-0.144-2.267-1.781-3,0
			c1.161,0.839,2.681,1.319,5,1c-5.029,2.381-9.187,0.757-14,2c-2.665,0.252-3.297-6.597-5-4c-0.89,0.777-2.258,1.075-4,1
			c-1,0-2,0-3,0C49.057,25.39,49.149,24.816,50,25z"/>
		<path style="fill-rule:evenodd;clip-rule:evenodd;fill:#605F5F;" d="M52,26c1.742,0.075,3.11-0.223,4-1
			c1.248,6.419,7.403,7.931,13,10c-0.388-4.278-6.162-3.172-8-6c4.813-1.243,8.971,0.381,14-2c0.333,0,0.667,0,1,0
			c-0.306,3.125,2.889-2.542,3,1c-0.558,2.039-3.009,1.961-1,4c0.279,2.055,2.671,1.996,4,3c0.333,0,0.667,0,1,0
			c0.027,0.973,1.224,0.776,2,1c0,0.667,0,1.333,0,2c-2.656,0.011-5.711-0.378-7,1c-3.087,0.246-5.653,1.014-8,2c-1,0-2,0-3,0
			c-4.738-0.738-6.875,1.125-11,1c-3.333,0-6.667,0-10,0c0-0.667,0-1.333,0-2c0-0.333,0-0.667,0-1c-5.349,0.651-13.313-1.313-17,1
			c-0.81-0.19-0.997-1.003-2-1c5.361-4.639,15.128-4.872,23-7C51.149,29.899,49.391,28.101,52,26z"/>
		<path style="fill-rule:evenodd;clip-rule:evenodd;fill:#9E6E63;" d="M107,32c6.366-3.736,17.758-7.436,25-7
			c0.688,2.688-2.067,1.933-3,3c-6.827,0.839-12.773,2.561-17,6c1.419-0.086,2.832-0.165,3,1c-0.667,0-1.333,0-2,0
			c-3.146,0.479-3.909-1.424-6-2C107,32.667,107,32.333,107,32z"/>
		<path style="fill-rule:evenodd;clip-rule:evenodd;fill:#BDB9B7;" d="M87,29c4.827-0.174,15.551,1.346,12-4
			c2.689-0.032,2.689,5.031,0,5c-0.333,0-0.667,0-1,0C94.219,30.798,89.414,31.864,87,29z"/>
		<path style="fill-rule:evenodd;clip-rule:evenodd;fill:#CFCDCC;" d="M87,29c-1.667,0-3.333,0-5,0c0.19-0.81,1.003-0.997,1-2
			c1.003,0.003,1.19-0.81,2-1c1.003,0.003,1.19-0.81,2-1c0.367,1.701-0.78,1.887-2,2c2.617,1.188,9.39,1.497,14,0
			c-0.247-1.086-1.988-0.679-2-2c0.333,0,0.667,0,1,0s0.667,0,1,0C102.551,30.346,91.827,28.826,87,29z"/>
		<path style="fill-rule:evenodd;clip-rule:evenodd;fill:#BCA495;" d="M79,28c1.742,0.075,3.11-0.224,4-1c0.003,1.003-0.81,1.19-1,2
			c1.667,0,3.333,0,5,0c2.414,2.864,7.219,1.798,11,1c-0.965,2.035-3.84,2.16-7,2c-2,0-4,0-6,0c-0.625-2.136-6.155-0.938-7,0
			C75.991,29.961,78.442,30.039,79,28z"/>
		<path style="fill-rule:evenodd;clip-rule:evenodd;fill:#BCA495;" d="M133,24c1.517,8.183-4.376,8.957-9,11
			c-4.098-1.041-8.177,3.08-11,0c0.667,0,1.333,0,2,0c4.09-0.91,9.012-0.988,12-3c-2.709-0.903,2.286-2.237,2-4
			c0.933-1.067,3.688-0.312,3-3C132.057,24.39,132.149,23.816,133,24z"/>
		<path style="fill-rule:evenodd;clip-rule:evenodd;fill:#AE8B7A;" d="M91,32c3.16,0.16,6.035,0.035,7-2c0.333,0,0.667,0,1,0
			c0.003,1.003-0.81,1.19-1,2c-3.35,2.317-8.438,2.896-13,4c-0.776-0.224-1.973-0.027-2-1C84.35,32.684,90.521,35.188,91,32z"/>
		<path style="fill-rule:evenodd;clip-rule:evenodd;fill:#9E6E63;" d="M78,32c0.845-0.938,6.375-2.136,7,0
			c-0.933,1.067-3.688,0.312-3,3C80.671,33.996,78.279,34.055,78,32z"/>
		<path style="fill-rule:evenodd;clip-rule:evenodd;fill:#6C6867;" d="M85,36c4.562-1.104,9.65-1.683,13-4
			c4.195-0.135,5.586,1.818,9,0c0,0.333,0,0.667,0,1c-7.462,1.538-14.991,3.009-22,5C85,37.333,85,36.667,85,36z"/>
		<path style="fill-rule:evenodd;clip-rule:evenodd;fill:#AE8B7A;" d="M70,41c2.347-0.986,4.913-1.754,8-2
			c-0.216,4.117-2.216,6.451-6,7c0.18-2.82,4.753-1.247,4-5C74.247,40.724,71.01,43.815,70,41z"/>
		<path style="fill-rule:evenodd;clip-rule:evenodd;fill:#E6E6E5;" d="M75,1c-1.182,1.151-3.535,1.132-6,1
			c0.015-1.651,2.774-0.56,3-2c4,0,8,0,12,0c-0.057,0.61-0.149,1.184-1,1C80.333,1,77.667,1,75,1z"/>
		<path style="fill-rule:evenodd;clip-rule:evenodd;fill:#BDB9B7;" d="M82,11c2.597-0.736,5.873-0.793,7-3
			c0.224,0.776,0.027,1.973,1,2c0.156-1.177-0.172-2.838,1-3c-0.129,1.795,0.993,2.34,3,2c-0.599-2.599,0.401-3.599,3-3
			c1.85,0.15,0.614,3.386,2,4c-4.439-0.679-12.019,2.104-19,2c0-0.333,0-0.667,0-1C80.667,11,81.333,11,82,11z"/>
		<path style="fill-rule:evenodd;clip-rule:evenodd;fill:#9E6E63;" d="M71,8c-2.317-4.003,4.437-6.118,4-2c0,0.333,0,0.667,0,1
			c-1.162-0.163-1.779,0.221-2,1C72.333,8,71.667,8,71,8z"/>
		<path style="fill-rule:evenodd;clip-rule:evenodd;fill:#E6E6E5;" d="M73,8c0.221-0.779,0.838-1.163,2-1
			c4.154-0.559,10.402,0.098,7,4c-0.667,0-1.333,0-2,0c-1,0-2,0-3,0c-0.716-2.715,4.716,0.715,4-2C80.255,6.745,75.391,8.609,73,8z"
			/>
		<path style="fill-rule:evenodd;clip-rule:evenodd;fill:#BDB9B7;" d="M66,9c0.162-1.172,1.823-0.843,3-1c0.333,0,0.667,0,1,0
			c-0.733,0.934-1.818,1.515-3,2c1.525,3.142,7.669,1.665,12,2c-0.136,2.864-6.864-0.864-7,2c-1.333,0-2.667,0-4,0
			C65.086,14.152,64.962,9.945,66,9z"/>
		<path style="fill-rule:evenodd;clip-rule:evenodd;fill:#908F8F;" d="M105,11c-0.73,4.814-5.591-0.719-8,2
			C97.223,9.89,101.977,11.31,105,11z"/>
		<path style="fill-rule:evenodd;clip-rule:evenodd;fill:#908F8F;" d="M120,14c6.013,0.654,14.65-1.317,19,1c-1,0-2,0-3,0
			c-5.333,0-10.667,0-16,0C120,14.667,120,14.333,120,14z"/>
		<path style="fill-rule:evenodd;clip-rule:evenodd;fill:#E6E6E5;" d="M119,14c4.92-1.232,18.654-2.67,22,1c-0.667,0-1.333,0-2,0
			c-4.35-2.317-12.987-0.346-19-1C119.667,14,119.333,14,119,14z"/>
		<path style="fill-rule:evenodd;clip-rule:evenodd;fill:#777777;" d="M63,16c5.304,0.105,1.182,0.566,0,2c-1.333,0-2.667,0-4,0
			c0-0.333,0-0.667,0-1C59.186,15.519,61.417,16.083,63,16z"/>
		<path style="fill-rule:evenodd;clip-rule:evenodd;fill:#6C6867;" d="M50,18c1.496-0.17,3.69,0.357,4-1c1.667,0,3.333,0,5,0
			c0,0.333,0,0.667,0,1c-1.279,1.388-4.721,0.612-6,2c-0.162-1.172-1.823-0.843-3-1C50,18.667,50,18.333,50,18z"/>
		<path style="fill-rule:evenodd;clip-rule:evenodd;fill:#A6A6A6;" d="M88,25c0.745-2.255,5.609-0.391,8-1
			c0.776,0.224,1.973,0.027,2,1c-0.333,0-0.667,0-1,0C94,25,91,25,88,25z"/>
		<path style="fill-rule:evenodd;clip-rule:evenodd;fill:#908F8F;" d="M31,29c0.909-2.092,2.951-3.049,6-3c3.333,0,6.667,0,10,0
			c-0.027,0.973-1.224,0.776-2,1c-3.822-0.155-7.282,0.052-9,2C34.333,29,32.667,29,31,29z"/>
		<path style="fill-rule:evenodd;clip-rule:evenodd;fill:#6C6867;" d="M36,29c1.718-1.948,5.178-2.155,9-2
			C42.831,28.498,39.371,28.705,36,29z"/>
		<path style="fill-rule:evenodd;clip-rule:evenodd;fill:#545453;" d="M18,43c-4.656-0.01-7.115-2.219-10-4
			c6.09-4.91,14.809-7.191,23-10c1.667,0,3.333,0,5,0c3.371-0.295,6.831-0.502,9-2c0.776-0.224,1.973-0.027,2-1c0.667,0,1.333,0,2,0
			c1,0,2,0,3,0c-2.609,2.101-0.851,3.899-2,6c-7.872,2.128-17.639,2.361-23,7C24.147,40.48,20.47,41.137,18,43z"/>
		<path style="fill-rule:evenodd;clip-rule:evenodd;fill:#9E6E63;" d="M41,40c-4.756,2.577-12.467,2.199-15,7
			c-1.78-0.553-4.153-0.514-5-2c1.23-3.437,5.876-3.457,10-4c-0.027-0.973-1.224-0.776-2-1c3.687-2.313,11.651-0.349,17-1
			c0,0.333,0,0.667,0,1C44.333,40,42.667,40,41,40z"/>
		<path style="fill-rule:evenodd;clip-rule:evenodd;fill:#9E6E63;" d="M67,41c-0.011,3.339-6.813,2.893-4,6c-0.667,0-1.333,0-2,0
			c-3.19,0.857-3.093-1.574-5-2c0-1,0-2,0-3C60.125,42.125,62.262,40.262,67,41z"/>
		<path style="fill-rule:evenodd;clip-rule:evenodd;fill:#AE8B7A;" d="M26,47c9.313-0.057,14.339-1.186,18-5
			c-0.807-0.86-2.739-0.594-3-2c1.667,0,3.333,0,5,0c0,0.667,0,1.333,0,2c0,0.333,0,0.667,0,1c-5.421,4.951-23.648,8.465-28,0
			c2.47-1.863,6.147-2.52,9-4c1.003-0.003,1.19,0.81,2,1c0.776,0.224,1.973,0.027,2,1c-4.124,0.543-8.77,0.563-10,4
			C21.847,46.486,24.22,46.447,26,47z"/>
		<path style="fill-rule:evenodd;clip-rule:evenodd;fill:#BCA495;" d="M63,47c3.868,0.535,4.882-1.785,9-1
			c-1.958,1.425-8.513,3.421-11,1C61.667,47,62.333,47,63,47z"/>
		<path style="fill-rule:evenodd;clip-rule:evenodd;fill:#545453;" d="M45,20c2.409,0.409,2.174-1.826,5-1
			c1.177,0.157,2.838-0.172,3,1c-3.492-0.087-10.187,5.921-11,2C42.41,20.743,43.29,19.956,45,20z"/>
		<path style="fill-rule:evenodd;clip-rule:evenodd;fill:#CFCDCC;" d="M71,8c0.667,0,1.333,0,2,0c0,1,0,2,0,3c1.333,0,2.667,0,4,0
			c1,0,2,0,3,0c0,0.333,0,0.667,0,1c-0.333,0-0.667,0-1,0c-4.331-0.335-10.475,1.142-12-2c1.182-0.485,2.267-1.066,3-2
			C70.333,8,70.667,8,71,8z"/>
		<path style="fill-rule:evenodd;clip-rule:evenodd;fill:#FFFFFF;" d="M73,8c2.391,0.609,7.255-1.255,8,1
			c0.716,2.715-4.716-0.715-4,2c-1.333,0-2.667,0-4,0C73,10,73,9,73,8z"/>
		<path style="fill-rule:evenodd;clip-rule:evenodd;fill:#E6E6E5;" d="M88,25c3,0,6,0,9,0c0.012,1.321,1.753,0.914,2,2
			c-4.61,1.497-11.383,1.188-14,0c1.22-0.113,2.367-0.299,2-2C87.333,25,87.667,25,88,25z"/>
	</g>
</g>
</svg>
