<?xml version="1.0" encoding="iso-8859-1"?>
<!-- Generator: Adobe Illustrator 13.0.2, SVG Export Plug-In . SVG Version: 6.00 Build 14948)  -->
<!DOCTYPE svg PUBLIC "-//W3C//DTD SVG 1.1//EN" "http://www.w3.org/Graphics/SVG/1.1/DTD/svg11.dtd">
<svg version="1.1" id="Layer_1" xmlns="http://www.w3.org/2000/svg" xmlns:xlink="http://www.w3.org/1999/xlink" x="0px" y="0px"
	 width="144px" height="52px" viewBox="0 0 144 52" style="enable-background:new 0 0 144 52;" xml:space="preserve">
<g>
	<g>
		<path style="fill-rule:evenodd;clip-rule:evenodd;fill:#9D7F3E;" d="M65,3c0.667,0,1.333,0,2,0c-2.532,1.468-1.588,6.412-5,7
			C62.357,7.024,63.593,4.926,65,3z"/>
		<path style="fill-rule:evenodd;clip-rule:evenodd;fill:#9D7F3E;" d="M68,3c4.239-0.364,0.876,4.333,1,6
			C66.792,8.875,68.575,4.758,68,3z"/>
		<path style="fill-rule:evenodd;clip-rule:evenodd;fill:#D7D7D4;" d="M128,14c-3.039-0.627-8.613,1.28-10-1c0.667,0,1.333,0,2,0
			C122.391,13.609,127.255,11.745,128,14z"/>
		<path style="fill-rule:evenodd;clip-rule:evenodd;fill:#757574;" d="M57,19c0.859-2.474,6.96,0.294,8-2c1,0,2,0,3,0
			c-0.015,1.651-2.774,0.56-3,2c-3.156-0.489-3.531,1.802-7,1C57.943,19.39,57.851,18.816,57,19z"/>
		<path style="fill-rule:evenodd;clip-rule:evenodd;fill:#AAA9A9;" d="M108,30c-1.725,1.658-10.275,1.658-12,0C100,30,104,30,108,30
			z"/>
		<path style="fill-rule:evenodd;clip-rule:evenodd;fill:#9D6C63;" d="M89,32c1.182-1.151,3.535-1.132,6-1
			c0.055,1.278,1.282,1.385,1,3c-1.333,0-2.667,0-4,0C90.279,34.054,89.437,33.23,89,32z"/>
		<path style="fill-rule:evenodd;clip-rule:evenodd;fill:#9D6C63;" d="M35,40c2.039-2.295,8.305-0.362,12-1
			c-4.19,3.312-16.064,3.704-16,8c-0.333,0-0.667,0-1,0c-0.667,0-1.333,0-2,0c-0.221-0.779-0.837-1.163-2-1
			c1.133-4.2,5.96-4.706,11-5C36.779,40.221,36.163,39.837,35,40z"/>
		<path style="fill-rule:evenodd;clip-rule:evenodd;fill:#FFFFFF;" d="M144,0c0,17.333,0,34.667,0,52c-48,0-96,0-144,0
			C0,34.667,0,17.333,0,0C48,0,96,0,144,0z M65,3c-2.532,1.134-5.67,1.664-7,4c-3.677,0.657-4.98,3.687-7,6
			c-1.314,1.02-3.686,0.98-5,2c0,1.333,0,2.667,0,4c-0.982,1.352-2.668,1.999-4,3c-4.422,8.244-17.825,7.508-24,14
			c-3.009,1.658-8.152,1.181-9,5c5.523,0.811,8.342,4.324,16,3c-0.182,2.182,0.818,3.182,3,3c0.667,0,1.333,0,2,0
			c1.078,1.655,8.922,1.655,10,0c2.611,0.829,5.487-3.024,7,0c0,0.333,0,0.667,0,1c2.792,1.552,11.542,1.955,13-1
			c2.935-2.064,6.629-3.37,8-7c7.17-2.497,16.35-2.984,24-5c5.35,1.312,11.067-2.215,14,0c1.725,1.658,10.275,1.658,12,0
			c3.049,0.049,5.092-0.908,6-3c4.856,0.523,3.257-5.41,5-8c6.295-1.372,9.703-5.63,13-10c-2,0-4,0-6,0c-2.667,0-5.333,0-8,0
			c-0.745-2.255-5.609-0.391-8-1c-3.702-2.631-13.517,0.85-16-3c-1,0-2,0-3,0c-2.578-2.422-4.479-5.522-9-6
			c-3.367-0.633-5.128-2.872-10-2c-1.387-1.963-8.486-1.22-10,0c-1.667,0-3.333,0-5,0c0,0.333,0,0.667,0,1C66.333,3,65.667,3,65,3z"
			/>
		<path style="fill-rule:evenodd;clip-rule:evenodd;fill:#EBECEA;" d="M104,10c2.483,3.85,12.298,0.369,16,3c-0.667,0-1.333,0-2,0
			c-2.486,0.392-9.698,0.693-13-1c0.184-0.851-0.39-0.943-1-1C104,10.667,104,10.333,104,10z"/>
		<path style="fill-rule:evenodd;clip-rule:evenodd;fill:#9D7F3E;" d="M77,2c4.525-0.166,7.303,4.537,4,4
			C79.237,5.097,77.903,3.763,77,2z"/>
		<path style="fill-rule:evenodd;clip-rule:evenodd;fill:#C0BDBA;" d="M86,6c2.062-0.605,6.947,1.614,6-2
			c4.521,0.478,6.422,3.578,9,6c-6.618,0.742-18.619,2.885-27,5c-3.492-1.885-3.39,2.411-9,1c-0.667,0-1.333,0-2,0
			c0.863-1.753,3.725-3.474-1-3c0.19-0.81,1.003-0.997,1-2c3.788-0.546,6.248-2.419,11-2c-2.617,4.687,1.443,3.156,6,3
			c5.879-0.404,9.723-3.736,13-4c-0.431-2.236-4.929-0.405-7-1C86,6.667,86,6.333,86,6z"/>
		<path style="fill-rule:evenodd;clip-rule:evenodd;fill:#565453;" d="M58,7c2.719,0.914-2.664,1.859-1,5
			c-1.615-0.282-1.722,0.945-3,1c-0.807,0.693-2.739,1.556-3,0C53.02,10.687,54.323,7.657,58,7z"/>
		<path style="fill-rule:evenodd;clip-rule:evenodd;fill:#949393;" d="M104,11c0.61,0.057,1.184,0.149,1,1
			c-1.659,1.674-5.871,0.796-9,1C97.022,10.688,100.598,10.931,104,11z"/>
		<path style="fill-rule:evenodd;clip-rule:evenodd;fill:#AAA9A9;" d="M74,15c8.381-2.115,20.382-4.258,27-5c1,0,2,0,3,0
			c0,0.333,0,0.667,0,1c-3.402-0.069-6.978-0.312-8,2c3.129-0.204,7.341,0.674,9-1c3.302,1.693,10.514,1.392,13,1
			c1.387,2.28,6.961,0.373,10,1c2.667,0,5.333,0,8,0c0.169,2.168-3.547,0.453-5,1c-18.195,2.471-36.144,5.189-53,9
			c-0.333,0-0.667,0-1,0c-1.772-0.228-5.008,1.008-4-2c-1.167-5.167,2.792-5.208,6-6c-0.31-1.357-2.504-0.83-4-1
			C74.667,15,74.333,15,74,15z"/>
		<path style="fill-rule:evenodd;clip-rule:evenodd;fill:#949393;" d="M74,15c0.333,0,0.667,0,1,0c1.496,0.17,3.69-0.357,4,1
			c-3.208,0.792-7.167,0.833-6,6c-0.667,0-1.333,0-2,0c-0.423-2.09,0.686-2.648,1-4c-3.156-0.489-3.531,1.802-7,1
			c0.226-1.44,2.985-0.349,3-2c-1,0-2,0-3,0c0-0.333,0-0.667,0-1C70.61,17.411,70.508,13.115,74,15z"/>
		<path style="fill-rule:evenodd;clip-rule:evenodd;fill:#949393;" d="M54,13c1.278-0.055,1.385-1.282,3-1c0.333,0,0.667,0,1,0
			c2.584,5.425-9.488,5.143-4,7c-0.125,2.208-4.242,0.425-6,1c0.09-1.576,2.55-0.783,2-3c1,0,2,0,3,0
			C52.925,15.258,53.223,13.89,54,13z"/>
		<path style="fill-rule:evenodd;clip-rule:evenodd;fill:#636161;" d="M75,27c4.793,5.66,15.235-3.51,21,0
			c-3.108,0.892-6.971,1.029-7,5c0.437,1.23,1.279,2.054,3,2c0,0.333,0,0.667,0,1c-7.65,2.016-16.83,2.503-24,5
			c-1.454,1.546-5.12,0.881-8,1c-5.693,1.52-8.514,0.738-12-2c-0.333,0-0.667,0-1,0c-3.695,0.638-9.961-1.295-12,1c-1,0-2,0-3,0
			c0.681-2.669,6.879-2.826,8-2c-0.224-0.776-0.027-1.973-1-2c1.404-0.268,5.591-1.042,10-1c1.311-0.016,1.274-2.773,0-3
			c1.167-1.261,2.614-0.812,4,1c-0.358-2.452,5.928-3.277,3-5c5.009-1.325,10.058-2.608,16-3c0.282-1.615-0.945-1.722-1-3
			c0.667,0,1.333,0,2,0c-1.008,3.008,2.228,1.772,4,2c-0.31,1.357-2.504,0.83-4,1c0.996,4.004,1.065,8.935,5,10
			C79.312,30.022,74.921,30.745,75,27z"/>
		<path style="fill-rule:evenodd;clip-rule:evenodd;fill:#636161;" d="M136,14c2,0,4,0,6,0c-3.297,4.37-6.705,8.628-13,10
			c-0.776,0.224-1.973,0.027-2,1c-5.989,0.344-9.57,3.096-15,4c-0.228-1.772,1.008-5.008-2-4c0.667-5.029,13.819,0.161,17-6
			c-0.027-0.973-1.224-0.776-2-1c1.962-1.143,3.617-0.535,6-3C132.453,14.453,136.169,16.168,136,14z"/>
		<path style="fill-rule:evenodd;clip-rule:evenodd;fill:#9D6C63;" d="M112,29c5.43-0.904,9.011-3.656,15-4
			c-3.225,5.15-12.333,2.524-17,8c-0.779-0.221-1.163-0.838-1-2c0.891-0.443,1.788-0.878,2-2C111.333,29,111.667,29,112,29z"/>
		<path style="fill-rule:evenodd;clip-rule:evenodd;fill:#D1C63D;" d="M46,19c1.987-0.013,1.271-2.729,4-2
			c0.55,2.217-1.91,1.424-2,3c-3.053-0.053-2.398,3.602-6,3c0-0.333,0-0.667,0-1C43.332,20.999,45.018,20.352,46,19z"/>
		<path style="fill-rule:evenodd;clip-rule:evenodd;fill:#AAA9A9;" d="M65,19c3.469,0.802,3.844-1.489,7-1
			c-0.314,1.352-1.423,1.91-1,4c0.055,1.278,1.282,1.385,1,3c-5.942,0.392-10.991,1.675-16,3c-6.776,0.557-12.726,1.94-18,4
			c-0.221-0.779-0.837-1.163-2-1c7.119-2.548,12.616-6.717,19-10c1.615,0.282,1.722-0.945,3-1C61.469,20.802,61.844,18.511,65,19z"
			/>
		<path style="fill-rule:evenodd;clip-rule:evenodd;fill:#949393;" d="M42,23c3.504,2.458,8.34-2.292,13-2
			c-6.384,3.283-11.881,7.452-19,10c1.163-0.163,1.779,0.221,2,1c-7.247,0.753-12.305,3.695-20,4c6.175-6.492,19.578-5.756,24-14
			C42,22.333,42,22.667,42,23z"/>
		<path style="fill-rule:evenodd;clip-rule:evenodd;fill:#9D6C63;" d="M48,39c3.486,2.738,6.307,3.52,12,2
			c-5.595,1.016-6.103,5.582-10,6c-0.333,0-0.667,0-1,0c-0.221-0.779-0.837-1.163-2-1C48.557,44.008,51.988,40.888,48,39z"/>
		<path style="fill-rule:evenodd;clip-rule:evenodd;fill:#C0BDBA;" d="M96,30c-4.218,0.17,0.018-1.536,0-3c0.667,0,1.333,0,2,0
			c-0.027,0.973-1.224,0.776-2,1c2.695,2.305,9.645,0.355,14,1c-0.027,0.973-1.224,0.776-2,1C104,30,100,30,96,30z"/>
		<path style="fill-rule:evenodd;clip-rule:evenodd;fill:#A38F69;" d="M95,31c2.827,1.587,11.173,1.587,14,0
			c-0.163,1.162,0.221,1.779,1,2c4.667-5.476,13.775-2.85,17-8c0.027-0.973,1.224-0.776,2-1c-1.743,2.59-0.144,8.523-5,8
			c-2.705,0.962-5.716,1.617-8,3c-3.333,0-6.667,0-10,0c-2.933-2.215-8.65,1.312-14,0c0-0.333,0-0.667,0-1c1.333,0,2.667,0,4,0
			C96.282,32.385,95.055,32.278,95,31z"/>
		<path style="fill-rule:evenodd;clip-rule:evenodd;fill:#B29486;" d="M89,32c0.029-3.971,3.892-4.108,7-5
			c0.018,1.464-4.218,3.17,0,3c1.725,1.658,10.275,1.658,12,0c0.776-0.224,1.973-0.027,2-1c0.333,0,0.667,0,1,0
			c-0.212,1.122-1.109,1.557-2,2c-2.827,1.587-11.173,1.587-14,0C92.535,30.868,90.182,30.849,89,32z"/>
		<path style="fill-rule:evenodd;clip-rule:evenodd;fill:#A38F69;" d="M31,47c-0.064-4.296,11.81-4.688,16-8c0.333,0,0.667,0,1,0
			c3.988,1.888,0.557,5.008-1,7c1.163-0.163,1.779,0.221,2,1c-0.667,0-1.333,0-2,0c-1.513-3.024-4.389,0.829-7,0C37,47,34,47,31,47z
			"/>
		<path style="fill-rule:evenodd;clip-rule:evenodd;fill:#A38F69;" d="M35,40c1.163-0.163,1.779,0.221,2,1
			c-5.04,0.294-9.867,0.8-11,5c1.163-0.163,1.779,0.221,2,1c-2.182,0.182-3.182-0.818-3-3c0-1,0-2,0-3c3.469,0.802,3.844-1.489,7-1
			C33,40,34,40,35,40z"/>
		<path style="fill-rule:evenodd;clip-rule:evenodd;fill:#A38F69;" d="M60,41c2.88-0.119,6.546,0.546,8-1
			c-1.371,3.63-5.065,4.936-8,7c-3.931-1.197-7.516,3.061-10,0C53.897,46.582,54.405,42.016,60,41z"/>
		<path style="fill-rule:evenodd;clip-rule:evenodd;fill:#9D6C63;" d="M82,2c4.872-0.872,6.633,1.367,10,2
			c0.947,3.614-3.938,1.395-6,2C85.681,3.652,82.905,3.762,82,2z"/>
		<path style="fill-rule:evenodd;clip-rule:evenodd;fill:#A38F69;" d="M81,6c3.303,0.537,0.525-4.166-4-4
			c-6.162-0.869,0.649,2.442-2,3c-2.689,0.689-1.933-2.067-3-3c1.514-1.22,8.613-1.963,10,0c0.905,1.762,3.681,1.652,4,4
			c0,0.333,0,0.667,0,1c-1.667,0-3.333,0-5,0C81,6.667,81,6.333,81,6z"/>
		<path style="fill-rule:evenodd;clip-rule:evenodd;fill:#9D6C63;" d="M81,7c-1.162-0.163-1.779,0.221-2,1
			c-1.453,0.547-5.169-1.168-5,1c-4.752-0.419-7.212,1.454-11,2c-2.319-0.319-3.839,0.161-5,1c-0.333,0-0.667,0-1,0
			c-1.664-3.141,3.719-4.086,1-5c1.33-2.336,4.468-2.866,7-4c-1.407,1.926-2.643,4.024-3,7c3.412-0.588,2.468-5.532,5-7
			c0-0.333,0-0.667,0-1c1.667,0,3.333,0,5,0c1.067,0.933,0.311,3.689,3,3c2.649-0.558-4.162-3.869,2-3c0.903,1.763,2.237,3.097,4,4
			C81,6.333,81,6.667,81,7z M69,9c-0.124-1.667,3.239-6.364-1-6C68.575,4.758,66.792,8.875,69,9z"/>
		<path style="fill-rule:evenodd;clip-rule:evenodd;fill:#757574;" d="M50,17c-2.729-0.729-2.013,1.987-4,2c0-1.333,0-2.667,0-4
			c1.314-1.02,3.686-0.98,5-2c0.261,1.556,2.193,0.693,3,0c-0.777,0.89-1.075,2.258-1,4C52,17,51,17,50,17z"/>
		<path style="fill-rule:evenodd;clip-rule:evenodd;fill:#757574;" d="M110,25c-3.712,0.622-10.292-1.625-11,2c-0.333,0-0.667,0-1,0
			c-0.667,0-1.333,0-2,0c-5.765-3.51-16.207,5.66-21,0c1.232-1.434,3.438-1.895,6-2c-0.161-1.172-1.823-0.843-3-1
			c16.856-3.811,34.805-6.529,53-9c-2.383,2.465-4.038,1.857-6,3c0.776,0.224,1.973,0.027,2,1C123.819,25.161,110.667,19.971,110,25
			z"/>
		<path style="fill-rule:evenodd;clip-rule:evenodd;fill:#EBECEA;" d="M110,25c3.854,4.067-9.098,3.819-11,2
			C99.708,23.375,106.288,25.622,110,25z"/>
		<path style="fill-rule:evenodd;clip-rule:evenodd;fill:#D7D7D4;" d="M99,27c1.902,1.819,14.854,2.067,11-2
			c3.008-1.008,1.772,2.228,2,4c-0.333,0-0.667,0-1,0s-0.667,0-1,0c-4.355-0.645-11.305,1.305-14-1c0.776-0.224,1.973-0.027,2-1
			C98.333,27,98.667,27,99,27z"/>
		<path style="fill-rule:evenodd;clip-rule:evenodd;fill:#B29486;" d="M124,32c-0.908,2.092-2.951,3.049-6,3c-0.667,0-1.333,0-2,0
			C118.284,33.617,121.295,32.962,124,32z"/>
		<path style="fill-rule:evenodd;clip-rule:evenodd;fill:#C0BDBA;" d="M106,35c3.333,0,6.667,0,10,0c0.667,0,1.333,0,2,0
			C116.275,36.658,107.725,36.658,106,35z"/>
		<path style="fill-rule:evenodd;clip-rule:evenodd;fill:#B29486;" d="M31,47c3,0,6,0,9,0c-1.078,1.655-8.922,1.655-10,0
			C30.333,47,30.667,47,31,47z"/>
		<path style="fill-rule:evenodd;clip-rule:evenodd;fill:#EBECEA;" d="M47,47c0.667,0,1.333,0,2,0c0.333,0,0.667,0,1,0
			c2.484,3.061,6.069-1.197,10,0c-1.458,2.955-10.208,2.552-13,1C47,47.667,47,47.333,47,47z"/>
		<path style="fill-rule:evenodd;clip-rule:evenodd;fill:#FFFFFF;" d="M79,8c1.419-0.086,2.832-0.165,3,1
			c0.551,2.217-1.909,1.424-2,3c-4.557,0.156-8.617,1.687-6-3C73.831,6.832,77.547,8.547,79,8z"/>
		<path style="fill-rule:evenodd;clip-rule:evenodd;fill:#565453;" d="M48,20c1.758-0.575,5.875,1.208,6-1c1,0,2,0,3,0
			c0.851-0.184,0.943,0.39,1,1c-1.278,0.055-1.385,1.282-3,1c-4.66-0.292-9.496,4.458-13,2C45.602,23.602,44.947,19.947,48,20z"/>
		<path style="fill-rule:evenodd;clip-rule:evenodd;fill:#565453;" d="M75,27c-0.079,3.745,4.312,3.022,3,8
			c-3.935-1.065-4.004-5.996-5-10c1.496-0.17,3.69,0.357,4-1c0.333,0,0.667,0,1,0c1.177,0.157,2.839-0.172,3,1
			C78.438,25.105,76.232,25.566,75,27z"/>
		<path style="fill-rule:evenodd;clip-rule:evenodd;fill:#565453;" d="M56,28c2.928,1.723-3.358,2.548-3,5
			c-1.386-1.812-2.833-2.261-4-1c1.274,0.227,1.311,2.984,0,3c-4.409-0.042-8.596,0.732-10,1c0.973,0.027,0.776,1.224,1,2
			c-1.121-0.826-7.319-0.669-8,2c-3.156-0.489-3.531,1.802-7,1c0,1,0,2,0,3c-7.658,1.324-10.477-2.189-16-3
			c0.848-3.819,5.991-3.342,9-5c7.695-0.305,12.753-3.247,20-4C43.274,29.94,49.224,28.557,56,28z"/>
		<path style="fill-rule:evenodd;clip-rule:evenodd;fill:#D7D7D4;" d="M81,7c1.667,0,3.333,0,5,0c2.071,0.595,6.569-1.236,7,1
			c-3.277,0.264-7.121,3.596-13,4c0.091-1.576,2.551-0.783,2-3c-0.168-1.165-1.581-1.086-3-1C79.221,7.221,79.838,6.837,81,7z"/>
		<path style="fill-rule:evenodd;clip-rule:evenodd;fill:#AAA9A9;" d="M58,12c1.161-0.839,2.681-1.319,5-1
			c0.003,1.003-0.81,1.19-1,2c4.725-0.474,1.863,1.247,1,3c0.667,0,1.333,0,2,0c0,0.333,0,0.667,0,1c-1.04,2.294-7.141-0.474-8,2
			c-1,0-2,0-3,0C48.512,17.143,60.584,17.425,58,12z"/>
	</g>
</g>
</svg>
