<?xml version="1.0" encoding="iso-8859-1"?>
<!-- Generator: Adobe Illustrator 13.0.2, SVG Export Plug-In . SVG Version: 6.00 Build 14948)  -->
<!DOCTYPE svg PUBLIC "-//W3C//DTD SVG 1.1//EN" "http://www.w3.org/Graphics/SVG/1.1/DTD/svg11.dtd">
<svg version="1.1" id="Layer_1" xmlns="http://www.w3.org/2000/svg" xmlns:xlink="http://www.w3.org/1999/xlink" x="0px" y="0px"
	 width="144px" height="52px" viewBox="0 0 144 52" style="enable-background:new 0 0 144 52;" xml:space="preserve">
<g>
	<g>
		<path style="fill-rule:evenodd;clip-rule:evenodd;fill:#A28A5E;" d="M86,7c-2.039-0.294-1.961-2.706-4-3
			c1.506-2.712,4.314,1.591,6,2C87.779,6.779,87.163,7.163,86,7z"/>
		<path style="fill-rule:evenodd;clip-rule:evenodd;fill:#DAD9D9;" d="M123,14c0-0.333,0-0.667,0-1c3.039,0.627,8.613-1.28,10,1
			c-2.333,0-4.667,0-7,0C125,14,124,14,123,14z"/>
		<path style="fill-rule:evenodd;clip-rule:evenodd;fill:#A7A7A7;" d="M126,14c-3.374,2.65-9.149,2.008-15,1
			c0.22,1.257,1.558,2.044-1,2c-0.641-5.974,8.943-1.724,13-3C124,14,125,14,126,14z"/>
		<path style="fill-rule:evenodd;clip-rule:evenodd;fill:#D3CA27;" d="M46,20c2.194-1.14,4.086-2.581,8-2
			c-0.19,0.81-1.003,0.997-1,2c-1.813,1.57-7.99,3.943-10,2C44.313,21.646,44.573,20.239,46,20z"/>
		<path style="fill-rule:evenodd;clip-rule:evenodd;fill:#FFFFFF;" d="M144,0c0,17.333,0,34.667,0,52c-48,0-96,0-144,0
			C0,34.667,0,17.333,0,0C48,0,96,0,144,0z M41,24c-7.61,7.723-21.221,9.445-30,16c-0.667,0-1.333,0-2,0
			c0.124,3.543,5.674,1.659,7,4c4.465,3.092,10.286-1.017,16,0c0.057,0.61,0.149,1.184,1,1c0.241,1.759,1.721,2.279,4,2
			c0.759,1.653,8.241,1.653,9,0c4.421,0.422,7.009-0.991,9-3c2.182,0.182,3.182-0.818,3-3c0.61-0.057,1.184-0.149,1-1
			c13.017-1.983,25.041-4.959,38-7c0,0.333,0,0.667,0,1c1.161,0.839,2.681,1.319,5,1c-0.45,1.634,5.45,1.634,5,0
			c6.63,0.296,10.123-2.544,14-5c0.61-0.057,1.184-0.149,1-1c2.802-0.981-1.452-2.668,1-4c1.177-0.157,2.839,0.172,3-1
			c5.917-1.416,10.254-4.413,14-8c5.514-2.596-3.884-2.026-7-2c-1.387-2.28-6.961-0.373-10-1c-6.379-0.969-18.165-1.815-21-3
			c-2.545-0.122-3.878-1.456-4-4c-1.011-1.656-4.247-1.086-6-2c-3.761-2.239-9.166-2.834-15-3c-1.496,0.17-3.69-0.357-4,1
			c-7.967-0.3-12.508,2.825-17,6c-2.092,1.242-3.758,2.908-5,5c-1.204,1.129-1.812,2.854-5,2c0,1.667,0,3.333,0,5
			c-1.427,0.239-1.687,1.646-3,2C41.78,22.113,40.632,22.299,41,24z"/>
		<path style="fill-rule:evenodd;clip-rule:evenodd;fill:#EBEDEC;" d="M123,25c-2.452,1.332,1.802,3.019-1,4
			c0.328-5.462-9.677,3.113-10-3C114.804,24.803,118.9,24.9,123,25z"/>
		<path style="fill-rule:evenodd;clip-rule:evenodd;fill:#EBEDEC;" d="M123,13c-6,0-12,0-18,0c0.599-2.599-0.401-3.599-3-3
			C104.835,11.185,116.621,12.031,123,13z"/>
		<path style="fill-rule:evenodd;clip-rule:evenodd;fill:#A28A5E;" d="M73,2c0.31-1.357,2.504-0.83,4-1c0.288,3.712,5.291,2.709,5,7
			c-0.667,0-1.333,0-2,0C77.602,6.065,77.328,2.005,73,2z"/>
		<path style="fill-rule:evenodd;clip-rule:evenodd;fill:#A28A5E;" d="M75,9c-3.582,0.582-3.041-2.959-3-6
			c1.888,1.446,4.433,2.234,4,6C75.667,9,75.333,9,75,9z"/>
		<path style="fill-rule:evenodd;clip-rule:evenodd;fill:#A28A5E;" d="M63,12c-1.163-0.163-1.779,0.221-2,1c-0.333,0-0.667,0-1,0
			c1.094-2.239,1.656-5.011,3-7C66.038,7.233,61.916,9.439,63,12z"/>
		<path style="fill-rule:evenodd;clip-rule:evenodd;fill:#976C56;" d="M56,8c4.492-3.175,9.033-6.3,17-6
			c4.328,0.005,4.602,4.065,7,6c0,0.333,0,0.667,0,1c-1.333,0-2.667,0-4,0c0.433-3.766-2.112-4.554-4-6
			c-0.041,3.041-0.582,6.582,3,6c0.184,0.851-0.39,0.943-1,1c-1.333,0-2.667,0-4,0c0.022-2.356-1.723-2.944-1-6
			c-2.035,0.965-2.16,3.84-2,7c-2.09-0.423-2.648,0.686-4,1c-1.084-2.561,3.038-4.767,0-6c-1.344,1.989-1.906,4.761-3,7
			c-0.333,0-0.667,0-1,0c-1.161,0.839-2.681,1.319-5,1C54.125,12.042,60.378,8.095,56,8z"/>
		<path style="fill-rule:evenodd;clip-rule:evenodd;fill:#976C56;" d="M77,1c5.834,0.166,11.239,0.761,15,3
			c2.644,2.555-1.369,1.985-4,2c-1.686-0.409-4.494-4.712-6-2c2.039,0.294,1.961,2.706,4,3c-0.186,1.481-2.417,0.917-4,1
			C82.291,3.709,77.288,4.712,77,1z"/>
		<path style="fill-rule:evenodd;clip-rule:evenodd;fill:#B4B3B3;" d="M76,16c0.111-1.889,3.306-0.694,3-3c0.333,0,0.667,0,1,0
			c0.186,1.481,2.417,0.917,4,1c0,0.333,0,0.667,0,1C80.993,16.323,80.51,15.278,76,16z"/>
		<path style="fill-rule:evenodd;clip-rule:evenodd;fill:#C8C5C3;" d="M70,10c1.333,0,2.667,0,4,0c-1.666,1.987,0.091,1.271,0,4
			c2.826,0.826,2.591-1.409,5-1c0.306,2.306-2.889,1.111-3,3c0.169,2.168-3.547,0.453-5,1c-0.667,0-1.333,0-2,0
			c-0.282-1.615,0.945-1.722,1-3c0.168-2.168-3.547-0.453-5-1c0.226-1.44,2.985-0.349,3-2C68.81,10.81,68.997,9.997,70,10z"/>
		<path style="fill-rule:evenodd;clip-rule:evenodd;fill:#FFFFFF;" d="M79,13c-2.409-0.409-2.174,1.826-5,1
			c0.091-2.729-1.666-2.013,0-4c0.61-0.057,1.184-0.149,1-1c0.333,0,0.667,0,1,0c1.333,0,2.667,0,4,0c1.453,0.547,5.169-1.168,5,1
			c0.146,2.812-2.449,2.884-5,3C79.667,13,79.333,13,79,13z"/>
		<path style="fill-rule:evenodd;clip-rule:evenodd;fill:#B4B3B3;" d="M123,14c-4.057,1.276-13.641-2.974-13,3
			c2.558,0.044,1.22-0.743,1-2c5.851,1.008,11.626,1.65,15-1c2.333,0,4.667,0,7,0c3.116-0.026,12.514-0.596,7,2
			c-2.072-2.329-7.437,0.506-10,1c-14.029,2.637-27.808,5.526-42,8c2.996-4.919-5.151-3.081-5-8c6.221-2.446,16.316-1.017,21-5
			c-1.599-2.805-4.501,1.404-8,0c2.475-2.382-2.597-1.642-1-6c1,0,2,0,3,0c0.122,2.544,1.455,3.878,4,4c2.599-0.599,3.599,0.401,3,3
			c6,0,12,0,18,0C123,13.333,123,13.667,123,14z"/>
		<path style="fill-rule:evenodd;clip-rule:evenodd;fill:#A7A7A7;" d="M96,12c3.499,1.404,6.401-2.805,8,0
			c-4.684,3.983-14.779,2.554-21,5c-0.151,4.919,7.996,3.081,5,8c-1,0-2,0-3,0c0.027-0.973,1.224-0.776,2-1
			c-3.006-1.661-4.841-4.492-8-6c0.226-0.115,7.066-1.311,5-3c0-0.333,0-0.667,0-1C88.423,13.756,91.285,11.952,96,12z"/>
		<path style="fill-rule:evenodd;clip-rule:evenodd;fill:#919191;" d="M54,14c2.319,0.319,3.839-0.161,5-1
			c-1.09,2.034-2.527,6.354-5,4c-0.221-0.779-0.837-1.163-2-1c-0.003-1.003,0.81-1.19,1-2C53.333,14,53.667,14,54,14z"/>
		<path style="fill-rule:evenodd;clip-rule:evenodd;fill:#A7A7A7;" d="M54,18c0-0.333,0-0.667,0-1c2.473,2.354,3.91-1.966,5-4
			c0.333,0,0.667,0,1,0s0.667,0,1,0c0.162,1.172,1.823,0.843,3,1c-0.411,3.255-4.755,2.578-7,4c0.31,1.357,2.504,0.83,4,1
			c0.333,0,0.667,0,1,0c-1.064,2.27-6.286,0.381-9,1C52.997,18.997,53.81,18.81,54,18z"/>
		<path style="fill-rule:evenodd;clip-rule:evenodd;fill:#919191;" d="M76,16c4.51-0.722,4.993,0.323,8-1
			c2.066,1.689-4.774,2.885-5,3c-4.238-0.239-7.081,0.919-10,2c-3.998,0.002-6.002,1.998-10,2c1.453-1.547,3.9-2.1,7-2
			c-0.221-0.779-0.837-1.163-2-1c0.136-2.864,6.864,0.864,7-2C72.453,16.453,76.169,18.168,76,16z"/>
		<path style="fill-rule:evenodd;clip-rule:evenodd;fill:#5A5958;" d="M130,17c2.563-0.494,7.928-3.329,10-1
			c-3.746,3.587-8.083,6.584-14,8c-1.667,0-3.333,0-5,0c3.19-2.81,8.566-3.434,13-5C132.87,15.635,126.789,21.265,130,17z"/>
		<path style="fill-rule:evenodd;clip-rule:evenodd;fill:#6E6C6C;" d="M88,25c14.192-2.474,27.971-5.363,42-8
			c-3.211,4.265,2.87-1.365,4,2c-4.434,1.566-9.81,2.19-13,5c1.667,0,3.333,0,5,0c-0.161,1.172-1.823,0.843-3,1
			c-4.1-0.1-8.196-0.197-11,1c-1.278,0.055-1.385,1.282-3,1c-2.562,0.105-4.768,0.566-6,2c-0.667,0-1.333,0-2,0
			c-2.83-1.568-5.787,1.347-9,1c0-1.667,0-3.333,0-5c-3.363-0.03-2.037,4.63-4,6c-9.246,0.002-17.354,5.629-25,2
			c1.453-1.547,3.9-2.1,7-2c-0.125-2.209-4.242-0.425-6-1c0.136-2.864,6.864,0.864,7-2c5.376-0.29,10.284-1.049,14-3
			C86,25,87,25,88,25z"/>
		<path style="fill-rule:evenodd;clip-rule:evenodd;fill:#5A5958;" d="M64,30c1.758,0.575,5.875-1.209,6,1c-3.1-0.1-5.547,0.453-7,2
			c7.646,3.629,15.754-1.998,25-2c1.963-1.37,0.637-6.03,4-6c0,1.667,0,3.333,0,5c3.213,0.347,6.17-2.568,9-1
			c-2.66,0.006-2.551,2.782-4,4c-12.959,2.041-24.983,5.017-38,7c-1.021-1.713-7.123-3.454-9-1c-3.868-0.535-4.882,1.785-9,1
			c-2.27,1.73-8.385-0.386-9,3c-6.359-0.692-9.641,1.692-16,1c-1.326-2.341-6.876-0.457-7-4c0.667,0,1.333,0,2,0
			c5.236-1.764,12.809-1.191,17-4C41.312,35.312,51.606,31.606,64,30z"/>
		<path style="fill-rule:evenodd;clip-rule:evenodd;fill:#A7A7A7;" d="M59,22c3.998-0.002,6.002-1.998,10-2
			c-0.127,1.827,6.326,2.14,7,2c2.437,3.155-6.237,3.725-9,5c0.31,1.357,2.504,0.829,4,1c-0.136,2.864-6.864-0.864-7,2
			c-12.394,1.606-22.688,5.312-36,6c-13.247,3.418,5.714-5.477,8-4c1.327-4.007,6.897-3.77,9-7C49.837,24.17,53.487,22.154,59,22z"
			/>
		<path style="fill-rule:evenodd;clip-rule:evenodd;fill:#6E6C6C;" d="M59,22c-5.513,0.154-9.163,2.17-14,3
			c-1.742,0.075-3.11-0.223-4-1c-0.368-1.701,0.78-1.887,2-2c2.01,1.943,8.187-0.43,10-2c2.714-0.619,7.936,1.27,9-1
			c0.667,0,1.333,0,2,0c1.163-0.163,1.779,0.221,2,1C62.9,19.9,60.453,20.453,59,22z"/>
		<path style="fill-rule:evenodd;clip-rule:evenodd;fill:#919191;" d="M11,40c8.779-6.555,22.39-8.277,30-16
			c0.89,0.777,2.258,1.075,4,1c-2.103,3.23-7.673,2.993-9,7c-2.286-1.477-21.247,7.418-8,4C23.809,38.809,16.236,38.236,11,40z"/>
		<path style="fill-rule:evenodd;clip-rule:evenodd;fill:#6E6C6C;" d="M50,39c1.877-2.454,7.979-0.713,9,1
			c0.184,0.851-0.39,0.943-1,1C57.182,38.484,53.438,38.896,50,39z"/>
		<path style="fill-rule:evenodd;clip-rule:evenodd;fill:#AD8D7A;" d="M103,29c1.232-1.434,3.438-1.895,6-2c0,0.333,0,0.667,0,1
			c-1.44,0.56-2.44,1.56-3,3c3.367-0.633,9.288,1.288,11-1c1.163,0.162,1.779-0.221,2-1c1.162-0.163,1.779,0.221,2,1
			c-3.877,2.456-7.37,5.296-14,5c0.186-1.48,2.417-0.917,4-1c-2.013-1.654-6.069-1.264-7-4C103.39,29.943,102.816,29.851,103,29z"/>
		<path style="fill-rule:evenodd;clip-rule:evenodd;fill:#B4B3B3;" d="M117,30c-1.712,2.288-7.633,0.367-11,1
			c0.56-1.44,1.56-2.44,3-3c0,0.333,0,0.667,0,1C106.332,30.774,114.859,29.729,117,30z"/>
		<path style="fill-rule:evenodd;clip-rule:evenodd;fill:#976C56;" d="M50,39c3.438-0.104,7.182-0.516,8,2
			c0.182,2.182-0.818,3.182-3,3c0.443-0.891,0.878-1.788,2-2c-4.241-2.867-10.987,0.316-14,2c-2.66,0.34-3.504,2.496-6,3
			c-2.279,0.279-3.759-0.241-4-2c1.523-2.811,7.133-1.534,8-5C45.118,40.785,46.132,38.465,50,39z"/>
		<path style="fill-rule:evenodd;clip-rule:evenodd;fill:#C8C5C3;" d="M92,4c1.753,0.914,4.989,0.344,6,2c-1,0-2,0-3,0
			c-1.597,4.358,3.475,3.618,1,6c-4.715-0.048-7.577,1.756-12,2c-1.583-0.083-3.814,0.481-4-1c2.551-0.116,5.146-0.188,5-3
			c0.169-2.168-3.547-0.453-5-1c0-0.333,0-0.667,0-1c0.667,0,1.333,0,2,0c1.583-0.083,3.814,0.481,4-1c1.163,0.163,1.779-0.221,2-1
			C90.631,5.985,94.644,6.555,92,4z"/>
		<path style="fill-rule:evenodd;clip-rule:evenodd;fill:#5A5958;" d="M51,13c1.242-2.092,2.908-3.758,5-5
			c4.378,0.095-1.875,4.042-2,6c-0.333,0-0.667,0-1,0C51.837,14.163,51.221,13.779,51,13z"/>
		<path style="fill-rule:evenodd;clip-rule:evenodd;fill:#A28A5E;" d="M70,10c-1.003-0.003-1.19,0.81-2,1c-0.333,0-0.667,0-1,0
			c-0.16-3.16-0.035-6.035,2-7C68.277,7.056,70.022,7.644,70,10z"/>
		<path style="fill-rule:evenodd;clip-rule:evenodd;fill:#6E6C6C;" d="M46,20c0-1.667,0-3.333,0-5c3.188,0.854,3.796-0.871,5-2
			c0.221,0.779,0.837,1.163,2,1c-0.19,0.81-1.003,0.997-1,2c1.163-0.163,1.779,0.221,2,1c0,0.333,0,0.667,0,1
			C50.086,17.419,48.194,18.86,46,20z"/>
		<path style="fill-rule:evenodd;clip-rule:evenodd;fill:#DAD9D9;" d="M121,30c-0.221-0.779-0.838-1.163-2-1c-3.333,0-6.667,0-10,0
			c0-0.333,0-0.667,0-1s0-0.667,0-1c1.615,0.282,1.722-0.945,3-1c0.323,6.113,10.328-2.462,10,3
			C122.184,29.851,121.61,29.943,121,30z"/>
		<path style="fill-rule:evenodd;clip-rule:evenodd;fill:#976C56;" d="M101,29c0.667,0,1.333,0,2,0c-0.184,0.851,0.39,0.943,1,1
			c-0.826,2.826,1.409,2.591,1,5c-1,0-2,0-3,0c-2.319,0.319-3.839-0.161-5-1c0-0.333,0-0.667,0-1C98.449,31.782,98.34,29.006,101,29
			z"/>
		<path style="fill-rule:evenodd;clip-rule:evenodd;fill:#C8C5C3;" d="M109,29c3.333,0,6.667,0,10,0c-0.221,0.779-0.837,1.162-2,1
			C114.859,29.729,106.332,30.774,109,29z"/>
		<path style="fill-rule:evenodd;clip-rule:evenodd;fill:#A28A5E;" d="M107,35c0.45,1.634-5.45,1.634-5,0c1,0,2,0,3,0
			c0.409-2.409-1.826-2.174-1-5c0.931,2.736,4.987,2.346,7,4C109.417,34.083,107.186,33.52,107,35z"/>
		<path style="fill-rule:evenodd;clip-rule:evenodd;fill:#AD8D7A;" d="M32,44c0-0.333,0-0.667,0-1c0.615-3.386,6.73-1.27,9-3
			c-0.867,3.466-6.477,2.189-8,5C32.149,45.184,32.057,44.61,32,44z"/>
		<path style="fill-rule:evenodd;clip-rule:evenodd;fill:#B4B3B3;" d="M16,44c6.359,0.692,9.641-1.692,16-1c0,0.333,0,0.667,0,1
			C26.286,42.983,20.465,47.092,16,44z"/>
		<path style="fill-rule:evenodd;clip-rule:evenodd;fill:#A28A5E;" d="M55,44c-1.991,2.009-4.579,3.422-9,3c-1,0-2,0-3,0
			c0.39-1.427,1.2-1.687,0-3c3.013-1.684,9.759-4.867,14-2C55.878,42.212,55.443,43.109,55,44z"/>
		<path style="fill-rule:evenodd;clip-rule:evenodd;fill:#AD8D7A;" d="M43,44c1.2,1.313,0.39,1.573,0,3c1,0,2,0,3,0
			c-0.759,1.653-8.241,1.653-9,0C39.496,46.496,40.34,44.34,43,44z"/>
		<path style="fill-rule:evenodd;clip-rule:evenodd;fill:#B4B3B3;" d="M68,11c-0.015,1.651-2.774,0.56-3,2
			c1.453,0.547,5.168-1.168,5,1c-0.055,1.278-1.282,1.385-1,3c0.667,0,1.333,0,2,0c-0.136,2.864-6.864-0.864-7,2
			c-0.667,0-1.333,0-2,0c-0.333,0-0.667,0-1,0c-1.496-0.17-3.69,0.357-4-1c2.245-1.422,6.589-0.745,7-4
			c-1.177-0.157-2.838,0.172-3-1c0.221-0.779,0.837-1.163,2-1c1.352-0.314,1.91-1.423,4-1C67.333,11,67.667,11,68,11z"/>
		<path style="fill-rule:evenodd;clip-rule:evenodd;fill:#B4B3B3;" d="M69,20c2.919-1.081,5.762-2.239,10-2
			c3.159,1.508,4.994,4.339,8,6c-0.776,0.224-1.973,0.027-2,1c-3.716,1.951-8.624,2.71-14,3c-1.496-0.171-3.69,0.357-4-1
			c2.763-1.275,11.437-1.845,9-5C75.326,22.14,68.873,21.827,69,20z"/>
	</g>
</g>
</svg>
