<?xml version="1.0" encoding="iso-8859-1"?>
<!-- Generator: Adobe Illustrator 13.0.2, SVG Export Plug-In . SVG Version: 6.00 Build 14948)  -->
<!DOCTYPE svg PUBLIC "-//W3C//DTD SVG 1.1//EN" "http://www.w3.org/Graphics/SVG/1.1/DTD/svg11.dtd">
<svg version="1.1" id="Layer_1" xmlns="http://www.w3.org/2000/svg" xmlns:xlink="http://www.w3.org/1999/xlink" x="0px" y="0px"
	 width="144px" height="52px" viewBox="0 0 144 52" style="enable-background:new 0 0 144 52;" xml:space="preserve">
<g>
	<g>
		<path style="fill-rule:evenodd;clip-rule:evenodd;fill:#A88D69;" d="M71,11c0,0.333,0,0.667,0,1c-2.319-0.319-3.839,0.161-5,1
			c-0.333,0-0.667,0-1,0c1.345-2.322,1.655-5.678,3-8c2.208,0.125,0.425,4.242,1,6C69.667,11,70.333,11,71,11z"/>
		<path style="fill-rule:evenodd;clip-rule:evenodd;fill:#E5E11D;" d="M50,19c1.742,0.075,3.11-0.223,4-1c1.333,0,2.667,0,4,0
			c0.667,0,1.333,0,2,0c0,0.333,0,0.667,0,1c-0.374,3.959-6.641,2.025-9,4c-1.333,0-2.667,0-4,0c0.239-1.427,1.646-1.687,2-3
			C49.61,19.943,50.184,19.851,50,19z"/>
		<path style="fill-rule:evenodd;clip-rule:evenodd;fill:#9A7055;" d="M109,30c0.221-0.779,0.838-1.163,2-1c0.333,0,0.667,0,1,0
			c0.274,3.509,3.726-2.509,4,1c-0.057,0.61-0.149,1.184-1,1c-1.12,2.476-6.15,4.35-9,2c0.85-1.483,2.517-2.15,5-2
			C110.779,30.221,110.163,29.838,109,30z"/>
		<path style="fill-rule:evenodd;clip-rule:evenodd;fill:#7B7977;" d="M11,42c-2.156-2.187,0.256-2.147,3-2c2,0,4,0,6,0
			C18.885,42.552,12.265,39.599,11,42z"/>
		<path style="fill-rule:evenodd;clip-rule:evenodd;fill:#FFFFFF;" d="M144,0c0,17.333,0,34.667,0,52c-48,0-96,0-144,0
			C0,34.667,0,17.333,0,0C48,0,96,0,144,0z M42,25c-1,0-2,0-3,0c-4.02,5.881-36.356,12.739-28,17c-0.451,2.784,5.451-0.784,5,2
			c1.386,2.28,6.96,0.373,10,1c1.427,0.239,1.687,1.646,3,2c1.944,3.843,12.688,2.135,15,0c8.763,2.654,19.796,0.116,22-7
			c5.49-1.177,11.507-1.826,17-3c4.513-0.515,16.421,1.124,16-1c0-0.333,0-0.667,0-1c7.582-1.655,17.704,1.598,25-2
			c1.273-1.393,4.898-0.435,5-3c3.298-0.577,1.434-3.776,1-6c2.48-1.52,6.222-1.779,7-5c3.502,0.168,3.148-3.519,5-5
			c-5.333,0-10.667,0-16,0c-1.387-2.28-6.961-0.373-10-1c-2.805-2.195-10.167,0.167-12-3c-3.533-0.467-6.314-1.686-7-5
			c-1.333,0-2.667,0-4,0c-8.22-6.629-26.052-3.86-34,1c-3.556,1.444-5.95,4.05-8,7c-1.907,0.426-1.81,2.857-5,2c0,1.667,0,3.333,0,5
			c-2.503-0.169-3.13,1.536-4,3C42,23.667,42,24.333,42,25z"/>
		<path style="fill-rule:evenodd;clip-rule:evenodd;fill:#EAEBEA;" d="M130,24c0.434,2.224,2.298,5.423-1,6
			c0.59-4.776-7.296,1.975-9-2c0.851,0.184,0.943-0.39,1-1c1.162,0.162,1.779-0.221,2-1C124.453,24.453,126.9,23.9,130,24z"/>
		<path style="fill-rule:evenodd;clip-rule:evenodd;fill:#EAEBEA;" d="M104,10c1.833,3.167,9.195,0.805,12,3c-3.333,0-6.667,0-10,0
			c-0.333,0-0.667,0-1,0c0.162-1.163-0.221-1.779-1-2C104,10.667,104,10.333,104,10z"/>
		<path style="fill-rule:evenodd;clip-rule:evenodd;fill:#9A7055;" d="M59,6c7.948-4.86,25.78-7.629,34-1
			c-0.003,1.003,0.81,1.19,1,2c-1.583,0.083-3.814-0.481-4,1c-0.667,0-1.333,0-2,0c-2.355-0.022-2.944,1.723-6,1
			c-1.241-2.092-2.908-3.758-5-5c-1.069,3.736,2.483,2.85,2,6c-0.333,0-0.667,0-1,0c-4.708,0.708-2.924-5.076-6-6
			c-2.107,0.67,2.317,5.819,0,7c-0.333,0-0.667,0-1,0c-0.667,0-1.333,0-2,0c-0.575-1.758,1.208-5.875-1-6
			c-1.345,2.322-1.655,5.678-3,8c-2.826-0.826-2.591,1.409-5,1c-1.667,0-3.333,0-5,0C54.091,9.091,59.191,10.191,59,6z"/>
		<path style="fill-rule:evenodd;clip-rule:evenodd;fill:#A88D69;" d="M79,10c0.483-3.15-3.069-2.264-2-6
			c2.092,1.242,3.759,2.908,5,5c-1.162-0.163-1.779,0.221-2,1C79.667,10,79.333,10,79,10z"/>
		<path style="fill-rule:evenodd;clip-rule:evenodd;fill:#A88D69;" d="M75,11c-1,0-2,0-3,0c2.317-1.181-2.107-6.33,0-7
			c3.076,0.924,1.292,6.708,6,6C77.839,11.172,76.177,10.843,75,11z"/>
		<path style="fill-rule:evenodd;clip-rule:evenodd;fill:#605E5D;" d="M51,13c2.05-2.95,4.444-5.556,8-7
			c0.191,4.191-4.909,3.091-4,8C53.417,13.917,51.186,14.481,51,13z"/>
		<path style="fill-rule:evenodd;clip-rule:evenodd;fill:#C7C4C3;" d="M90,8c0.186-1.481,2.417-0.917,4-1
			c2.627,0.707,1.974,4.693,4,6c-0.805,0.529-1.623,1.043-3,1c-0.667,0-1.333,0-2,0c-4.104-0.105-8.164-0.164-10,2
			c-0.851-0.184-0.943,0.39-1,1c-4.581,1.086-9.792,1.541-15,2c-4.886-1.016,4.946-2.481,6-4c-0.354-1.313-1.76-1.573-2-3
			c0-0.333,0-0.667,0-1c0.333,0,0.667,0,1,0c1,0,2,0,3,0c-1.158,1.479-1.158,2.521,0,4c3.568-0.099,6.866-0.467,8-3
			c0.467-2.134-1.429-1.905-3-2c0.221-0.779,0.838-1.163,2-1c3.056,0.723,3.645-1.022,6-1c-0.437,1.23-1.279,2.054-3,2
			c0.529,0.804,1.043,1.624,1,3c3.572-0.428,5.488-2.512,7-5C92,8,91,8,90,8z"/>
		<path style="fill-rule:evenodd;clip-rule:evenodd;fill:#B9B8B8;" d="M93,5c1.333,0,2.667,0,4,0c0.686,3.314,3.467,4.533,7,5
			c0,0.333,0,0.667,0,1c-2.928-0.261-3.072,2.261-6,2c-2.026-1.307-1.373-5.293-4-6C93.81,6.19,92.997,6.003,93,5z"/>
		<path style="fill-rule:evenodd;clip-rule:evenodd;fill:#A49F9D;" d="M60,14c2.409,0.409,2.174-1.826,5-1
			c-2.051,0.949-3.541,2.459-4,5c-0.333,0-0.667,0-1,0c-0.667,0-1.333,0-2,0C58.013,16.013,60.729,16.729,60,14z"/>
		<path style="fill-rule:evenodd;clip-rule:evenodd;fill:#FFFFFF;" d="M80,10c1.571,0.095,3.467-0.134,3,2
			c-1.134,2.533-4.432,2.901-8,3c-1.158-1.479-1.158-2.521,0-4c1.177-0.157,2.839,0.172,3-1c0.333,0,0.667,0,1,0S79.667,10,80,10z"
			/>
		<path style="fill-rule:evenodd;clip-rule:evenodd;fill:#939392;" d="M98,13c2.928,0.261,3.072-2.261,6-2
			c0.779,0.221,1.162,0.837,1,2c0,0.333,0,0.667,0,1c-3.708-0.708-4.292,1.708-8,1c-1.162,0.163-1.779-0.221-2-1
			C96.377,14.043,97.195,13.529,98,13z"/>
		<path style="fill-rule:evenodd;clip-rule:evenodd;fill:#ACACAC;" d="M61,18c0.459-2.541,1.949-4.051,4-5c0.333,0,0.667,0,1,0
			c-1.666,1.987,0.09,1.271,0,4C63.174,16.174,63.409,18.409,61,18z"/>
		<path style="fill-rule:evenodd;clip-rule:evenodd;fill:#7B7977;" d="M51,13c0.186,1.481,2.417,0.917,4,1
			c-0.162,1.172-1.823,0.843-3,1c0.31,1.357,2.504,0.83,4,1c-0.248,1.086-1.988,0.678-2,2c-0.89,0.777-2.258,1.075-4,1
			c3.435-2.992-5.277-5.036-3,1c-0.333,0-0.667,0-1,0c0-1.667,0-3.333,0-5C49.19,15.857,49.093,13.426,51,13z"/>
		<path style="fill-rule:evenodd;clip-rule:evenodd;fill:#939392;" d="M55,14c1.667,0,3.333,0,5,0c0.729,2.729-1.987,2.013-2,4
			c-1.333,0-2.667,0-4,0c0.012-1.322,1.752-0.914,2-2c-1.496-0.17-3.69,0.357-4-1C53.177,14.843,54.838,15.172,55,14z"/>
		<path style="fill-rule:evenodd;clip-rule:evenodd;fill:#ACACAC;" d="M94,16c-0.161,1.172-1.823,0.843-3,1
			c3.328,4.338,12.123,3.21,16,7c-1.353,0.314-1.91,1.423-4,1c-3.496-3.503-10.114-3.885-14-7C89.85,16.517,91.517,15.85,94,16z"/>
		<path style="fill-rule:evenodd;clip-rule:evenodd;fill:#A49F9D;" d="M83,16c3.491-0.508,7.55-0.45,10-2c0.667,0,1.333,0,2,0
			c0.221,0.779,0.838,1.163,2,1c-0.161,1.172-1.823,0.843-3,1c-2.483-0.15-4.15,0.517-5,2c-1.333,0-2.667,0-4,0
			c-0.161-1.172-1.823-0.843-3-1C82.057,16.39,82.149,15.816,83,16z"/>
		<path style="fill-rule:evenodd;clip-rule:evenodd;fill:#605E5D;" d="M136,17c1.163,0.163,1.779-0.221,2-1
			c3.313,0.977-1.117,1.977-1,3c-0.778,3.221-4.52,3.48-7,5c-3.1-0.1-5.547,0.453-7,2c-5.57-0.57-9.037,0.963-12,3
			c-1.162-0.163-1.779,0.221-2,1c-5.533,1.133-9.606,3.727-15,5c-1.453,0.547-5.169-1.169-5,1c-1.758,0.575-5.875-1.209-6,1
			c-5.493,1.174-11.51,1.823-17,3c-0.162-1.172-1.823-0.844-3-1c-4.259,0.408-8.871,0.462-12,2c-5.972-0.972-7.644,2.355-13,2
			c-5.006-0.673-7.74,0.926-12,1c-3.333,0-6.667,0-10,0c0.451-2.784-5.451,0.784-5-2c1.265-2.401,7.885,0.552,9-2
			c3.492-0.509,7.55-0.45,10-2c3.863,0.196,7.369,0.035,10-1c1.583-0.083,3.814,0.48,4-1c8.495-0.505,16.439-1.561,23-4c1,0,2,0,3,0
			c6.232-0.102,11.43-1.236,16-3c5.505-0.495,11.156-0.844,15-3c0.81-0.19,0.997-1.003,2-1c2.09,0.423,2.647-0.686,4-1
			C118.383,23.382,126.468,19.468,136,17z"/>
		<path style="fill-rule:evenodd;clip-rule:evenodd;fill:#939392;" d="M67,19c5.208-0.459,10.419-0.914,15-2
			c1.177,0.157,2.839-0.172,3,1c-5.658,0.675-9.444,3.223-16,3c-0.027-0.973-1.224-0.776-2-1C67,19.667,67,19.333,67,19z"/>
		<path style="fill-rule:evenodd;clip-rule:evenodd;fill:#B9B8B8;" d="M67,32c-1.333,0-2.667,0-4,0c1.108-3.869-3.535-3.558-1-6
			c2.029,0.638,0.659,4.675,3,5c-0.187-2.69,2.128-3.533,5-2c-1.727-0.606,0.077-4.744-2-5c-2.578,0.241,1.373,1.721,0,4
			c-0.998-2.126-5.158-3.724-3-6c0.89-0.777,2.258-1.075,4-1c6.556,0.223,10.342-2.325,16-3c1.333,0,2.667,0,4,0
			c3.886,3.115,10.504,3.497,14,7c-1.003-0.003-1.19,0.81-2,1c-5.505,0.495-11.156,0.844-15,3c-6.232,0.102-11.43,1.236-16,3
			C69,32,68,32,67,32z"/>
		<path style="fill-rule:evenodd;clip-rule:evenodd;fill:#ACACAC;" d="M56,23c4.021,0.688,5.708-0.958,9-1
			c-2.158,2.276,2.002,3.874,3,6c1.373-2.279-2.578-3.759,0-4c2.077,0.256,0.273,4.394,2,5c-2.872-1.533-5.187-0.69-5,2
			c-2.341-0.325-0.971-4.362-3-5c-2.535,2.442,2.108,2.131,1,6c1.333,0,2.667,0,4,0c-6.561,2.439-14.505,3.495-23,4
			c3.016-4.983,10.16-5.84,12-12C56,23.667,56,23.333,56,23z"/>
		<path style="fill-rule:evenodd;clip-rule:evenodd;fill:#7B7977;" d="M111,29c2.963-2.037,6.43-3.57,12-3
			c-0.221,0.779-0.838,1.162-2,1c-4.564-0.897-5.668,1.665-9,2C111.667,29,111.333,29,111,29z"/>
		<path style="fill-rule:evenodd;clip-rule:evenodd;fill:#939392;" d="M42,23c0.87-1.464,1.497-3.169,4-3c0.333,0,0.667,0,1,0
			c0.667,0,1.333,0,2,0c-0.354,1.313-1.761,1.573-2,3C45.333,23,43.667,23,42,23z"/>
		<path style="fill-rule:evenodd;clip-rule:evenodd;fill:#ACACAC;" d="M49,25c1,0,2,0,3,0c1.143,3.487-9.592,6.592-12,12
			c-2.631,1.035-6.137,1.196-10,1c-9.452-0.623,4.087-0.828,4-4c5.646-0.081,4.702-0.571,9-2c-0.31-1.357-2.504-0.829-4-1
			C41.924,28.591,45.783,27.116,49,25z"/>
		<path style="fill-rule:evenodd;clip-rule:evenodd;fill:#A49F9D;" d="M14,40c5.642-3.508,15.467-3,17-8
			c1.427,0.239,1.687,1.646,3,2c-1.584-5.074,7.756-5.657,11-9c1.333,0,2.667,0,4,0c-3.217,2.116-7.076,3.591-10,6
			c1.496,0.171,3.69-0.357,4,1c-4.298,1.429-3.354,1.919-9,2c0.087,3.172-13.452,3.377-4,4c-2.45,1.55-6.508,1.491-10,2
			C18,40,16,40,14,40z"/>
		<path style="fill-rule:evenodd;clip-rule:evenodd;fill:#939392;" d="M45,25c-3.244,3.343-12.584,3.926-11,9
			c-1.313-0.354-1.573-1.761-3-2c-1.533,5-11.358,4.492-17,8c-2.744-0.147-5.156-0.187-3,2c-8.356-4.261,23.98-11.119,28-17
			c1,0,2,0,3,0S44,25,45,25z"/>
		<path style="fill-rule:evenodd;clip-rule:evenodd;fill:#A88D69;" d="M112,29c3.332-0.335,4.436-2.897,9-2
			c-0.057,0.61-0.149,1.184-1,1c-1.479,0.521-2.521,1.479-4,2C115.726,26.491,112.274,32.509,112,29z"/>
		<path style="fill-rule:evenodd;clip-rule:evenodd;fill:#A88D69;" d="M94,35c5.394-1.273,9.467-3.867,15-5
			c1.163-0.162,1.779,0.221,2,1c-2.483-0.15-4.15,0.517-5,2c2.85,2.35,7.88,0.476,9-2c0.269,5.635,7.566-1.704,9,2
			c-7.296,3.598-17.418,0.345-25,2C97.333,35,95.667,35,94,35z"/>
		<path style="fill-rule:evenodd;clip-rule:evenodd;fill:#A88D69;" d="M63,39c1.177,0.156,2.838-0.172,3,1
			c-2.204,7.116-13.237,9.654-22,7c-1.022-2.228-4.598,1.308-8,0c-2.659-2.57,1.924-1.43,2-4c5.356,0.355,7.028-2.972,13-2
			c0,0.333,0,0.667,0,1c-1.314,1.02-3.686,0.98-5,2c1.292,1.683,12.686,4.8,12-1C58.299,40.3,62.207,41.207,63,39z"/>
		<path style="fill-rule:evenodd;clip-rule:evenodd;fill:#9A7055;" d="M26,45c0-0.333,0-0.667,0-1c4.26-0.074,6.994-1.673,12-1
			c-0.076,2.57-4.659,1.43-2,4c-3.104,1.313-2.854-0.271-7,0C27.687,46.646,27.427,45.239,26,45z"/>
		<path style="fill-rule:evenodd;clip-rule:evenodd;fill:#D7D5D3;" d="M88,8c0.667,0,1.333,0,2,0c1,0,2,0,3,0
			c-1.512,2.488-3.428,4.572-7,5c0.043-1.376-0.471-2.196-1-3C86.721,10.054,87.563,9.23,88,8z"/>
		<path style="fill-rule:evenodd;clip-rule:evenodd;fill:#B9B8B8;" d="M106,13c3.333,0,6.667,0,10,0c3.039,0.627,8.613-1.28,10,1
			C119.655,13.345,110.682,15.318,106,13z"/>
		<path style="fill-rule:evenodd;clip-rule:evenodd;fill:#B9B8B8;" d="M83,16c1.836-2.164,5.896-2.105,10-2
			C90.55,15.55,86.491,15.492,83,16z"/>
		<path style="fill-rule:evenodd;clip-rule:evenodd;fill:#ACACAC;" d="M126,14c5.333,0,10.667,0,16,0c-1.852,1.481-1.498,5.168-5,5
			c-0.117-1.023,4.313-2.023,1-3c-0.221,0.779-0.837,1.163-2,1c-7.101-1.226-16.664-1.408-22,1c5.107-4.615-5.506-1.223-9-4
			c0-0.333,0-0.667,0-1c0.333,0,0.667,0,1,0C110.682,15.318,119.655,13.345,126,14z"/>
		<path style="fill-rule:evenodd;clip-rule:evenodd;fill:#B9B8B8;" d="M60,19c0-0.333,0-0.667,0-1c0.333,0,0.667,0,1,0
			c2.409,0.409,2.174-1.826,5-1c0.09-2.729-1.666-2.013,0-4c1.161-0.839,2.681-1.319,5-1c0.24,1.427,1.646,1.687,2,3
			c-1.054,1.519-10.886,2.984-6,4c0,0.333,0,0.667,0,1C64.928,19.405,60.431,21.236,60,19z"/>
		<path style="fill-rule:evenodd;clip-rule:evenodd;fill:#605E5D;" d="M49,20c-0.667,0-1.333,0-2,0c-2.277-6.036,6.435-3.992,3-1
			C50.184,19.851,49.61,19.943,49,20z"/>
		<path style="fill-rule:evenodd;clip-rule:evenodd;fill:#7B7977;" d="M60,19c0.431,2.236,4.928,0.405,7,1
			c0.776,0.224,1.973,0.027,2,1c-1.742-0.075-3.11,0.223-4,1c-3.292,0.042-4.979,1.688-9,1c-1.667,0-3.333,0-5,0
			C53.359,21.025,59.626,22.959,60,19z"/>
		<path style="fill-rule:evenodd;clip-rule:evenodd;fill:#605E5D;" d="M51,23c1.667,0,3.333,0,5,0c0,0.333,0,0.667,0,1
			c-1.583,0.083-3.814-0.481-4,1c-1,0-2,0-3,0c-1.333,0-2.667,0-4,0c-1,0-2,0-3,0c0-0.667,0-1.333,0-2c1.667,0,3.333,0,5,0
			C48.333,23,49.667,23,51,23z"/>
		<path style="fill-rule:evenodd;clip-rule:evenodd;fill:#7B7977;" d="M86,29c3.844-2.156,9.495-2.505,15-3
			C97.156,28.156,91.505,28.505,86,29z"/>
		<path style="fill-rule:evenodd;clip-rule:evenodd;fill:#C7C4C3;" d="M120,28c1.704,3.975,9.59-2.776,9,2
			c-0.102,2.565-3.727,1.607-5,3c-1.434-3.704-8.731,3.635-9-2c0.851,0.184,0.943-0.39,1-1C117.479,29.479,118.521,28.521,120,28z"
			/>
		<path style="fill-rule:evenodd;clip-rule:evenodd;fill:#939392;" d="M70,32c4.57-1.764,9.768-2.898,16-3
			C81.43,30.764,76.232,31.898,70,32z"/>
		<path style="fill-rule:evenodd;clip-rule:evenodd;fill:#C1AD97;" d="M89,36c-0.169-2.169,3.547-0.453,5-1c1.667,0,3.333,0,5,0
			c0,0.333,0,0.667,0,1C95.667,36,92.333,36,89,36z"/>
		<path style="fill-rule:evenodd;clip-rule:evenodd;fill:#A49F9D;" d="M40,37c2.408-5.408,13.143-8.513,12-12
			c0.186-1.481,2.417-0.917,4-1c-1.84,6.16-8.984,7.017-12,12C43.814,37.48,41.583,36.917,40,37z"/>
		<path style="fill-rule:evenodd;clip-rule:evenodd;fill:#9A7055;" d="M58,43c-3.156,0.489-3.531-1.802-7-1c0-0.333,0-0.667,0-1
			c3.129-1.538,7.741-1.592,12-2C62.207,41.207,58.299,40.3,58,43z"/>
		<path style="fill-rule:evenodd;clip-rule:evenodd;fill:#B9B8B8;" d="M16,44c3.333,0,6.667,0,10,0c0,0.333,0,0.667,0,1
			C22.96,44.373,17.386,46.28,16,44z"/>
		<path style="fill-rule:evenodd;clip-rule:evenodd;fill:#EAEBEA;" d="M29,47c4.146-0.271,3.896,1.313,7,0
			c3.402,1.308,6.978-2.228,8,0C41.688,49.135,30.944,50.843,29,47z"/>
		<path style="fill-rule:evenodd;clip-rule:evenodd;fill:#B9B8B8;" d="M97,15c3.708,0.708,4.292-1.708,8-1
			c3.494,2.777,14.107-0.615,9,4c5.336-2.408,14.899-2.226,22-1c-9.532,2.468-17.617,6.382-29,7c-3.877-3.79-12.672-2.662-16-7
			c1.177-0.157,2.839,0.172,3-1C95.177,15.843,96.839,16.172,97,15z"/>
		<path style="fill-rule:evenodd;clip-rule:evenodd;fill:#C7C4C3;" d="M51,42c3.469-0.802,3.844,1.489,7,1
			c0.686,5.8-10.708,2.683-12,1C47.314,42.98,49.686,43.02,51,42z"/>
		<path style="fill-rule:evenodd;clip-rule:evenodd;fill:#EAEBEA;" d="M89,36c3.333,0,6.667,0,10,0c0.421,2.124-11.487,0.485-16,1
			C83.125,34.791,87.242,36.575,89,36z"/>
	</g>
</g>
</svg>
