<?xml version="1.0" encoding="iso-8859-1"?>
<!-- Generator: Adobe Illustrator 13.0.2, SVG Export Plug-In . SVG Version: 6.00 Build 14948)  -->
<!DOCTYPE svg PUBLIC "-//W3C//DTD SVG 1.1//EN" "http://www.w3.org/Graphics/SVG/1.1/DTD/svg11.dtd">
<svg version="1.1" id="Layer_1" xmlns="http://www.w3.org/2000/svg" xmlns:xlink="http://www.w3.org/1999/xlink" x="0px" y="0px"
	 width="144px" height="52px" viewBox="0 0 144 52" style="enable-background:new 0 0 144 52;" xml:space="preserve">
<g>
	<g>
		<path style="fill-rule:evenodd;clip-rule:evenodd;fill:#AB9D3F;" d="M72,12c0.438-3.438-0.395-5.605-1-8
			c1.975,0.691,2.666,2.667,3,5c-0.043,1.376,0.471,2.196,1,3C74,12,73,12,72,12z"/>
		<path style="fill-rule:evenodd;clip-rule:evenodd;fill:#AB9D3F;" d="M67,13c-2.068-1.491-1.383-8.65,2-8
			C67.955,7.288,68.365,11.032,67,13z"/>
		<path style="fill-rule:evenodd;clip-rule:evenodd;fill:#AB9D3F;" d="M85,10c-0.309-2.358-3.473-1.86-3-5
			c2.545,0.122,3.878,1.456,4,4c0,0.333,0,0.667,0,1C85.667,10,85.333,10,85,10z"/>
		<path style="fill-rule:evenodd;clip-rule:evenodd;fill:#E8E6E4;" d="M76,12c0.667,0,1.333,0,2,0c0.333,0,0.667,0,1,0
			c-0.012,1.322-1.753,0.914-2,2c0.785,2.296,6.19,0.973,5-2c3.556,2.979-2.229,5.038-6,4c-0.224-0.776-0.027-1.973-1-2
			C74.997,12.997,75.81,12.81,76,12z"/>
		<path style="fill-rule:evenodd;clip-rule:evenodd;fill:#5F5C59;" d="M46,18c1.57-0.43,0.854-3.146,4-2c0.075,1.742-0.223,3.11-1,4
			C47.429,19.905,45.533,20.134,46,18z"/>
		<path style="fill-rule:evenodd;clip-rule:evenodd;fill:#F0EF17;" d="M59,18c2.667,0,5.333,0,8,0c0,1,0,2,0,3
			c-1.514,2.486-8.614-0.614-10,2c-1.496-0.17-3.69,0.357-4-1c0.239-1.427,1.646-1.687,2-3C56.496,18.83,58.69,19.357,59,18z"/>
		<path style="fill-rule:evenodd;clip-rule:evenodd;fill:#FFFFFF;" d="M70,2c-7.896,1.104-13.892,4.108-18,9
			c-0.934,0.733-1.515,1.818-2,3c0.319,2.652-5.602-0.936-4,3c-0.934,0.733-1.515,1.818-2,3c-2.291,1.042-2.779,3.888-5,5
			c-10.207,4.793-22.569,7.431-31,14c0.102,2.565,3.727,1.607,5,3c0.027,0.973,1.224,0.776,2,1c2.826-0.826,2.591,1.409,5,1
			c0.87,1.464,1.497,3.17,4,3c1.078,1.655,8.922,1.655,10,0c7.577,1.303,9.291-4.311,15-4c6.085,0.331,11.341,9.168,21,4
			c0.807-0.86,2.739-0.594,3-2c1.267-1.733,3.38-2.62,3-6c8.254-0.413,14.407-2.926,22-4c2.661-1.339,7.682-0.318,9-3
			c0.333,0,0.667,0,1,0c0.733,0.934,1.818,1.515,3,2c4.695,2.332,14.168,0.857,18-1c1.479-0.521,2.521-1.479,4-2
			c3.333-1.667,1.312-8.689,5-10c1.225-0.858,6.505-5.778,2-6c-5.575-4.424-19.158-0.842-28-2c-2.656-0.01-5.711,0.378-7-1
			c-0.147-2.186-2.52-2.147-5-2c-1.554-2.113-1.141-6.193-6-5c-3.602-0.732-5.051-3.616-10-3c0-0.667,0-1.333,0-2c20,0,40,0,60,0
			c0,17.333,0,34.667,0,52c-48,0-96,0-144,0C0,34.667,0,17.333,0,0c23.667,0,47.333,0,71,0C70.81,0.81,69.997,0.997,70,2z"/>
		<path style="fill-rule:evenodd;clip-rule:evenodd;fill:#E8E6E4;" d="M138,21c-3.688,1.311-1.667,8.333-5,10
			c1.378-1.289,0.989-4.344,1-7c0.443-0.89,0.878-1.789,2-2C136.81,21.81,136.997,20.997,138,21z"/>
		<path style="fill-rule:evenodd;clip-rule:evenodd;fill:#AB9D3F;" d="M76,7c0.044-1.71-0.743-2.59-2-3c1.688-0.971,7.016,2.946,7,7
			c-0.667,0-1.333,0-2,0C77.996,9.671,78.055,7.279,76,7z"/>
		<path style="fill-rule:evenodd;clip-rule:evenodd;fill:#AB8B70;" d="M76,7c2.055,0.279,1.996,2.671,3,4
			c-0.851-0.184-0.943,0.39-1,1c-0.667,0-1.333,0-2,0c-0.333,0-0.667,0-1,0c-0.529-0.804-1.043-1.624-1-3c1,0,2,0,3,0
			C76.434,8.066,74.22,7.485,76,7z"/>
		<path style="fill-rule:evenodd;clip-rule:evenodd;fill:#9A6E56;" d="M70,2c4.378-1.26,9.622-1.26,14,0
			c4.949-0.616,6.398,2.268,10,3c0.282,1.615-0.945,1.722-1,3c-1.162-0.163-1.779,0.221-2,1c-1.667,0-3.333,0-5,0
			c-0.122-2.544-1.455-3.878-4-4c-0.473,3.14,2.691,2.642,3,5c-1.794-0.127-2.109,1.224-4,1c0.016-4.054-5.312-7.971-7-7
			c1.257,0.41,2.044,1.29,2,3c-1.78,0.485,0.434,1.066,1,2c-1,0-2,0-3,0c-0.334-2.333-1.025-4.309-3-5c0.605,2.395,1.438,4.562,1,8
			c0,0.333,0,0.667,0,1c-2.09-0.423-2.648,0.686-4,1c-1.667,0-3.333,0-5,0c-5.986,0.403-5.718,0.894-12,1c0-0.333,0-0.667,0-1
			c4.392,0.725,5.185-2.148,6-5c-0.729-2.239-3.009,2.209-5,2C56.108,6.108,62.104,3.104,70,2z M69,5c-3.383-0.65-4.068,6.509-2,8
			C68.365,11.032,67.955,7.288,69,5z"/>
		<path style="fill-rule:evenodd;clip-rule:evenodd;fill:#ABABAB;" d="M93,8c0.055-1.278,1.282-1.385,1-3
			c4.859-1.193,4.446,2.887,6,5c0,0.333,0,0.667,0,1c-3.502,1.407-3.148-6.058-5-3C94.333,8,93.667,8,93,8z"/>
		<path style="fill-rule:evenodd;clip-rule:evenodd;fill:#979796;" d="M89,17c6.014-0.986,11.152-2.848,16-5
			c0.282,1.615-0.945,1.722-1,3c-9.397,2.936-20.317,4.35-30,7c0.169-2.168-3.547-0.453-5-1C75.312,19.312,82.448,18.448,89,17z"/>
		<path style="fill-rule:evenodd;clip-rule:evenodd;fill:#BBBBBB;" d="M95,8c1.852-3.058,1.498,4.407,5,3c0-0.333,0-0.667,0-1
			c2.48-0.147,4.853-0.186,5,2c-4.848,2.152-9.986,4.014-16,5c4.187-1.027,2.525-7.56-3-7c0-0.333,0-0.667,0-1c1.667,0,3.333,0,5,0
			c-0.127,1.793,1.225,2.109,1,4C96.462,12.559,93.488,10.892,95,8z"/>
		<path style="fill-rule:evenodd;clip-rule:evenodd;fill:#CFCECC;" d="M75,12c0.333,0,0.667,0,1,0c-0.19,0.81-1.003,0.997-1,2
			c0.973,0.027,0.776,1.224,1,2c3.771,1.038,9.556-1.021,6-4c-0.851,0.184-0.943-0.39-1-1c1.891,0.224,2.206-1.127,4-1
			c0.333,0,0.667,0,1,0c5.525-0.56,7.187,5.973,3,7c-6.552,1.448-13.688,2.312-20,4c-0.667,0-1.333,0-2,0c0-1,0-2,0-3
			c3.247,0.58,4.652-0.681,7-1c0.279-2.279-0.241-3.759-2-4c0-0.333,0-0.667,0-1C73,12,74,12,75,12z"/>
		<path style="fill-rule:evenodd;clip-rule:evenodd;fill:#ABABAB;" d="M104,15c0.055-1.278,1.282-1.385,1-3
			c1.289,1.378,4.344,0.99,7,1c7.178,2.823,20.76-0.76,28,2c4.505,0.222-0.775,5.142-2,6c-1.003-0.003-1.19,0.81-2,1
			c-0.161-1.172-1.823-0.843-3-1c1.282-1.718,4.761-1.239,5-4c-3.657,0.92-10.449-3.069-16,1C119.507,13.946,107.335,14.958,104,15z
			"/>
		<path style="fill-rule:evenodd;clip-rule:evenodd;fill:#BBBBBB;" d="M104,15c3.335-0.042,15.507-1.054,18,3
			c5.551-4.069,12.343-0.08,16-1c-0.239,2.761-3.718,2.282-5,4c-1.599,1.734-4.501,2.166-8,2c-5.118,0.785-7.264-1.403-12-1
			c0.15,1.85,3.386,0.614,4,2c-0.19,0.81-1.003,0.997-1,2c-17.084,3.249-32.508,8.158-51,10c-6.319-0.484-6.179-0.37-11,1
			c-2.333,0-4.667,0-7,0c1.581-2.086,5.373-1.96,5-6c2.995,0.658-0.957,2.138,0,4c5.17-3.676,1.983-10.843,11-11
			c-0.234,3.766-3.766,4.234-4,8c-0.473,4.088,2.691,0.147,3-1c2.251-2.082,2.858-5.809,5-8c3.469,0.802,3.844-1.489,7-1
			C83.683,19.35,94.603,17.936,104,15z"/>
		<path style="fill-rule:evenodd;clip-rule:evenodd;fill:#7D7C7C;" d="M50,14c0.333,0,0.667,0,1,0c0,0.333,0,0.667,0,1
			c1.816,1.851,6.034,1.299,8,3c-0.31,1.357-2.504,0.83-4,1c-3.059-0.725-2.941,1.725-6,1c0.777-0.89,1.075-2.258,1-4
			c-3.146-1.146-2.43,1.57-4,2c0-0.333,0-0.667,0-1C44.398,13.064,50.319,16.652,50,14z"/>
		<path style="fill-rule:evenodd;clip-rule:evenodd;fill:#ABABAB;" d="M63,14c1.667,0,3.333,0,5,0c0.529,0.804,1.043,1.624,1,3
			c-1.163-0.163-1.779,0.221-2,1c-2.667,0-5.333,0-8,0c0.027-0.973,1.224-0.776,2-1C62.377,15.999,60.573,15.352,63,14z"/>
		<path style="fill-rule:evenodd;clip-rule:evenodd;fill:#ABABAB;" d="M67,23c-2.142,2.191-2.749,5.918-5,8
			c-0.127-1.794,1.224-2.109,1-4c-1.875,1.124-2.125,3.876-4,5c0.234-3.766,3.766-4.234,4-8c-9.017,0.157-5.83,7.324-11,11
			c-0.957-1.862,2.995-3.342,0-4c0.373,4.04-3.419,3.914-5,6c2.333,0,4.667,0,7,0c0,0.333,0,0.667,0,1
			c-15.32,0.256-25.197,3.252-39,3c-1.454,0.443,0.102,0.878,0,2c-0.776-0.224-1.973-0.027-2-1c0.302-0.624-0.544-1.238-1-1
			c9.332-4.886,22.283-9.272,32-15c0.851,0.184,0.943-0.39,1-1c5.138,0.138,9.854-0.146,13-2C62.646,22.414,64.037,24.368,67,23z"/>
		<path style="fill-rule:evenodd;clip-rule:evenodd;fill:#ABABAB;" d="M46,18c-0.467,2.134,1.429,1.905,3,2
			c3.059,0.725,2.941-1.725,6-1c-0.354,1.313-1.761,1.573-2,3c-1.659,1.674-5.871,0.796-9,1c-0.368-1.701,0.78-1.887,2-2
			c-0.027-0.973-1.224-0.776-2-1c0.485-1.182,1.066-2.267,2-3C46,17.333,46,17.667,46,18z"/>
		<path style="fill-rule:evenodd;clip-rule:evenodd;fill:#7D7C7C;" d="M39,25c2.221-1.112,2.709-3.958,5-5
			c0.776,0.224,1.973,0.027,2,1c-1.22,0.113-2.368,0.299-2,2c-4.06-0.104-3.227,3.146,1,2c-0.057,0.61-0.149,1.184-1,1
			C42.547,25.453,38.832,27.169,39,25z"/>
		<path style="fill-rule:evenodd;clip-rule:evenodd;fill:#7D7C7C;" d="M67,21c0.667,0,1.333,0,2,0c1.453,0.547,5.169-1.168,5,1
			c-3.156-0.489-3.531,1.802-7,1c-2.963,1.368-4.354-0.586-9,0c-0.333,0-0.667,0-1,0C58.386,20.386,65.486,23.486,67,21z"/>
		<path style="fill-rule:evenodd;clip-rule:evenodd;fill:#5F5C59;" d="M136,22c-1.122,0.211-1.557,1.11-2,2c-0.333,0-0.667,0-1,0
			c-7.279,3.721-16.288,5.712-25,8c-0.333,0-0.667,0-1,0c-2.974,1.026-7.994,0.006-9,3c-7.593,1.074-13.746,3.587-22,4
			c-0.333,0-0.667,0-1,0c-4.098,0.235-8.177,0.49-11,2c-11.566,0.101-20.757,2.576-32,3c-4,0-8,0-12,0c-2.409,0.409-2.174-1.826-5-1
			c0.102-1.122-1.454-1.557,0-2c13.803,0.252,23.68-2.744,39-3c3.016-1.317,8.566-0.101,11-2c18.492-1.842,33.916-6.751,51-10
			c3.646-0.354,6.233-1.766,9-3c3.499,0.166,6.401-0.266,8-2C134.177,21.157,135.839,20.828,136,22z"/>
		<path style="fill-rule:evenodd;clip-rule:evenodd;fill:#9A6E56;" d="M108,32c8.712-2.288,17.721-4.279,25-8
			c-1.246,2.754-3.149,4.851-7,5c-4.248,2.419-9.298,4.036-15,5C109.818,33.515,108.733,32.934,108,32z"/>
		<path style="fill-rule:evenodd;clip-rule:evenodd;fill:#7D7C7C;" d="M54,37c4.821-1.37,4.681-1.484,11-1
			c-2.434,1.899-7.984,0.683-11,2C54,37.667,54,37.333,54,37z"/>
		<path style="fill-rule:evenodd;clip-rule:evenodd;fill:#5F5C59;" d="M53,22c0.31,1.357,2.504,0.83,4,1c0.333,0,0.667,0,1,0
			c-3.146,1.854-7.862,2.138-13,2c-4.227,1.146-5.06-2.104-1-2C47.129,22.796,51.341,23.674,53,22z"/>
		<path style="fill-rule:evenodd;clip-rule:evenodd;fill:#979796;" d="M13,42c-1.273-1.393-4.898-0.435-5-3
			c8.431-6.569,20.793-9.207,31-14c-0.168,2.169,3.547,0.453,5,1c-9.717,5.728-22.668,10.114-32,15
			C12.456,40.762,13.302,41.376,13,42z"/>
		<path style="fill-rule:evenodd;clip-rule:evenodd;fill:#AB8B70;" d="M111,34c5.702-0.964,10.752-2.581,15-5
			c-4.12,4.607,0.146,2.615,3,4C125.168,34.857,115.695,36.332,111,34z"/>
		<path style="fill-rule:evenodd;clip-rule:evenodd;fill:#979796;" d="M59,32c1.875-1.124,2.125-3.876,4-5
			c0.224,1.891-1.127,2.206-1,4C61.691,32.147,58.527,36.088,59,32z"/>
		<path style="fill-rule:evenodd;clip-rule:evenodd;fill:#AB8B70;" d="M32,44c11.243-0.424,20.434-2.899,32-3
			c1.163-0.162,1.779,0.221,2,1c-0.667,0-1.333,0-2,0c-2.651,0.016-5.888-0.555-6,2c0.721,2.336,8.205,3.052,10,1c1,0,2,0,3,0
			c-0.19,0.81-1.003,0.997-1,2c-9.659,5.168-14.915-3.669-21-4c-5.709-0.311-7.423,5.303-15,4c-2,0-4,0-6,0
			C27.572,44.238,31.728,46.062,32,44z"/>
		<path style="fill-rule:evenodd;clip-rule:evenodd;fill:#BDA897;" d="M68,45c-1.795,2.052-9.279,1.336-10-1
			c0.112-2.555,3.349-1.984,6-2c-0.027,0.973-1.224,0.776-2,1c-1,0-2,0-3,0c0.223,3.11,4.977,1.689,8,2C67.333,45,67.667,45,68,45z"
			/>
		<path style="fill-rule:evenodd;clip-rule:evenodd;fill:#9A6E56;" d="M24,47c-2.503,0.17-3.13-1.536-4-3c4,0,8,0,12,0
			c-0.272,2.062-4.428,0.238-4,3C26.667,47,25.333,47,24,47z"/>
		<path style="fill-rule:evenodd;clip-rule:evenodd;fill:#BDA897;" d="M71,45c1.542-4.209-5.174-0.159-5-3c1.667,0,3.333,0,5,0
			c1.44,0.227,0.349,2.984,2,3c-0.261,1.406-2.193,1.14-3,2C69.997,45.997,70.81,45.81,71,45z"/>
		<path style="fill-rule:evenodd;clip-rule:evenodd;fill:#E8E6E4;" d="M84,2c-4.378-1.26-9.622-1.26-14,0
			c-0.003-1.003,0.81-1.19,1-2c4.333,0,8.667,0,13,0C84,0.667,84,1.333,84,2z"/>
		<path style="fill-rule:evenodd;clip-rule:evenodd;fill:#5F5C59;" d="M50,14c0.485-1.182,1.066-2.267,2-3
			c1.991,0.209,4.271-4.239,5-2c-0.815,2.852-1.608,5.725-6,5C50.667,14,50.333,14,50,14z"/>
		<path style="fill-rule:evenodd;clip-rule:evenodd;fill:#ABABAB;" d="M116,26c-0.003-1.003,0.81-1.19,1-2
			c-0.614-1.386-3.85-0.15-4-2c4.736-0.403,6.882,1.785,12,1C122.233,24.234,119.646,25.646,116,26z"/>
		<path style="fill-rule:evenodd;clip-rule:evenodd;fill:#BBBBBB;" d="M126,29c3.851-0.149,5.754-2.246,7-5c0.333,0,0.667,0,1,0
			c-0.011,2.656,0.378,5.711-1,7c-1.479,0.521-2.521,1.479-4,2C126.146,31.615,121.88,33.607,126,29z"/>
		<path style="fill-rule:evenodd;clip-rule:evenodd;fill:#7D7C7C;" d="M98,35c1.006-2.994,6.026-1.974,9-3
			C105.682,34.682,100.661,33.661,98,35z"/>
		<path style="fill-rule:evenodd;clip-rule:evenodd;fill:#9A6E56;" d="M64,41c2.823-1.51,6.902-1.765,11-2
			c-0.271,2.062-4.428,0.238-4,3c-1.667,0-3.333,0-5,0C65.779,41.221,65.163,40.838,64,41z"/>
		<path style="fill-rule:evenodd;clip-rule:evenodd;fill:#AB8B70;" d="M76,39c0.38,3.38-1.733,4.267-3,6
			c-1.651-0.016-0.56-2.773-2-3c-0.428-2.762,3.729-0.938,4-3C75.333,39,75.667,39,76,39z"/>
		<path style="fill-rule:evenodd;clip-rule:evenodd;fill:#BBBBBB;" d="M67,45c-3.023-0.311-7.777,1.11-8-2c1,0,2,0,3,0
			C61.549,45.784,67.451,42.216,67,45z"/>
		<path style="fill-rule:evenodd;clip-rule:evenodd;fill:#BDA897;" d="M24,47c1.333,0,2.667,0,4,0c2,0,4,0,6,0
			C32.922,48.655,25.078,48.655,24,47z"/>
		<path style="fill-rule:evenodd;clip-rule:evenodd;fill:#BBBBBB;" d="M68,14c1.352-0.314,1.91-1.423,4-1
			c1.759,0.241,2.279,1.721,2,4c-2.348,0.319-3.753,1.58-7,1c0.221-0.779,0.837-1.163,2-1C69.043,15.624,68.529,14.804,68,14z"/>
		<path style="fill-rule:evenodd;clip-rule:evenodd;fill:#CFCECC;" d="M93,8c0.667,0,1.333,0,2,0c-1.512,2.892,1.462,4.559-3,5
			c0.225-1.891-1.127-2.207-1-4C91.221,8.221,91.838,7.837,93,8z"/>
		<path style="fill-rule:evenodd;clip-rule:evenodd;fill:#CFCECC;" d="M62,43c0.776-0.224,1.973-0.027,2-1c0.667,0,1.333,0,2,0
			c-0.174,2.841,6.542-1.209,5,3c-1,0-2,0-3,0c-0.333,0-0.667,0-1,0C67.451,42.216,61.549,45.784,62,43z"/>
		<path style="fill-rule:evenodd;clip-rule:evenodd;fill:#FFFFFF;" d="M81,11c0.057,0.61,0.149,1.184,1,1
			c1.19,2.973-4.215,4.296-5,2c0.247-1.086,1.988-0.678,2-2c-0.333,0-0.667,0-1,0c0.057-0.61,0.149-1.184,1-1
			C79.667,11,80.333,11,81,11z"/>
		<path style="fill-rule:evenodd;clip-rule:evenodd;fill:#E8E6E4;" d="M112,13c8.842,1.158,22.425-2.424,28,2
			C132.76,12.24,119.178,15.823,112,13z"/>
		<path style="fill-rule:evenodd;clip-rule:evenodd;fill:#979796;" d="M51,15c6.282-0.106,6.014-0.597,12-1
			c-2.427,1.352-0.623,1.999-2,3c-0.776,0.224-1.973,0.027-2,1C57.034,16.299,52.816,16.851,51,15z"/>
	</g>
</g>
</svg>
