<?xml version="1.0" encoding="iso-8859-1"?>
<!-- Generator: Adobe Illustrator 13.0.2, SVG Export Plug-In . SVG Version: 6.00 Build 14948)  -->
<!DOCTYPE svg PUBLIC "-//W3C//DTD SVG 1.1//EN" "http://www.w3.org/Graphics/SVG/1.1/DTD/svg11.dtd">
<svg version="1.1" id="Layer_1" xmlns="http://www.w3.org/2000/svg" xmlns:xlink="http://www.w3.org/1999/xlink" x="0px" y="0px"
	 width="144px" height="52px" viewBox="0 0 144 52" style="enable-background:new 0 0 144 52;" xml:space="preserve">
<g>
	<g>
		<path style="fill-rule:evenodd;clip-rule:evenodd;fill:#A99056;" d="M89,10c-0.665-2.668-3.005-3.662-5-5
			c2.598-4.095,5.682,1.976,7,5C90.333,10,89.667,10,89,10z"/>
		<path style="fill-rule:evenodd;clip-rule:evenodd;fill:#A99056;" d="M74,13c-1.182,0.144-2.267,1.781-3,0c0-3,0-6,0-9
			C74.369,4.631,73.605,9.395,74,13z"/>
		<path style="fill-rule:evenodd;clip-rule:evenodd;fill:#A99056;" d="M80,12c-6.417,0.515-0.614-5.82-6-7
			c2.952-1.907,6.807,3.827,8,7C81.333,12,80.667,12,80,12z"/>
		<path style="fill-rule:evenodd;clip-rule:evenodd;fill:#A99056;" d="M67,13c-0.221,0.779-0.837,1.163-2,1
			c-0.291-4.291,1.392-6.608,3-9C70.196,6.302,66.817,10.405,67,13z"/>
		<path style="fill-rule:evenodd;clip-rule:evenodd;fill:#DEDCDB;" d="M79,13c0.333,0,0.667,0,1,0c1.667,0,3.333,0,5,0
			c-1.697,1.991-6.472,9.267-8,1C77.776,13.776,78.973,13.973,79,13z"/>
		<path style="fill-rule:evenodd;clip-rule:evenodd;fill:#5E5B59;" d="M49,15c0.261,1.406,2.193,1.14,3,2
			c-0.112,2.555-3.349,1.985-6,2c1.386-0.614,0.15-3.85,2-4C48.333,15,48.667,15,49,15z"/>
		<path style="fill-rule:evenodd;clip-rule:evenodd;fill:#F1F016;" d="M66,18c2.667,0,5.333,0,8,0c1.165,0.168,1.086,1.581,1,3
			c-0.759,2.907-8.241-0.907-9,2c-2.333,0-4.667,0-7,0c0-0.333,0-0.667,0-1C59.562,18.895,63.906,19.572,66,18z"/>
		<path style="fill-rule:evenodd;clip-rule:evenodd;fill:#FFFFFF;" d="M144,52c-48,0-96,0-144,0C0,34.667,0,17.333,0,0
			c48,0,96,0,144,0C144,17.333,144,34.667,144,52z M132,32c4.047-4.619,7.946-9.387,10-16c-3.371-0.295-6.831-0.502-9-2
			c-6.895-3.438-22.69,2.024-28-3c-1,0-2,0-3,0c-0.261-1.406-2.193-1.14-3-2c0.043-1.376-0.471-2.196-1-3c-1.333,0-2.667,0-4,0
			c-7.67-6.926-26.869-5.782-35,0c-2.916,1.084-5.914,2.086-7,5c-2.762-0.428-0.938,3.728-3,4c-0.333,0-0.667,0-1,0
			c-2.411-3.617-1.589,4.316-4,4c-1.461,0.873-3.873,0.794-3,4c-0.333,0-0.667,0-1,0c-11.249,4.751-26.236,5.764-33,15
			c2.154,2.18,6.154,2.513,9,4c0.776,0.224,1.973,0.027,2,1c0.122,2.545,1.456,3.878,4,4c3.341,1.967,12.807,1.504,15-1
			c1.376,0.043,2.196-0.471,3-1c1.891,0.225,2.207-1.127,4-1c3.04-0.627,8.614,1.28,10-1c0.667,0,1.333,0,2,0
			c6.463-1.13,9.604,1.062,12,4c0.333,0,0.667,0,1,0c3.972,2.599,11.784,0.481,15-1c0.333,0,0.667,0,1,0
			c1.326-1.674,2.649-3.351,2-7c8.328-0.672,15.2-2.8,23-4c6.229-0.771,15.854,1.854,19-2C130.377,33.043,131.195,32.529,132,32z"/>
		<path style="fill-rule:evenodd;clip-rule:evenodd;fill:#A99056;" d="M84,11c-0.434-3.233-3.364-3.969-5-6
			c2.163-1.118,7.366,3.267,9,6C86.667,11,85.333,11,84,11z"/>
		<path style="fill-rule:evenodd;clip-rule:evenodd;fill:#A99056;" d="M58,14c1.217-2.116,3.763-2.904,4-6
			c3.426,1.132-5.026,6.917,2,6c0.184,0.851-0.39,0.943-1,1c-0.333,0-0.667,0-1,0C60.417,14.917,58.186,15.481,58,14z"/>
		<path style="fill-rule:evenodd;clip-rule:evenodd;fill:#967056;" d="M59,6c8.131-5.782,27.33-6.926,35,0c0.39,1.427,1.2,1.687,0,3
			c-0.776,0.224-1.973,0.027-2,1c-0.333,0-0.667,0-1,0c-1.318-3.024-4.402-9.095-7-5c1.995,1.338,4.335,2.332,5,5
			c0.184,0.851-0.39,0.943-1,1c-1.634-2.733-6.837-7.118-9-6c1.636,2.031,4.566,2.767,5,6c-0.027,0.973-1.224,0.776-2,1
			c-1.193-3.173-5.048-8.907-8-7c5.386,1.18-0.417,7.515,6,7c0,0.333,0,0.667,0,1c-0.333,0-0.667,0-1,0c-1.333,0-2.667,0-4,0
			c-0.333,0-0.667,0-1,0c-0.395-3.605,0.369-8.369-3-9c0,3,0,6,0,9c-1.987,1.666-1.271-0.09-4,0c-0.183-2.595,3.196-6.698,1-8
			c-1.608,2.392-3.291,4.709-3,9c-0.333,0-0.667,0-1,0c-7.026,0.917,1.426-4.868-2-6c-0.237,3.096-2.783,3.884-4,6
			c-1.793-0.127-2.109,1.224-4,1c0-0.333,0-0.667,0-1C54.204,10.494,60.36,7.751,59,6z"/>
		<path style="fill-rule:evenodd;clip-rule:evenodd;fill:#84817F;" d="M49,15c2.062-0.272,0.238-4.428,3-4
			c-1.431,1.461-1.47,3.873,2,3c0,0.333,0,0.667,0,1c-5.786,1.343,5.269-0.139,3,4c-1.453,0.547-5.168-1.168-5,1
			c-2.391-0.609-7.255,1.255-8-1c2.411,0.316,1.589-7.617,4-4c-1.85,0.15-0.614,3.386-2,4c2.651-0.015,5.888,0.555,6-2
			C51.193,16.14,49.261,16.406,49,15z"/>
		<path style="fill-rule:evenodd;clip-rule:evenodd;fill:#ADACAB;" d="M94,6c1.333,0,2.667,0,4,0c0.529,0.804,1.043,1.624,1,3
			c0.055,1.278,1.282,1.385,1,3c-2.923-1.137-1.936-5.469-6-3C95.2,7.687,94.39,7.427,94,6z"/>
		<path style="fill-rule:evenodd;clip-rule:evenodd;fill:#ADACAB;" d="M134,24c2.07-1.596,5.162-2.171,6-5
			c-3.917-2.26-13.698-3.495-16,1c-2.578-0.241,1.373-1.721,0-4c-8.881,0.782-15.347-2.123-25,1c3.3-2.412,3.505-3.97,3-6
			c1,0,2,0,3,0c0,1,0,2,0,3c9.333,0,18.667,0,28,0c2.169,1.498,5.629,1.705,9,2c-2.054,6.613-5.953,11.381-10,16
			c0.558-2.442,3.869-2.131,3-6C135.162,24.837,134.779,24.221,134,24z"/>
		<path style="fill-rule:evenodd;clip-rule:evenodd;fill:#C8C8C8;" d="M74,18c1.878-1.768-1.19-2.919,1-5c1.333,0,2.667,0,4,0
			c-0.027,0.973-1.224,0.776-2,1c1.528,8.267,6.303,0.991,8-1c-1.667,0-3.333,0-5,0c0-0.333,0-0.667,0-1c0.667,0,1.333,0,2,0
			c0.776-0.224,1.973-0.027,2-1c1.333,0,2.667,0,4,0c0.61-0.057,1.184-0.149,1-1c0.667,0,1.333,0,2,0c0.333,0,0.667,0,1,0
			c1,0,2,0,3,0c-1.105,4.229,5.479,3.402,2,7c-7.835,0.832-13.576,3.757-22,4C75.086,19.581,75.165,18.168,74,18z"/>
		<path style="fill-rule:evenodd;clip-rule:evenodd;fill:#DEDCDB;" d="M133,14c-9.333,0-18.667,0-28,0c0-1,0-2,0-3
			C110.31,16.024,126.105,10.562,133,14z"/>
		<path style="fill-rule:evenodd;clip-rule:evenodd;fill:#ADACAB;" d="M65,14c1.163,0.163,1.779-0.221,2-1
			c2.729-0.09,2.013,1.666,4,0c0.733,1.781,1.818,0.144,3,0c0.333,0,0.667,0,1,0c-2.19,2.081,0.878,3.232-1,5c-2.667,0-5.333,0-8,0
			c-1.615,0.282-1.722-0.945-3-1c0-0.667,0-1.333,0-2c0.61-0.057,1.184-0.149,1-1C64.333,14,64.667,14,65,14z"/>
		<path style="fill-rule:evenodd;clip-rule:evenodd;fill:#BBBBBB;" d="M62,15c0.333,0,0.667,0,1,0c0,0.667,0,1.333,0,2
			c1.278,0.055,1.385,1.282,3,1c-2.094,1.572-6.438,0.895-7,4c-8.252,0.107-8.65-0.291-2-2C59.763,19.429,62.608,18.941,62,15z"/>
		<path style="fill-rule:evenodd;clip-rule:evenodd;fill:#BBBBBB;" d="M102,11c0.505,2.03,0.3,3.588-3,6
			c9.653-3.123,16.119-0.218,25-1c1.373,2.279-2.578,3.759,0,4c2.302-4.495,12.083-3.26,16-1c-0.838,2.829-3.93,3.404-6,5
			c-5.394,3.606-13.176,4.824-21,6c0.027-0.973,1.224-0.776,2-1c-12.944-1.252-20.258,4.261-36,5c1.387,2.28,6.961,0.373,10,1
			c-12.217,2.783-25.657,4.343-40,5c-4.333,0-8.667,0-13,0c-2.723-1.044,4.31-5.675,3-2c1.465-2.868,6.938-1.729,6-7
			c1.837,1.088,2.493,5.522,5,3c0.396-2.396-4.555,0.555-3-3c1.944-0.58,6.374-2.971,2-5c1.419,0.086,2.832,0.165,3-1c3,0,6,0,9,0
			c5.03,0.697,6.97-1.697,12-1c1.035,2.631,1.196,6.137,1,10c2.288-1.712,0.367-7.633,1-11c8.556-0.778,15.619-3.048,23-5
			c0.184-0.851-0.39-0.943-1-1c3.479-3.598-3.105-2.771-2-7c-1,0-2,0-3,0c0.027-0.973,1.224-0.776,2-1c4.064-2.469,3.077,1.863,6,3
			c0.282-1.615-0.945-1.722-1-3C99.807,9.86,101.739,9.594,102,11z M82,29c2.276,1.538,3.874,2.618,6,1
			c-3.059-1.232,5.358-2.768,0-4c0.305,2.638-2.088,2.579-4,3c1.158-0.386,1.158-4.857,0-2C83.988,28.321,82.247,27.914,82,29z"/>
		<path style="fill-rule:evenodd;clip-rule:evenodd;fill:#C8C8C8;" d="M89,35c-3.039-0.627-8.613,1.28-10-1
			c15.742-0.739,23.056-6.252,36-5c-0.776,0.224-1.973,0.027-2,1C106.482,33.149,96.536,32.869,89,35z"/>
		<path style="fill-rule:evenodd;clip-rule:evenodd;fill:#9B9A9A;" d="M97,17c0.61,0.057,1.184,0.149,1,1
			c-7.381,1.952-14.444,4.222-23,5c-0.633,3.367,1.288,9.288-1,11c0.196-3.863,0.035-7.369-1-10c-5.03-0.697-6.97,1.697-12,1
			c-0.451-2.784,5.451,0.784,5-2c0.759-2.907,8.241,0.907,9-2C83.424,20.757,89.165,17.832,97,17z"/>
		<path style="fill-rule:evenodd;clip-rule:evenodd;fill:#ADACAB;" d="M49,26c4.374,2.029-0.056,4.42-2,5
			c-1.555,3.555,3.396,0.604,3,3c-2.507,2.522-3.163-1.912-5-3c0.938,5.271-4.535,4.132-6,7c1.31-3.675-5.723,0.956-3,2
			c-5.667,0-11.333,0-17,0c5.101-4.566,13.808-5.525,18-11c-4.176-0.176-4.9,3.1-8,4C30.149,27.938,41.18,25.37,49,26z"/>
		<path style="fill-rule:evenodd;clip-rule:evenodd;fill:#9B9A9A;" d="M49,26c-7.82-0.63-18.851,1.938-20,7c3.1-0.9,3.824-4.176,8-4
			c-4.192,5.475-12.899,6.434-18,11c5.667,0,11.333,0,17,0c4.333,0,8.667,0,13,0c-8.266,3.162-27.968-1.229-33,2
			c-2.846-1.487-6.846-1.82-9-4c6.764-9.236,21.751-10.249,33-15c0.398,4.269,8.38,0.953,12,2C51.832,26.165,50.419,26.086,49,26z
			 M19,35c0.182,3.834-0.818,0.362-3,1c1.555,3.555-3.396,0.604-3,3c6.02,0.02,10.212-1.788,12-6C20.689,31.614,22.09,38.105,19,35z
			"/>
		<path style="fill-rule:evenodd;clip-rule:evenodd;fill:#ADACAB;" d="M25,33c-1.788,4.212-5.98,6.02-12,6
			c-0.396-2.396,4.555,0.555,3-3c2.182-0.638,3.182,2.834,3-1C22.09,38.105,20.689,31.614,25,33z"/>
		<path style="fill-rule:evenodd;clip-rule:evenodd;fill:#967056;" d="M18,43c5.974,2.026,16.33-0.33,22,2
			c-0.804,0.529-1.624,1.043-3,1c-5.551-1.235-7.211,2.179-15,1C19.456,46.878,18.122,45.545,18,43z"/>
		<path style="fill-rule:evenodd;clip-rule:evenodd;fill:#C8C8C8;" d="M84,27c1.158-2.857,1.158,1.614,0,2
			c1.912-0.421,4.305-0.362,4-3c5.358,1.232-3.059,2.768,0,4c-2.126,1.618-3.724,0.538-6-1C82.247,27.914,83.988,28.321,84,27z"/>
		<path style="fill-rule:evenodd;clip-rule:evenodd;fill:#A99056;" d="M66,42c3.622,0.564,8.289-2.968,11,0c-0.667,0-1.333,0-2,0
			c-5.011-0.738-6.892,6.064,0,4c-0.125,2.209-4.242,0.425-6,1c-0.333,0-0.667,0-1,0C67.574,45.093,65.143,45.19,66,42z"/>
		<path style="fill-rule:evenodd;clip-rule:evenodd;fill:#DEDCDB;" d="M77,42c1,0,2,0,3,0c0.186,1.48,2.417,0.917,4,1
			c-0.753,1.33-9.774,2.508-9-1C75.667,42,76.333,42,77,42z"/>
		<path style="fill-rule:evenodd;clip-rule:evenodd;fill:#C8C8C8;" d="M80,42c4.256-0.812,7.003,3.071,6-3c0.333,0,0.667,0,1,0
			c0.649,3.649-0.674,5.326-2,7c-0.333,0-0.667,0-1,0c-1.978-2.871-6.241,0.347-9,0c-6.892,2.064-5.011-4.738,0-4
			c-0.774,3.508,8.247,2.33,9,1C82.417,42.917,80.186,43.48,80,42z"/>
		<path style="fill-rule:evenodd;clip-rule:evenodd;fill:#84817F;" d="M68,47c-2.396-2.938-5.537-5.13-12-4
			c1.386-2.28,6.96-0.373,10-1C65.143,45.19,67.574,45.093,68,47z"/>
		<path style="fill-rule:evenodd;clip-rule:evenodd;fill:#5E5B59;" d="M52,11c1.086-2.914,4.084-3.916,7-5
			c1.36,1.751-4.796,4.494-5,8C50.53,14.873,50.569,12.461,52,11z"/>
		<path style="fill-rule:evenodd;clip-rule:evenodd;fill:#5E5B59;" d="M59,23c2.333,0,4.667,0,7,0c0.451,2.784-5.451-0.784-5,2
			c-3,0-6,0-9,0c-3.62-1.047-11.602,2.269-12-2c0.333,0,0.667,0,1,0C47,23,53,23,59,23z"/>
		<path style="fill-rule:evenodd;clip-rule:evenodd;fill:#5E5B59;" d="M115,34c-1.453,0.547-5.169-1.169-5,1
			c-7.8,1.2-14.672,3.328-23,4c-0.333,0-0.667,0-1,0c-0.726,2.274-6.921-0.921-6,3c-1,0-2,0-3,0c-2.711-2.968-7.378,0.564-11,0
			c-3.04,0.627-8.614-1.28-10,1c-0.667,0-1.333,0-2,0c-3.04,0.627-8.614-1.28-10,1c-1.793-0.127-2.109,1.225-4,1
			c-5.67-2.33-16.026,0.026-22-2c-0.027-0.973-1.224-0.776-2-1c5.032-3.229,24.734,1.162,33-2c14.343-0.657,27.783-2.217,40-5
			c7.536-2.131,17.482-1.851,24-5c7.824-1.176,15.606-2.394,21-6c0.779,0.221,1.162,0.837,1,2C129.057,29.39,121.135,30.802,115,34z
			"/>
		<path style="fill-rule:evenodd;clip-rule:evenodd;fill:#B39884;" d="M115,34c5.226,0.226,9.983-0.017,14-1
			c-3.146,3.854-12.771,1.229-19,2C109.831,32.831,113.547,34.547,115,34z"/>
		<path style="fill-rule:evenodd;clip-rule:evenodd;fill:#967056;" d="M80,42c-0.921-3.921,5.274-0.726,6-3
			C87.003,45.071,84.256,41.188,80,42z"/>
		<path style="fill-rule:evenodd;clip-rule:evenodd;fill:#84817F;" d="M44,44c1.386-2.28,6.96-0.373,10-1
			C52.614,45.28,47.04,43.373,44,44z"/>
		<path style="fill-rule:evenodd;clip-rule:evenodd;fill:#B39884;" d="M37,46c-2.193,2.504-11.659,2.967-15,1
			C29.789,48.179,31.449,44.765,37,46z"/>
		<path style="fill-rule:evenodd;clip-rule:evenodd;fill:#B39884;" d="M84,46c-3.216,1.481-11.028,3.599-15,1
			c1.758-0.575,5.875,1.209,6-1C77.759,46.347,82.022,43.129,84,46z"/>
		<path style="fill-rule:evenodd;clip-rule:evenodd;fill:#ADACAB;" d="M44,19c0.745,2.255,5.609,0.391,8,1c1.667,0,3.333,0,5,0
			c-6.65,1.709-6.252,2.107,2,2c0,0.333,0,0.667,0,1c-6,0-12,0-18,0C40.127,19.794,42.539,19.873,44,19z"/>
		<path style="fill-rule:evenodd;clip-rule:evenodd;fill:#9B9A9A;" d="M54,15c1.891,0.224,2.207-1.127,4-1
			c0.186,1.481,2.417,0.917,4,1c0.608,3.941-2.237,4.429-5,5c-1.667,0-3.333,0-5,0c-0.168-2.168,3.547-0.453,5-1
			C59.269,14.861,48.214,16.343,54,15z"/>
		<path style="fill-rule:evenodd;clip-rule:evenodd;fill:#A99056;" d="M115,34c6.135-3.198,14.057-4.61,20-8
			c0.869,3.869-2.442,3.558-3,6c-0.805,0.529-1.623,1.043-3,1C124.983,33.983,120.226,34.226,115,34z"/>
	</g>
</g>
</svg>
