<?xml version="1.0" encoding="iso-8859-1"?>
<!-- Generator: Adobe Illustrator 13.0.2, SVG Export Plug-In . SVG Version: 6.00 Build 14948)  -->
<!DOCTYPE svg PUBLIC "-//W3C//DTD SVG 1.1//EN" "http://www.w3.org/Graphics/SVG/1.1/DTD/svg11.dtd">
<svg version="1.1" id="Layer_1" xmlns="http://www.w3.org/2000/svg" xmlns:xlink="http://www.w3.org/1999/xlink" x="0px" y="0px"
	 width="144px" height="52px" viewBox="0 0 144 52" style="enable-background:new 0 0 144 52;" xml:space="preserve">
<g>
	<g>
		<path style="fill-rule:evenodd;clip-rule:evenodd;fill:#AE953F;" d="M73,14c0.75-3.25,1.811-6.189,3-9
			c2.735,2.159-0.344,6.922-1,9C74.333,14,73.667,14,73,14z"/>
		<path style="fill-rule:evenodd;clip-rule:evenodd;fill:#AE953F;" d="M83,15c-1,0-2,0-3,0c0-2.667,0-5.333,0-8
			C82.725,7.941,82.289,12.045,83,15z"/>
		<path style="fill-rule:evenodd;clip-rule:evenodd;fill:#AE953F;" d="M87,16c0.207-2.874-0.254-5.08-2-6
			c1.995-2.572,4.054,3.213,4,6C88.333,16,87.667,16,87,16z"/>
		<path style="fill-rule:evenodd;clip-rule:evenodd;fill:#7C7B7B;" d="M68,21c5.907,1.427,12.133,2.534,19,3
			c-0.186,1.481-2.417,0.917-4,1c-3.386-0.281-5.742-1.591-10-1c-0.745-2.255-5.609-0.391-8-1C65.015,21.349,67.774,22.44,68,21z"/>
		<path style="fill-rule:evenodd;clip-rule:evenodd;fill:#EDED64;" d="M103,21c2.396,0.016,7.051,2.843,5,4c-0.333,0-0.667,0-1,0
			c-0.733-0.934-1.818-1.515-3-2C103.81,22.19,102.997,22.003,103,21z"/>
		<path style="fill-rule:evenodd;clip-rule:evenodd;fill:#FFFFFF;" d="M0,52C0,34.667,0,17.333,0,0c48,0,96,0,144,0
			c0,17.333,0,34.667,0,52C96,52,48,52,0,52z M50,10c-2.928-0.261-3.072,2.261-6,2c-3.078-0.745-1.922,2.745-5,2
			c-3.579,0.46-14.329-1.047-13,1c-0.15,2.487-3.386,0.292-4,0c-5.017,0.65-12.644-1.311-16,1c0.117,1.023-4.314,2.023-1,3
			c1.286,1.714,2.068,3.932,5,4c0.903,1.763,2.237,3.097,4,4c0.171,2.829-0.86,6.86,2,7c1.003-0.003,1.19,0.81,2,1
			c6.73,5.093,18.428,2.291,27,1c8.619,1.382,15.229,4.771,25,5c-0.147,2.48-0.186,4.853,2,5c0.279,2.055,2.671,1.996,4,3
			c2.764,2.231,9.27,2.636,13,1c1.912-0.421,4.305-0.362,4-3c2.417-1.917,8.035-0.631,12-1c0.221,0.779,0.838,1.162,2,1
			c3.312,4.572,20.359,6.683,23,0c1.232-1.434,3.438-1.895,6-2c0.776-0.224,1.973-0.027,2-1c1.742-0.924,5.367,0.034,5-3
			c-10.052-6.948-24.872-9.128-35-16c2.051-1.157-2.604-3.984-5-4c0-1.667,0-3.333,0-5c-3.19,0.857-3.093-1.574-5-2
			C93.601,8.399,86.817,5.183,79,3c-1.798-2.24-10.177-3.105-13-1c-0.61,0.057-1.184,0.149-1,1c-4.797,0.203-7.519,2.481-11,4
			c-1.496,0.17-3.69-0.357-4,1C50,8.667,50,9.333,50,10z"/>
		<path style="fill-rule:evenodd;clip-rule:evenodd;fill:#AE953F;" d="M67,12c1.096-3.571,3.429-5.904,7-7
			c-1.868,2.465-4.771,3.896-5,8C67.837,13.163,67.221,12.779,67,12z"/>
		<path style="fill-rule:evenodd;clip-rule:evenodd;fill:#AE953F;" d="M61,11c0.878-3.122,4.717-3.283,6-6
			c2.858,2.281-4.08,3.187-4,6C62.333,11,61.667,11,61,11z"/>
		<path style="fill-rule:evenodd;clip-rule:evenodd;fill:#AEAEAD;" d="M63,12c1.333,0,2.667,0,4,0c0.221,0.779,0.837,1.163,2,1
			c0.667,0,1.333,0,2,0c-2.914,3.015-7.494-3.039-5,4c-1.04-2.294-7.141,0.474-8-2c1,0,2,0,3,0c-0.211-1.122-1.11-1.557-2-2
			C59.186,11.519,61.417,12.083,63,12z"/>
		<path style="fill-rule:evenodd;clip-rule:evenodd;fill:#7C7B7B;" d="M50,10c0-0.667,0-1.333,0-2c1.714,1.286,3.932,2.068,4,5
			c-1.667,0-3.333,0-5,0C49.055,11.722,50.282,11.615,50,10z"/>
		<path style="fill-rule:evenodd;clip-rule:evenodd;fill:#AEAEAD;" d="M26,15c4.025-0.642,10.633,1.3,13-1
			c3.078,0.745,1.922-2.745,5-2c0,0.333,0,0.667,0,1c-1.163-0.163-1.779,0.221-2,1c-1.117,1.23-0.871,2.054,1,2c0,0.333,0,0.667,0,1
			c-10.738,1.43-25.218,2.028-32,4c-0.089,0.026,0.071,0.913,0,1c-0.333,0-0.667,0-1,0c-0.25-1.845-3.6-5.605-5-3
			c-3.314-0.977,1.117-1.977,1-3c5.017-0.65,12.644,1.311,16-1C22.614,15.292,25.85,17.487,26,15z"/>
		<path style="fill-rule:evenodd;clip-rule:evenodd;fill:#C6C6C5;" d="M51,32c3.016-1.888-0.836-4.433,4-4
			c0.044-1.71-0.743-2.59-2-3c1.395-3.009,5.176,2.079,7-1c-2.495-0.754-2.104-1.186-6-2c0.745-2.255,5.609-0.391,8-1
			c-0.282,1.615,0.945,1.722,1,3c-2.901,1.099-4.805,3.195-7,5C53.419,29.086,54.948,33.281,51,32z"/>
		<path style="fill-rule:evenodd;clip-rule:evenodd;fill:#BBBBBB;" d="M11,22c0.071-0.087-0.089-0.974,0-1
			c6.782-1.972,21.262-2.57,32-4c5.527,0.162,11.598,5.039,17,2c2.656-0.01,5.711,0.378,7-1c0.184-0.851-0.39-0.943-1-1
			c-2.494-7.039,2.086-0.985,5-4c1.003-0.003,1.19,0.81,2,1c0.667,0,1.333,0,2,0c1.177,0.157,2.839-0.172,3,1c-1.333,0-2.667,0-4,0
			c0.437,1.23,1.279,2.054,3,2c-1.376,2.334-13.23-0.622-9,4c-0.226,1.44-2.985,0.349-3,2c2.391,0.609,7.255-1.255,8,1
			c-5.935-0.602-10.089,0.578-12,4c0.622,2.405,4.178-2.046,4,2c-4.048-1.382-3.163,2.171-6,2c0.615-0.891,1.208-1.788,0-2
			c0-0.333,0-0.667,0-1c1.286-1.714,2.068-3.932,5-4c0.184-0.851-0.39-0.943-1-1c-0.055-1.278-1.282-1.385-1-3
			c-2.391,0.609-7.255-1.255-8,1c3.896,0.814,3.505,1.246,6,2c-1.824,3.079-5.605-2.009-7,1c1.257,0.41,2.044,1.29,2,3
			c-4.836-0.433-0.984,2.112-4,4c-0.667,0-1.333,0-2,0c-1.496-0.171-3.69,0.357-4-1c2,0,4,0,6,0c-0.138-1.862-0.658-3.342-2-4
			c-1.172,0.161-0.843,1.823-1,3c-4.464-0.869-8.189-2.478-13-3c0.248,1.086,1.988,0.679,2,2C26.952,28.049,19.103,24.897,11,22z"/>
		<path style="fill-rule:evenodd;clip-rule:evenodd;fill:#996E57;" d="M19,29c4.662,0.672,7.739,2.928,12,4
			c-4.538,0.463-8.202,1.798-13,2c-0.81-0.19-0.997-1.003-2-1c-0.055-1.278-1.282-1.385-1-3c2.223,2.315,3.899-0.34,7,0
			C21.985,29.349,19.226,30.44,19,29z"/>
		<path style="fill-rule:evenodd;clip-rule:evenodd;fill:#9C9A99;" d="M51,32c3.948,1.281,2.419-2.914,5-3
			c0.851-0.184,0.943,0.39,1,1c-0.354,1.313-1.761,1.573-2,3c-1.758-0.575-5.875,1.209-6-1C49.667,32,50.333,32,51,32z"/>
		<path style="fill-rule:evenodd;clip-rule:evenodd;fill:#AEAEAD;" d="M56,29c2.195-1.805,4.099-3.901,7-5
			c0.61,0.057,1.184,0.149,1,1c-2.932,0.068-3.714,2.286-5,4c-0.81,0.19-0.997,1.003-2,1C56.943,29.39,56.851,28.816,56,29z"/>
		<path style="fill-rule:evenodd;clip-rule:evenodd;fill:#C6C6C5;" d="M89,26c1.747,3.415,2.722,4.479,4,6
			c-2.406,1.898-5.314,2.129-7,0c-1.235,3.235,3.235,0.765,2,4c-0.52-3.997,8.358-0.014,8,0c0.592-0.022,1.569-2.82,1-3
			c1.354,0.428,0.879,3.497,3,5c5.466,3.874,21.941,1.515,5,3c-18.223-1.11-34.186-4.48-50-8c0.239-1.427,1.646-1.687,2-3
			c1.003,0.003,1.19-0.81,2-1c0,0.333,0,0.667,0,1c1.208,0.212,0.615,1.109,0,2c2.837,0.171,1.952-3.382,6-2
			c0.178-4.046-3.378,0.405-4-2c1.911-3.422,6.065-4.602,12-4c4.258-0.591,6.614,0.719,10,1C83.125,27.209,87.242,25.425,89,26z
			 M85,34c0.17-4.167-8.955-3.363-6-1C79.577,30.912,82.776,34.441,85,34z"/>
		<path style="fill-rule:evenodd;clip-rule:evenodd;fill:#BBBBBB;" d="M89,26c5.834-0.167,9.588,1.745,16,1
			c11.067,3.37,21.628,11.724,33,14c-0.016,1.651-2.773,0.56-3,2c-4.333,0-8.667,0-13,0c-6.372,0.039-12.29-0.377-17-2
			c16.941-1.485,0.466,0.874-5-3c-2.121-1.503-1.646-4.572-3-5c0.569,0.18-0.408,2.978-1,3c0.358-0.014-8.52-3.997-8,0
			c1.235-3.235-3.235-0.765-2-4c1.686,2.129,4.594,1.898,7,0C91.722,30.479,90.747,29.415,89,26z M116,38
			c-4.575-0.452-8.259-7.038-12-5C107.141,34.852,113.927,41.483,116,38z"/>
		<path style="fill-rule:evenodd;clip-rule:evenodd;fill:#AEAEAD;" d="M104,33c3.741-2.038,7.425,4.548,12,5
			C113.927,41.483,107.141,34.852,104,33z"/>
		<path style="fill-rule:evenodd;clip-rule:evenodd;fill:#AA8B71;" d="M31,33c5.078,0.589,9.785,1.549,14,3
			c-8.572,1.291-20.27,4.093-27-1C22.798,34.798,26.462,33.463,31,33z"/>
		<path style="fill-rule:evenodd;clip-rule:evenodd;fill:#BBBBBB;" d="M79,33c-2.955-2.363,6.17-3.167,6,1
			C82.776,34.441,79.577,30.912,79,33z"/>
		<path style="fill-rule:evenodd;clip-rule:evenodd;fill:#AA8B71;" d="M70,41c4.905,0.428,9.329,1.338,14,2
			c0.19,0.81,1.003,0.997,1,2c-2,0-4,0-6,0c-0.282,1.615,0.945,1.722,1,3c-1.593-1.004-4.023-0.945-2-3
			c-1.758,0.575-5.875-1.209-6,1C69.814,45.853,69.853,43.48,70,41z"/>
		<path style="fill-rule:evenodd;clip-rule:evenodd;fill:#996E57;" d="M76,49c-1.329-1.004-3.721-0.945-4-3
			c0.125-2.209,4.242-0.425,6-1c-2.023,2.055,0.407,1.996,2,3c0.333,0,0.667,0,1,0C81.169,50.169,77.453,48.453,76,49z"/>
		<path style="fill-rule:evenodd;clip-rule:evenodd;fill:#AEAEAD;" d="M93,45c3.695,0.638,9.962-1.295,12,1
			c-3.965,0.369-9.583-0.917-12,1C93,46.333,93,45.667,93,45z"/>
		<path style="fill-rule:evenodd;clip-rule:evenodd;fill:#BBBBBB;" d="M85,45c1.742,0.924,5.367-0.034,5,3c-2,0-4,0-6,0
			c-1,0-2,0-3,0c-0.333,0-0.667,0-1,0c-0.055-1.278-1.282-1.385-1-3C81,45,83,45,85,45z"/>
		<path style="fill-rule:evenodd;clip-rule:evenodd;fill:#AA8B71;" d="M130,47c-2.641,6.683-19.688,4.572-23,0c2.667,0,5.333,0,8,0
			C120,47,125,47,130,47z"/>
		<path style="fill-rule:evenodd;clip-rule:evenodd;fill:#BEAD96;" d="M90,48c1.615,0.282,1.722-0.945,3-1
			c0.305,2.638-2.088,2.579-4,3c0.45-2.784-5.45,0.784-5-2C86,48,88,48,90,48z"/>
		<path style="fill-rule:evenodd;clip-rule:evenodd;fill:#BEAD96;" d="M66,2c2.714,0.619,7.937-1.27,9,1c-3.333,0-6.667,0-10,0
			C64.816,2.149,65.39,2.057,66,2z"/>
		<path style="fill-rule:evenodd;clip-rule:evenodd;fill:#F0EFEB;" d="M66,2c2.823-2.105,11.202-1.24,13,1c-1.333,0-2.667,0-4,0
			C73.937,0.73,68.714,2.619,66,2z"/>
		<path style="fill-rule:evenodd;clip-rule:evenodd;fill:#F0EFEB;" d="M26,15c-1.329-2.047,9.421-0.54,13-1
			C36.633,16.3,30.025,14.358,26,15z"/>
		<path style="fill-rule:evenodd;clip-rule:evenodd;fill:#F0EFEB;" d="M6,16c3.356-2.311,10.983-0.35,16-1
			C18.644,17.311,11.017,15.35,6,16z"/>
		<path style="fill-rule:evenodd;clip-rule:evenodd;fill:#595756;" d="M42,14c5.933,1.734,10.657,4.676,18,5
			c-5.402,3.039-11.473-1.838-17-2c0-0.333,0-0.667,0-1C41.129,16.054,40.883,15.23,42,14z"/>
		<path style="fill-rule:evenodd;clip-rule:evenodd;fill:#C6C6C5;" d="M78,15c0.667,0,1.333,0,2,0c1,0,2,0,3,0
			c1.353,0.314,1.91,1.423,4,1c0.667,0,1.333,0,2,0c1.453,0.547,5.169-1.168,5,1c0.31,1.357,2.504,0.83,4,1
			c-1.127,1.54-2.873,2.46-4,4c1.223,3.048,3.816-1.462,5,1c0,0.333,0,0.667,0,1c-4,0-8,0-12,0c-6.867-0.466-13.093-1.573-19-3
			c-4.23-4.622,7.624-1.666,9-4c-1.721,0.054-2.563-0.77-3-2C75.333,15,76.667,15,78,15z"/>
		<path style="fill-rule:evenodd;clip-rule:evenodd;fill:#AEAEAD;" d="M98,14c1.907,0.426,1.81,2.857,5,2c0,1.667,0,3.333,0,5
			c-0.003,1.003,0.81,1.19,1,2c-1.794,0.127-2.109-1.224-4-1c-0.443-1.89,1.36-6.027-2-5C98,16,98,15,98,14z"/>
		<path style="fill-rule:evenodd;clip-rule:evenodd;fill:#9C9A99;" d="M10,23c-2.932-0.068-3.714-2.286-5-4
			c1.4-2.605,4.75,1.155,5,3C10,22.333,10,22.667,10,23z"/>
		<path style="fill-rule:evenodd;clip-rule:evenodd;fill:#595756;" d="M11,22c8.103,2.897,15.952,6.049,26,7
			c1.849,1.484,4.751,1.916,8,2c0.31,1.357,2.504,0.829,4,1c0.125,2.209,4.242,0.425,6,1c15.814,3.52,31.777,6.89,50,8
			c4.71,1.623,10.628,2.039,17,2c2.378,2.955,11.622-0.955,14,2c-2.562,0.105-4.768,0.566-6,2c-5,0-10,0-15,0
			c-1.387-2.28-6.961-0.373-10-1c-2.038-2.295-8.305-0.362-12-1c-1.978-1.689-6.241-1.092-9-2c-4.671-0.662-9.095-1.572-14-2
			c-9.771-0.229-16.381-3.618-25-5c-4.215-1.451-8.922-2.411-14-3c-4.261-1.072-7.338-3.328-12-4c-1.904-0.429-2.512-2.154-5-2
			c-1.763-0.903-3.097-2.237-4-4c0-0.333,0-0.667,0-1C10.333,22,10.667,22,11,22z"/>
		<path style="fill-rule:evenodd;clip-rule:evenodd;fill:#BBBBBB;" d="M104,23c1.182,0.485,2.267,1.066,3,2c-1.333,0-2.667,0-4,0
			c-0.31-1.357-2.504-0.83-4-1c0-0.333,0-0.667,0-1c-1.184-2.462-3.777,2.048-5-1c1.127-1.54,2.873-2.46,4-4
			c-1.496-0.17-3.69,0.357-4-1c1.333,0,2.667,0,4,0c3.36-1.027,1.557,3.11,2,5C101.891,21.776,102.206,23.127,104,23z"/>
		<path style="fill-rule:evenodd;clip-rule:evenodd;fill:#7C7B7B;" d="M105,27c-6.412,0.745-10.166-1.167-16-1
			c2.695-2.304,9.645-0.355,14-1c1.333,0,2.667,0,4,0C106.887,26.22,106.701,27.367,105,27z"/>
		<path style="fill-rule:evenodd;clip-rule:evenodd;fill:#AA8B71;" d="M14,27c2.488-0.154,3.096,1.571,5,2
			c0.226,1.44,2.985,0.349,3,2c-3.101-0.34-4.777,2.315-7,0c-0.282,1.615,0.945,1.722,1,3C13.14,33.86,14.171,29.829,14,27z"/>
		<path style="fill-rule:evenodd;clip-rule:evenodd;fill:#C6C6C5;" d="M45,31c-3.249-0.084-6.151-0.516-8-2
			c-0.012-1.321-1.752-0.914-2-2c4.811,0.522,8.536,2.131,13,3c0.157-1.177-0.172-2.839,1-3c1.342,0.658,1.862,2.138,2,4
			C49,31,47,31,45,31z"/>
		<path style="fill-rule:evenodd;clip-rule:evenodd;fill:#7C7B7B;" d="M138,44c-0.027,0.973-1.224,0.776-2,1
			c-2.378-2.955-11.622,0.955-14-2c4.333,0,8.667,0,13,0C136.419,42.914,137.832,42.835,138,44z"/>
		<path style="fill-rule:evenodd;clip-rule:evenodd;fill:#996E57;" d="M93,45c0,0.667,0,1.333,0,2c-1.278,0.055-1.385,1.282-3,1
			c0.367-3.034-3.258-2.076-5-3c0.003-1.003-0.81-1.19-1-2C86.759,43.908,91.022,43.311,93,45z"/>
		<path style="fill-rule:evenodd;clip-rule:evenodd;fill:#996E57;" d="M105,46c3.039,0.627,8.613-1.28,10,1c-2.667,0-5.333,0-8,0
			C105.838,47.162,105.221,46.779,105,46z"/>
		<path style="fill-rule:evenodd;clip-rule:evenodd;fill:#AA8B71;" d="M89,50c-3.73,1.636-10.236,1.231-13-1
			c1.453-0.547,5.169,1.169,5-1c1,0,2,0,3,0C83.55,50.784,89.45,47.216,89,50z"/>
		<path style="fill-rule:evenodd;clip-rule:evenodd;fill:#C6C6C5;" d="M58,15c0.859,2.474,6.96-0.294,8,2
			c0.61,0.057,1.184,0.149,1,1c-1.289,1.378-4.344,0.99-7,1c-7.343-0.324-12.067-3.266-18-5c0.221-0.779,0.837-1.163,2-1
			C46.566,15.768,55.361,12.306,58,15z"/>
		<path style="fill-rule:evenodd;clip-rule:evenodd;fill:#AEAEAD;" d="M135,43c0.227-1.44,2.984-0.349,3-2
			c-11.372-2.276-21.933-10.63-33-14c1.701,0.367,1.887-0.78,2-2c0.333,0,0.667,0,1,0c10.128,6.872,24.948,9.052,35,16
			c0.367,3.034-3.258,2.076-5,3C137.832,42.835,136.419,42.914,135,43z"/>
		<path style="fill-rule:evenodd;clip-rule:evenodd;fill:#9C9A99;" d="M50,10c0.282,1.615-0.945,1.722-1,3c1.667,0,3.333,0,5,0
			c-0.068-2.932-2.286-3.714-4-5c0.31-1.357,2.504-0.83,4-1c0,1,0,2,0,3c3.469-0.802,3.844,1.489,7,1c0.667,0,1.333,0,2,0
			c0,0.333,0,0.667,0,1c-1.583,0.083-3.814-0.481-4,1c0.89,0.443,1.789,0.878,2,2c-1,0-2,0-3,0c-2.639-2.694-11.434,0.768-14-2
			c0-0.333,0-0.667,0-1C46.928,12.261,47.072,9.739,50,10z"/>
		<path style="fill-rule:evenodd;clip-rule:evenodd;fill:#AEAEAD;" d="M87,24c4,0,8,0,12,0c1.496,0.17,3.69-0.357,4,1
			c-4.355,0.645-11.305-1.304-14,1c-1.758-0.575-5.875,1.209-6-1C84.583,24.917,86.814,25.481,87,24z"/>
		<path style="fill-rule:evenodd;clip-rule:evenodd;fill:#996E57;" d="M54,7c3.481-1.519,6.203-3.797,11-4c3.333,0,6.667,0,10,0
			c1.333,0,2.667,0,4,0c7.817,2.183,14.601,5.399,19,11c0,1,0,2,0,3c-1.333,0-2.667,0-4,0c0.169-2.168-3.547-0.453-5-1
			c0.054-2.787-2.005-8.572-4-6c1.746,0.92,2.207,3.126,2,6c-2.09,0.423-2.647-0.686-4-1c-0.711-2.955-0.275-7.059-3-8
			c0,2.667,0,5.333,0,8c-0.667,0-1.333,0-2,0c-0.161-1.172-1.823-0.843-3-1c0.656-2.078,3.735-6.841,1-9c-1.189,2.811-2.25,5.75-3,9
			c-0.81-0.19-0.997-1.003-2-1c-0.667,0-1.333,0-2,0c0.229-4.104,3.132-5.535,5-8c-3.571,1.096-5.904,3.429-7,7
			c-1.333,0-2.667,0-4,0c0-0.333,0-0.667,0-1c-0.08-2.813,6.858-3.719,4-6c-1.283,2.717-5.122,2.878-6,6
			c-3.156,0.489-3.531-1.802-7-1C54,9,54,8,54,7z"/>
	</g>
</g>
</svg>
