<?xml version="1.0" encoding="iso-8859-1"?>
<!-- Generator: Adobe Illustrator 13.0.2, SVG Export Plug-In . SVG Version: 6.00 Build 14948)  -->
<!DOCTYPE svg PUBLIC "-//W3C//DTD SVG 1.1//EN" "http://www.w3.org/Graphics/SVG/1.1/DTD/svg11.dtd">
<svg version="1.1" id="Layer_1" xmlns="http://www.w3.org/2000/svg" xmlns:xlink="http://www.w3.org/1999/xlink" x="0px" y="0px"
	 width="144px" height="52px" viewBox="0 0 144 52" style="enable-background:new 0 0 144 52;" xml:space="preserve">
<g>
	<g>
		<path style="fill-rule:evenodd;clip-rule:evenodd;fill:#AE925C;" d="M68,14c-1.386,2.28-6.96,0.373-10,1
			c0.586-2.081,2.102-3.232,3-5c2.995,0.658-0.957,2.138,0,4c1,0,2,0,3,0c1.998-2.002,1.759-6.241,4-8
			C71.201,7.357,64.023,11.867,68,14z"/>
		<path style="fill-rule:evenodd;clip-rule:evenodd;fill:#93715F;" d="M51,15c3.26-0.26,4.813,1.187,5,4
			c-2.072-0.595-6.569,1.236-7-1C52.47,18.873,52.431,16.461,51,15z"/>
		<path style="fill-rule:evenodd;clip-rule:evenodd;fill:#F3F314;" d="M73,18c3.396,0.271,8.107-0.774,10,1
			c-0.003,1.003,0.81,1.19,1,2c0,0.333,0,0.667,0,1c-6.445-0.779-9.848,1.486-16,1c0-1,0-2,0-3C68.606,18.273,72.744,20.077,73,18z"
			/>
		<path style="fill-rule:evenodd;clip-rule:evenodd;fill:#A3A2A1;" d="M48,25c4.333,0,8.667,0,13,0
			C57.541,24.957,46.38,29.527,48,25z"/>
		<path style="fill-rule:evenodd;clip-rule:evenodd;fill:#CAC9C9;" d="M104,30c-1.922,3.244-4.696,2.998-7,2
			c0.247-1.086,1.988-0.679,2-2C100.907,31.877,100.81,29.406,104,30z"/>
		<path style="fill-rule:evenodd;clip-rule:evenodd;fill:#93715F;" d="M71,43c1.711-2.288,7.633-0.367,11-1
			c0.169,2.169-3.547,0.453-5,1C75,43,73,43,71,43z"/>
		<path style="fill-rule:evenodd;clip-rule:evenodd;fill:#F5F4F3;" d="M57,45c-1.078,1.655-8.922,1.655-10,0
			C50.333,45,53.667,45,57,45z"/>
		<path style="fill-rule:evenodd;clip-rule:evenodd;fill:#FFFFFF;" d="M52,10c-3.562-0.229-5.229,1.438-5,5
			c0.368,1.701-0.78,1.887-2,2c-9.966,8.368-30.624,6.043-38,17c0.625,4.042,5.83,3.504,8,6c3.27,1.063,2.621,6.046,6,7
			c8.371,0.484,14.222,2.063,18-2c1,0,2,0,3,0c1.667,0,3.333,0,5,0c1.078,1.655,8.922,1.655,10,0c0.851,0.184,0.943-0.39,1-1
			c2,0,4,0,6,0c4.262,0.405,10.302-0.969,13,1c0.658,1.342,2.138,1.862,4,2c0.805,0.529,1.623,1.043,3,1c2,0,4,0,6,0
			c3.146,0.479,3.909-1.424,6-2c1.23-0.437,2.054-1.279,2-3c0.973-0.027,0.776-1.224,1-2c0-0.667,0-1.333,0-2
			c5.393,0.06,9.11-1.557,14-2c3.822,0.155,7.281-0.052,9-2c2.386-1.614,6.406-1.594,9-3c3.76-3.907,10.314-5.019,12-11
			c-1.294-4.372-6.432-4.902-12-5c-1.659-1.674-5.871-0.796-9-1c-2.638-3.028-9.61-1.724-15-2c-5.94-0.393-5.82-6.846-12-7
			c-4.611-0.722-5.958-4.709-12-4c-0.19-0.81-1.003-0.997-1-2c20.667,0,41.333,0,62,0c0,17.333,0,34.667,0,52c-48,0-96,0-144,0
			C0,34.667,0,17.333,0,0c24,0,48,0,72,0c0,0.667,0,1.333,0,2c-7.035-0.368-11.255,2.078-15,5C53.86,6.527,54.358,9.691,52,10z"/>
		<path style="fill-rule:evenodd;clip-rule:evenodd;fill:#AE925C;" d="M89,11c-0.067-2.932-2.286-3.714-4-5
			c2.572-2.506,4.188,4.428,8,4c0,0.333,0,0.667,0,1C90.271,10.91,90.987,12.666,89,11z"/>
		<path style="fill-rule:evenodd;clip-rule:evenodd;fill:#AE925C;" d="M88,11c0.152,4.69-4.055-0.495-5,2
			c1.599-1.893-0.895-5.755-3-7C83.302,3.09,84.462,10.829,88,11z"/>
		<path style="fill-rule:evenodd;clip-rule:evenodd;fill:#AE925C;" d="M76,14c2.931-0.77,0.949-6.32-1-8c2.998-2.607,4.721,4.57,6,7
			c0,0.333,0,0.667,0,1C79.333,14,77.667,14,76,14z"/>
		<path style="fill-rule:evenodd;clip-rule:evenodd;fill:#93715F;" d="M57,7c3.745-2.922,7.965-5.368,15-5
			c2.434-1.933,8.366-0.962,11,0c6.042-0.709,7.389,3.278,12,4c0.529,0.804,1.043,1.624,1,3c-0.805,0.529-1.623,1.043-3,1
			c-3.812,0.428-5.428-6.506-8-4c1.714,1.286,3.933,2.068,4,5c-0.333,0-0.667,0-1,0c-3.538-0.171-4.698-7.91-8-5
			c2.105,1.245,4.599,5.107,3,7c-0.667,0-1.333,0-2,0c-1.279-2.43-3.002-9.607-6-7c1.949,1.68,3.931,7.23,1,8c-0.667,0-1.333,0-2,0
			c-1.774-1.893-0.729-6.605-1-10c-2.164,1.836-2.105,5.895-2,10c-1,0-2,0-3,0c-3.977-2.133,3.201-6.643,0-8
			c-2.241,1.759-2.002,5.998-4,8c-1,0-2,0-3,0c-0.957-1.862,2.995-3.342,0-4c-0.898,1.768-2.414,2.919-3,5
			c-2.09,0.423-2.648-0.686-4-1C54.432,11.698,59.277,8.7,57,7z"/>
		<path style="fill-rule:evenodd;clip-rule:evenodd;fill:#5F5C5A;" d="M54,14c-0.667,0-1.333,0-2,0c-1.158-1.479-1.158-2.521,0-4
			c2.358-0.309,1.86-3.473,5-3C59.277,8.7,54.432,11.698,54,14z"/>
		<path style="fill-rule:evenodd;clip-rule:evenodd;fill:#BBBBBB;" d="M103,16c-1.098-2.902-7.355-0.644-6-6
			c-0.89,0.777-2.258,1.075-4,1c0-0.333,0-0.667,0-1c1.377,0.043,2.195-0.471,3-1c0.043-1.376-0.471-2.196-1-3
			c6.18,0.154,6.06,6.607,12,7c0.431,2.236,4.929,0.405,7,1c-0.31,1.357-2.504,0.83-4,1c3.907,3.093,15.721-1.721,16,5
			c2.349-0.727,1.028-5.3,5-2c1.454-0.443-0.102-0.878,0-2c5.568,0.098,10.706,0.628,12,5c-1.686,5.981-8.24,7.093-12,11
			c-0.286-1.763,4.709-3.097,2-4c0.354-1.313,1.761-1.573,2-3c-4.736,1.682-12.301,4.974-16,0c-2.594,1.406-6.614,1.386-9,3
			c-0.333,0-0.667,0-1,0c-0.155-2.801,2.827-3.262,4-2c-2.3-4.361-5.557-3.296-10-4c-1.235-3.236,3.235-0.764,2-4
			C107.879,15.629,106.102,13.851,103,16z"/>
		<path style="fill-rule:evenodd;clip-rule:evenodd;fill:#CAC9C9;" d="M93,11c1.742,0.075,3.11-0.223,4-1
			c-1.355,5.356,4.902,3.098,6,6c-5.238,2.762-12.045,3.955-19,5c-0.19-0.81-1.003-0.997-1-2c-0.426-1.907-2.857-1.81-2-5
			c0-0.333,0-0.667,0-1c0.667,0,1.333,0,2,0c0.945-2.495,5.152,2.69,5-2c0.333,0,0.667,0,1,0C90.987,12.666,90.271,10.91,93,11z"/>
		<path style="fill-rule:evenodd;clip-rule:evenodd;fill:#A3A2A1;" d="M84,21c6.955-1.045,13.762-2.238,19-5
			c3.102-2.149,4.879-0.371,2,2c-4.767,2.233-11.358,2.642-16,5c-6.305,0.538-5.631,1.839-13,1c0.444-2.889,7.556,0.889,8-2
			C84,21.667,84,21.333,84,21z"/>
		<path style="fill-rule:evenodd;clip-rule:evenodd;fill:#CAC9C9;" d="M101,22c0.649,3.649-0.674,5.326-2,7
			c-2.296-2.075-3.216-4.086-5,0c-3.125-1.614,2.052-3.167,2-5c1.23,0.437,2.054,1.28,2,3c1.23-0.437,2.054-1.28,2-3
			c-1.001-1.377-1.648,0.427-3-2C97.241,19.422,98.721,23.374,101,22z"/>
		<path style="fill-rule:evenodd;clip-rule:evenodd;fill:#5F5C5A;" d="M45,25c-1.869-0.798-3.663-1.671-6-2
			c0.911-3.799,4.019-0.731,7-1c1.893,1.774,6.605,0.729,10,1c1.667,0,3.333,0,5,0s3.333,0,5,0c0.715,2.715-4.715-0.715-4,2
			c-0.333,0-0.667,0-1,0c-4.333,0-8.667,0-13,0C47,25,46,25,45,25z"/>
		<path style="fill-rule:evenodd;clip-rule:evenodd;fill:#BBBBBB;" d="M23,40c-12.513-4.866,6.74,1.647,6-7
			c1.161,0.839,2.681,1.319,5,1c-1.813,2.521-5.824,2.843-7,6C25.667,40,24.333,40,23,40z"/>
		<path style="fill-rule:evenodd;clip-rule:evenodd;fill:#A3A2A1;" d="M15,40c-2.17-2.496-7.375-1.958-8-6
			c7.376-10.957,28.034-8.632,38-17c-0.304,4.083,2.088,0.534,4,1c0.431,2.236,4.928,0.405,7,1c-0.187-2.813-1.74-4.26-5-4
			c-1.479-1.158-2.521-1.158-4,0c-0.229-3.562,1.438-5.229,5-5c-1.158,1.479-1.158,2.521,0,4c0.667,0,1.333,0,2,0
			c1.352,0.314,1.91,1.423,4,1c3.04-0.627,8.614,1.28,10-1c1,0,2,0,3,0c0.851-0.184,0.943,0.39,1,1c-1,0-2,0-3,0
			c0.982,1.352,2.668,1.999,4,3c-0.256,2.077-4.394,0.273-5,2c-2.484-3.061-6.069,1.197-10,0c-4.623,0.044-9.892-0.559-12,2
			c-2.981,0.269-6.089-2.799-7,1c2.337,0.329,4.131,1.202,6,2c0.171,1.714-5.671,3.933-1,4c-3.278,4.723-8.795,7.205-14,10
			c2.696,2.305,9.645,0.355,14,1c6.333,0,12.667,0,19,0c-9.782,1.772-26.179,1.519-36,0c1.176-3.157,5.187-3.479,7-6
			c-2.319,0.319-3.839-0.161-5-1c0.74,8.647-18.513,2.134-6,7c-3.1,1.317-5.547-2.964-7,0C15.667,40,15.333,40,15,40z"/>
		<path style="fill-rule:evenodd;clip-rule:evenodd;fill:#C3C2C2;" d="M89,23c4.642-2.358,11.233-2.767,16-5
			c1.235,3.236-3.235,0.764-2,4c4.443,0.704,7.7-0.361,10,4c-1.173-1.262-4.155-0.801-4,2c-2.409-0.409-2.174,1.826-5,1
			c1.286,4.007,2.067-0.274,5,0c-0.43,1.57-3.146,0.854-2,4c-4.451-2.747-7.806,3.574-13-2c-2.35,0.013,0.365,2.729,2,2
			c-0.628,2.433-5.053,0.529-4-2c-1.78,0.733-0.145,1.818,0,3c-2.211-0.789-2.503-3.497-4-5c0.934-0.733,1.515-1.818,2-3
			c1.484,0.437-0.395,1.279,0,3c1.44-0.56,2.44-1.56,3-3c0.182-2.182-0.818-3.182-3-3C89.667,23,89.333,23,89,23z M97,22
			c1.352,2.427,1.999,0.623,3,2c0.054,1.72-0.77,2.563-2,3c0.054-1.72-0.77-2.563-2-3c0.052,1.833-5.125,3.386-2,5
			c1.784-4.086,2.704-2.075,5,0c1.326-1.674,2.649-3.351,2-7C98.721,23.374,97.241,19.422,97,22z M99,30
			c-0.012,1.321-1.753,0.914-2,2c2.304,0.998,5.078,1.244,7-2C100.81,29.406,100.907,31.877,99,30z"/>
		<path style="fill-rule:evenodd;clip-rule:evenodd;fill:#A3A2A1;" d="M87,38c0.31-1.357,2.504-0.829,4-1
			c0.691-3.748-6.313-4.943-3-8c1.497,1.503,1.789,4.211,4,5c0,0.667,0,1.333,0,2c1.667,0,3.333,0,5,0
			C94.55,37.55,90.491,37.491,87,38z"/>
		<path style="fill-rule:evenodd;clip-rule:evenodd;fill:#C3C2C2;" d="M69,25c1.182-1.151,3.535-1.132,6-1
			c-0.143,3.191-3.698,2.969-4,6c1.562,1.693,4.246-5.991,7-1c-0.437,1.484-1.279-0.395-3,0c1.209,2.387,6.633,3.866,4,7
			c-2.342-3.068-0.971-0.776-3,1c-2.182,0.182-3.182-0.818-3-3c-0.89,0.776-2.258,1.075-4,1c-1.942,0.086,2.107,4.281-3,3
			c0.431,2.236,4.928,0.405,7,1c-1.386,2.28-6.96,0.373-10,1c-6.333,0-12.667,0-19,0c2.795-4.205,13.004-0.996,19-2
			c1.913-3.548,5.423-7.144,2-11C64.285,24.285,69.715,27.716,69,25z"/>
		<path style="fill-rule:evenodd;clip-rule:evenodd;fill:#CAC9C9;" d="M76,24c7.369,0.839,6.695-0.462,13-1c0.333,0,0.667,0,1,0
			c2.182-0.182,3.182,0.818,3,3c-0.56,1.44-1.56,2.44-3,3c-0.395-1.721,1.484-2.563,0-3c-0.485,1.182-1.066,2.267-2,3
			c-3.313,3.057,3.691,4.252,3,8c-1.496,0.171-3.69-0.357-4,1c-5.066-0.066-8.281,1.719-14,1c-2.072-0.595-6.569,1.236-7-1
			c5.107,1.281,1.058-2.914,3-3c1.742,0.075,3.11-0.224,4-1c-0.182,2.182,0.818,3.182,3,3c2.029-1.776,0.658-4.068,3-1
			c2.633-3.134-2.791-4.613-4-7c1.721-0.395,2.563,1.484,3,0c-2.754-4.991-5.438,2.693-7,1c0.302-3.031,3.857-2.809,4-6
			C75.333,24,75.667,24,76,24z"/>
		<path style="fill-rule:evenodd;clip-rule:evenodd;fill:#CAC9C9;" d="M92,34c-0.145-1.182-1.78-2.267,0-3
			c-1.053,2.529,3.372,4.433,4,2c-1.635,0.729-4.35-1.987-2-2c5.194,5.574,8.549-0.747,13,2c-1.146-3.146,1.57-2.43,2-4
			c-2.933-0.274-3.714,4.007-5,0c2.826,0.826,2.591-1.409,5-1c0.333,0,0.667,0,1,0c0.729,2.729-1.987,2.013-2,4
			c6.18-1.378,7.525-1.744,14-2c-0.247,1.086-1.988,0.679-2,2c-7.528,1.472-14.069,3.931-23,4c-1.667,0-3.333,0-5,0
			C92,35.333,92,34.667,92,34z"/>
		<path style="fill-rule:evenodd;clip-rule:evenodd;fill:#5F5C5A;" d="M133,28c2.709,0.903-2.286,2.237-2,4
			c-2.594,1.406-6.614,1.386-9,3c-3.371,0.295-6.831,0.502-9,2c-4.89,0.443-8.607,2.06-14,2c-3.611,2.389-11.034,0.966-15,3
			c-0.667,0-1.333,0-2,0c-3.367,0.633-9.289-1.288-11,1c-2.072,0.595-6.569-1.236-7,1c-2,0-4,0-6,0c-5.017,0.649-12.644-1.311-16,1
			c-1,0-2,0-3,0c-8.281-1.433-12.974-0.313-20-3c-0.437-1.23-1.28-2.054-3-2c1.453-2.964,3.9,1.317,7,0c1.333,0,2.667,0,4,0
			c9.821,1.519,26.218,1.772,36,0c3.04-0.627,8.614,1.28,10-1c5.719,0.719,8.934-1.066,14-1c3.491-0.509,7.55-0.45,10-2
			c8.931-0.069,15.472-2.528,23-4C125.059,31.392,128.788,29.455,133,28z"/>
		<path style="fill-rule:evenodd;clip-rule:evenodd;fill:#93715F;" d="M84,42c3.966-2.034,11.389-0.611,15-3c0,0.667,0,1.333,0,2
			c-1.893,1.774-6.604,0.729-10,1C87.333,42,85.667,42,84,42z"/>
		<path style="fill-rule:evenodd;clip-rule:evenodd;fill:#AE925C;" d="M82,42c0.667,0,1.333,0,2,0c1.667,0,3.333,0,5,0
			c0,0.333,0,0.667,0,1c-4.45-1.006-5.416,4.659-1,2c1.541,2.096,5.946,0.355,2,3c-2,0-4,0-6,0c1.666-1.987-0.091-1.271,0-4
			c-2.409-0.409-2.174,1.826-5,1c0.247,1.086,1.988,0.679,2,2c-1.862-0.138-3.342-0.658-4-2c0-0.667,0-1.333,0-2
			C78.453,42.453,82.169,44.169,82,42z"/>
		<path style="fill-rule:evenodd;clip-rule:evenodd;fill:#CAC9C9;" d="M89,43c3,0,6,0,9,0c0.054,1.721-0.77,2.563-2,3
			c-0.745-2.255-5.609-0.391-8-1C83.584,47.659,84.55,41.994,89,43z"/>
		<path style="fill-rule:evenodd;clip-rule:evenodd;fill:#DDD8D5;" d="M21,47c-3.379-0.954-2.73-5.937-6-7c0.333,0,0.667,0,1,0
			c1.72-0.054,2.563,0.77,3,2C18.255,45.078,21.745,43.922,21,47z"/>
		<path style="fill-rule:evenodd;clip-rule:evenodd;fill:#DDD8D5;" d="M72,0c3.333,0,6.667,0,10,0c-0.003,1.003,0.81,1.19,1,2
			c-2.634-0.962-8.566-1.933-11,0C72,1.333,72,0.667,72,0z"/>
		<path style="fill-rule:evenodd;clip-rule:evenodd;fill:#5F5C5A;" d="M47,15c1.479-1.158,2.521-1.158,4,0
			c1.431,1.461,1.47,3.873-2,3c-1.912-0.466-4.304,3.083-4-1C46.22,16.887,47.368,16.701,47,15z"/>
		<path style="fill-rule:evenodd;clip-rule:evenodd;fill:#AE925C;" d="M72,15c-0.057-0.61-0.149-1.184-1-1
			c-0.105-4.105-0.164-8.164,2-10c0.271,3.395-0.774,8.107,1,10C73.19,14.19,73.003,15.003,72,15z"/>
		<path style="fill-rule:evenodd;clip-rule:evenodd;fill:#EAE7E6;" d="M107,13c5.39,0.276,12.362-1.028,15,2
			c-3.708,0.708-4.292-1.708-8-1C111.929,13.405,107.431,15.236,107,13z"/>
		<path style="fill-rule:evenodd;clip-rule:evenodd;fill:#BBBBBB;" d="M76,14c1.667,0,3.333,0,5,0c-0.857,3.19,1.574,3.093,2,5
			c-1.893-1.774-6.604-0.729-10-1c-1.332-1.001-3.018-1.648-4-3c1,0,2,0,3,0c1.003,0.003,1.19-0.81,2-1C74.667,14,75.333,14,76,14z"
			/>
		<path style="fill-rule:evenodd;clip-rule:evenodd;fill:#A3A2A1;" d="M122,15c3.129,0.204,7.341-0.674,9,1
			c-0.102,1.122,1.454,1.557,0,2c-3.972-3.3-2.651,1.273-5,2c-0.279-6.721-12.093-1.907-16-5c1.496-0.17,3.69,0.357,4-1
			C117.708,13.292,118.292,15.708,122,15z"/>
		<path style="fill-rule:evenodd;clip-rule:evenodd;fill:#BBBBBB;" d="M56,23c-3.395-0.271-8.107,0.774-10-1
			c2.108-2.559,7.377-1.956,12-2c-0.162,1.172-1.823,0.843-3,1C55.19,21.81,56.003,21.997,56,23z"/>
		<path style="fill-rule:evenodd;clip-rule:evenodd;fill:#CAC9C9;" d="M68,23c-0.667,0-1.333,0-2,0c-1.667,0-3.333,0-5,0
			c-2.453-2.747,4.059-2.591,7-3C68,21,68,22,68,23z"/>
		<path style="fill-rule:evenodd;clip-rule:evenodd;fill:#93715F;" d="M68,23c6.152,0.486,9.555-1.779,16-1
			c-0.444,2.889-7.556-0.889-8,2c-0.333,0-0.667,0-1,0c-2.465-0.132-4.818-0.151-6,1c-2.333,0-4.667,0-7,0
			c-0.715-2.715,4.715,0.715,4-2C66.667,23,67.333,23,68,23z"/>
		<path style="fill-rule:evenodd;clip-rule:evenodd;fill:#C3C2C2;" d="M110,28c2.386-1.614,6.406-1.594,9-3
			c3.699,4.974,11.264,1.682,16,0c-0.239,1.427-1.646,1.687-2,3c-4.212,1.455-7.941,3.392-13,4c0.012-1.321,1.753-0.914,2-2
			c-6.475,0.256-7.82,0.622-14,2C108.013,30.013,110.729,30.729,110,28z"/>
		<path style="fill-rule:evenodd;clip-rule:evenodd;fill:#CAC9C9;" d="M113,37c2.169-1.498,5.629-1.705,9-2
			C120.281,36.948,116.822,37.155,113,37z"/>
		<path style="fill-rule:evenodd;clip-rule:evenodd;fill:#BBBBBB;" d="M44,40c-4.355-0.645-11.304,1.305-14-1
			c5.205-2.795,10.722-5.277,14-10c-4.671-0.067,1.171-2.286,1-4c1,0,2,0,3,0c-1.62,4.527,9.541-0.043,13,0c0.333,0,0.667,0,1,0
			c2.333,0,4.667,0,7,0c0.715,2.716-4.715-0.715-4,2c3.423,3.856-0.087,7.452-2,11C57.004,39.004,46.795,35.795,44,40z"/>
		<path style="fill-rule:evenodd;clip-rule:evenodd;fill:#A3A2A1;" d="M89,42c3.396-0.271,8.107,0.774,10-1
			c-0.224,0.776-0.027,1.973-1,2c-3,0-6,0-9,0C89,42.667,89,42.333,89,42z"/>
		<path style="fill-rule:evenodd;clip-rule:evenodd;fill:#CAC9C9;" d="M64,44c0.431-2.236,4.928-0.405,7-1c2,0,4,0,6,0
			c0,0.667,0,1.333,0,2C74.302,43.031,68.262,44.405,64,44z"/>
		<path style="fill-rule:evenodd;clip-rule:evenodd;fill:#BBBBBB;" d="M42,45c3.356-2.311,10.983-0.351,16-1
			c-0.057,0.61-0.149,1.184-1,1c-3.333,0-6.667,0-10,0C45.333,45,43.667,45,42,45z"/>
		<path style="fill-rule:evenodd;clip-rule:evenodd;fill:#AE925C;" d="M39,45c-3.778,4.063-9.629,2.484-18,2
			c0.745-3.078-2.745-1.922-2-5C26.026,44.687,30.719,43.567,39,45z"/>
		<path style="fill-rule:evenodd;clip-rule:evenodd;fill:#93715F;" d="M81,47c-0.012-1.321-1.753-0.914-2-2
			c2.826,0.826,2.591-1.409,5-1c-0.091,2.729,1.666,2.013,0,4C82.623,48.043,81.805,47.529,81,47z"/>
		<path style="fill-rule:evenodd;clip-rule:evenodd;fill:#A3A2A1;" d="M96,46c-2.091,0.576-2.854,2.479-6,2
			c3.946-2.645-0.459-0.904-2-3C90.391,45.609,95.255,43.745,96,46z"/>
		<path style="fill-rule:evenodd;clip-rule:evenodd;fill:#C3C2C2;" d="M58,20c3.931,1.197,7.516-3.061,10,0
			c-2.941,0.409-9.453,0.253-7,3c-1.667,0-3.333,0-5,0c0.003-1.003-0.81-1.19-1-2C56.177,20.843,57.838,21.172,58,20z"/>
	</g>
</g>
</svg>
