<?xml version="1.0" encoding="iso-8859-1"?>
<!-- Generator: Adobe Illustrator 13.0.2, SVG Export Plug-In . SVG Version: 6.00 Build 14948)  -->
<!DOCTYPE svg PUBLIC "-//W3C//DTD SVG 1.1//EN" "http://www.w3.org/Graphics/SVG/1.1/DTD/svg11.dtd">
<svg version="1.1" id="Layer_1" xmlns="http://www.w3.org/2000/svg" xmlns:xlink="http://www.w3.org/1999/xlink" x="0px" y="0px"
	 width="144px" height="52px" viewBox="0 0 144 52" style="enable-background:new 0 0 144 52;" xml:space="preserve">
<g>
	<g>
		<path style="fill-rule:evenodd;clip-rule:evenodd;fill:#B6A444;" d="M80,13c-0.221,0.779-0.837,1.163-2,1c-0.333,0-0.667,0-1,0
			c0.688-4.021-0.958-5.708-1-9C78.613,6.387,78.834,10.167,80,13z"/>
		<path style="fill-rule:evenodd;clip-rule:evenodd;fill:#B6A444;" d="M73,14c-0.012,1.009-1.752,1.258-2,0
			c-0.769-3.769,1.22-4.78,1-8C74.255,6.745,72.391,11.609,73,14z"/>
		<path style="fill-rule:evenodd;clip-rule:evenodd;fill:#5F5C5B;" d="M48,14c1.003,0.003,1.19-0.81,2-1
			c0.438,2.323,4.416,2.677,2,5c-2.488,0.154-3.096-1.571-5-2c0-0.333,0-0.667,0-1C47.61,14.943,48.184,14.851,48,14z"/>
		<path style="fill-rule:evenodd;clip-rule:evenodd;fill:#F5F419;" d="M81,18c4.568,0.099,10.335-1.002,11,3
			c-4.296,1.704-9.903,2.097-16,2c0-1,0-2,0-3C75.55,17.216,81.45,20.784,81,18z"/>
		<path style="fill-rule:evenodd;clip-rule:evenodd;fill:#5F5C5B;" d="M48,24c-1.271-2.396-7.683,0.35-7-4
			c2.826-0.826,2.591,1.409,5,1c2.763,2.237,7.926,2.074,13,2c1.667,0,3.333,0,5,0c-0.003,1.003,0.81,1.19,1,2
			C59.294,24.506,55.818,24.062,48,24z"/>
		<path style="fill-rule:evenodd;clip-rule:evenodd;fill:#C6C6C6;" d="M117,25c-0.275,4.662-6.546,2.315-7-1
			c1.553,0.229,4.666,3.845,6,1C116.333,25,116.667,25,117,25z"/>
		<path style="fill-rule:evenodd;clip-rule:evenodd;fill:#9C7458;" d="M109,40c1.41,4.41-5.983,0.017-6,3
			c-1.742-0.075-3.11,0.224-4,1c-2.306-0.306-1.111,2.889-3,3c-1.667,0-3.333,0-5,0c-0.111-1.889-3.306-0.694-3-3
			c0-0.333,0-0.667,0-1C95.525,42.525,102.552,41.552,109,40z"/>
		<path style="fill-rule:evenodd;clip-rule:evenodd;fill:#B6A444;" d="M84,13c-0.042-3.958-3.183-4.818-4-8
			c2.711,1.956,5.454,3.879,6,8C85.333,13,84.667,13,84,13z"/>
		<path style="fill-rule:evenodd;clip-rule:evenodd;fill:#B6A444;" d="M65,14c-0.442-3.775,1.972-4.695,3-7
			c1.674,0.78-1.75,4.837-2,7C65.667,14,65.333,14,65,14z"/>
		<path style="fill-rule:evenodd;clip-rule:evenodd;fill:#9C7458;" d="M55,8c8.193-7.953,26.754-8.375,38-3
			c0.558,2.442,3.869,2.131,3,6c-1.583,0.083-3.814-0.481-4,1c-1.419-0.086-2.832-0.165-3,1c-1,0-2,0-3,0
			c-0.546-4.121-3.289-6.044-6-8c0.817,3.182,3.958,4.042,4,8c-1.333,0-2.667,0-4,0c-1.166-2.833-1.387-6.613-4-8
			c0.042,3.292,1.688,4.979,1,9c-1.333,0-2.667,0-4,0c-0.609-2.391,1.255-7.255-1-8c0.22,3.22-1.769,4.231-1,8c-1.667,0-3.333,0-5,0
			c0.25-2.163,3.674-6.22,2-7c-1.028,2.305-3.442,3.225-3,7c-3.395-0.271-8.107,0.774-10-1C54.402,11.22,57.931,8.847,55,8z"/>
		<path style="fill-rule:evenodd;clip-rule:evenodd;fill:#5F5C5B;" d="M52,12c-0.282-1.615,0.945-1.722,1-3
			c0.81-0.19,0.997-1.003,2-1c2.931,0.847-0.598,3.22,0,5c-0.667,0-1.333,0-2,0C53.184,12.149,52.61,12.057,52,12z"/>
		<path style="fill-rule:evenodd;clip-rule:evenodd;fill:#BBBBBB;" d="M93,5c2.009,2.325,7.648,1.019,8,5
			c-0.81-0.19-0.997-1.003-2-1c-0.409,2.409,1.826,2.174,1,5c5.064,2.269,14.465,0.202,16,6c1.103-3.264,7.35-1.979,10-1
			c0.319,2.319-0.161,3.839-1,5c2.677-1.275,4.754-1.595,3-5c2.672-0.578,6.248,2.958,8,0c2.483-0.15,4.15,0.517,5,2
			c-2.279-0.279-3.759,0.241-4,2c2.141,1.486,5.966,3.189,6,0c0.333,0,0.667,0,1,0c0,0.667,0,1.333,0,2c-3.15,2.183-5.4,5.267-9,7
			c0.776-0.89,1.075-2.258,1-4c-3.532,1.438-10.988,1.983-11-3c-1.868,0.798-3.662,1.671-6,2c0.529-0.805,1.043-1.624,1-3
			c-1.615-0.282-1.722,0.945-3,1c-0.333,0-0.667,0-1,0c-4.374-1.292-7.951-3.382-12-5c0.247-1.086,1.988-0.678,2-2
			c0.333,0,0.667,0,1,0c-2.654-1.712-6.036-3.292-9-2c0.127-1.793-1.225-2.109-1-4c-1.667,0-3.333,0-5,0
			c0.186-1.481,2.417-0.917,4-1C96.869,7.131,93.558,7.442,93,5z"/>
		<path style="fill-rule:evenodd;clip-rule:evenodd;fill:#A8A6A4;" d="M136,19c-1.752,2.958-5.328-0.578-8,0
			c1.754,3.405-0.323,3.725-3,5c0.839-1.161,1.319-2.681,1-5c-2.65-0.979-8.897-2.264-10,1c-1.535-5.798-10.936-3.731-16-6
			c0.826-2.826-1.409-2.591-1-5c1.003-0.003,1.19,0.81,2,1c0.934,4.4,7.747,2.919,11,5c4.436,1.565,10.042,1.958,16,2
			C131.249,17.084,134.151,17.516,136,19z"/>
		<path style="fill-rule:evenodd;clip-rule:evenodd;fill:#C0C0C0;" d="M132,32c0-0.333,0-0.667,0-1c0.716-1.622-4.716-1.622-4,0
			c1.076-3.584-5.57,0.809-6-3c-2.701,1.304-7.868,0.766-15,2c3.988-1.488,1.535-4.216,3-7c-4.631,1.142-3.836-1.494-9-2
			c0.161-1.172,1.823-0.843,3-1c4.049,1.618,7.626,3.708,12,5c-1.334,2.845-4.447-0.771-6-1c0.454,3.315,6.725,5.662,7,1
			c1.278-0.055,1.385-1.282,3-1c0.043,1.376-0.471,2.195-1,3c2.338-0.329,4.132-1.202,6-2c0.012,4.983,7.468,4.438,11,3
			c0.075,1.742-0.224,3.11-1,4c-0.81,0.19-0.997,1.003-2,1C133.184,32.149,132.61,32.057,132,32z"/>
		<path style="fill-rule:evenodd;clip-rule:evenodd;fill:#BBBBBB;" d="M48,14c-0.608-3.941,2.237-4.429,5-5
			c-0.055,1.278-1.282,1.385-1,3c0.184,0.851-0.39,0.943-1,1c-0.333,0-0.667,0-1,0C49.19,13.19,49.003,14.003,48,14z"/>
		<path style="fill-rule:evenodd;clip-rule:evenodd;fill:#C6C6C6;" d="M92,12c1.667,0,3.333,0,5,0c-0.225,1.891,1.127,2.207,1,4
			c2.964-1.292,6.346,0.288,9,2c-0.333,0-0.667,0-1,0c-2.09-0.423-2.647,0.686-4,1c-2.858-3.142-7.802-4.199-13-5
			c0-0.333,0-0.667,0-1C89.168,11.835,90.581,11.914,92,12z"/>
		<path style="fill-rule:evenodd;clip-rule:evenodd;fill:#918983;" d="M50,13c0.333,0,0.667,0,1,0c2.406,2.594,7.977,2.023,11,4
			c0.155,4.426-2.827-0.473-4,2c-1.333,0-2.667,0-4,0c-0.027-0.973-1.224-0.776-2-1C54.416,15.677,50.438,15.323,50,13z"/>
		<path style="fill-rule:evenodd;clip-rule:evenodd;fill:#A8A6A4;" d="M58,19c1.173-2.473,4.155,2.426,4-2
			c-3.023-1.977-8.594-1.406-11-4c0.61-0.057,1.184-0.149,1-1c0.61,0.057,1.184,0.149,1,1c0.667,0,1.333,0,2,0
			c1.893,1.774,6.605,0.729,10,1c0.333,0,0.667,0,1,0c1.667,0,3.333,0,5,0c0.248,1.258,1.988,1.009,2,0c1.333,0,2.667,0,4,0
			c0.333,0,0.667,0,1,0c-0.904,2.096-5.645,0.355-6,3c-0.296,2.674,3.88-2.658,3,2c-1.758,0.575-5.875-1.208-6,1
			c-4.817-1.513-4.3-0.025-10,0C58.149,20.184,58.057,19.61,58,19z"/>
		<path style="fill-rule:evenodd;clip-rule:evenodd;fill:#BBBBBB;" d="M69,20c0.125-2.208,4.242-0.425,6-1
			c0.88-4.658-3.296,0.674-3-2c0.355-2.645,5.096-0.904,6-3c1.163,0.163,1.779-0.221,2-1c1.333,0,2.667,0,4,0c0.667,0,1.333,0,2,0
			c1,0,2,0,3,0c0,0.333,0,0.667,0,1c-3.998-0.332-5.551,1.783-10,1c-0.551,2.217,1.909,1.424,2,3c0.45,2.784-5.45-0.784-5,2
			C73.667,20,71.333,20,69,20z"/>
		<path style="fill-rule:evenodd;clip-rule:evenodd;fill:#918983;" d="M102,19c1.353-0.314,1.91-1.423,4-1
			c-0.012,1.322-1.753,0.914-2,2c-1.177,0.157-2.839-0.172-3,1c-4.646,1.354-10.537,1.463-15,3c-3.462,1.539-9.116,0.884-14,1
			c-2.333,0-4.667,0-7,0c-0.19-0.81-1.003-0.997-1-2c4,0,8,0,12,0c6.097,0.097,11.704-0.296,16-2
			C94.903,19.903,99.097,20.097,102,19z"/>
		<path style="fill-rule:evenodd;clip-rule:evenodd;fill:#A8A6A4;" d="M19,39c-5.396-0.604-6.878-5.122-12-6
			c4.327-15.006,28.062-10.604,40-18c0,0.333,0,0.667,0,1c1.904,0.429,2.512,2.154,5,2c0.776,0.224,1.973,0.027,2,1
			c-3.249,0.084-6.151,0.516-8,2c-2.409,0.409-2.174-1.826-5-1c-0.683,4.35,5.729,1.604,7,4c-10.754-0.097-11.788,6.554-19,5
			c0.65,1.017,2.299,1.034,2,3c-5.164-2.433-8.206,3.041-14,3c0.353,1.313,1.761,1.573,2,3C19,38.333,19,38.667,19,39z"/>
		<path style="fill-rule:evenodd;clip-rule:evenodd;fill:#BBBBBB;" d="M19,38c-0.239-1.427-1.647-1.687-2-3
			c5.794,0.041,8.836-5.433,14-3c0.299-1.966-1.35-1.983-2-3c7.212,1.554,8.246-5.097,19-5c7.818,0.062,11.294,0.506,17,1
			c2.333,0,4.667,0,7,0c0.168,2.169-3.547,0.453-5,1c-2.667,0-5.333,0-8,0c-6.944,2.431-6.48,7.562-10,12
			c-5.616,0.178,3.476-3.378,0-4c0.19-0.81,1.003-0.997,1-2c-6.103,1.564-5.807,9.526-15,8C28.607,40.393,24.467,38.533,19,38z
			 M49,26c0.845,0.938,6.375,2.136,7,0C55.155,25.063,49.625,23.864,49,26z"/>
		<path style="fill-rule:evenodd;clip-rule:evenodd;fill:#C6C6C6;" d="M101,21c5.164,0.506,4.369,3.142,9,2
			c-1.465,2.784,0.988,5.512-3,7c7.132-1.234,12.299-0.696,15-2c0.43,3.809,7.076-0.584,6,3c-0.716-1.622,4.716-1.622,4,0
			c0,0.333,0,0.667,0,1c-3.581,1.086-7.772,1.561-11,3c0-0.667,0-1.333,0-2c-3.056-0.723-3.645,1.022-6,1c0-1,0-2,0-3
			c-2.965,0.702-9.423-2.09-8,3c-2.284-1.716-5.052-2.948-7-5c-1.258,0.247-1.009,1.988,0,2c0,0.333,0,0.667,0,1
			c-2.27,1.73-8.386-0.386-9,3c-1.342-0.658-1.862-2.138-2-4c4.318-0.53,5.605-0.289,8-1c-3.291-2.375-4.574-6.759-11-6
			C90.463,22.463,96.354,22.354,101,21z"/>
		<path style="fill-rule:evenodd;clip-rule:evenodd;fill:#CCCCCC;" d="M107,34c-1.423-5.09,5.035-2.298,8-3c0,1,0,2,0,3
			c2.355,0.022,2.944-1.723,6-1c0,0.667,0,1.333,0,2c-1,0-2,0-3,0c-2,0-4,0-6,0c0.529-0.805,1.043-1.623,1-3
			c-4.038-1.371-3.541,1.793-5,3C108.184,34.149,107.61,34.057,107,34z"/>
		<path style="fill-rule:evenodd;clip-rule:evenodd;fill:#A8A6A4;" d="M141,21c0.891,0.443,1.788,0.878,2,2
			c-0.034,3.189-3.859,1.486-6,0C137.241,21.241,138.721,20.721,141,21z"/>
		<path style="fill-rule:evenodd;clip-rule:evenodd;fill:#CCCCCC;" d="M86,24c6.426-0.759,7.709,3.625,11,6
			c-2.395,0.711-3.682,0.47-8,1c0.138,1.862,0.658,3.342,2,4c0.614-3.386,6.73-1.27,9-3c3.942-0.275,3.058,4.275,7,4
			c-0.227,1.44-2.984,0.349-3,2c-3.286,2.047-10.127,0.54-15,1c-5.695,1.996-13.642-3.189-14,0c-2.576-0.758-3.475-3.192-3-7
			c2.062,0.271,0.238,4.428,3,4c0.81-0.19,0.997-1.003,2-1c1.462-5.058-6.72-3.78-3-8c-2.408,0.757-4.842,0.794-7-1
			c1.453-0.547,5.168,1.169,5-1C76.884,24.884,82.538,25.539,86,24z"/>
		<path style="fill-rule:evenodd;clip-rule:evenodd;fill:#C0C0C0;" d="M49,34c3.476,0.622-5.616,4.178,0,4
			c3.52-4.438,3.056-9.569,10-12c1.5,2.326,2.445,1.526,5,1c-2.799,2.434-7.55,1.369-8,8c1.717-1.283,2.009-3.991,4-5
			c1.697,0.649,0.625,2.299-1,2c0.226,1.274,2.985,1.311,3,0c2.794,2.86-5.961,2.656-5,7c-3.141,0.505-4.086-2.356-5,1c-3,0-6,0-9,0
			C43.921,36.921,47.002,36.002,49,34z"/>
		<path style="fill-rule:evenodd;clip-rule:evenodd;fill:#A8A6A4;" d="M104,38c0.016-1.651,2.773-0.56,3-2
			c-3.942,0.275-3.058-4.275-7-4c0-0.333,0-0.667,0-1c-1.009-0.012-1.258-1.753,0-2c1.948,2.052,4.716,3.284,7,5
			c0.61,0.057,1.184,0.149,1,1c0.431,2.236,4.929,0.405,7,1C112.289,37.622,107.621,37.288,104,38z"/>
		<path style="fill-rule:evenodd;clip-rule:evenodd;fill:#C6C6C6;" d="M59,26c2.667,0,5.333,0,8,0c2.158,1.794,4.592,1.757,7,1
			c-3.72,4.22,4.462,2.942,3,8c-1.003-0.003-1.19,0.81-2,1c-2.762,0.428-0.938-3.729-3-4c-0.475,3.808,0.424,6.242,3,7
			c0.358-3.189,8.305,1.996,14,0c-0.125,2.209-4.242,0.425-6,1c-10.333,0-20.667,0-31,0c0.914-3.356,1.859-0.495,5-1
			c-0.961-4.344,7.794-4.14,5-7c-0.015,1.311-2.774,1.274-3,0c1.625,0.299,2.697-1.351,1-2c-1.991,1.009-2.283,3.717-4,5
			c0.45-6.631,5.201-5.566,8-8C61.445,27.526,60.5,28.326,59,26z"/>
		<path style="fill-rule:evenodd;clip-rule:evenodd;fill:#918983;" d="M35,40c9.193,1.526,8.897-6.436,15-8
			c0.003,1.003-0.81,1.19-1,2c-1.998,2.002-5.079,2.921-6,6c0,0.333,0,0.667,0,1C42.016,38.88,36.706,43.143,35,40z"/>
		<path style="fill-rule:evenodd;clip-rule:evenodd;fill:#5F5C5B;" d="M121,35c3.228-1.439,7.419-1.914,11-3
			c0.61,0.057,1.184,0.149,1,1c-4.57,3.097-11.516,3.817-17,6c-3.246-0.58-4.652,0.681-7,1c-6.448,1.552-13.475,2.525-21,3
			c-4.024,0.642-10.634-1.3-13,1c-4.667,0-9.333,0-14,0s-9.333,0-14,0c-2,0-4,0-6,0c-2.921-2.079-9.628-0.371-13-2
			c-1.279-1.388-4.721-0.612-6-2c-1.419,0.086-2.832,0.165-3-1c0-0.333,0-0.667,0-1c5.467,0.533,9.607,2.393,16,2
			c1.706,3.143,7.016-1.12,8,1c13.003-0.664,28.663,1.329,40-1c1.758-0.575,5.875,1.209,6-1c4.873-0.46,11.714,1.047,15-1
			c3.621-0.712,8.289-0.378,11-2c1.419,0.086,2.832,0.165,3-1C119,35,120,35,121,35z"/>
		<path style="fill-rule:evenodd;clip-rule:evenodd;fill:#918983;" d="M91,47c1.667,0,3.333,0,5,0c1.889-0.111,0.694-3.306,3-3
			c-1.2,1.313-0.39,1.573,0,3c1.985-0.434,6.515-2.298,4,1C99.305,47.362,93.038,49.295,91,47z"/>
		<path style="fill-rule:evenodd;clip-rule:evenodd;fill:#918983;" d="M25,46c-2.979-0.021-1.283-4.718-3-6
			c1.279,1.388,4.721,0.612,6,2c-0.279,2.318-2.671,2.299-4,1C23.718,44.615,24.945,44.722,25,46z"/>
		<path style="fill-rule:evenodd;clip-rule:evenodd;fill:#918983;" d="M47,45c-4.083,1.605-12.005,4.632-17,2
			c4.093-1.545,7.625-3.257,11-3c2,0,4,0,6,0C47,44.333,47,44.667,47,45z"/>
		<path style="fill-rule:evenodd;clip-rule:evenodd;fill:#FFFFFF;" d="M144,25c0,9,0,18,0,27c-48,0-96,0-144,0
			C0,34.667,0,17.333,0,0c48,0,96,0,144,0c0,7.667,0,15.333,0,23c-0.333,0-0.667,0-1,0c-0.212-1.122-1.109-1.557-2-2
			c-0.85-1.483-2.517-2.15-5-2c-1.849-1.484-4.751-1.916-8-2c-4.296-1.704-9.903-2.097-16-2c-3.253-2.081-10.066-0.6-11-5
			c-0.352-3.981-5.991-2.675-8-5C81.754-0.375,63.193,0.047,55,8c-1.003-0.003-1.19,0.81-2,1c-2.763,0.571-5.608,1.059-5,5
			c0.184,0.851-0.39,0.943-1,1c-11.938,7.396-35.673,2.994-40,18c5.122,0.878,6.604,5.396,12,6c0.168,1.165,1.581,1.086,3,1
			c1.717,1.282,0.021,5.979,3,6c0,0.333,0,0.667,0,1c1.667,0,3.333,0,5,0c4.995,2.632,12.917-0.395,17-2c0.667,0,1.333,0,2,0
			c5.02,1.664,16.98,1.664,22,0c2.391-0.609,7.255,1.255,8-1c3,0,6,0,9,0c-0.306,2.306,2.889,1.111,3,3
			c2.038,2.295,8.305,0.362,12,1c2.899-1.101,6.763-1.237,7-5c-0.695-4.028,4.975-1.691,6-4c5.484-2.183,12.43-2.903,17-6
			c1.003,0.003,1.19-0.81,2-1C138.6,30.267,140.85,27.183,144,25z"/>
		<path style="fill-rule:evenodd;clip-rule:evenodd;fill:#CCCCCC;" d="M81,18c-0.091-1.576-2.551-0.783-2-3
			c4.449,0.783,6.002-1.332,10-1c5.198,0.801,10.142,1.858,13,5c-2.903,1.097-7.097,0.903-10,2C91.335,16.998,85.568,18.099,81,18z"
			/>
		<path style="fill-rule:evenodd;clip-rule:evenodd;fill:#BBBBBB;" d="M112,15c6.097-0.097,11.704,0.296,16,2
			C122.042,16.958,116.436,16.565,112,15z"/>
		<path style="fill-rule:evenodd;clip-rule:evenodd;fill:#BBBBBB;" d="M54,19c1.333,0,2.667,0,4,0c0.057,0.61,0.149,1.184,1,1
			c-1.2,1.313-0.39,1.573,0,3c-5.074,0.074-10.237,0.237-13-2C47.849,19.516,50.751,19.084,54,19z"/>
		<path style="fill-rule:evenodd;clip-rule:evenodd;fill:#C0C0C0;" d="M56,26c-0.625,2.136-6.155,0.938-7,0
			C49.625,23.864,55.155,25.063,56,26z"/>
		<path style="fill-rule:evenodd;clip-rule:evenodd;fill:#C6C6C6;" d="M108,35c1.459-1.207,0.962-4.371,5-3
			c0.043,1.377-0.471,2.195-1,3c2,0,4,0,6,0c-0.168,1.165-1.581,1.086-3,1C112.929,35.405,108.431,37.236,108,35z"/>
		<path style="fill-rule:evenodd;clip-rule:evenodd;fill:#A8A6A4;" d="M109,40c2.348-0.319,3.754-1.58,7-1
			c-1.025,2.309-6.695-0.028-6,4c-2.333,0-4.667,0-7,0C103.017,40.017,110.41,44.41,109,40z"/>
		<path style="fill-rule:evenodd;clip-rule:evenodd;fill:#A8A6A4;" d="M52,40c10.333,0,20.667,0,31,0
			c-11.337,2.329-26.997,0.336-40,1c0-0.333,0-0.667,0-1C46,40,49,40,52,40z"/>
		<path style="fill-rule:evenodd;clip-rule:evenodd;fill:#A8A6A4;" d="M75,44c2.366-2.3,8.976-0.358,13-1c0,0.333,0,0.667,0,1
			c-3,0-6,0-9,0C77.667,44,76.333,44,75,44z"/>
		<path style="fill-rule:evenodd;clip-rule:evenodd;fill:#BBBBBB;" d="M103,43c2.333,0,4.667,0,7,0c-0.237,3.763-4.101,3.899-7,5
			c2.515-3.298-2.015-1.434-4-1c-0.39-1.427-1.2-1.687,0-3C99.89,43.224,101.258,42.925,103,43z"/>
		<path style="fill-rule:evenodd;clip-rule:evenodd;fill:#CCCCCC;" d="M61,44c4.667,0,9.333,0,14,0c1.333,0,2.667,0,4,0
			c-0.745,2.255-5.609,0.391-8,1c-3.333,0-6.667,0-10,0C61,44.667,61,44.333,61,44z"/>
		<path style="fill-rule:evenodd;clip-rule:evenodd;fill:#F4F4F3;" d="M49,45c4,0,8,0,12,0c3.333,0,6.667,0,10,0
			C65.98,46.664,54.02,46.664,49,45z"/>
		<path style="fill-rule:evenodd;clip-rule:evenodd;fill:#9C7458;" d="M30,47c-1.667,0-3.333,0-5,0c0-0.333,0-0.667,0-1
			c-0.055-1.278-1.282-1.385-1-3c1.329,1.299,3.721,1.318,4-1c3.372,1.629,10.079-0.079,13,2C37.625,43.743,34.093,45.455,30,47z"/>
		<path style="fill-rule:evenodd;clip-rule:evenodd;fill:#CCCCCC;" d="M69,20c2.333,0,4.667,0,7,0c0,1,0,2,0,3c-4,0-8,0-12,0
			c-1.667,0-3.333,0-5,0c-0.39-1.427-1.2-1.687,0-3C64.7,19.975,64.183,18.487,69,20z"/>
		<path style="fill-rule:evenodd;clip-rule:evenodd;fill:#BBBBBB;" d="M47,44c4.667,0,9.333,0,14,0c0,0.333,0,0.667,0,1
			c-4,0-8,0-12,0c-0.667,0-1.333,0-2,0C47,44.667,47,44.333,47,44z"/>
	</g>
</g>
</svg>
