<?xml version="1.0" encoding="iso-8859-1"?>
<!-- Generator: Adobe Illustrator 13.0.2, SVG Export Plug-In . SVG Version: 6.00 Build 14948)  -->
<!DOCTYPE svg PUBLIC "-//W3C//DTD SVG 1.1//EN" "http://www.w3.org/Graphics/SVG/1.1/DTD/svg11.dtd">
<svg version="1.1" id="Layer_1" xmlns="http://www.w3.org/2000/svg" xmlns:xlink="http://www.w3.org/1999/xlink" x="0px" y="0px"
	 width="144px" height="52px" viewBox="0 0 144 52" style="enable-background:new 0 0 144 52;" xml:space="preserve">
<g>
	<g>
		<path style="fill-rule:evenodd;clip-rule:evenodd;fill:#AD9254;" d="M73,14c-0.667,0-1.333,0-2,0c-2.025-3.905,0.102-5.202,2-9
			C76.242,6.6,72.851,11.227,73,14z"/>
		<path style="fill-rule:evenodd;clip-rule:evenodd;fill:#5E5B5A;" d="M51,16c-1.376,0.043-2.196-0.471-3-1
			c0.055-1.278,1.282-1.385,1-3c0.667,0,1.333,0,2,0c0.314,1.352,1.423,1.91,1,4C51.667,16,51.333,16,51,16z"/>
		<path style="fill-rule:evenodd;clip-rule:evenodd;fill:#B7A38E;" d="M65,14c0.667,0,1.333,0,2,0c1.333,0,2.667,0,4,0
			c0.667,0,1.333,0,2,0c1.333,0,2.667,0,4,0c0.61,0.057,1.184,0.149,1,1c-2.333,0-4.667,0-7,0C69.242,14.425,65.125,16.208,65,14z"
			/>
		<path style="fill-rule:evenodd;clip-rule:evenodd;fill:#F4F41B;" d="M85,23c0.225-1.891-1.127-2.207-1-4
			c4.118,0.785,5.132-1.535,9-1c3.767-0.433,4.554,2.113,6,4c-2.881,0.12-6.546-0.546-8,1C89,23,87,23,85,23z"/>
		<path style="fill-rule:evenodd;clip-rule:evenodd;fill:#9E9C9C;" d="M80,25c1.387-2.28,6.961-0.373,10-1
			c-0.221,0.779-0.837,1.163-2,1C85.333,25,82.667,25,80,25z"/>
		<path style="fill-rule:evenodd;clip-rule:evenodd;fill:#C4C4C3;" d="M88,25c-1.4,1.657-9.6,1.657-11,0c1,0,2,0,3,0
			C82.667,25,85.333,25,88,25z"/>
		<path style="fill-rule:evenodd;clip-rule:evenodd;fill:#BBBBBB;" d="M101,26c1.032-1.609,6.72,0.547,7,3
			C104.927,28.739,103.503,26.83,101,26z"/>
		<path style="fill-rule:evenodd;clip-rule:evenodd;fill:#AD9254;" d="M30,41c3.14,1.131,2.642-0.287,5,1
			c7.035,0.284-2.932,1.716-5,2C30,43,30,42,30,41z"/>
		<path style="fill-rule:evenodd;clip-rule:evenodd;fill:#EAE8E6;" d="M64,45c7.333,0,14.667,0,22,0
			C80.979,46.664,69.02,46.664,64,45z"/>
		<path style="fill-rule:evenodd;clip-rule:evenodd;fill:#FFFFFF;" d="M56,7c-1.163-0.163-1.779,0.221-2,1
			c-3.141-0.474-4.086,1.247-5,3c-8.819,9.848-32.859,4.475-41,15c-3.085,6.11,6.336,8.312,11,10c-0.184,0.851,0.39,0.943,1,1
			c2.888,1.778,7.534,1.799,10,4c0,1,0,2,0,3c1.5,1.167,2.445,2.888,5,3c-0.567,3.408,12.381,2.25,10,1c0-0.333,0-0.667,0-1
			c1.183-1.817,5.214-0.786,7-2c1.182-1.151,3.535-1.132,6-1c0.125,2.209,4.242,0.425,6,1c5.02,1.664,16.979,1.664,22,0
			c1.583-0.083,3.814,0.48,4-1c2,0,4,0,6,0c1.807,1.526,3.062,3.604,7,3c0.745,2.255,5.609,0.391,8,1c7.116,0.783,7.907-4.759,11-8
			c2.786-0.88,6.085-1.248,8-3c2.333-0.334,4.309-1.024,5-3c0.333,0,0.667,0,1,0c3.74-0.594,5.171-3.496,8-5c0,7.667,0,15.333,0,23
			c-48,0-96,0-144,0C0,34.667,0,17.333,0,0c23,0,46,0,69,0c-0.19,0.81-1.003,0.997-1,2C62.827,2.494,58.576,3.909,56,7z"/>
		<path style="fill-rule:evenodd;clip-rule:evenodd;fill:#FFFFFF;" d="M144,26c-1.313-0.354-1.573-1.761-3-2
			c-8.187-5.479-20.182-7.152-33-8c-0.733-0.934-1.818-1.515-3-2c-4.268-0.399-2.165-7.168-8-6c-3.647-2.353-7.29-4.71-12-6
			c-0.667,0-1.333,0-2,0c-1.162,0.163-1.779-0.221-2-1c0.851,0.184,0.943-0.39,1-1c20.667,0,41.333,0,62,0
			C144,8.667,144,17.333,144,26z"/>
		<path style="fill-rule:evenodd;clip-rule:evenodd;fill:#AD9254;" d="M83,2c0.667,0,1.333,0,2,0c-0.438,2.323-4.416,2.677-2,5
			c2.577-4.095,7.222,3.056,9,6c-0.667,0-1.333,0-2,0c-1.391-2.276-3.459-3.874-5-6c-2.297,1.091,0.996,4.909,2,6
			c0,0.333,0,0.667,0,1c-0.667,0-1.333,0-2,0c-0.333,0-0.667,0-1,0c-1.585-2.416-2.427-5.573-4-8C80.406,4.073,83.877,5.21,83,2z"/>
		<path style="fill-rule:evenodd;clip-rule:evenodd;fill:#AD9254;" d="M64,14c0.921-3.746,4.075-5.258,5-9
			c2.796,2.54-2.757,5.186-2,9c-0.667,0-1.333,0-2,0C64.667,14,64.333,14,64,14z"/>
		<path style="fill-rule:evenodd;clip-rule:evenodd;fill:#5E5B5A;" d="M54,8c0.221-0.779,0.837-1.163,2-1c0.333,0,0.667,0,1,0
			c0.957,1.862-2.995,3.342,0,4c-0.437,1.484-1.28-0.395-3,0C52.219,10.267,53.856,9.182,54,8z"/>
		<path style="fill-rule:evenodd;clip-rule:evenodd;fill:#ADACAC;" d="M49,11c0.914-1.753,1.859-3.474,5-3
			c-0.144,1.182-1.781,2.267,0,3c0.248,1.086,1.988,0.678,2,2c0,0.333,0,0.667,0,1c-2.488,0.154-3.096-1.571-5-2
			C50.973,11.027,49.776,11.224,49,11z"/>
		<path style="fill-rule:evenodd;clip-rule:evenodd;fill:#ADACAC;" d="M98,11c-0.529-0.804-1.043-1.624-1-3
			c5.835-1.168,3.732,5.601,8,6c2.793,4.238-2.445-0.646-3,2c-0.333,0-0.667,0-1,0C99.017,15.316,101.624,10.042,98,11z"/>
		<path style="fill-rule:evenodd;clip-rule:evenodd;fill:#B7A38E;" d="M94,13c1.794-0.127,2.109,1.224,4,1
			c-0.611,0.933-2.327,3.689,1,3c-0.895,2.7-4.059-0.464-3-3c-3.238,2.982,2.687,5.256,4,7c0.184,0.851-0.39,0.943-1,1
			c-1.446-1.887-2.233-4.433-6-4c1.493-4.827-2.493-4.174-6-4c0-0.333,0-0.667,0-1c1,0,2,0,3,0c0.667,0,1.333,0,2,0S93.333,13,94,13
			z"/>
		<path style="fill-rule:evenodd;clip-rule:evenodd;fill:#858280;" d="M51,12c1.904,0.429,2.512,2.154,5,2
			c1.261,1.336,3.006,1.964,1,4c-0.667,0-1.333,0-2,0c-0.31-1.357-2.504-0.83-4-1c0-0.333,0-0.667,0-1c0.333,0,0.667,0,1,0
			C52.423,13.91,51.314,13.352,51,12z"/>
		<path style="fill-rule:evenodd;clip-rule:evenodd;fill:#ADACAC;" d="M45,19c-1.889-3.311,2.287-0.819,6-2
			c1.496,0.17,3.69-0.357,4,1c-3.463,0.252-9.151,0.412-7,1c0,0.333,0,0.667,0,1C46.581,20.086,45.168,20.165,45,19z"/>
		<path style="fill-rule:evenodd;clip-rule:evenodd;fill:#ADACAC;" d="M65,19c1.311-3.405-5.48-3.725-3-5c0.667,0,1.333,0,2,0
			c0.333,0,0.667,0,1,0c0.125,2.208,4.242,0.425,6,1c1.223,1.444,3.816,1.517,5,3c0.169,2.168-3.547,0.453-5,1
			c-0.804,0.529-1.624,1.043-3,1C67.196,19.471,66.376,18.957,65,19z"/>
		<path style="fill-rule:evenodd;clip-rule:evenodd;fill:#CCCCCC;" d="M87,14c3.507-0.174,7.493-0.827,6,4
			c-3.868-0.535-4.882,1.785-9,1c-0.127,1.793,1.225,2.109,1,4c-5.333,0-10.667,0-16,0c-0.333,0-0.667,0-1,0
			c-1.2-1.313-0.39-1.573,0-3c1.376,0.043,2.196-0.471,3-1c1.373,2.579,6.127,0.222,8,0c4.351,0.399,5.55-0.799,4-4
			c1.163,0.163,1.779-0.221,2-1C85.667,14,86.333,14,87,14z"/>
		<path style="fill-rule:evenodd;clip-rule:evenodd;fill:#CCCCCC;" d="M100,21c-1.313-1.744-7.238-4.018-4-7
			c-1.059,2.536,2.105,5.7,3,3c1.163,0.163,1.779-0.221,2-1c0.333,0,0.667,0,1,0c-0.306,2.306,2.889,1.111,3,3
			c-0.851-0.184-0.943,0.39-1,1C101.91,19.577,101.353,20.686,100,21z"/>
		<path style="fill-rule:evenodd;clip-rule:evenodd;fill:#BBBBBB;" d="M105,14c1.182,0.485,2.267,1.066,3,2
			c-0.56,1.44-1.56,2.44-3,3c-0.111-1.889-3.306-0.694-3-3C102.555,13.354,107.793,18.238,105,14z"/>
		<path style="fill-rule:evenodd;clip-rule:evenodd;fill:#ADACAC;" d="M108,16c12.818,0.848,24.813,2.521,33,8
			c1.895,3.576-9.217-2.162-12-1c-1.762,0.905-1.652,3.681-4,4c-2.381-0.297,1.814-2.003,2-3c-6.792-4.728-12.965-6.136-22-3
			c0.184-0.851-0.39-0.943-1-1c0.057-0.61,0.149-1.184,1-1C106.44,18.44,107.44,17.44,108,16z"/>
		<path style="fill-rule:evenodd;clip-rule:evenodd;fill:#BBBBBB;" d="M105,21c9.035-3.136,15.208-1.728,22,3
			c-0.186,0.997-4.381,2.703-2,3c2.348-0.319,2.238-3.095,4-4c2.783-1.162,13.895,4.576,12,1c1.427,0.239,1.687,1.646,3,2
			c0,1,0,2,0,3c-2.829,1.504-4.26,4.406-8,5c-1.008-3.896-3.442-0.154-7-1c-0.529-0.805-1.043-1.623-1-3
			c-1.461,1.431-3.872,1.47-3-2c-2.443,0.89-4.336,2.331-8,2c2.175-5.713-7.729-4.354-13-8C103.816,21.149,104.39,21.057,105,21z"/>
		<path style="fill-rule:evenodd;clip-rule:evenodd;fill:#9E9C9C;" d="M8,26c8.141-10.525,32.181-5.152,41-15
			c0.776,0.224,1.973,0.027,2,1c-0.667,0-1.333,0-2,0c0.282,1.615-0.945,1.722-1,3c0.804,0.529,1.624,1.043,3,1c0,0.333,0,0.667,0,1
			c-3.713,1.181-7.889-1.311-6,2c-1.615,0.282-1.722-0.945-3-1c-0.282,1.615,0.945,1.722,1,3c-1.23-0.437-2.054-1.28-2-3
			c-12.765,1.623-26.589,5.459-33,9C8.141,26.922,7.887,26.129,8,26z"/>
		<path style="fill-rule:evenodd;clip-rule:evenodd;fill:#BBBBBB;" d="M48,20c0-0.333,0-0.667,0-1c-2.151-0.588,3.537-0.748,7-1
			c0.667,0,1.333,0,2,0c1.453,0.547,5.168-1.168,5,1c-5.703-0.024-6.043,0.771-11,0c0.248,1.086,1.988,0.678,2,2
			C50.681,21.319,49.161,20.839,48,20z"/>
		<path style="fill-rule:evenodd;clip-rule:evenodd;fill:#ADACAC;" d="M8,26c-0.113,0.129,0.141,0.922,0,1
			c6.411-3.541,20.235-7.377,33-9c-0.054,1.72,0.77,2.563,2,3c1.163-0.163,1.779,0.221,2,1c-5.529,0.805-9.471,3.195-15,4
			c-0.086,1.419-0.165,2.832,1,3c-3.338-0.817-9.999-0.409-15,2c-1.407,3.502,6.058,3.148,3,5C14.336,34.312,4.915,32.11,8,26z"/>
		<path style="fill-rule:evenodd;clip-rule:evenodd;fill:#C4C4C3;" d="M62,19c1,0,2,0,3,0c1.376-0.043,2.196,0.471,3,1
			c-0.39,1.427-1.2,1.687,0,3c-5.796,0.129-11.158-0.175-15-2c-0.012-1.322-1.752-0.914-2-2C55.957,19.771,56.297,18.976,62,19z
			 M59,22c3.023-0.31,7.777,1.11,8-2C64.49,20.824,58.389,18.056,59,22z"/>
		<path style="fill-rule:evenodd;clip-rule:evenodd;fill:#C4C4C3;" d="M104,22c5.271,3.646,15.175,2.287,13,8
			c3.664,0.331,5.557-1.11,8-2c-0.872,3.47,1.539,3.431,3,2c-0.043,1.377,0.471,2.195,1,3c3.558,0.846,5.992-2.896,7,1
			c-0.333,0-0.667,0-1,0c-2.611,0.389-5.486,0.514-7,2c0,0.333,0,0.667,0,1c-3.769-0.769-4.78,1.22-8,1c0-0.667,0-1.333,0-2
			c0.851,0.184,0.943-0.39,1-1c-2.801-2.478-6.771-2.246-6-6c-1.161,0.839-2.681,1.319-5,1c1.864,2.802,6.002,3.331,9,5
			c0,0.333,0,0.667,0,1c-3.703-0.251-9.528-5.964-14-3c-3.213-1.129,0.963-2.854,3-2c-3.235-2.071-7.149-2.561-10-7
			C100.338,23.671,102.132,22.798,104,22z M108,29c-0.28-2.453-5.968-4.609-7-3C103.503,26.83,104.927,28.739,108,29z"/>
		<path style="fill-rule:evenodd;clip-rule:evenodd;fill:#C4C4C3;" d="M36,38c0.042-2.171,8.381-2.838,12-4
			c0.086-1.419,0.165-2.832-1-3c0.681-2.486,3.045,1.478,4,2c3.656-1.572-2.323-1.494-1-4c2.923,2.411,1.935-4.012,6-1
			c0.895-3.228-3.262-1.405-4-3c0.162-1.172,1.823-0.843,3-1c4.368-0.701,5.632,1.701,10,1c-1.242,1.683-2.908,5.107-5,3
			c-2.272,2.723-2.638,9.268-7,7c-0.16,1.637,3.004,4.802,3,3c0.333,0,0.667,0,1,0c0.611,3.944-5.49,1.177-8,2
			C44.862,39.138,39.51,39.49,36,38z"/>
		<path style="fill-rule:evenodd;clip-rule:evenodd;fill:#BBBBBB;" d="M19,36c3.058-1.852-4.407-1.498-3-5
			c5.001-2.409,11.662-2.817,15-2c-1.165-0.168-1.086-1.581-1-3c5.529-0.805,9.471-3.195,15-4c3.492,0.508,7.55,0.45,10,2
			c-1.177,0.157-2.838-0.172-3,1c0.738,1.595,4.895-0.228,4,3c-4.065-3.012-3.077,3.411-6,1c-1.323,2.506,4.656,2.428,1,4
			c-0.955-0.522-3.319-4.486-4-2c1.165,0.168,1.086,1.581,1,3c-3.619,1.162-11.958,1.829-12,4c-6.434,1.407-12.161-3.136-16-1
			C19.39,36.943,18.816,36.851,19,36z"/>
		<path style="fill-rule:evenodd;clip-rule:evenodd;fill:#9E9C9C;" d="M58,37c1.315-2.685,2.685-5.315,4-8
			c1.779,1.522-0.81,7.133-3,8C58.667,37,58.333,37,58,37z"/>
		<path style="fill-rule:evenodd;clip-rule:evenodd;fill:#858280;" d="M128,36c1.514-1.486,4.389-1.611,7-2
			c-0.691,1.976-2.667,2.666-5,3C129.973,36.027,128.776,36.224,128,36z"/>
		<path style="fill-rule:evenodd;clip-rule:evenodd;fill:#858280;" d="M49,40c2.51-0.823,8.611,1.944,8-2
			c0.851,0.184,0.943-0.39,1-1c0.333,0,0.667,0,1,0c0.21,1.711-1.705,2.59,0,3c0,0.333,0,0.667,0,1C57.9,39.125,51.064,43.059,49,40
			z"/>
		<path style="fill-rule:evenodd;clip-rule:evenodd;fill:#5E5B5A;" d="M120,38c3.22,0.22,4.231-1.769,8-1c0-0.333,0-0.667,0-1
			c0.776,0.224,1.973,0.027,2,1c-1.915,1.752-5.214,2.12-8,3c-1.615-0.282-1.722,0.945-3,1c-7.877,0.789-16.298,1.036-23,3
			c-2,0-4,0-6,0c-10.667,0-21.333,0-32,0c-2.465-0.132-4.818-0.151-6,1c-1.105-2.561-5.37-1.964-9-2c-1.542-0.87-6.909-2.984-8-1
			c-2.358-1.287-1.86,0.131-5-1c-2.466-2.201-7.112-2.222-10-4c3.839-2.136,9.566,2.407,16,1c3.51,1.49,8.862,1.138,13,2
			c2.064,3.059,8.9-0.875,10,1c14.003-0.664,30.663,1.33,43-1C106.499,37.832,115.501,40.168,120,38z"/>
		<path style="fill-rule:evenodd;clip-rule:evenodd;fill:#AD9254;" d="M43,43c3.63,0.036,7.895-0.561,9,2
			c-1.786,1.214-5.817,0.183-7,2c-1.333,0-2.667,0-4,0C39.764,43.765,44.236,46.235,43,43z"/>
		<path style="fill-rule:evenodd;clip-rule:evenodd;fill:#ADACAC;" d="M122,40c-3.093,3.241-3.884,8.783-11,8c0-1,0-2,0-3
			c1.752-2.248,7.694-0.306,8-4C120.278,40.945,120.385,39.718,122,40z"/>
		<path style="fill-rule:evenodd;clip-rule:evenodd;fill:#EAE8E6;" d="M81,1c-4.612,0.055-9.776-0.443-13,1
			c-0.003-1.003,0.81-1.19,1-2c4.333,0,8.667,0,13,0C81.943,0.61,81.851,1.184,81,1z"/>
		<path style="fill-rule:evenodd;clip-rule:evenodd;fill:#9A6E58;" d="M56,7c2.576-3.091,6.827-4.506,12-5
			c3.224-1.443,8.388-0.945,13-1c0.221,0.779,0.838,1.163,2,1c0.877,3.21-2.594,2.073-3,4c1.573,2.427,2.415,5.584,4,8
			c-2.09,0.423-2.647-0.686-4-1c0.296-3.962-1.222-6.112-3-8c-2.612,1.718,1.41,5.178,0,9c-1.333,0-2.667,0-4,0
			c-0.149-2.773,3.242-7.4,0-9c-1.898,3.798-4.025,5.095-2,9c-1.333,0-2.667,0-4,0c-0.757-3.814,4.796-6.46,2-9
			c-0.925,3.742-4.079,5.254-5,9c-0.667,0-1.333,0-2,0c-1.733-1.707-2.62,0.158-6-1c-0.012-1.322-1.752-0.914-2-2
			c1.72-0.395,2.563,1.484,3,0c-2.995-0.658,0.957-2.138,0-4C56.667,7,56.333,7,56,7z"/>
		<path style="fill-rule:evenodd;clip-rule:evenodd;fill:#BBBBBB;" d="M94,13c0.15-1.85,3.386-0.614,4-2
			c3.624-0.958,1.017,4.316,3,5c-0.221,0.779-0.837,1.163-2,1c-3.327,0.689-1.611-2.067-1-3C96.109,14.224,95.794,12.873,94,13z"/>
		<path style="fill-rule:evenodd;clip-rule:evenodd;fill:#9E9C9C;" d="M56,13c3.38,1.158,4.267-0.707,6,1
			c-2.48,1.275,4.311,1.595,3,5c-1,0-2,0-3,0c0.168-2.168-3.547-0.453-5-1c2.006-2.036,0.261-2.664-1-4C56,13.667,56,13.333,56,13z"
			/>
		<path style="fill-rule:evenodd;clip-rule:evenodd;fill:#AD9254;" d="M80,13c-0.443,0.89-0.878,1.789-2,2
			c0.184-0.851-0.39-0.943-1-1c1.41-3.822-2.612-7.282,0-9C78.778,6.888,80.296,9.038,80,13z"/>
		<path style="fill-rule:evenodd;clip-rule:evenodd;fill:#BBBBBB;" d="M78,15c1.122-0.211,1.557-1.11,2-2
			c1.353,0.314,1.91,1.423,4,1c0.333,0,0.667,0,1,0c-0.221,0.779-0.837,1.163-2,1c-3.943-1.276-2.597,2.737-4,4
			c-1.873,0.222-6.627,2.579-8,0c1.453-0.547,5.169,1.168,5-1c-1.184-1.483-3.777-1.556-5-3C73.333,15,75.667,15,78,15z"/>
		<path style="fill-rule:evenodd;clip-rule:evenodd;fill:#C4C4C3;" d="M83,15c1.55,3.201,0.351,4.399-4,4
			C80.403,17.737,79.057,13.724,83,15z"/>
		<path style="fill-rule:evenodd;clip-rule:evenodd;fill:#5E5B5A;" d="M48,20c1.161,0.839,2.681,1.319,5,1
			c3.842,1.825,9.204,2.129,15,2c0.333,0,0.667,0,1,0c-0.248,1.086-1.988,0.678-2,2c-0.667,0-1.333,0-2,0
			c-4.368,0.701-5.632-1.701-10-1c-2.45-1.55-6.508-1.492-10-2c-0.221-0.779-0.837-1.163-2-1c-0.055-1.278-1.282-1.385-1-3
			c1.278,0.055,1.385,1.282,3,1C45.168,20.165,46.581,20.086,48,20z"/>
		<path style="fill-rule:evenodd;clip-rule:evenodd;fill:#CCCCCC;" d="M67,20c-0.223,3.11-4.977,1.69-8,2
			C58.389,18.056,64.49,20.824,67,20z"/>
		<path style="fill-rule:evenodd;clip-rule:evenodd;fill:#9E9C9C;" d="M104,22c-1.868,0.798-3.662,1.671-6,2c-2.333,0-4.667,0-7,0
			c0-0.333,0-0.667,0-1c1.454-1.546,5.119-0.88,8-1c0.61-0.057,1.184-0.149,1-1c1.353-0.314,1.91-1.423,4-1
			c0.61,0.057,1.184,0.149,1,1C104.39,21.057,103.816,21.149,104,22z"/>
		<path style="fill-rule:evenodd;clip-rule:evenodd;fill:#858280;" d="M69,23c5.333,0,10.667,0,16,0c2,0,4,0,6,0
			c0,0.333,0,0.667,0,1c-0.333,0-0.667,0-1,0c-3.039,0.627-8.613-1.28-10,1c-1,0-2,0-3,0c-3.333,0-6.667,0-10,0
			C67.012,23.678,68.752,24.086,69,23z"/>
		<path style="fill-rule:evenodd;clip-rule:evenodd;fill:#BBBBBB;" d="M119,36c0-0.333,0-0.667,0-1c-2.998-1.669-7.136-2.198-9-5
			c2.319,0.319,3.839-0.161,5-1c-0.771,3.754,3.199,3.522,6,6c-0.057,0.61-0.149,1.184-1,1C119.667,36,119.333,36,119,36z"/>
		<path style="fill-rule:evenodd;clip-rule:evenodd;fill:#ADACAC;" d="M59,40c14.333,0,28.667,0,43,0
			c-12.337,2.33-28.997,0.336-43,1C59,40.667,59,40.333,59,40z"/>
		<path style="fill-rule:evenodd;clip-rule:evenodd;fill:#BBBBBB;" d="M58,44c10.667,0,21.333,0,32,0c-0.186,1.48-2.417,0.917-4,1
			c-7.333,0-14.667,0-22,0C62.242,44.425,58.125,46.209,58,44z"/>
		<path style="fill-rule:evenodd;clip-rule:evenodd;fill:#9A6E58;" d="M45,48c-3.863,0.196-7.369,0.035-10-1
			c-2.555-0.112-3.5-1.833-5-3c2.068-0.284,12.035-1.716,5-2c1.091-1.984,6.458,0.13,8,1c1.236,3.235-3.236,0.765-2,4
			c1.333,0,2.667,0,4,0C45,47.333,45,47.667,45,48z"/>
		<path style="fill-rule:evenodd;clip-rule:evenodd;fill:#9A6E58;" d="M103,47c-3.938,0.604-5.193-1.474-7-3
			c6.702-1.964,15.123-2.211,23-3c-0.306,3.694-6.248,1.752-8,4C108.557,45.89,106.664,47.331,103,47z"/>
		<path style="fill-rule:evenodd;clip-rule:evenodd;fill:#9E9C9C;" d="M103,47c3.664,0.331,5.557-1.11,8-2c0,1,0,2,0,3
			C108.609,47.391,103.745,49.255,103,47z"/>
		<path style="fill-rule:evenodd;clip-rule:evenodd;fill:#EAE8E6;" d="M35,47c2.631,1.035,6.137,1.196,10,1
			C47.381,49.25,34.433,50.408,35,47z"/>
		<path style="fill-rule:evenodd;clip-rule:evenodd;fill:#CCCCCC;" d="M91,24c2.333,0,4.667,0,7,0c2.851,4.439,6.765,4.929,10,7
			c-2.037-0.854-6.213,0.871-3,2c4.472-2.964,10.297,2.749,14,3c0.333,0,0.667,0,1,0c0,0.667,0,1.333,0,2
			c-4.499,2.168-13.501-0.168-18,2c-14.333,0-28.667,0-43,0c-1.705-0.41,0.21-1.289,0-3c2.19-0.867,4.779-6.478,3-8
			c-1.315,2.685-2.685,5.315-4,8c-0.057,0.61-0.149,1.184-1,1c-0.333,0-0.667,0-1,0c0.004,1.802-3.16-1.363-3-3
			c4.362,2.268,4.728-4.277,7-7c2.092,2.107,3.758-1.317,5-3c0.667,0,1.333,0,2,0c3.333,0,6.667,0,10,0c1.4,1.657,9.6,1.657,11,0
			c1.163,0.163,1.779-0.221,2-1C90.333,24,90.667,24,91,24z"/>
		<path style="fill-rule:evenodd;clip-rule:evenodd;fill:#9A6E58;" d="M85,2c4.71,1.29,8.353,3.647,12,6
			c-0.043,1.376,0.471,2.196,1,3c-0.614,1.386-3.85,0.15-4,2c-0.667,0-1.333,0-2,0c-1.778-2.944-6.423-10.095-9-6
			C80.584,4.677,84.562,4.323,85,2z"/>
		<path style="fill-rule:evenodd;clip-rule:evenodd;fill:#9A6E58;" d="M87,13c-1.004-1.091-4.297-4.909-2-6
			c1.541,2.126,3.609,3.724,5,6C89,13,88,13,87,13z"/>
	</g>
</g>
</svg>
