<?xml version="1.0" encoding="iso-8859-1"?>
<!-- Generator: Adobe Illustrator 13.0.2, SVG Export Plug-In . SVG Version: 6.00 Build 14948)  -->
<!DOCTYPE svg PUBLIC "-//W3C//DTD SVG 1.1//EN" "http://www.w3.org/Graphics/SVG/1.1/DTD/svg11.dtd">
<svg version="1.1" id="Layer_1" xmlns="http://www.w3.org/2000/svg" xmlns:xlink="http://www.w3.org/1999/xlink" x="0px" y="0px"
	 width="144px" height="52px" viewBox="0 0 144 52" style="enable-background:new 0 0 144 52;" xml:space="preserve">
<g>
	<g>
		<path style="fill-rule:evenodd;clip-rule:evenodd;fill:#AB9253;" d="M66,13c0,0.333,0,0.667,0,1c-1.003,0.003-1.19-0.81-2-1
			c2.309-3.691,3.891-8.109,8-10C70.442,6.776,67.558,9.224,66,13z"/>
		<path style="fill-rule:evenodd;clip-rule:evenodd;fill:#AB9253;" d="M73,14c-1,0-2,0-3,0c1.016-3.65,2.481-6.853,4-10
			C76.714,6.458,72.908,10.851,73,14z"/>
		<path style="fill-rule:evenodd;clip-rule:evenodd;fill:#AB9253;" d="M86,14c-0.667,0-1.333,0-2,0c-0.502-4.165-3.498-5.835-4-10
			C82.784,6.549,85.823,8.844,86,14z"/>
		<path style="fill-rule:evenodd;clip-rule:evenodd;fill:#B29986;" d="M84,15c-1.496-0.17-3.69,0.357-4-1c1.333,0,2.667,0,4,0
			c0.667,0,1.333,0,2,0c1,0,2,0,3,0c0.333,0,0.667,0,1,0C89.875,16.208,85.758,14.425,84,15z"/>
		<path style="fill-rule:evenodd;clip-rule:evenodd;fill:#C5C4C4;" d="M83,16c0.241,1.759,1.721,2.279,4,2
			c-0.979,1.115-5.771,3.435-7,1C85.021,19.75,78.292,14.937,83,16z"/>
		<path style="fill-rule:evenodd;clip-rule:evenodd;fill:#F2F21A;" d="M94,23c-0.406-1.927-3.877-0.79-3-4
			c3.469,0.802,3.844-1.489,7-1c3.736-1.069,2.851,2.483,6,2c0,0.667,0,1.333,0,2c-1.496,0.17-3.69-0.357-4,1c-1,0-2,0-3,0
			S95,23,94,23z"/>
		<path style="fill-rule:evenodd;clip-rule:evenodd;fill:#C5C4C4;" d="M98,25c-1.725,1.658-10.275,1.658-12,0C90,25,94,25,98,25z"/>
		<path style="fill-rule:evenodd;clip-rule:evenodd;fill:#AB9253;" d="M43,41c1.667,0,3.333,0,5,0c2.953,2.86-2.41,1.829-5,2
			C43,42.333,43,41.667,43,41z"/>
		<path style="fill-rule:evenodd;clip-rule:evenodd;fill:#AB9253;" d="M58,43c0.776,0.224,1.973,0.027,2,1c0,0.333,0,0.667,0,1
			c-1.257-0.22-2.044-1.558-2,1c-1.177-0.156-2.838,0.172-3-1c-1.322,0.012-0.914,1.753-2,2c-1.742,0.075-3.11-0.224-4-1
			C52.761,43.569,53.223,43.357,58,43z"/>
		<path style="fill-rule:evenodd;clip-rule:evenodd;fill:#AB9253;" d="M126,43c-1.943,3.057-5.976,4.024-11,4
			C117.102,44.102,122.678,44.678,126,43z"/>
		<path style="fill-rule:evenodd;clip-rule:evenodd;fill:#EBE9E8;" d="M79,45c7,0,14,0,21,0C95.312,46.663,83.688,46.663,79,45z"/>
		<path style="fill-rule:evenodd;clip-rule:evenodd;fill:#FFFFFF;" d="M50,11c-9.985,6.681-30.473,2.861-40,10
			c-5.261,1.58-2.158,7.567,2,8c1.572,0.761,1.494,3.173,4,3c0.437,1.23,1.28,2.054,3,2c5.334,2.333,11.019,4.314,18,5
			c2.826,0.508,0.994,5.673,4,6c2.305,1.733,8.972,4.31,12,2c1.086-0.247,0.678-1.988,2-2c0.162,1.172,1.823,0.844,3,1
			c-0.044-2.558,0.743-1.22,2-1c2.803-1.196,6.9-1.1,11-1c0.667,0,1.333,0,2,0c0.125,2.209,4.242,0.425,6,1
			c4.688,1.663,16.312,1.663,21,0c1,0,2,0,3,0c0.333,0,0.667,0,1,0c1.674,1.326,3.351,2.649,7,2c5.052,1.695,17.427,2.11,16-6
			c0.805-0.529,1.623-1.043,3-1c6.032-0.968,8.715-5.285,14-7c0,6.333,0,12.667,0,19c-48,0-96,0-144,0C0,34.667,0,17.333,0,0
			c23,0,46,0,69,0c-0.184,0.851,0.39,0.943,1,1c-5.35,1.65-11.477,2.523-15,6c-2.551,0.116-5.145,0.188-5,3
			C50,10.333,50,10.667,50,11z"/>
		<path style="fill-rule:evenodd;clip-rule:evenodd;fill:#EBE9E8;" d="M113,18c-5.202,0.203-8.329-1.671-10-5
			C105.594,15.406,109.28,16.72,113,18z"/>
		<path style="fill-rule:evenodd;clip-rule:evenodd;fill:#FFFFFF;" d="M102,12c0.895-3.228-3.262-1.405-4-3
			c-3.913-3.42-9.465-5.202-15-7c-0.19-0.81-1.003-0.997-1-2c20.667,0,41.333,0,62,0c0,9.667,0,19.333,0,29
			c-1.313-0.354-1.573-1.761-3-2c-7.257-4.41-16.499-6.834-27-8c0.184-0.851-0.39-0.943-1-1c-3.72-1.28-7.406-2.594-10-5
			C103.184,12.149,102.61,12.057,102,12z"/>
		<path style="fill-rule:evenodd;clip-rule:evenodd;fill:#AB9253;" d="M89,14c-0.462-4.538-3.369-6.631-6-9
			c3.476-1.443,6.821,5.82,9,9c-0.667,0-1.333,0-2,0C89.667,14,89.333,14,89,14z"/>
		<path style="fill-rule:evenodd;clip-rule:evenodd;fill:#9B6F5A;" d="M70,1c5.265-0.598,8.592,0.742,13,1
			c5.535,1.798,11.087,3.58,15,7c0,1.333,0,2.667,0,4c-1.163-0.163-1.779,0.221-2,1c-1.333,0-2.667,0-4,0
			c-2.179-3.18-5.524-10.443-9-9c2.631,2.369,5.538,4.462,6,9c-1,0-2,0-3,0c-0.177-5.156-3.216-7.451-6-10
			c0.502,4.165,3.498,5.835,4,10c-1.333,0-2.667,0-4,0c0.22-3.22-1.769-4.231-1-8c-5.373,0.104-1.407,4.343-2,8
			c-1.333,0-2.667,0-4,0c-0.092-3.149,3.714-7.542,1-10c-1.519,3.147-2.984,6.35-4,10c-2.09,0.423-2.648-0.686-4-1
			c1.558-3.776,4.442-6.224,6-10c-4.109,1.891-5.691,6.309-8,10c-4.676,0.342-6.508-2.159-10-3c-0.282-1.615,0.945-1.722,1-3
			C58.523,3.523,64.65,2.65,70,1z"/>
		<path style="fill-rule:evenodd;clip-rule:evenodd;fill:#BBBBBB;" d="M55,7c-0.055,1.278-1.282,1.385-1,3
			c0.184,0.851-0.39,0.943-1,1c-0.804-0.529-1.624-1.043-3-1C49.855,7.188,52.449,7.116,55,7z"/>
		<path style="fill-rule:evenodd;clip-rule:evenodd;fill:#AEADAD;" d="M96,14c0.221-0.779,0.837-1.163,2-1c0-1.333,0-2.667,0-4
			c0.738,1.595,4.895-0.228,4,3c-0.279,2.279,0.241,3.759,2,4c-0.125,2.208-4.242,0.425-6,1C98.34,14.993,97.796,13.871,96,14z"/>
		<path style="fill-rule:evenodd;clip-rule:evenodd;fill:#82817F;" d="M50,11c0-0.333,0-0.667,0-1c1.376-0.043,2.196,0.471,3,1
			c0.887,2.447,5.583,1.083,5,5c-1,0-2,0-3,0c-2.409,0.409-2.174-1.826-5-1C51.845,13.783,54.875,11.237,50,11z"/>
		<path style="fill-rule:evenodd;clip-rule:evenodd;fill:#9D9D9D;" d="M55,16c1,0,2,0,3,0c0.583-3.917-4.113-2.553-5-5
			c0.61-0.057,1.184-0.149,1-1c3.492,0.841,5.324,3.342,10,3c0.81,0.19,0.997,1.003,2,1c-1.158,1.479-1.158,2.521,0,4c-2,0-4,0-6,0
			C60.451,15.216,54.549,18.784,55,16z"/>
		<path style="fill-rule:evenodd;clip-rule:evenodd;fill:#AEADAD;" d="M78,15c-1.357,0.31-0.829,2.504-1,4c0,0.333,0,0.667,0,1
			c-2.396-0.605-4.562-1.438-8-1c-0.162-1.172-1.823-0.843-3-1c-1.158-1.479-1.158-2.521,0-4c0-0.333,0-0.667,0-1
			c1.352,0.314,1.91,1.423,4,1c1,0,2,0,3,0c1.333,0,2.667,0,4,0C77.851,13.816,77.943,14.39,78,15z"/>
		<path style="fill-rule:evenodd;clip-rule:evenodd;fill:#9D9D9D;" d="M10,21c9.527-7.139,30.015-3.319,40-10
			c4.875,0.237,1.845,2.783,0,4c-2.578,0.241,1.373,1.721,0,4c-2.643,0.773-7.745-3.697-6-1c0,0.333,0,0.667,0,1
			c-5.336-3.896-19.195-1.986-21,4c-0.423-2.09,0.686-2.648,1-4c-5.606,0.727-11.362,1.304-14,5C8.219,23.267,9.856,22.182,10,21z"
			/>
		<path style="fill-rule:evenodd;clip-rule:evenodd;fill:#BBBBBB;" d="M50,19c1.373-2.279-2.578-3.759,0-4
			c2.826-0.826,2.591,1.409,5,1c-0.451,2.784,5.451-0.784,5,2c-2.333,0-4.667,0-7,0c-1.454,0.443,0.102,0.878,0,2
			C51.385,20.282,51.278,19.055,50,19z"/>
		<path style="fill-rule:evenodd;clip-rule:evenodd;fill:#C5C4C4;" d="M84,16c0-0.333,0-0.667,0-1c1.758-0.575,5.875,1.208,6-1
			c0.667,0,1.333,0,2,0c1.333,0,2.667,0,4,0C93.018,17.86,90.21,15.68,84,16z"/>
		<path style="fill-rule:evenodd;clip-rule:evenodd;fill:#BBBBBB;" d="M104,20c-3.149,0.483-2.264-3.069-6-2c0-0.333,0-0.667,0-1
			c1.758-0.575,5.875,1.208,6-1c-1.759-0.241-2.279-1.721-2-4c0.61,0.057,1.184,0.149,1,1c1.671,3.329,4.798,5.203,10,5
			c0.61,0.057,1.184,0.149,1,1C109.551,18.217,107.998,20.332,104,20z"/>
		<path style="fill-rule:evenodd;clip-rule:evenodd;fill:#AEADAD;" d="M10,21c-0.144,1.182-1.781,2.267,0,3
			c2.638-3.696,8.394-4.273,14-5c-0.314,1.352-1.423,1.91-1,4c1.805-5.986,15.664-7.896,21-4c1.163-0.163,1.779,0.221,2,1
			c-7.662-0.662-10.68,3.32-18,3c0.315,2.352,4.74,0.593,4,4c-5.12,0.184-12.537,2.379-12,5c-2.558-0.044-1.219,0.743-1,2
			c-1.72,0.054-2.563-0.77-3-2c-2.456-3.435,6.624-2.246,7-6c-4.025-3.308-6.608,3.354-11,3C7.842,28.567,4.739,22.58,10,21z"/>
		<path style="fill-rule:evenodd;clip-rule:evenodd;fill:#BBBBBB;" d="M12,29c4.392,0.354,6.975-6.308,11-3
			c-0.376,3.754-9.456,2.565-7,6C13.494,32.173,13.572,29.761,12,29z"/>
		<path style="fill-rule:evenodd;clip-rule:evenodd;fill:#AEADAD;" d="M104,20c3.998,0.332,5.551-1.783,10-1
			c10.501,1.166,19.743,3.59,27,8c0.529,0.805,1.043,1.623,1,3c-5.03-3.456-8.292-3.339-12-5c-2.039,0.627-0.28,5.053-4,4
			c-0.282-1.615,0.945-1.722,1-3c-6.58-3.619-12.78-6.868-23-4C104,21.333,104,20.667,104,20z"/>
		<path style="fill-rule:evenodd;clip-rule:evenodd;fill:#BBBBBB;" d="M20,32c-0.537-2.621,6.88-4.816,12-5
			c0.74-3.407-3.685-1.648-4-4c7.32,0.32,10.338-3.662,18-3c1.966,1.701,6.184,1.149,8,3c-1,0-2,0-3,0c0.027,0.973,1.224,0.776,2,1
			c-3.766,3.951-13.364,5.464-12,9c-1.261,3.081-3.006-1.114-1-2c-3.782,5.058-15.506-1.564-17,2c-0.667,0-1.333,0-2,0
			C21.184,32.149,20.61,32.057,20,32z"/>
		<path style="fill-rule:evenodd;clip-rule:evenodd;fill:#C5C4C4;" d="M23,33c1.494-3.564,13.218,3.058,17-2
			c-2.006,0.886-0.261,5.081,1,2c-1.364-3.536,8.234-5.049,12-9c-0.776-0.224-1.973-0.027-2-1c1,0,2,0,3,0c2.667,0,5.333,0,8,0
			c0,0.333,0,0.667,0,1c-1.667,0-3.333,0-5,0c0.162,1.172,1.823,0.843,3,1c-0.611,0.933-2.327,3.688,1,3
			c-2.786,3.848-2.373-1.104-6,1c2.02,1.314,3.48,3.187,6,4c-2.857,0.117-4.141,1.735-8,3c0.248,1.086,1.988,0.679,2,2
			C42.674,37.992,32.341,35.992,23,33z"/>
		<path style="fill-rule:evenodd;clip-rule:evenodd;fill:#C5C4C4;" d="M100,24c7.889,0.111,10.606,5.394,18,6
			c-0.529,0.805-1.043,1.623-1,3c6.77-2.823,8.354,3.827,14,3c-0.19,0.81-1.003,0.997-1,2c-4.587,0.079-6.443,2.89-12,2
			c0.88-2.062-3.296-3.788-3-2c-3.062-0.979,0.446-3.371,1-4c-1.803-0.022-5.887,0.015-10,1c0.812-3.458-1.867-4.222,0-6
			c-1.667,0-3.333,0-5,0c3.178-1.876,0.761-2.124-1-4C100,24.667,100,24.333,100,24z"/>
		<path style="fill-rule:evenodd;clip-rule:evenodd;fill:#82817F;" d="M66,40c2.667,0,5.333,0,8,0c-0.28-3.386-1.591-5.742-1-10
			c3.007,1.326,0.74,7.927,3,10c0,0.333,0,0.667,0,1C74.9,39.125,68.064,43.059,66,40z"/>
		<path style="fill-rule:evenodd;clip-rule:evenodd;fill:#5D5B5A;" d="M130,38c1.454,0.443-0.102,0.878,0,2
			c-1.377-0.043-2.195,0.471-3,1c-0.333,0-0.667,0-1,0c-6.149,2.518-16.56,0.773-22,4c-0.333,0-0.667,0-1,0
			c-8.007-2.326-20.328-0.339-30-1c-0.667,0-1.333,0-2,0c-1.669-1.926-9.221-1.278-11,0c-0.027-0.973-1.224-0.776-2-1
			c-1.811-2.188-7.83-0.17-10-2c-1.667,0-3.333,0-5,0c-1.01-1.656-4.247-1.086-6-2c-6.981-0.686-12.666-2.667-18-5
			c-0.219-1.257-1.558-2.044,1-2c0.61,0.057,1.184,0.149,1,1c0.667,0,1.333,0,2,0c9.341,2.992,19.674,4.992,32,5
			c1.965,2.369,6.632,2.034,11,2c2.064,3.059,8.9-0.875,10,1c15.528-0.188,25.243,1.265,41-1c0.333,0,0.667,0,1,0
			C123.557,40.89,125.413,38.079,130,38z"/>
		<path style="fill-rule:evenodd;clip-rule:evenodd;fill:#B29986;" d="M37,39c1.753,0.914,4.99,0.344,6,2c0,0.667,0,1.333,0,2
			c-1,0-2,0-3,0c0.19,0.81,1.003,0.997,1,2C37.994,44.673,39.826,39.508,37,39z"/>
		<path style="fill-rule:evenodd;clip-rule:evenodd;fill:#C5C4C4;" d="M103,33c0,0.667,0,1.333,0,2c-1,0-2,0-3,0c0-1,0-2,0-3
			C101.615,31.718,101.722,32.945,103,33z"/>
		<path style="fill-rule:evenodd;clip-rule:evenodd;fill:#BBBBBB;" d="M144,33c-5.285,1.715-7.968,6.032-14,7
			c-0.102-1.122,1.454-1.557,0-2c-0.003-1.003,0.81-1.19,1-2c-5.646,0.827-7.23-5.823-14-3c-0.043-1.377,0.471-2.195,1-3
			c-7.394-0.606-10.111-5.889-18-6c0-0.333,0-0.667,0-1c0.31-1.357,2.504-0.83,4-1c10.22-2.868,16.42,0.381,23,4
			c-0.055,1.278-1.282,1.385-1,3c3.72,1.053,1.961-3.373,4-4c3.708,1.661,6.97,1.544,12,5c0.043-1.377-0.471-2.195-1-3
			c1.427,0.239,1.687,1.646,3,2C144,30.333,144,31.667,144,33z"/>
		<path style="fill-rule:evenodd;clip-rule:evenodd;fill:#9B6F5A;" d="M41,45c0.003-1.003-0.81-1.19-1-2c1,0,2,0,3,0
			c2.59-0.171,7.953,0.86,5-2c2.17,1.83,8.189-0.188,10,2c-4.777,0.357-5.239,0.569-9,3c0.89,0.776,2.258,1.075,4,1
			C49.972,49.31,43.305,46.733,41,45z"/>
		<path style="fill-rule:evenodd;clip-rule:evenodd;fill:#9B6F5A;" d="M111,47c-3.649,0.649-5.326-0.674-7-2
			c5.44-3.227,15.851-1.482,22-4c0,0.667,0,1.333,0,2c-3.322,1.678-8.898,1.102-11,4C113.667,47,112.333,47,111,47z"/>
		<path style="fill-rule:evenodd;clip-rule:evenodd;fill:#B29986;" d="M126,41c0.333,0,0.667,0,1,0c1.427,8.11-10.948,7.695-16,6
			c1.333,0,2.667,0,4,0c5.024,0.024,9.057-0.943,11-4C126,42.333,126,41.667,126,41z"/>
		<path style="fill-rule:evenodd;clip-rule:evenodd;fill:#EBE9E8;" d="M82,0c-0.003,1.003,0.81,1.19,1,2
			c-4.408-0.258-7.735-1.598-13-1c-0.61-0.057-1.184-0.149-1-1C73.333,0,77.667,0,82,0z"/>
		<path style="fill-rule:evenodd;clip-rule:evenodd;fill:#AB9253;" d="M80,14c-0.81,0.19-0.997,1.003-2,1
			c-0.057-0.61-0.149-1.184-1-1c0.593-3.657-3.373-7.896,2-8C78.231,9.769,80.22,10.78,80,14z"/>
		<path style="fill-rule:evenodd;clip-rule:evenodd;fill:#C5C4C4;" d="M60,18c2,0,4,0,6,0c1.177,0.157,2.838-0.172,3,1
			c-3.37,0.761-13.865-1.843-11,2c-2.409,0.409-2.174-1.826-5-1c0.102-1.122-1.454-1.557,0-2C55.333,18,57.667,18,60,18z"/>
		<path style="fill-rule:evenodd;clip-rule:evenodd;fill:#5D5B5A;" d="M50,19c1.278,0.055,1.385,1.282,3,1
			c2.826-0.826,2.591,1.409,5,1c0.125,2.208,4.242,0.425,6,1c-0.027,0.973-1.224,0.776-2,1c-2.667,0-5.333,0-8,0
			c-1.816-1.851-6.034-1.299-8-3c-0.221-0.779-0.837-1.163-2-1c0-0.333,0-0.667,0-1C42.255,15.303,47.357,19.773,50,19z"/>
		<path style="fill-rule:evenodd;clip-rule:evenodd;fill:#82817F;" d="M64,22c10.924-0.59,18.915,1.751,30,1c1,0,2,0,3,0
			c-1.4,2.933-9.6-0.933-11,2c-9.072,0.739-15.516-1.15-24-1c0-0.333,0-0.667,0-1C62.776,22.776,63.973,22.973,64,22z"/>
		<path style="fill-rule:evenodd;clip-rule:evenodd;fill:#CCCCCC;" d="M55,38c-0.012-1.321-1.752-0.914-2-2
			c3.859-1.265,5.143-2.883,8-3c-2.52-0.813-3.98-2.686-6-4c3.627-2.104,3.214,2.848,6-1c-3.327,0.688-1.611-2.067-1-3
			c-1.177-0.157-2.838,0.172-3-1c1.667,0,3.333,0,5,0c8.484-0.15,14.928,1.739,24,1c1.725,1.658,10.275,1.658,12,0
			c0.667,0,1.333,0,2,0c1.761,1.876,4.178,2.124,1,4c1.667,0,3.333,0,5,0c-1.867,1.778,0.812,2.542,0,6
			c4.113-0.985,8.197-1.022,10-1c-0.554,0.629-4.062,3.021-1,4c-0.296-1.788,3.88-0.062,3,2c-0.333,0-0.667,0-1,0
			c-13.667,0-27.333,0-41,0c-2.26-2.073,0.007-8.674-3-10c-0.591,4.258,0.72,6.614,1,10c-2.667,0-5.333,0-8,0
			C61.632,40.034,56.965,40.369,55,38z M100,32c0,1,0,2,0,3c1,0,2,0,3,0c0-0.667,0-1.333,0-2C101.722,32.945,101.615,31.718,100,32z
			"/>
		<path style="fill-rule:evenodd;clip-rule:evenodd;fill:#9D9D9D;" d="M100,24c0,0.333,0,0.667,0,1c-0.667,0-1.333,0-2,0
			c-4,0-8,0-12,0c1.4-2.933,9.6,0.933,11-2c1,0,2,0,3,0C100,23.333,100,23.667,100,24z"/>
		<path style="fill-rule:evenodd;clip-rule:evenodd;fill:#AEADAD;" d="M76,40c13.667,0,27.333,0,41,0
			c-15.757,2.265-25.472,0.812-41,1C76,40.667,76,40.333,76,40z"/>
		<path style="fill-rule:evenodd;clip-rule:evenodd;fill:#AEADAD;" d="M60,44c1.779-1.278,9.331-1.926,11,0
			c-4.1-0.1-8.197-0.196-11,1C60,44.667,60,44.333,60,44z"/>
		<path style="fill-rule:evenodd;clip-rule:evenodd;fill:#BBBBBB;" d="M73,44c9.672,0.661,21.993-1.326,30,1c-1,0-2,0-3,0
			c-7,0-14,0-21,0C77.242,44.425,73.125,46.209,73,44z"/>
		<path style="fill-rule:evenodd;clip-rule:evenodd;fill:#CCCCCC;" d="M84,16c6.21-0.32,9.018,1.86,12-2c1.796-0.129,2.34,0.993,2,3
			c0,0.333,0,0.667,0,1c-3.156-0.489-3.531,1.802-7,1c-0.877,3.21,2.594,2.073,3,4c-11.085,0.751-19.076-1.59-30-1
			c-1.758-0.575-5.875,1.208-6-1c-2.865-3.843,7.63-1.239,11-2c3.438-0.438,5.604,0.395,8,1c0-0.333,0-0.667,0-1c1,0,2,0,3,0
			c1.229,2.435,6.021,0.115,7-1c-2.279,0.279-3.759-0.241-4-2C83.333,16,83.667,16,84,16z"/>
		<path style="fill-rule:evenodd;clip-rule:evenodd;fill:#BBBBBB;" d="M77,19c0.171-1.496-0.357-3.69,1-4c1.003,0.003,1.19-0.81,2-1
			c0.31,1.357,2.504,0.83,4,1c0,0.333,0,0.667,0,1c-0.333,0-0.667,0-1,0c-4.708-1.063,2.021,3.75-3,3C79,19,78,19,77,19z"/>
	</g>
</g>
</svg>
