<?xml version="1.0" encoding="iso-8859-1"?>
<!-- Generator: Adobe Illustrator 13.0.2, SVG Export Plug-In . SVG Version: 6.00 Build 14948)  -->
<!DOCTYPE svg PUBLIC "-//W3C//DTD SVG 1.1//EN" "http://www.w3.org/Graphics/SVG/1.1/DTD/svg11.dtd">
<svg version="1.1" id="Layer_1" xmlns="http://www.w3.org/2000/svg" xmlns:xlink="http://www.w3.org/1999/xlink" x="0px" y="0px"
	 width="144px" height="52px" viewBox="0 0 144 52" style="enable-background:new 0 0 144 52;" xml:space="preserve">
<g>
	<g>
		<path style="fill-rule:evenodd;clip-rule:evenodd;fill:#B6A144;" d="M80,14c-1,0-2,0-3,0c0.318-4.809,0.844-3.612,1-9
			C80.335,5.442,78.708,12.386,80,14z"/>
		<path style="fill-rule:evenodd;clip-rule:evenodd;fill:#B6A144;" d="M72,13c-0.221,0.779-0.837,1.163-2,1c0-0.333,0-0.667,0-1
			c0.876-3.124,2.719-5.281,4-8C76.242,6.666,72.165,10.432,72,13z"/>
		<path style="fill-rule:evenodd;clip-rule:evenodd;fill:#B6A144;" d="M66,12c-0.667,0-1.333,0-2,0c-0.178-3.511,3.378-3.289,4-6
			C70.809,7.603,65.832,9.737,66,12z"/>
		<path style="fill-rule:evenodd;clip-rule:evenodd;fill:#B6A144;" d="M86,14c-0.057,0.61-0.149,1.184-1,1
			c-0.057-0.61-0.149-1.184-1-1c-0.986-2.347-1.754-4.913-2-8C84.821,7.179,85.042,10.958,86,14z"/>
		<path style="fill-rule:evenodd;clip-rule:evenodd;fill:#F2F21D;" d="M98,18c1.333,0,2.667,0,4,0c2.453,0.88,5.767,0.9,6,4
			c-3.22-0.22-4.231,1.769-8,1c-0.057-0.61-0.149-1.184-1-1c-0.239-1.427-1.646-1.687-2-3C97.61,18.943,98.184,18.851,98,18z"/>
		<path style="fill-rule:evenodd;clip-rule:evenodd;fill:#CCCCCC;" d="M63,33c-0.529,0.805-1.043,1.623-1,3c-2,0-4,0-6,0
			c0.777-0.89,1.075-2.258,1-4C60.044,33.493,60.889,31.672,63,33z"/>
		<path style="fill-rule:evenodd;clip-rule:evenodd;fill:#DCD7D6;" d="M13,27c-2.349-1.034-7.998-3.936-5-7
			C8.134,23.866,12.056,23.944,13,27z"/>
		<path style="fill-rule:evenodd;clip-rule:evenodd;fill:#B6A144;" d="M90,14c-1.393-1.273-0.435-4.898-3-5
			c1.677-2.254,3.774,3.492,5,5C91.753,15.258,90.012,15.009,90,14z"/>
		<path style="fill-rule:evenodd;clip-rule:evenodd;fill:#918883;" d="M51,9c1.904-0.429,2.512-2.154,5-2
			c1.464,0.87,3.169,1.497,3,4c1.583,0.083,3.814-0.481,4,1c-2.599-0.599-3.599,0.401-3,3c-1.333,0-2.667,0-4,0
			c-2.409,0.409-2.174-1.826-5-1c-0.027-0.973-1.224-0.776-2-1C47.764,9.764,52.236,12.236,51,9z"/>
		<path style="fill-rule:evenodd;clip-rule:evenodd;fill:#BBBBBB;" d="M97,9c1.187,2.813,7.469,0.531,7,5
			c-2.218-2.642-3.322,3.102-2,4c-1.333,0-2.667,0-4,0c-0.367-1.701,0.78-1.887,2-2c0.164-2.831-6.164,0.831-6-2
			c2.826,0.826,2.591-1.409,5-1C99.729,10.271,97.013,10.987,97,9z"/>
		<path style="fill-rule:evenodd;clip-rule:evenodd;fill:#AAA8A6;" d="M44,13c2.735-0.931,4.265-3.069,7-4
			c1.236,3.236-3.236,0.764-2,4c0.776,0.224,1.973,0.027,2,1c-2.767-0.169-3.433,1.536-2,3c-0.333,0-0.667,0-1,0
			c-0.279-2.054-2.671-1.996-4-3C44,13.667,44,13.333,44,13z"/>
		<path style="fill-rule:evenodd;clip-rule:evenodd;fill:#918883;" d="M44,18c-0.558-2.039-3.009-1.961-1-4c0.333,0,0.667,0,1,0
			c1.329,1.004,3.721,0.946,4,3c-1.904-0.429-2.512-2.154-5-2c0.299,2.701,4.207,1.793,5,4C46.207,19.127,45.891,17.776,44,18z"/>
		<path style="fill-rule:evenodd;clip-rule:evenodd;fill:#BBBBBB;" d="M70,14c1.163,0.163,1.779-0.221,2-1
			c2.319-0.319,3.839,0.161,5,1c1,0,2,0,3,0c1.333,0,2.667,0,4,0c0.851-0.184,0.943,0.39,1,1c-1.176,3.01-5.187,0.134-7,4
			c-0.667,0-1.333,0-2,0c0.169-2.168-3.547-0.453-5-1C73.023,14.794,67.043,14.873,70,14z"/>
		<path style="fill-rule:evenodd;clip-rule:evenodd;fill:#BBBBBB;" d="M51,14c2.826-0.826,2.591,1.409,5,1
			c0.027,0.973,1.224,0.776,2,1c0,0.333,0,0.667,0,1c-1.701-0.368-1.887,0.78-2,2c-2.611-0.389-5.487-0.513-7-2
			C47.567,15.536,48.233,13.831,51,14z"/>
		<path style="fill-rule:evenodd;clip-rule:evenodd;fill:#C1C1C0;" d="M78,19c1.813-3.866,5.824-0.99,7-4
			c0.851,0.184,0.943-0.39,1-1c1.333,0,2.667,0,4,0c0.012,1.009,1.753,1.258,2,0c0.667,0,1.333,0,2,0c-0.164,2.831,6.164-0.831,6,2
			c-1.22,0.113-2.367,0.299-2,2c0.184,0.851-0.39,0.943-1,1c-2.599,0.599-3.599-0.401-3-3c-3.129,0.204-7.341-0.674-9,1
			c0.027,0.973,1.224,0.776,2,1c-0.649,1.017-2.299,1.034-2,3c2.695,2.304,9.645,0.355,14,1c0.851-0.184,0.943,0.39,1,1
			c-7.267,0.45-9.214,0.069-17,0c0.424-2.09-0.686-2.648-1-4C80.667,19,79.333,19,78,19z"/>
		<path style="fill-rule:evenodd;clip-rule:evenodd;fill:#BBBBBB;" d="M17,29c0.333,0,0.667,0,1,0c-1.002-2.665-4.036-3.297-6-5
			c4.13-5.121,18.08-0.1,14-4c3.356,0.454,13.936-3.289,18-2c1.891-0.224,2.207,1.127,4,1c2.611,0.389,5.487,0.513,7,2
			c-0.667,0-1.333,0-2,0c-2.813,2.854-8.503,2.83-12,5c1.977,1.689,6.241,1.092,9,2c-6.339,2.938-10.706-2.918-16,1
			c0.19-0.81,1.003-0.997,1-2c-3.658-0.658-3.836,2.164-7,2c-0.282,1.615,0.945,1.722,1,3c-3.316-0.394-8.383-4.226-11-2
			C17.149,30.184,17.057,29.61,17,29z"/>
		<path style="fill-rule:evenodd;clip-rule:evenodd;fill:#C1C1C0;" d="M34,29c5.294-3.918,9.661,1.938,16-1
			c-2.759-0.908-7.023-0.311-9-2c3.497-2.17,9.187-2.146,12-5c0.426,1.907,2.857,1.81,2,5c-1.086-0.248-0.678-1.988-2-2
			c-0.81,0.19-0.997,1.003-2,1c0.013,1.987,2.729,1.271,2,4c2.781-0.687,9.146-0.142,11,3c-4.393-0.487-12.1-0.407-14-6
			c-2.954,0.869,2.32,1.497,1,4c-4.184-0.451-4.183,3.748-6-1c-2.909,0.869-1.125,1.497-1,4c-2.483-1.184-5.886-1.448-9-2
			c-1.454,0.443,0.102,0.878,0,2c-2.09,0.424-2.648-0.686-4-1c-0.027-0.973-1.224-0.776-2-1C29.85,29.517,31.517,28.85,34,29z"/>
		<path style="fill-rule:evenodd;clip-rule:evenodd;fill:#CCCCCC;" d="M58,17c4.968,1.699,11.245,2.088,18,2c0.667,0,1.333,0,2,0
			c1.333,0,2.667,0,4,0c0.314,1.352,1.424,1.91,1,4c-4.729,0.395-8.346-0.321-12-1c-4.605-1.395-10.256-1.744-15-3
			C56.113,17.78,56.299,16.632,58,17z"/>
		<path style="fill-rule:evenodd;clip-rule:evenodd;fill:#AAA8A6;" d="M139,30c-1.394,1.65-7.278-0.664-9-2
			c-2.63-0.296-0.787,3.88-4,3c1.464-6.601-14.751-9.939-20-7c0.247-1.086,1.988-0.678,2-2c-0.233-3.1-3.547-3.12-6-4
			c-1.322-0.898-0.218-6.642,2-4c5.297,8.036,17.527,9.139,28,12C133.33,28.337,136.468,28.865,139,30z"/>
		<path style="fill-rule:evenodd;clip-rule:evenodd;fill:#AAA8A6;" d="M128,38c0.136-2.864,6.864,0.864,7-2
			c1.377,1.001-0.427,1.648,2,3c-0.658,1.342-2.138,1.862-4,2c-0.333,0-0.667,0-1,0c-4.31-0.954-14.666,0.649-22,0
			C113.064,38.199,132.823,42.094,128,38z"/>
		<path style="fill-rule:evenodd;clip-rule:evenodd;fill:#C1C1C0;" d="M95,26c0-0.333,0-0.667,0-1c2.667,0,5.333,0,8,0
			c1.333,0,2.667,0,4,0c0.184,0.851-0.39,0.943-1,1c3.975,1.358,5.365,5.302,11,5c0.282,1.615-0.945,1.722-1,3
			c2.927-1.404,4.915,1.147,7-2c2.7,0.895-0.464,4.059-3,3c-0.175,2.841,6.542-1.209,5,3c-1.163-0.162-1.779,0.221-2,1
			c-1.73-2.673-2.93-0.167-4-4c-2.081,0.565-3.232,2.857-5,1c0.19-1.135,1.003-0.556,1,0c1.454-0.443-0.102-0.878,0-2
			c-1.794-0.127-2.109,1.225-4,1c0.503-3.265-4.973-2.12-2-5c-1.109,0.041-6.305,1.115-7-4c-1.333,0-2.667,0-4,0C97,26,96,26,95,26z
			"/>
		<path style="fill-rule:evenodd;clip-rule:evenodd;fill:#CCCCCC;" d="M85,32c0.333,0,0.667,0,1,0c1.489,2.511,2.492,5.508,5,7
			c-0.431,2.236-4.929,0.405-7,1c-6.761-0.573-12.703-1.964-20-2c-2.18-2.091,0.5-2.854,0-6c2.913,1.612,4.959,0.521,7,0
			c-3.437-2.373-5.187-1.613-12-3c0.465-1.63,7.556-1.65,4-4c0.431-2.236,4.928-0.405,7-1c5.719-0.719,8.934,1.067,14,1
			c-2.194,3.35,1.514,6.386-2,8C82.977,36.313,83.977,31.883,85,32z"/>
		<path style="fill-rule:evenodd;clip-rule:evenodd;fill:#C7C6C6;" d="M70,24c-2.072,0.595-6.569-1.236-7,1
			c3.556,2.35-3.535,2.37-4,4c6.813,1.387,8.563,0.627,12,3c-2.041,0.521-4.087,1.612-7,0c0.5,3.146-2.18,3.909,0,6
			c-9.769-1.564-19.574-3.093-29-5c0.102-1.122-1.454-1.557,0-2c3.114,0.552,6.517,0.816,9,2c-0.125-2.503-1.909-3.131,1-4
			c1.817,4.748,1.816,0.549,6,1c1.32-2.503-3.954-3.131-1-4c1.9,5.593,9.607,5.513,14,6c-1.854-3.142-8.219-3.687-11-3
			c0.729-2.729-1.987-2.013-2-4c1.003,0.003,1.19-0.81,2-1c1.322,0.012,0.914,1.752,2,2c0.857-3.19-1.574-3.093-2-5
			c0.667,0,1.333,0,2,0c4.67,0.996,8.856,2.478,15,2C70,23.333,70,23.667,70,24z M57,32c0.075,1.742-0.223,3.11-1,4c2,0,4,0,6,0
			c-0.043-1.377,0.471-2.195,1-3C60.889,31.672,60.044,33.493,57,32z"/>
		<path style="fill-rule:evenodd;clip-rule:evenodd;fill:#BBBBBB;" d="M84,25c3.667,0,7.333,0,11,0c0,0.333,0,0.667,0,1
			c-2.667,0-5.333,0-8,0c-1.172,0.161-0.844,1.823-1,3c-1.172,0.161-0.844,1.823-1,3c-1.023-0.117-2.023,4.313-3,1
			C85.514,31.386,81.806,28.35,84,25z"/>
		<path style="fill-rule:evenodd;clip-rule:evenodd;fill:#C7C6C6;" d="M98,26c1.333,0,2.667,0,4,0c0.695,5.115,5.891,4.041,7,4
			c-2.973,2.88,2.503,1.735,2,5c1.891,0.225,2.206-1.127,4-1c-0.102,1.122,1.454,1.557,0,2c0.003-0.556-0.81-1.135-1,0
			c1.768,1.857,2.919-0.435,5-1c1.07,3.833,2.27,1.327,4,4c0.221-0.779,0.837-1.162,2-1c1,0,2,0,3,0c4.823,4.094-14.936,0.199-18,3
			c-1,0-2,0-3,0c-0.161-1.172-1.823-0.844-3-1c-2.156-2.187,0.256-2.147,3-2c-0.013-1.987-2.729-1.271-2-4
			c-3.059-0.726-2.941,1.726-6,1c0.549-3.988,0.549-3.012,0-7c-0.933,0.611-3.688,2.327-3-1C97.163,27.162,97.779,26.779,98,26z"/>
		<path style="fill-rule:evenodd;clip-rule:evenodd;fill:#CCCCCC;" d="M104,40c-3.667,0-7.333,0-11,0c-2.127-3.873-4.926-7.074-7-11
			c0.156-1.177-0.172-2.839,1-3c2.667,0,5.333,0,8,0c1,0,2,0,3,0c-0.221,0.779-0.837,1.162-2,1c-0.688,3.327,2.067,1.611,3,1
			c0.549,3.988,0.549,3.012,0,7c3.059,0.726,2.941-1.726,6-1c-0.729,2.729,1.987,2.013,2,4C104.256,37.853,101.844,37.813,104,40z"
			/>
		<path style="fill-rule:evenodd;clip-rule:evenodd;fill:#AAA8A6;" d="M34,29c-2.483-0.15-4.15,0.517-5,2
			c0.776,0.224,1.973,0.027,2,1c-0.667,0-1.333,0-2,0c-0.055-1.278-1.282-1.385-1-3c3.164,0.164,3.342-2.658,7-2
			C35.003,28.003,34.19,28.19,34,29z"/>
		<path style="fill-rule:evenodd;clip-rule:evenodd;fill:#9E765A;" d="M51,43c0.578-1.213,3.776,0.651,6-1
			c0.715-2.716-4.715,0.716-4-2c5.97,1.03,12.89,1.11,18,3c-3.078-0.745-1.922,2.745-5,2c0.19-0.81,1.003-0.997,1-2
			c-1.806,0.606-7.771,2.123-6,3c0,0.333,0,0.667,0,1c-3.156,0.489-3.531-1.802-7-1C52.56,45.44,51.56,44.44,51,43z"/>
		<path style="fill-rule:evenodd;clip-rule:evenodd;fill:#AAA8A6;" d="M85,32c0.156-1.177-0.172-2.839,1-3
			c2.074,3.926,4.873,7.127,7,11c3.667,0,7.333,0,11,0c1.177,0.156,2.839-0.172,3,1c-9.388-0.503-16.583,0.811-23-1
			c2.071-0.595,6.569,1.236,7-1c-2.508-1.492-3.511-4.489-5-7C85.667,32,85.333,32,85,32z"/>
		<path style="fill-rule:evenodd;clip-rule:evenodd;fill:#BBBBBB;" d="M139,30c3.078-0.745,1.922,2.745,5,2c0,1.333,0,2.667,0,4
			c-3.073,0.261-4.497,2.17-7,3c-2.427-1.352-0.623-1.999-2-3c-0.136,2.864-6.864-0.864-7,2c-1,0-2,0-3,0
			c1.542-4.209-5.175-0.159-5-3c2.536,1.059,5.7-2.105,3-3c-2.085,3.147-4.073,0.596-7,2c0.055-1.278,1.282-1.385,1-3
			c-5.635,0.302-7.025-3.642-11-5c0.61-0.057,1.184-0.149,1-1c-1.333,0-2.667,0-4,0c0.161-1.172,1.823-0.843,3-1
			c5.249-2.939,21.464,0.399,20,7c3.213,0.88,1.37-3.296,4-3C131.722,29.336,137.606,31.65,139,30z"/>
		<path style="fill-rule:evenodd;clip-rule:evenodd;fill:#918883;" d="M51,43c-1.357-0.31-0.83-2.504-1-4
			c0.804,0.529,1.624,1.043,3,1c-0.715,2.716,4.715-0.716,4,2C54.776,43.651,51.578,41.787,51,43z"/>
		<path style="fill-rule:evenodd;clip-rule:evenodd;fill:#918883;" d="M133,41c-0.896,2.104-1.555,4.445-3,6c-0.667,0-1.333,0-2,0
			c-4.259-0.876-8.871,3.062-12,0c5.361-2.541,9.166-0.682,15-3c0-0.667,0-1.333,0-2c-0.184-0.851,0.39-0.943,1-1
			C132.333,41,132.667,41,133,41z"/>
		<path style="fill-rule:evenodd;clip-rule:evenodd;fill:#FFFFFF;" d="M144,36c0,5.333,0,10.667,0,16c-48,0-96,0-144,0
			C0,34.667,0,17.333,0,0c23,0,46,0,69,0c-0.248,1.086-1.988,0.678-2,2c-4.453,0.88-9.267,1.4-11,5c-2.488-0.154-3.096,1.571-5,2
			c-2.735,0.931-4.265,3.069-7,4c-3.695,0.638-9.961-1.295-12,1c-8.486,1.514-18.527,1.473-24,6c-2.998,3.064,2.651,5.966,5,7
			c1.987,0.013,1.271,2.729,4,2c0.057,0.61,0.149,1.184,1,1c8.551,5.115,19.805,7.529,32,9c0.17,1.496-0.357,3.69,1,4
			c0.56,1.44,1.56,2.44,3,3c1.624,2.086,9.428,3.181,12,1c4.358,1.357,3.618-2.382,6-3c3.667,0,7.333,0,11,0
			c1.387,2.28,6.961,0.373,10,1c1.725,1.658,10.275,1.658,12,0c1,0,2,0,3,0c1.162-0.162,1.779,0.221,2,1
			c2.321,3.653,14.745,4.527,18,1c0.667,0,1.333,0,2,0c1.445-1.555,2.104-3.896,3-6c1.862-0.138,3.342-0.658,4-2
			C139.503,38.17,140.927,36.261,144,36z"/>
		<path style="fill-rule:evenodd;clip-rule:evenodd;fill:#DCD7D6;" d="M69,0c3.667,0,7.333,0,11,0c0.19,0.81,1.003,0.997,1,2
			c-4.671-1.553-9.094-0.732-14,0C67.012,0.678,68.752,1.086,69,0z"/>
		<path style="fill-rule:evenodd;clip-rule:evenodd;fill:#9E765A;" d="M56,7c1.733-3.6,6.547-4.12,11-5
			c4.906-0.732,9.329-1.553,14,0c7.28,0.386,11.393,3.941,16,7c0.013,1.987,2.729,1.271,2,4c-2.409-0.409-2.174,1.826-5,1
			c-0.667,0-1.333,0-2,0c-1.226-1.508-3.323-7.254-5-5c2.565,0.102,1.607,3.727,3,5c-1.333,0-2.667,0-4,0
			c-0.958-3.042-1.179-6.821-4-8c0.246,3.087,1.014,5.653,2,8c-1.333,0-2.667,0-4,0c-1.292-1.614,0.335-8.558-2-9
			c-0.156,5.388-0.682,4.191-1,9c-1.161-0.839-2.681-1.319-5-1c0.165-2.568,4.242-6.334,2-8c-1.281,2.719-3.124,4.876-4,8
			c-2.09,0.423-2.648-0.686-4-1c-0.168-2.263,4.809-4.397,2-6c-0.622,2.711-4.178,2.489-4,6c-0.333,0-0.667,0-1,0
			c-0.186-1.481-2.417-0.917-4-1C59.169,8.497,57.464,7.87,56,7z"/>
		<path style="fill-rule:evenodd;clip-rule:evenodd;fill:#EAE7E6;" d="M32,14c2.039-2.295,8.305-0.362,12-1c0,0.333,0,0.667,0,1
			c-0.333,0-0.667,0-1,0C39.333,14,35.667,14,32,14z"/>
		<path style="fill-rule:evenodd;clip-rule:evenodd;fill:#AAA8A6;" d="M63,12c0.333,0,0.667,0,1,0c0.667,0,1.333,0,2,0
			c1.352,0.314,1.91,1.423,4,1c0,0.333,0,0.667,0,1c-2.957,0.873,3.023,0.794,1,4c-4.798-0.202-8.462-1.538-13-2
			c-0.776-0.224-1.973-0.027-2-1c1.333,0,2.667,0,4,0C59.401,12.401,60.401,11.401,63,12z"/>
		<path style="fill-rule:evenodd;clip-rule:evenodd;fill:#AAA8A6;" d="M8,20c5.473-4.527,15.514-4.486,24-6c3.667,0,7.333,0,11,0
			c-2.009,2.039,0.442,1.961,1,4c-4.064-1.289-14.644,2.454-18,2c4.08,3.9-9.87-1.121-14,4c1.964,1.703,4.998,2.335,6,5
			c-0.333,0-0.667,0-1,0c-2.729,0.729-2.013-1.987-4-2C12.056,23.944,8.134,23.866,8,20z"/>
		<path style="fill-rule:evenodd;clip-rule:evenodd;fill:#CCCCCC;" d="M99,22c-4.355-0.645-11.305,1.304-14-1
			c-0.299-1.966,1.351-1.983,2-3c-0.776-0.224-1.973-0.027-2-1c1.659-1.674,5.871-0.796,9-1c-0.599,2.599,0.401,3.599,3,3
			C97.354,20.313,98.761,20.573,99,22z"/>
		<path style="fill-rule:evenodd;clip-rule:evenodd;fill:#C1C1C0;" d="M58,16c4.538,0.462,8.202,1.798,13,2
			c1.453,0.547,5.169-1.168,5,1c-6.755,0.088-13.032-0.301-18-2C58,16.667,58,16.333,58,16z"/>
		<path style="fill-rule:evenodd;clip-rule:evenodd;fill:#5D5A59;" d="M56,19c4.744,1.256,10.395,1.605,15,3
			c0.184,0.851-0.39,0.943-1,1c-6.144,0.478-10.33-1.004-15-2c-1.513-1.487-4.389-1.611-7-2c-0.793-2.207-4.701-1.299-5-4
			c2.488-0.154,3.096,1.571,5,2c0.333,0,0.667,0,1,0C50.513,18.487,53.389,18.611,56,19z"/>
		<path style="fill-rule:evenodd;clip-rule:evenodd;fill:#918883;" d="M83,23c7.786,0.069,9.733,0.45,17,0
			c3.769,0.769,4.78-1.22,8-1c-0.012,1.322-1.753,0.914-2,2c-1.177,0.157-2.839-0.172-3,1c-2.667,0-5.333,0-8,0
			c-3.667,0-7.333,0-11,0c-5.066,0.067-8.281-1.719-14-1c0-0.333,0-0.667,0-1c0.61-0.057,1.184-0.149,1-1
			C74.654,22.679,78.271,23.395,83,23z"/>
		<path style="fill-rule:evenodd;clip-rule:evenodd;fill:#DCD7D6;" d="M132,26c2.977,0.357,5.074,1.593,7,3c0,0.333,0,0.667,0,1
			C136.468,28.865,133.33,28.337,132,26z"/>
		<path style="fill-rule:evenodd;clip-rule:evenodd;fill:#5D5A59;" d="M35,33c9.426,1.907,19.231,3.436,29,5
			c7.297,0.036,13.239,1.427,20,2c6.417,1.811,13.612,0.497,23,1c1,0,2,0,3,0c7.334,0.649,17.69-0.954,22,0
			c-0.61,0.057-1.184,0.149-1,1c-7.156,1.177-14.154,2.513-23,2c-5,0-10,0-15,0c-1.333,0-2.667,0-4,0c-1.712-2.288-7.633-0.367-11-1
			c-0.625-2.136-6.155-0.938-7,0c-5.11-1.89-12.03-1.97-18-3c-1.376,0.043-2.196-0.471-3-1c-12.195-1.471-23.449-3.885-32-9
			c2.617-2.226,7.684,1.606,11,2c0.667,0,1.333,0,2,0C32.352,32.314,32.91,33.424,35,33z"/>
		<path style="fill-rule:evenodd;clip-rule:evenodd;fill:#AAA8A6;" d="M78,43c3.367,0.633,9.288-1.288,11,1c-2,0-4,0-6,0
			c-3.667,0-7.333,0-11,0C72.125,41.791,76.242,43.575,78,43z"/>
		<path style="fill-rule:evenodd;clip-rule:evenodd;fill:#DCD7D6;" d="M89,44c1.333,0,2.667,0,4,0c0,0.333,0,0.667,0,1
			c-3.039-0.627-8.613,1.28-10-1C85,44,87,44,89,44z"/>
		<path style="fill-rule:evenodd;clip-rule:evenodd;fill:#BBBBBB;" d="M93,44c5,0,10,0,15,0c0,0.333,0,0.667,0,1c-1,0-2,0-3,0
			c-4,0-8,0-12,0C93,44.667,93,44.333,93,44z"/>
		<path style="fill-rule:evenodd;clip-rule:evenodd;fill:#F5F4F4;" d="M93,45c4,0,8,0,12,0C103.275,46.658,94.725,46.658,93,45z"/>
		<path style="fill-rule:evenodd;clip-rule:evenodd;fill:#918883;" d="M72,44c-2.382,0.618-1.642,4.357-6,3c-1.667,0-3.333,0-5,0
			c0-0.333,0-0.667,0-1c-1.771-0.877,4.194-2.394,6-3c0.003,1.003-0.81,1.19-1,2c3.078,0.745,1.922-2.745,5-2
			c0.845-0.938,6.375-2.136,7,0C76.242,43.575,72.125,41.791,72,44z"/>
		<path style="fill-rule:evenodd;clip-rule:evenodd;fill:#9E765A;" d="M116,47c-3.056,0.723-3.645-1.022-6-1
			c-0.221-0.779-0.838-1.162-2-1c0-0.333,0-0.667,0-1c8.846,0.513,15.844-0.823,23-2c0,0.667,0,1.333,0,2
			C125.166,46.318,121.361,44.459,116,47z"/>
		<path style="fill-rule:evenodd;clip-rule:evenodd;fill:#AAA8A6;" d="M54,46c3.469-0.802,3.844,1.489,7,1c1.667,0,3.333,0,5,0
			C63.428,49.181,55.624,48.086,54,46z"/>
		<path style="fill-rule:evenodd;clip-rule:evenodd;fill:#DCD7D6;" d="M110,46c2.355-0.022,2.944,1.723,6,1
			c3.129,3.062,7.741-0.876,12,0C124.745,50.527,112.321,49.653,110,46z"/>
		<path style="fill-rule:evenodd;clip-rule:evenodd;fill:#FFFFFF;" d="M80,0c21.333,0,42.667,0,64,0c0,10.667,0,21.333,0,32
			c-3.078,0.745-1.922-2.745-5-2c0-0.333,0-0.667,0-1c-1.926-1.407-4.023-2.643-7-3c-10.473-2.861-22.703-3.964-28-12
			c0.469-4.469-5.813-2.187-7-5c-4.607-3.059-8.72-6.614-16-7C81.003,0.997,80.19,0.81,80,0z"/>
	</g>
</g>
</svg>
