<?xml version="1.0" encoding="iso-8859-1"?>
<!-- Generator: Adobe Illustrator 13.0.2, SVG Export Plug-In . SVG Version: 6.00 Build 14948)  -->
<!DOCTYPE svg PUBLIC "-//W3C//DTD SVG 1.1//EN" "http://www.w3.org/Graphics/SVG/1.1/DTD/svg11.dtd">
<svg version="1.1" id="Layer_1" xmlns="http://www.w3.org/2000/svg" xmlns:xlink="http://www.w3.org/1999/xlink" x="0px" y="0px"
	 width="144px" height="52px" viewBox="0 0 144 52" style="enable-background:new 0 0 144 52;" xml:space="preserve">
<g>
	<g>
		<path style="fill-rule:evenodd;clip-rule:evenodd;fill:#B49E40;" d="M73,12c0.261-3.073,2.17-4.497,3-7
			c2.782,1.888-2.55,4.038-1,8C73.997,13.003,73.81,12.19,73,12z"/>
		<path style="fill-rule:evenodd;clip-rule:evenodd;fill:#B49E40;" d="M80,13c0-2,0-4,0-6c2.035,0.965,2.16,3.84,2,7
			c-0.667,0-1.333,0-2,0C80,13.667,80,13.333,80,13z"/>
		<path style="fill-rule:evenodd;clip-rule:evenodd;fill:#E9E6E3;" d="M29,38c4,0,8,0,12,0C39.275,39.658,30.725,39.658,29,38z"/>
		<path style="fill-rule:evenodd;clip-rule:evenodd;fill:#FFFFFF;" d="M0,52C0,34.667,0,17.333,0,0c48,0,96,0,144,0
			c0,17.333,0,34.667,0,52C96,52,48,52,0,52z M139,45c0.222-0.171,1.915,0.223,2,0c2.32-6.052-25.344-13.342-32-17
			c-0.309-4.358-4.365-4.968-6-8c0-1.333,0-2.667,0-4c-3.19,0.857-3.093-1.574-5-2C93.6,7.733,85.425,5.241,77,3
			c-1.725-1.658-10.275-1.658-12,0c-3.612,0.388-6.673,1.327-9,3c-1.182,1.151-3.535,1.132-6,1c0,0.667,0,1.333,0,2
			c0.428,2.762-3.728,0.938-4,3c-2.711-2.727-2.489,2.586-6,2c-4.198,0.499-15.729-1.103-15,1c-0.15,2.487-3.386,0.292-4,0
			c-4.508,0.85-17.957-1.99-16,2c0.095,3.905,4.042,3.958,6,6c2.816,1.184,5.717,2.283,8,4c-2.044,2.163-0.344,6.22,2,7
			c1.987,0.013,1.271,2.729,4,2c1.352,0.314,1.91,1.424,4,1c0,0.333,0,0.667,0,1c1.725,1.658,10.275,1.658,12,0c0-0.333,0-0.667,0-1
			c1.667,0,3.333,0,5,0c0,0.333,0,0.667,0,1c4.859,2.474,14.919-0.252,20,2c6.026-0.359,8.974,2.359,15,2
			c-0.475,3.141,1.247,4.086,3,5c2.729-0.729,2.013,1.987,4,2c2.117,1.593,9.23,3.378,12,1c2.826,0.826,2.591-1.409,5-1
			c1.161,0.839,2.681,1.319,5,1c1.4,1.657,9.6,1.657,11,0c2.615,0.282,4.302-0.365,4-3C131.442,48.109,134.34,45.673,139,45z"/>
		<path style="fill-rule:evenodd;clip-rule:evenodd;fill:#B49E40;" d="M67,11c-0.178-3.511,3.378-3.289,4-6
			c2.522,1.317-2.622,3.283-2,6C68.333,11,67.667,11,67,11z"/>
		<path style="fill-rule:evenodd;clip-rule:evenodd;fill:#989796;" d="M50,9c0-0.667,0-1.333,0-2c2.465,0.132,4.818,0.151,6-1
			c1.386,0.09,1.051,2.55-1,2c-0.451,2.784,5.451-0.784,5,2c-2.051-0.55-2.386,1.91-1,2c-0.745,2.255-5.609,0.391-8,1
			c0.027-0.973,1.224-0.776,2-1C53.182,9.818,52.182,8.818,50,9z"/>
		<path style="fill-rule:evenodd;clip-rule:evenodd;fill:#F0EF32;" d="M46,12c0.272-2.062,4.428-0.238,4-3
			c2.182-0.182,3.182,0.818,3,3c-0.776,0.224-1.973,0.027-2,1C49.547,12.453,45.832,14.168,46,12z"/>
		<path style="fill-rule:evenodd;clip-rule:evenodd;fill:#BBBBBB;" d="M63,15c2.448-0.111,0.212-3.306-1-3
			c0.057-0.61,0.149-1.184,1-1c1.333,0,2.667,0,4,0c0.667,0,1.333,0,2,0c0.186,1.481,2.417,0.917,4,1c0.81,0.19,0.997,1.003,2,1
			c1.667,0,3.333,0,5,0c0,0.333,0,0.667,0,1c-1.419-0.086-2.832-0.165-3,1c-3.062,1.857,0.062,5.843,2,6
			c-3.491-0.508-7.55-0.45-10-2c1.453-0.547,5.169,1.168,5-1C72.534,14.8,65.323,17.344,63,15z"/>
		<path style="fill-rule:evenodd;clip-rule:evenodd;fill:#ADADAD;" d="M40,14c3.511,0.586,3.289-4.727,6-2
			c-0.168,2.168,3.547,0.453,5,1c2.391-0.609,7.255,1.255,8-1c-1.386-0.09-1.051-2.55,1-2c1.177,0.157,2.838-0.172,3,1
			c-0.851-0.184-0.943,0.39-1,1c1.212-0.306,3.448,2.889,1,3c-3.167,1.083-8.403-3.88-9,1c-3.752-0.914-7.069-2.264-11-3
			c-0.145,2.812,2.449,2.884,5,3c0,0.333,0,0.667,0,1c-7.189,1.595-11.626-1.683-14,3c-5.042-1.233-13.043-1.802-15,1
			c-4.683-0.317-7.862-2.138-12-3c-0.264,3.264,3.88,2.12,4,5c-1.958-2.042-5.905-2.095-6-6c0-0.333,0-0.667,0-1
			c5.017-0.65,12.644,1.311,16-1c0.614,0.292,3.85,2.487,4,0C29.686,14.353,36.975,16.308,40,14z"/>
		<path style="fill-rule:evenodd;clip-rule:evenodd;fill:#BBBBBB;" d="M19,21c1.957-2.802,9.958-2.233,15-1
			c2.374-4.683,6.811-1.405,14-3c3.22-0.22,4.231,1.769,8,1c7.894,2.32,17.358,4.208,24,5c2.055,2.312,8.636,0.693,11,0
			c1.667,0,3.333,0,5,0c-0.161-1.172-1.823-0.843-3-1c2.107-2.293,4.824-2.106,4-5c3.327-0.689,1.611,2.067,1,3
			c0.102,2.565,3.727,1.607,5,3c-1.812,2.189-7.83,0.17-10,2c0.221,0.779,0.838,1.163,2,1c4.118-0.785,5.132,1.535,9,1
			c2.263,3.938,8.045,2.075,9,9c1.553-2.863,4.666,2.083,6-1c-1.92,3.119,9.117,4.02,7,7C87.998,37.336,52.451,30.216,19,21z"/>
		<path style="fill-rule:evenodd;clip-rule:evenodd;fill:#797675;" d="M59,17c3.607,0.393,6.706,1.294,10,2
			c2.45,1.55,6.509,1.492,10,2c1.794-0.127,2.109,1.224,4,1c-0.161,1.172-1.823,0.843-3,1c-6.642-0.792-16.106-2.68-24-5
			C57.419,18.086,58.832,18.165,59,17z"/>
		<path style="fill-rule:evenodd;clip-rule:evenodd;fill:#A6896A;" d="M19,27c2.288,1.045,6.032,0.635,8,2
			c-0.965,2.035-3.84,2.16-7,2c-0.282,1.615,0.945,1.722,1,3C18.656,33.22,16.956,29.163,19,27z"/>
		<path style="fill-rule:evenodd;clip-rule:evenodd;fill:#A6896A;" d="M36,32c6.921,0.412,11.182,3.484,17,5c-2.333,0-4.667,0-7,0
			c-1.667,0-3.333,0-5,0c-4,0-8,0-12,0c-2.09,0.424-2.648-0.686-4-1C26.345,30.12,31.903,34.541,36,32z"/>
		<path style="fill-rule:evenodd;clip-rule:evenodd;fill:#9B6E58;" d="M91,42c3.9,1.1,9.313,0.687,13,2c0,0.333,0,0.667,0,1
			c-1,0-2,0-3,0s-2,0-3,0C96.771,42.896,91.979,44.354,91,42z"/>
		<path style="fill-rule:evenodd;clip-rule:evenodd;fill:#A6896A;" d="M81,42c2.919-2.625,5.762,0.889,10,0
			c0.979,2.354,5.771,0.896,7,3c-2.656,0.011-5.711-0.378-7,1c-0.45,2.784,5.45-0.784,5,2c-0.716,2.716,4.716-0.716,4,2
			c-2.77,2.378-9.883,0.593-12-1c6.662,0.412,1.469-1.024,2-5c-1.657,1.466-9.001-0.119-6,3C82.247,46.086,80.525,45.141,81,42z"/>
		<path style="fill-rule:evenodd;clip-rule:evenodd;fill:#A6896A;" d="M101,45c1,0,2,0,3,0c7.475,0.191,14.024,1.309,21,2
			c0.302,2.635-1.385,3.282-4,3c-3.667,0-7.333,0-11,0c-2.319,0.319-3.839-0.161-5-1c-0.057-0.61-0.149-1.184-1-1
			C105.555,44.445,100.604,47.396,101,45z"/>
		<path style="fill-rule:evenodd;clip-rule:evenodd;fill:#B59786;" d="M96,48c2.667,0,5.333,0,8,0c0.851-0.184,0.943,0.39,1,1
			c-2.409-0.409-2.174,1.826-5,1C100.716,47.284,95.284,50.716,96,48z"/>
		<path style="fill-rule:evenodd;clip-rule:evenodd;fill:#C5B29E;" d="M65,3c1.725-1.658,10.275-1.658,12,0C73,3,69,3,65,3z"/>
		<path style="fill-rule:evenodd;clip-rule:evenodd;fill:#E9E6E3;" d="M25,15c-0.729-2.103,10.802-0.501,15-1
			C36.975,16.308,29.686,14.353,25,15z"/>
		<path style="fill-rule:evenodd;clip-rule:evenodd;fill:#E9E6E3;" d="M5,17c-1.957-3.99,11.492-1.15,16-2
			c-3.356,2.311-10.983,0.35-16,1C5,16.333,5,16.667,5,17z"/>
		<path style="fill-rule:evenodd;clip-rule:evenodd;fill:#E9E6E3;" d="M77,15c0.168-1.165,1.581-1.086,3-1c0.667,0,1.333,0,2,0
			c0.221,0.779,0.838,1.163,2,1C84.325,19.371,76.142,20.715,77,15z"/>
		<path style="fill-rule:evenodd;clip-rule:evenodd;fill:#CDCCCA;" d="M84,15c3.003,1.331,7.65,1.017,12,1
			c0.057,0.61,0.149,1.184,1,1c0.824,2.894-1.893,2.707-4,5c1.177,0.157,2.839-0.172,3,1c-1.667,0-3.333,0-5,0
			c-0.745-2.255-5.609-0.391-8-1c-1.891,0.224-2.206-1.127-4-1c-1.938-0.157-5.062-4.143-2-6C76.142,20.715,84.325,19.371,84,15z"/>
		<path style="fill-rule:evenodd;clip-rule:evenodd;fill:#CDCCCA;" d="M69,19c-3.294-0.706-6.393-1.607-10-2
			c-1.161-0.839-2.681-1.319-5-1c0.597-4.88,5.833,0.083,9-1c2.323,2.344,9.534-0.2,11,3C74.169,20.168,70.453,18.453,69,19z"/>
		<path style="fill-rule:evenodd;clip-rule:evenodd;fill:#989796;" d="M83,22c2.391,0.609,7.255-1.255,8,1
			c-2.364,0.693-8.945,2.312-11,0C81.177,22.843,82.839,23.172,83,22z"/>
		<path style="fill-rule:evenodd;clip-rule:evenodd;fill:#797675;" d="M95,26c1.616-1.225,11.96-2.67,12,1c-1,0-2,0-3,0
			C100.132,27.535,99.118,25.215,95,26z"/>
		<path style="fill-rule:evenodd;clip-rule:evenodd;fill:#9B6E58;" d="M27,29c3.612,0.388,6.673,1.327,9,3
			c-4.097,2.541-9.655-1.88-11,4c-2.729,0.729-2.013-1.987-4-2c-0.055-1.278-1.282-1.385-1-3C23.16,31.16,26.035,31.035,27,29z"/>
		<path style="fill-rule:evenodd;clip-rule:evenodd;fill:#C5B29E;" d="M46,37c2.333,0,4.667,0,7,0c1.496,0.171,3.69-0.357,4,1
			c-3.667,0-7.333,0-11,0C46,37.667,46,37.333,46,37z"/>
		<path style="fill-rule:evenodd;clip-rule:evenodd;fill:#E9E6E3;" d="M57,38c3.643-0.309,6.508,0.159,9,1c0,0.333,0,0.667,0,1
			c-5.081-2.252-15.141,0.474-20-2C49.667,38,53.333,38,57,38z"/>
		<path style="fill-rule:evenodd;clip-rule:evenodd;fill:#CDCCCA;" d="M104,48c-2.667,0-5.333,0-8,0c0.45-2.784-5.45,0.784-5-2
			c1.289-1.378,4.344-0.989,7-1c1,0,2,0,3,0C100.604,47.396,105.555,44.445,104,48z"/>
		<path style="fill-rule:evenodd;clip-rule:evenodd;fill:#9B6E58;" d="M88,49c-1.987-0.013-1.271-2.729-4-2
			c-3.001-3.119,4.343-1.534,6-3C89.469,47.976,94.662,49.412,88,49z"/>
		<path style="fill-rule:evenodd;clip-rule:evenodd;fill:#B59786;" d="M110,50c3.667,0,7.333,0,11,0
			C119.6,51.657,111.4,51.657,110,50z"/>
		<path style="fill-rule:evenodd;clip-rule:evenodd;fill:#ADADAD;" d="M98,14c1.907,0.426,1.81,2.857,5,2c0,1.333,0,2.667,0,4
			c1.635,3.032,5.691,3.642,6,8c6.656,3.658,34.32,10.948,32,17c-0.085,0.223-1.778-0.171-2,0c0.19-0.81,1.003-0.997,1-2
			c-4.355-0.645-11.305,1.305-14-1c2.117-2.98-8.92-3.881-7-7c-1.334,3.083-4.447-1.863-6,1c-0.955-6.925-6.737-5.062-9-9
			c1,0,2,0,3,0c-0.04-3.67-10.384-2.225-12-1c-1.162,0.163-1.779-0.221-2-1c2.17-1.83,8.188,0.189,10-2
			c-1.273-1.393-4.898-0.435-5-3c0.611-0.933,2.327-3.689-1-3c-0.851,0.184-0.943-0.39-1-1C97.701,16.368,97.887,15.22,98,14z"/>
		<path style="fill-rule:evenodd;clip-rule:evenodd;fill:#B59786;" d="M29,37c4,0,8,0,12,0c0,0.333,0,0.667,0,1c-4,0-8,0-12,0
			C29,37.667,29,37.333,29,37z"/>
		<path style="fill-rule:evenodd;clip-rule:evenodd;fill:#9B6E58;" d="M56,6c2.327-1.673,5.388-2.612,9-3c4,0,8,0,12,0
			c8.425,2.241,16.6,4.733,21,11c-0.113,1.22-0.299,2.368-2,2c-4.35,0.017-8.997,0.331-12-1c-1.162,0.163-1.779-0.221-2-1
			c0.16-3.16,0.035-6.035-2-7c0,2,0,4,0,6c-1.667,0-3.333,0-5,0c-1.55-3.962,3.782-6.112,1-8c-0.83,2.503-2.739,3.927-3,7
			c-1.583-0.083-3.814,0.481-4-1c-0.622-2.717,4.522-4.683,2-6c-0.622,2.711-4.178,2.489-4,6c-1.333,0-2.667,0-4,0
			c-0.162-1.172-1.823-0.843-3-1c0.451-2.784-5.451,0.784-5-2C57.051,8.55,57.386,6.09,56,6z"/>
		<path style="fill-rule:evenodd;clip-rule:evenodd;fill:#575655;" d="M48,17c0-0.333,0-0.667,0-1c-2.551-0.116-5.145-0.188-5-3
			c3.931,0.736,7.248,2.086,11,3c2.319-0.319,3.839,0.161,5,1c-0.168,1.165-1.581,1.086-3,1C52.231,18.769,51.22,16.78,48,17z"/>
		<path style="fill-rule:evenodd;clip-rule:evenodd;fill:#575655;" d="M11,23c-0.12-2.88-4.264-1.736-4-5
			c4.138,0.862,7.317,2.683,12,3c33.451,9.216,68.998,16.336,107,21c2.695,2.305,9.645,0.355,14,1c0.003,1.003-0.81,1.19-1,2
			c-4.66,0.673-7.558,3.109-14,2c-6.976-0.691-13.525-1.809-21-2c0-0.333,0-0.667,0-1c-3.687-1.313-9.1-0.9-13-2
			c-4.238,0.889-7.081-2.625-10,0c-6.026,0.359-8.974-2.359-15-2c0-0.333,0-0.667,0-1c-2.492-0.841-5.357-1.309-9-1
			c-0.31-1.357-2.504-0.829-4-1c-5.818-1.516-10.079-4.588-17-5c-2.327-1.673-5.388-2.612-9-3c-1.968-1.365-5.712-0.955-8-2
			C16.717,25.283,13.816,24.184,11,23z"/>
	</g>
</g>
</svg>
