<?xml version="1.0" encoding="iso-8859-1"?>
<!-- Generator: Adobe Illustrator 13.0.2, SVG Export Plug-In . SVG Version: 6.00 Build 14948)  -->
<!DOCTYPE svg PUBLIC "-//W3C//DTD SVG 1.1//EN" "http://www.w3.org/Graphics/SVG/1.1/DTD/svg11.dtd">
<svg version="1.1" id="Layer_1" xmlns="http://www.w3.org/2000/svg" xmlns:xlink="http://www.w3.org/1999/xlink" x="0px" y="0px"
	 width="144px" height="52px" viewBox="0 0 144 52" style="enable-background:new 0 0 144 52;" xml:space="preserve">
<g>
	<g>
		<path style="fill-rule:evenodd;clip-rule:evenodd;fill:#D1C631;" d="M51,9c3.056-0.723,3.644,1.022,6,1
			c0.043,1.376-0.471,2.196-1,3c-0.333,0-0.667,0-1,0c-2.656-0.01-5.711,0.378-7-1C48.111,10.111,51.306,11.306,51,9z"/>
		<path style="fill-rule:evenodd;clip-rule:evenodd;fill:#FFFFFF;" d="M77,13c1,0,2,0,3,0c0.261,1.406,2.193,1.14,3,2
			C82.78,18.19,75.9,17.032,77,13z"/>
		<path style="fill-rule:evenodd;clip-rule:evenodd;fill:#FFFFFF;" d="M0,52C0,34.667,0,17.333,0,0c48,0,96,0,144,0
			c0,17.333,0,34.667,0,52C96,52,48,52,0,52z M25,28c0.157,1.177-0.172,2.839,1,3c-0.468,3.135,2.514,2.819,4,4
			c-0.715,2.716,4.715-0.716,4,2c0,0.333,0,0.667,0,1c2.197,1.208,14.247,1.861,13,0c0.15-1.85,3.386-0.613,4-2c0.333,0,0.667,0,1,0
			c2.823,1.51,6.902,1.765,11,2c7.072,0.928,13.198,2.802,20,4c1.877,2.123,7.979,0.021,9,3c0.554,2.78,3.866,2.8,6,4
			c3.507,3.043,19.267,4.064,19-3c1,0,2,0,3,0c6.559,2.235,20.784,0.826,21-3c-11.903-7.763-28.956-10.378-37-22
			c1.779-5.446-4.254-3.079-5-6C92.083,4.241,67.653-2.858,55,7c-2.046-0.569-7.502,0.303-4,2c0.306,2.306-2.889,1.111-3,3
			c-2,0-4,0-6,0c0,0.667,0,1.333,0,2c-6.345,0.655-15.318-1.318-20,1c-6.107-0.773-9.357,1.31-15,1C5.753,23.26,19.385,24.271,25,28
			z"/>
		<path style="fill-rule:evenodd;clip-rule:evenodd;fill:#E9E7E4;" d="M34,37c3.825,0.842,8.027,1.307,13,1
			c1.247,1.861-10.803,1.208-13,0C34,37.667,34,37.333,34,37z"/>
		<path style="fill-rule:evenodd;clip-rule:evenodd;fill:#A88D6C;" d="M77,12c1.261-0.186,3.006-4.381,1-2
			c-2.953-0.87,2.32-1.497,1-4c3.691,0.803,0.829,4.117,0,6C78.333,12,77.667,12,77,12z"/>
		<path style="fill-rule:evenodd;clip-rule:evenodd;fill:#A88D6C;" d="M64,9c3.942,0.275,3.058-4.275,7-4
			c-0.247,2.678-4.213,3.802-2,6c-2.826,0.826-2.591-1.409-5-1C64,9.667,64,9.333,64,9z"/>
		<path style="fill-rule:evenodd;clip-rule:evenodd;fill:#9B7157;" d="M55,7c12.653-9.858,37.083-2.759,44,8
			c-0.186,1.481-2.417,0.917-4,1c-3.257-1.41-7.055-2.279-11-3c-1.333,0-2.667,0-4,0c0.184-0.851-0.39-0.943-1-1
			c0.829-1.883,3.691-5.197,0-6c1.32,2.503-3.953,3.13-1,4c2.006-2.381,0.261,1.814-1,2c-1.667,0-3.333,0-5,0
			c-0.162-1.172-1.823-0.843-3-1c-2.213-2.198,1.753-3.322,2-6c-3.942-0.275-3.058,4.275-7,4C59.822,9.511,57.224,8.442,55,7z"/>
		<path style="fill-rule:evenodd;clip-rule:evenodd;fill:#E9E7E4;" d="M77,13c-1.1,4.032,5.78,5.19,6,2c-0.807-0.86-2.739-0.594-3-2
			c1.333,0,2.667,0,4,0c0.839,1.161,1.319,2.681,1,5c-2.759-1.427-5.877,0.556-9-2c0-1,0-2,0-3C76.333,13,76.667,13,77,13z"/>
		<path style="fill-rule:evenodd;clip-rule:evenodd;fill:#555555;" d="M55,17c-2.956-2.044-8.962-1.038-12-3
			c2.735-2.992,6.608,1.335,11,0c1.513,1.487,4.389,1.611,7,2c-0.027,0.973-1.224,0.776-2,1C57.667,17,56.333,17,55,17z"/>
		<path style="fill-rule:evenodd;clip-rule:evenodd;fill:#BCBCBB;" d="M95,16c1.583-0.083,3.814,0.481,4-1
			c0.746,2.921,6.779,0.554,5,6c-2.396,0.396,0.555-4.555-3-3c-2.355,0.272-0.611,4.428,1,4c-0.186,1.481-2.417,0.917-4,1
			c-4.77-0.564-9.622-1.044-13-3c3.606-0.593,6.706-1.688,10,0c1.017-0.65,1.034-2.299,3-2C97.773,16.56,95.016,17.651,95,16z"/>
		<path style="fill-rule:evenodd;clip-rule:evenodd;fill:#AFAFAE;" d="M22,15c6.345-0.655,15.318,1.318,20-1c0-0.667,0-1.333,0-2
			c2,0,4,0,6,0c1.289,1.378,4.344,0.99,7,1c0.184,0.851-0.39,0.943-1,1c-4.392,1.335-8.265-2.992-11,0c3.038,1.962,9.044,0.956,12,3
			c-8.4,1.334-15.982,1.301-21,2c-1.847,0.257-0.094,2.178,0,3c-8.746-2.254-19.242-2.758-27-6C12.643,16.31,15.893,14.227,22,15z"
			/>
		<path style="fill-rule:evenodd;clip-rule:evenodd;fill:#656362;" d="M102,36c6.331,1.669,14.155,1.845,21,3
			c2.84,2.493,9.956,0.711,12,4c-1.787-0.282-2.052,0.945-1,1c-7.161,1.988-14.095,0.332-21-2c1.18,2.487,4.949,2.384,7,4
			c-1,0-2,0-3,0c-0.333,0-0.667,0-1,0c-1.797-3.87-8.313-3.021-13-4c-4.26-0.074-6.994-1.673-12-1c1.079-2.588,8.296,0.962,7-4
			c2.348,0.319,3.754,1.58,7,1C104.984,36.349,102.227,37.44,102,36z"/>
		<path style="fill-rule:evenodd;clip-rule:evenodd;fill:#AFAFAE;" d="M81,22c2.555,1.716,3.5-1.146,5,1
			c-2.352,1.458,1.234,5.354,3,6c-0.56,2.896-1.56-1.534-3-1c-1.235,3.235,3.235,0.765,2,4c-0.333,0-0.667,0-1,0
			c-1.453-0.547-5.169,1.169-5-1C89.771,32.182,82.131,24.112,81,22z"/>
		<path style="fill-rule:evenodd;clip-rule:evenodd;fill:#838382;" d="M67,17c6.03,1.259,13.705,2.925,18,3
			c3.378,1.956,8.23,2.436,13,3c2.082,2.584,9.66-0.327,10,4c-0.333,0-0.667,0-1,0c-7.384-0.949-14.025-2.641-21-4
			c-1.5-2.146-2.445,0.716-5-1c-6.457-1.543-14.111-1.889-20-4C62.758,17.425,66.875,19.208,67,17z"/>
		<path style="fill-rule:evenodd;clip-rule:evenodd;fill:#AFAFAE;" d="M107,27c0.333,0,0.667,0,1,0c-0.34-4.327-7.918-1.416-10-4
			c1.583-0.083,3.814,0.481,4-1c-1.611,0.428-3.355-3.728-1-4c3.555-1.555,0.604,3.396,3,3c8.044,11.622,25.097,14.237,37,22
			c-2,0-4,0-6,0c-2.044-3.289-9.16-1.507-12-4c1.456-2.685-9.717-4.3-13-5c0.062-3.287-2.408-4.445-4-4
			C103.104,29.44,107.534,28.44,107,27z"/>
		<path style="fill-rule:evenodd;clip-rule:evenodd;fill:#A88D6C;" d="M25,28c5.131-0.951,6.145-0.907,10,0
			c0.027,0.973,1.224,0.776,2,1c-2.717,2.051-10.037,1.04-11,2C24.828,30.839,25.157,29.177,25,28z"/>
		<path style="fill-rule:evenodd;clip-rule:evenodd;fill:#9B7157;" d="M35,28c3.789,1.211,8.065,1.936,11,4
			c-6.701-0.406-8.159,2.733-16,3c-1.486-1.181-4.468-0.865-4-4c0.963-0.96,8.283,0.051,11-2C36.224,28.776,35.027,28.973,35,28z"/>
		<path style="fill-rule:evenodd;clip-rule:evenodd;fill:#555555;" d="M120,46c-2.051-1.616-5.82-1.513-7-4
			c6.905,2.332,13.839,3.988,21,2c-1.052-0.055-0.787-1.282,1-1c2,0,4,0,6,0C140.784,46.826,126.559,48.235,120,46z"/>
		<path style="fill-rule:evenodd;clip-rule:evenodd;fill:#A88D6C;" d="M98,49c1.333,0,2.667,0,4,0c-0.091-1.576-2.551-0.783-2-3
			c2.323-1.06,8.09-3.844,11-1c-2.333,0-4.667,0-7,0c-0.822,4.576,11.145,6.31,11,1c0.333,0,0.667,0,1,0s0.667,0,1,0
			C117.267,53.064,101.507,52.043,98,49z"/>
		<path style="fill-rule:evenodd;clip-rule:evenodd;fill:#E9E7E4;" d="M22,15c4.682-2.318,13.655-0.345,20-1
			C37.318,16.318,28.345,14.345,22,15z"/>
		<path style="fill-rule:evenodd;clip-rule:evenodd;fill:#BCBCBB;" d="M61,16c-2.611-0.389-5.487-0.513-7-2
			c0.61-0.057,1.184-0.149,1-1c0.333,0,0.667,0,1,0c4.183,0.516,7.424,0.09,8-3c2.409-0.409,2.174,1.826,5,1
			c1.177,0.157,2.838-0.172,3,1c-3.679,1.595,4.046-0.228,2,3c-5.006,0.673-7.74-0.926-12-1c0,0.667,0,1.333,0,2
			C61.667,16,61.333,16,61,16z"/>
		<path style="fill-rule:evenodd;clip-rule:evenodd;fill:#656362;" d="M62,16c2.319-0.319,3.839,0.161,5,1
			c-0.125,2.208-4.242,0.425-6,1c-1.163,0.163-1.779-0.221-2-1c0.776-0.224,1.973-0.027,2-1C61.333,16,61.667,16,62,16z"/>
		<path style="fill-rule:evenodd;clip-rule:evenodd;fill:#555555;" d="M7,16c7.758,3.242,18.254,3.746,27,6
			c15.837,3.163,30.741,7.259,48,9c-0.169,2.169,3.547,0.453,5,1c3.976,2.357,10.4,2.267,15,4c0.227,1.44,2.984,0.349,3,2
			c-3.246,0.58-4.652-0.681-7-1c1.296,4.962-5.921,1.412-7,4c-1.454,1.546-5.119,0.881-8,1c-6.802-1.198-12.928-3.072-20-4
			c-2.441-1.893-6.52-2.146-11-2c-0.333,0-0.667,0-1,0c1.906-2.024-1.887-3.989-5-4c-2.935-2.064-7.211-2.789-11-4
			c-3.855-0.907-4.869-0.951-10,0C19.385,24.271,5.753,23.26,7,16z"/>
		<path style="fill-rule:evenodd;clip-rule:evenodd;fill:#BCBCBB;" d="M55,17c1.333,0,2.667,0,4,0c0.221,0.779,0.837,1.163,2,1
			c5.889,2.111,13.543,2.457,20,4c1.131,2.112,8.771,10.182,1,9c-17.259-1.741-32.163-5.837-48-9c-0.094-0.822-1.847-2.743,0-3
			C39.018,18.301,46.6,18.334,55,17z"/>
		<path style="fill-rule:evenodd;clip-rule:evenodd;fill:#D0CFCD;" d="M85,20c-4.295-0.075-11.97-1.741-18-3
			c-1.161-0.839-2.681-1.319-5-1c0-0.667,0-1.333,0-2c4.26,0.074,6.994,1.673,12,1c2.046-3.228-5.679-1.405-2-3c1.667,0,3.333,0,5,0
			c0.667,0,1.333,0,2,0c0.61,0.057,1.184,0.149,1,1c-1,0-2,0-3,0c-0.333,0-0.667,0-1,0c0,1,0,2,0,3c3.123,2.556,6.241,0.573,9,2
			c0.319-2.319-0.161-3.839-1-5c3.945,0.721,7.743,1.59,11,3c0.016,1.651,2.773,0.56,3,2c-1.966-0.299-1.983,1.35-3,2
			C91.706,18.312,88.606,19.407,85,20z"/>
		<path style="fill-rule:evenodd;clip-rule:evenodd;fill:#BCBCBB;" d="M86,23c6.975,1.359,13.616,3.051,21,4
			c0.534,1.44-3.896,2.44-1,3c1.592-0.445,4.062,0.713,4,4c3.283,0.7,14.456,2.315,13,5c-6.845-1.155-14.669-1.331-21-3
			c-4.6-1.733-11.024-1.643-15-4c0.333,0,0.667,0,1,0c1.235-3.235-3.235-0.765-2-4c1.44-0.534,2.44,3.896,3,1
			C87.234,28.354,83.648,24.458,86,23z"/>
		<path style="fill-rule:evenodd;clip-rule:evenodd;fill:#A88D6C;" d="M46,32c3.113,0.011,6.906,1.976,5,4
			c-0.614,1.387-3.85,0.15-4,2c-4.973,0.307-9.175-0.158-13-1c0.715-2.716-4.715,0.716-4-2C37.841,34.733,39.299,31.594,46,32z"/>
		<path style="fill-rule:evenodd;clip-rule:evenodd;fill:#D0CFCD;" d="M52,36c4.48-0.146,8.559,0.107,11,2
			C58.902,37.765,54.823,37.51,52,36z"/>
		<path style="fill-rule:evenodd;clip-rule:evenodd;fill:#A88D6C;" d="M83,42c2.881-0.119,6.546,0.546,8-1
			c5.006-0.673,7.74,0.926,12,1c-0.777,3.396-7.591,0.185-11,3C90.979,42.021,84.877,44.123,83,42z"/>
		<path style="fill-rule:evenodd;clip-rule:evenodd;fill:#9B7157;" d="M111,45c-2.91-2.844-8.677-0.06-11,1
			c-0.551,2.217,1.909,1.424,2,3c-1.333,0-2.667,0-4,0c-2.134-1.2-5.446-1.22-6-4c3.409-2.815,10.223,0.396,11-3
			c4.687,0.979,11.203,0.13,13,4c-0.333,0-0.667,0-1,0C114.69,44.643,112.496,45.171,111,45z"/>
		<path style="fill-rule:evenodd;clip-rule:evenodd;fill:#D0CFCD;" d="M111,45c1.496,0.171,3.69-0.357,4,1
			c0.145,5.31-11.822,3.576-11-1C106.333,45,108.667,45,111,45z"/>
		<path style="fill-rule:evenodd;clip-rule:evenodd;fill:#9E9C9B;" d="M64,10c-0.576,3.09-3.817,3.516-8,3
			c0.529-0.804,1.043-1.624,1-3c-2.356,0.022-2.944-1.723-6-1c-3.502-1.697,1.954-2.569,4-2c2.224,1.442,4.822,2.511,9,2
			C64,9.333,64,9.667,64,10z"/>
	</g>
</g>
</svg>
