<?xml version="1.0" encoding="iso-8859-1"?>
<!-- Generator: Adobe Illustrator 13.0.2, SVG Export Plug-In . SVG Version: 6.00 Build 14948)  -->
<!DOCTYPE svg PUBLIC "-//W3C//DTD SVG 1.1//EN" "http://www.w3.org/Graphics/SVG/1.1/DTD/svg11.dtd">
<svg version="1.1" id="Layer_1" xmlns="http://www.w3.org/2000/svg" xmlns:xlink="http://www.w3.org/1999/xlink" x="0px" y="0px"
	 width="144px" height="52px" viewBox="0 0 144 52" style="enable-background:new 0 0 144 52;" xml:space="preserve">
<g>
	<g>
		<path style="fill-rule:evenodd;clip-rule:evenodd;fill:#A48D60;" d="M67,9c-0.333,0-0.667,0-1,0c-0.221-0.779-0.837-1.163-2-1
			c0.914-1.753,1.859-3.474,5-3C68.987,6.987,66.271,6.271,67,9z"/>
		<path style="fill-rule:evenodd;clip-rule:evenodd;fill:#A48D60;" d="M80,11c-0.333,0-0.667,0-1,0c-0.221-0.779-0.838-1.163-2-1
			c1.983-0.684-0.624-5.958,3-5C80,7,80,9,80,11z"/>
		<path style="fill-rule:evenodd;clip-rule:evenodd;fill:#F0F024;" d="M53,9c0.667,0,1.333,0,2,0c2.348,0.319,3.753,1.58,7,1
			c0.498,5.055-7.517,2.703-10,2C52.055,10.722,53.282,10.615,53,9z"/>
		<path style="fill-rule:evenodd;clip-rule:evenodd;fill:#FFFFFF;" d="M79,15c-2.182,0.182-3.182-0.818-3-3c1.667,0,3.333,0,5,0
			c-0.396,2.396,4.555-0.555,3,3C82.333,15,80.667,15,79,15z"/>
		<path style="fill-rule:evenodd;clip-rule:evenodd;fill:#ECE8E6;" d="M24,15c1.711-2.289,7.633-0.367,11-1c0,0.333,0,0.667,0,1
			C31.333,15,27.667,15,24,15z"/>
		<path style="fill-rule:evenodd;clip-rule:evenodd;fill:#A48D60;" d="M46,37c-0.611-0.933-2.327-3.688,1-3
			c1.278,0.055,1.385,1.282,3,1c0.168,1.165,1.581,1.086,3,1C51.452,39.162,46.998,34.748,46,37z"/>
		<path style="fill-rule:evenodd;clip-rule:evenodd;fill:#A48D60;" d="M71,9c-0.178-3.511,3.378-3.289,4-6c1,0,2,0,3,0
			c-0.027,0.973-1.224,0.776-2,1c-1.434,1.233-1.895,3.439-2,6C73.195,9.471,72.376,8.957,71,9z"/>
		<path style="fill-rule:evenodd;clip-rule:evenodd;fill:#898682;" d="M59,5c1.484,0.437-0.395,1.28,0,3
			c-1.583,0.083-3.814-0.481-4,1c-0.667,0-1.333,0-2,0c-0.804,0.529-1.624,1.043-3,1c-2.016-5.016,4.546-1.454,5-4
			C55.89,5.223,57.258,4.925,59,5z"/>
		<path style="fill-rule:evenodd;clip-rule:evenodd;fill:#C3AE93;" d="M53,9c0.282,1.615-0.945,1.722-1,3
			c2.483,0.703,10.498,3.055,10-2c0.973,0.027,0.776,1.224,1,2c-0.89,0.443-1.789,0.878-2,2c-0.667,0-1.333,0-2,0
			c-4.392,0.059-8.265-0.402-11-2c1.086-0.248,0.678-1.988,2-2C51.376,10.043,52.196,9.529,53,9z"/>
		<path style="fill-rule:evenodd;clip-rule:evenodd;fill:#B7B6B6;" d="M63,12c1.44-0.226,0.349-2.985,2-3
			c-1.008,3.008,2.228,1.772,4,2c-0.937,4.191-5.543-1.087-7,3c-0.333,0-0.667,0-1,0C61.211,12.878,62.11,12.443,63,12z"/>
		<path style="fill-rule:evenodd;clip-rule:evenodd;fill:#D4D3D3;" d="M79,16c-3.056,0.723-3.645-1.022-6-1
			c0.693-0.807,1.556-2.739,0-3c0.125-2.208,4.242-0.425,6-1c0.333,0,0.667,0,1,0c1.162-0.163,1.779,0.221,2,1c-0.333,0-0.667,0-1,0
			c-1.667,0-3.333,0-5,0c-0.182,2.182,0.818,3.182,3,3C79,15.333,79,15.667,79,16z"/>
		<path style="fill-rule:evenodd;clip-rule:evenodd;fill:#555555;" d="M43,14c-1.027-3.36,3.11-1.557,5-2
			c2.735,1.598,6.608,2.059,11,2c0.19,0.81,1.003,0.997,1,2c-1.667,0-3.333,0-5,0c-0.745-2.255-5.609-0.391-8-1
			C46.69,13.643,44.496,14.17,43,14z"/>
		<path style="fill-rule:evenodd;clip-rule:evenodd;fill:#ECE8E6;" d="M81,12c0.333,0,0.667,0,1,0c0.667,0,1.333,0,2,0
			c0.776,0.89,1.075,2.258,1,4c-1.667,0-3.333,0-5,0c-0.333,0-0.667,0-1,0c0-0.333,0-0.667,0-1c1.667,0,3.333,0,5,0
			C85.555,11.445,80.604,14.396,81,12z"/>
		<path style="fill-rule:evenodd;clip-rule:evenodd;fill:#D4D3D3;" d="M85,12c0.667,0,1.333,0,2,0c0.247,1.086,1.988,0.678,2,2
			c0.113,3.171-7.184,4.073-9,2c1.667,0,3.333,0,5,0c0.075-1.742-0.224-3.11-1-4C84.333,12,84.667,12,85,12z"/>
		<path style="fill-rule:evenodd;clip-rule:evenodd;fill:#656262;" d="M59,14c0.667,0,1.333,0,2,0c0.333,0,0.667,0,1,0
			c1.01,1.656,4.247,1.086,6,2c-0.027,0.973-1.224,0.776-2,1c-1,0-2,0-3,0c-0.162-1.172-1.823-0.843-3-1
			C60.003,14.997,59.19,14.81,59,14z"/>
		<path style="fill-rule:evenodd;clip-rule:evenodd;fill:#B7B6B6;" d="M24,15c3.667,0,7.333,0,11,0c0.667,0,1.333,0,2,0
			c-14.45,2.343,5.45,3.591,10,0c2.391,0.609,7.255-1.255,8,1c-1.78,0.553-4.153,0.514-5,2c2.228,1.51,7.388-2.574,13-1c1,0,2,0,3,0
			c15.623,2.958,30.01,6.627,42,9c0.19,0.81,1.003,0.997,1,2c-1.163-0.162-1.779,0.221-2,1c-0.112,1.795,20.531,5.593,9,6
			c-2.483-1.184-5.886-1.448-9-2c-2.62-1.38-3.442-4.558-7-5c-2.857,0.521,1.614,1.479,2,2c-0.31,1.357-2.504,0.829-4,1
			c-22.848-4.485-46.504-8.163-69-13c-0.147-2.186-2.52-2.147-5-2C24,15.667,24,15.333,24,15z"/>
		<path style="fill-rule:evenodd;clip-rule:evenodd;fill:#A5A4A4;" d="M116,35c11.531-0.407-9.112-4.205-9-6
			c0.221-0.779,0.837-1.162,2-1c4.537,0.463,5.93,4.07,11,4c1.339,4.661,9.299,2.701,11,7C126.13,37.536,119.989,37.344,116,35z"/>
		<path style="fill-rule:evenodd;clip-rule:evenodd;fill:#656262;" d="M106,33c-2.869,2.465-5.323,5.343-11,5
			c-0.482-5.098-2.04,0.113-6-3c4.401-2.17,5.148,0.72,10-1c-2.962,3.715,3.609-0.108,5-1C104.667,33,105.333,33,106,33z"/>
		<path style="fill-rule:evenodd;clip-rule:evenodd;fill:#555555;" d="M7,20c-0.013-1.987-2.729-1.271-2-4c3,0,6,0,9,0
			c4.049,1.618,9.29,2.043,15,2c22.496,4.837,46.152,8.515,69,13c0.42,2.246,5.306,0.027,6,2c-1.391,0.892-7.962,4.715-5,1
			c-4.852,1.72-5.599-1.17-10,1c3.96,3.113,5.518-2.098,6,3c5.677,0.343,8.131-2.535,11-5c0.333,0,0.667,0,1,0
			c2.514,2.632-2.508,3.368-3,6c1.667,0,3.333,0,5,0c2.179,3.611-10.467-2.323-9,2c-0.667,0-1.333,0-2,0
			c-0.851,0.184-0.943-0.39-1-1c-1.172,0.161-0.844,1.823-1,3c-0.891-0.615-1.788-1.208-2,0c-0.253-2.374-2.747-2.374-3,0
			c-3.327,0.688-1.611-2.067-1-3c-1.842,0.101-4.175-3.196-7,0c0.91,2.735,3.504-1.774,5,1c-0.745,2.255-5.609,0.391-8,1
			c-7.548-0.119-12.945-2.389-19-4c0.15-2.897,1.632-7.586-5-8c-4.245,0.245-5.384-2.615-10-2c-1.048-1.305-10.847-2.904-9,2
			c-0.443,0.891-0.878,1.788-2,2c-1.331-2.002-4.439-2.228-7-3c-0.333,0-0.667,0-1,0c-1.511-2.489-6.748-1.252-9-3
			c-0.027-0.973-1.224-0.776-2-1C10.636,25.698,11.617,20.049,7,20z"/>
		<path style="fill-rule:evenodd;clip-rule:evenodd;fill:#656262;" d="M107,33c3.114,0.552,6.517,0.816,9,2
			c3.989,2.344,10.13,2.536,15,4c1.794-0.127,2.109,1.225,4,1c2.515,1.151,6.859,0.474,7,4c-4.146-1.146-3.896,2.104-7,2
			c-2.177,0.396-10.656,3.214-11-1c-0.19-0.81-1.003-0.997-1-2c-4.449,0.782-6.002-1.332-10-1c-2.631-1.035-6.137-1.196-10-1
			c-1,0-2,0-3,0c-1.467-4.323,11.179,1.611,9-2c-1.667,0-3.333,0-5,0C104.492,36.368,109.514,35.632,107,33z"/>
		<path style="fill-rule:evenodd;clip-rule:evenodd;fill:#656262;" d="M97,43c0,0.333,0,0.667,0,1c-5.783,0.783-8.549-1.451-14-1
			c-1.419,0.086-2.832,0.165-3-1c2.391-0.609,7.255,1.255,8-1c-1.496-2.774-4.09,1.735-5-1c2.825-3.196,5.158,0.101,7,0
			c-0.611,0.933-2.327,3.688,1,3c0.253-2.374,2.747-2.374,3,0c0.212-1.208,1.109-0.615,2,0c0.156-1.177-0.172-2.839,1-3
			c0.057,0.61,0.149,1.184,1,1C97.81,41.81,96.997,41.997,97,43z"/>
		<path style="fill-rule:evenodd;clip-rule:evenodd;fill:#656262;" d="M57,38c0.673-1.422,6.117-3.088,3-5
			c-0.658-1.342-2.138-1.862-4-2c0-0.333,0-0.667,0-1c6.632,0.414,5.15,5.103,5,8c-0.667,0-1.333,0-2,0S57.667,38,57,38z"/>
		<path style="fill-rule:evenodd;clip-rule:evenodd;fill:#898682;" d="M68,16c6.517,0.483,11.245,2.754,18,3
			c6.26,1.407,11.261,4.073,19,4c2.182-0.182,3.182,0.818,3,3c-11.99-2.373-26.377-6.042-42-9C66.776,16.776,67.973,16.973,68,16z"
			/>
		<path style="fill-rule:evenodd;clip-rule:evenodd;fill:#B7B6B6;" d="M86,19c2.007,0.34,3.129-0.205,3-2c1.413,1.92,4.857,1.81,7,3
			c3.812,0.479,2.038-4.629,7-3c-0.792,3.458,1.111,4.222,2,6C97.261,23.073,92.26,20.407,86,19z"/>
		<path style="fill-rule:evenodd;clip-rule:evenodd;fill:#AE9083;" d="M18,26c2.252,1.748,7.489,0.511,9,3
			c-3.592,0.075-8.143-0.81-9,2C15.069,30.153,18.598,27.78,18,26z"/>
		<path style="fill-rule:evenodd;clip-rule:evenodd;fill:#A48D60;" d="M21,34c-1.615,0.282-1.722-0.945-3-1c0-0.667,0-1.333,0-2
			c0.857-2.81,5.408-1.925,9-2c0.333,0,0.667,0,1,0c-2.919,2.667-11.111-0.449-8,4C20.851,32.816,20.943,33.39,21,34z"/>
		<path style="fill-rule:evenodd;clip-rule:evenodd;fill:#AE9083;" d="M47,30c-1.182-1.151-3.535-1.132-6-1
			c-1.454,0.443,0.102,0.878,0,2c-1,0-2,0-3,0c0.184-0.851-0.39-0.943-1-1c-1.847-4.904,7.952-3.305,9-2
			C46.19,28.81,47.003,28.997,47,30z"/>
		<path style="fill-rule:evenodd;clip-rule:evenodd;fill:#A48D60;" d="M35,32c1.122-0.212,1.557-1.109,2-2
			c0.61,0.057,1.184,0.149,1,1c-0.19,0.81-1.003,0.997-1,2c-0.353,1.313-1.761,1.573-2,3c1.701,0.367,1.887-0.78,2-2
			c1.172,0.161,0.843,1.823,1,3c-2.667,0-5.333,0-8,0c-0.65-1.017-2.299-1.034-2-3C30.276,33.275,33.108,33.108,35,32z"/>
		<path style="fill-rule:evenodd;clip-rule:evenodd;fill:#B7B6B6;" d="M41,31c0.102-1.122-1.454-1.557,0-2
			c2.465-0.132,4.818-0.151,6,1c0.804,0.529,1.624,1.043,3,1c0.443,0.891,0.878,1.788,2,2c-0.248,1.086-1.988,0.679-2,2
			c-1.615,0.282-1.722-0.945-3-1C45.267,32.733,44.38,30.62,41,31z"/>
		<path style="fill-rule:evenodd;clip-rule:evenodd;fill:#898682;" d="M38,37c-0.157-1.177,0.172-2.839-1-3
			c-0.113,1.22-0.299,2.367-2,2c0.239-1.427,1.647-1.687,2-3c2.036,0.297,2.664,2.003,4,3c0,0.333,0,0.667,0,1C40,37,39,37,38,37z"
			/>
		<path style="fill-rule:evenodd;clip-rule:evenodd;fill:#9B6E5E;" d="M41,31c3.38-0.38,4.267,1.733,6,3
			c-3.327-0.688-1.611,2.067-1,3c-2.409,0.409-2.174-1.826-5-1c-1.336-0.997-1.964-2.703-4-3c-0.003-1.003,0.81-1.19,1-2
			C39,31,40,31,41,31z"/>
		<path style="fill-rule:evenodd;clip-rule:evenodd;fill:#9B6E5E;" d="M113,42c3.998-0.332,5.551,1.782,10,1
			c-0.003,1.003,0.81,1.19,1,2c-4.872,0.673-6.633-1.761-10,0c-2.279-0.279-3.759,0.241-4,2c-2.494-0.704-4.109-0.984-6,1
			c-2.928,0.261-3.072-2.261-6-2c-2.681-2.613-8.918-0.301-9,3c-2.576-1.424-5.657-2.343-6-6c5.451-0.451,8.217,1.783,14,1
			c0-0.333,0-0.667,0-1c3.149,1.121,2.264,0.09,6,0C106.039,42.373,111.613,44.28,113,42z"/>
		<path style="fill-rule:evenodd;clip-rule:evenodd;fill:#D4D3D3;" d="M124,45c0.344,4.214,8.823,1.396,11,1
			c-0.923,3.743-8.03,1.304-12,2c-4.449,0.782-6.002-1.332-10-1c0.19-0.81,1.003-0.997,1-2C117.367,43.239,119.128,45.673,124,45z"
			/>
		<path style="fill-rule:evenodd;clip-rule:evenodd;fill:#A48D60;" d="M110,47c0.879,3.451,4.017-0.249,7,2
			c0.169,2.169-3.547,0.453-5,1c-0.667,0-1.333,0-2,0c0.164-2.831-6.164,0.831-6-2C105.891,46.016,107.506,46.296,110,47z"/>
		<path style="fill-rule:evenodd;clip-rule:evenodd;fill:#ECE8E6;" d="M75,3c-3.667,0-7.333,0-11,0C64.078,0.237,75.076-0.554,75,3z
			"/>
		<path style="fill-rule:evenodd;clip-rule:evenodd;fill:#9B6E5E;" d="M59,5c0.85-1.483,2.517-2.15,5-2c3.667,0,7.333,0,11,0
			c-0.622,2.711-4.178,2.489-4,6c-1.333,0-2.667,0-4,0c-0.729-2.729,1.987-2.013,2-4c-3.141-0.474-4.086,1.247-5,3
			c-1.667,0-3.333,0-5,0C58.605,6.28,60.484,5.437,59,5z"/>
		<path style="fill-rule:evenodd;clip-rule:evenodd;fill:#A48D60;" d="M83,5c1.419-0.086,2.832-0.165,3,1
			c-4.671,0.229,2.154,2.976,1,6c-0.667,0-1.333,0-2,0c-1.387-1.614-0.846-5.155-3-6C81.816,5.149,82.39,5.057,83,5z"/>
		<path style="fill-rule:evenodd;clip-rule:evenodd;fill:#9B6E5E;" d="M86,6c5.862,0.471,7.992,4.674,12,7
			c0.162,1.163-0.221,1.779-1,2c-0.333,0-0.667,0-1,0c-0.431-2.236-4.929-0.405-7-1c-0.012-1.322-1.753-0.914-2-2
			C88.154,8.976,81.329,6.229,86,6z"/>
		<path style="fill-rule:evenodd;clip-rule:evenodd;fill:#A5A4A4;" d="M64,8c1.163-0.163,1.779,0.221,2,1c-0.333,0-0.667,0-1,0
			c-1.651,0.015-0.56,2.774-2,3c-0.224-0.776-0.027-1.973-1-2c-3.247,0.58-4.652-0.681-7-1c0.186-1.481,2.417-0.917,4-1
			C60.667,8,62.333,8,64,8z"/>
		<path style="fill-rule:evenodd;clip-rule:evenodd;fill:#C4C2C2;" d="M66,9c0.333,0,0.667,0,1,0c1.333,0,2.667,0,4,0
			c1.376-0.043,2.195,0.471,3,1c1,0,2,0,3,0c1.162-0.163,1.779,0.221,2,1c-1.758,0.575-5.875-1.208-6,1c1.556,0.261,0.693,2.193,0,3
			c2.355-0.022,2.944,1.723,6,1c0.333,0,0.667,0,1,0c1.816,2.073,9.113,1.171,9-2c2.071,0.595,6.569-1.236,7,1c-2,0-4,0-6,0
			c0.529,0.804,1.043,1.624,1,3c1.177-1.904,2.511-2.316,4,0c1.23-0.437,2.054-1.28,2-3c0.779-0.221,1.162-0.837,1-2
			c1.503,1.498,4.211,1.789,5,4c-4.962-1.629-3.188,3.479-7,3c-2.143-1.19-5.587-1.08-7-3c0.129,1.795-0.993,2.34-3,2
			c-6.755-0.246-11.483-2.517-18-3c-1.753-0.914-4.99-0.344-6-2c1.457-4.087,6.063,1.191,7-3c-1.772-0.228-5.008,1.008-4-2
			C65.333,9,65.667,9,66,9z"/>
		<path style="fill-rule:evenodd;clip-rule:evenodd;fill:#D4D3D3;" d="M50,10c-1.322,0.012-0.914,1.752-2,2
			c-1.89,0.443-6.027-1.36-5,2c0,0.333,0,0.667,0,1c-2,0-4,0-6,0c-0.667,0-1.333,0-2,0c0-0.333,0-0.667,0-1
			c10.269,0.936,11.032-7.635,20-8C54.546,8.546,47.984,4.984,50,10z"/>
		<path style="fill-rule:evenodd;clip-rule:evenodd;fill:#9B6E5E;" d="M83,5c-0.61,0.057-1.184,0.149-1,1
			c2.154,0.845,1.613,4.386,3,6c-0.333,0-0.667,0-1,0c-0.667,0-1.333,0-2,0c-0.221-0.779-0.838-1.163-2-1c0-2,0-4,0-6
			c-3.624-0.958-1.017,4.316-3,5c-1,0-2,0-3,0c0.105-2.561,0.566-4.767,2-6c0.776-0.224,1.973-0.027,2-1
			C79.78,3.553,82.153,3.514,83,5z"/>
		<path style="fill-rule:evenodd;clip-rule:evenodd;fill:#D4D3D3;" d="M7,20c-1.683-1.242-5.107-2.908-3-5c6.667,0,13.333,0,20,0
			c0,0.333,0,0.667,0,1c-3.333,0-6.667,0-10,0c-3,0-6,0-9,0C4.271,18.729,6.987,18.013,7,20z"/>
		<path style="fill-rule:evenodd;clip-rule:evenodd;fill:#A5A4A4;" d="M37,15c2,0,4,0,6,0c0-0.333,0-0.667,0-1
			c1.496,0.17,3.69-0.357,4,1C42.45,18.591,22.55,17.343,37,15z"/>
		<path style="fill-rule:evenodd;clip-rule:evenodd;fill:#D4D3D3;" d="M96,15c0.333,0,0.667,0,1,0c0.054,1.72-0.77,2.563-2,3
			c-1.489-2.316-2.823-1.904-4,0c0.043-1.376-0.471-2.196-1-3C92,15,94,15,96,15z"/>
		<path style="fill-rule:evenodd;clip-rule:evenodd;fill:#A5A4A4;" d="M60,16c1.177,0.157,2.838-0.172,3,1
			c-5.612-1.574-10.772,2.51-13,1c0.847-1.486,3.22-1.447,5-2C56.667,16,58.333,16,60,16z"/>
		<path style="fill-rule:evenodd;clip-rule:evenodd;fill:#9B6E5E;" d="M50,31c-1.376,0.043-2.196-0.471-3-1
			c0.003-1.003-0.81-1.19-1-2c4.616-0.615,5.755,2.245,10,2c0,0.333,0,0.667,0,1c-1.71-0.044-2.59,0.743-3,2
			C51.687,32.646,51.427,31.239,50,31z"/>
		<path style="fill-rule:evenodd;clip-rule:evenodd;fill:#A48D60;" d="M56,31c1.862,0.138,3.342,0.658,4,2c-2.333,0-4.667,0-7,0
			C53.41,31.743,54.29,30.956,56,31z"/>
		<path style="fill-rule:evenodd;clip-rule:evenodd;fill:#A5A4A4;" d="M104,33c-0.694-1.973-5.58,0.246-6-2
			c1.496-0.171,3.69,0.357,4-1c-0.386-0.521-4.857-1.479-2-2c3.558,0.442,4.38,3.62,7,5c-0.333,0-0.667,0-1,0
			C105.333,33,104.667,33,104,33z"/>
		<path style="fill-rule:evenodd;clip-rule:evenodd;fill:#AE9083;" d="M60,33c3.117,1.912-2.327,3.578-3,5c-3.667,0-7.333,0-11,0
			c0-0.333,0-0.667,0-1c0.998-2.252,5.452,2.162,7-1c-1.419,0.086-2.832,0.165-3-1c0.012-1.321,1.752-0.914,2-2
			c-1.122-0.212-1.557-1.109-2-2c1.427,0.239,1.687,1.646,3,2C55.333,33,57.667,33,60,33z"/>
		<path style="fill-rule:evenodd;clip-rule:evenodd;fill:#B7B6B6;" d="M131,39c-1.701-4.299-9.661-2.339-11-7
			c5.846,1.821,11.755,3.578,15,8C133.109,40.225,132.794,38.873,131,39z"/>
		<path style="fill-rule:evenodd;clip-rule:evenodd;fill:#C4C2C2;" d="M21,34c1.957,2.043,5.018,2.982,9,3c2.667,0,5.333,0,8,0
			c-1.064,2.27-6.286,0.381-9,1c-7.74-0.927-14.169-3.164-13-13c0.776,0.224,1.973,0.027,2,1c0.598,1.78-2.931,4.153,0,5
			c0,0.667,0,1.333,0,2C19.278,33.055,19.385,34.282,21,34z"/>
		<path style="fill-rule:evenodd;clip-rule:evenodd;fill:#9B6E5E;" d="M35,32c-1.892,1.108-4.724,1.275-7,2
			c-0.299,1.966,1.35,1.983,2,3c-3.982-0.018-7.043-0.957-9-3c-0.057-0.61-0.149-1.184-1-1c-3.111-4.449,5.081-1.333,8-4
			C30.561,29.772,33.669,29.998,35,32z"/>
		<path style="fill-rule:evenodd;clip-rule:evenodd;fill:#ECE8E6;" d="M38,37c1,0,2,0,3,0c-1.067,2.643-9.724,2.885-12,1
			C31.714,37.381,36.936,39.27,38,37z"/>
		<path style="fill-rule:evenodd;clip-rule:evenodd;fill:#ECE8E6;" d="M46,38c3.667,0,7.333,0,11,0c0.667,0,1.333,0,2,0
			C56.949,39.659,48.051,39.659,46,38z"/>
		<path style="fill-rule:evenodd;clip-rule:evenodd;fill:#AE9083;" d="M100,41c1,0,2,0,3,0c0,0.667,0,1.333,0,2
			c-3.736,0.09-2.851,1.121-6,0c-0.003-1.003,0.81-1.19,1-2C98.667,41,99.333,41,100,41z"/>
		<path style="fill-rule:evenodd;clip-rule:evenodd;fill:#A48D60;" d="M103,41c3.863-0.196,7.369-0.035,10,1
			c-1.387,2.28-6.961,0.373-10,1C103,42.333,103,41.667,103,41z"/>
		<path style="fill-rule:evenodd;clip-rule:evenodd;fill:#AE9083;" d="M114,45c0.003,1.003-0.81,1.19-1,2
			c3.998-0.332,5.551,1.782,10,1c-0.19,0.81-1.003,0.997-1,2c-3.491-0.758-7.55,3.026-10,0c1.453-0.547,5.169,1.169,5-1
			c-2.983-2.249-6.121,1.451-7-2C110.241,45.241,111.721,44.721,114,45z"/>
		<path style="fill-rule:evenodd;clip-rule:evenodd;fill:#FFFFFF;" d="M122,50c-0.003-1.003,0.81-1.19,1-2
			c3.97-0.696,11.077,1.743,12-2c3.104,0.104,2.854-3.146,7-2c-0.141-3.526-4.485-2.849-7-4c-3.245-4.422-9.154-6.179-15-8
			c-5.07,0.07-6.463-3.537-11-4c0.003-1.003-0.81-1.19-1-2c0.182-2.182-0.818-3.182-3-3c-0.889-1.778-2.792-2.542-2-6
			c-0.789-2.211-3.497-2.502-5-4c-4.008-2.326-6.138-6.529-12-7c-0.168-1.165-1.581-1.086-3-1c-0.847-1.486-3.22-1.447-5-2
			c-1,0-2,0-3,0c0.076-3.554-10.922-2.763-11,0c-2.483-0.15-4.15,0.517-5,2c-1.742-0.075-3.11,0.223-4,1
			c-8.968,0.365-9.731,8.936-20,8c-3.367,0.633-9.289-1.289-11,1c-6.667,0-13.333,0-20,0c-2.107,2.092,1.317,3.758,3,5
			c4.617,0.049,3.636,5.698,9,5c-1.169,9.836,5.26,12.073,13,13c2.276,1.885,10.933,1.643,12-1c0-0.333,0-0.667,0-1
			c2.826-0.826,2.591,1.409,5,1c0,0.333,0,0.667,0,1c2.051,1.659,10.949,1.659,13,0c0.667,0,1.333,0,2,0
			c6.055,1.611,11.452,3.881,19,4c0.168,1.165,1.581,1.086,3,1c0.343,3.657,3.424,4.576,6,6c0.89,0.776,2.258,1.075,4,1
			c0,0.333,0,0.667,0,1s0,0.667,0,1c-31,0-62,0-93,0C0,34.667,0,17.333,0,0c48,0,96,0,144,0c0,17.333,0,34.667,0,52
			c-8.333,0-16.667,0-25,0C119.227,50.56,121.984,51.651,122,50z"/>
		<path style="fill-rule:evenodd;clip-rule:evenodd;fill:#A48D60;" d="M93,50c-1.742,0.075-3.11-0.224-4-1
			c0.082-3.301,6.319-5.613,9-3c-0.558,2.039-3.009,1.961-1,4C95.667,50,94.333,50,93,50z"/>
		<path style="fill-rule:evenodd;clip-rule:evenodd;fill:#898682;" d="M104,48c-0.164,2.831,6.164-0.831,6,2c-2.333,0-4.667,0-7,0
			c-3.736-0.09-2.851-1.121-6,0c-2.009-2.039,0.442-1.961,1-4C100.928,45.739,101.072,48.261,104,48z"/>
		<path style="fill-rule:evenodd;clip-rule:evenodd;fill:#AE9083;" d="M93,50c1.333,0,2.667,0,4,0c3.149-1.121,2.264-0.09,6,0
			c-1.387,2.28-6.961,0.373-10,1C93,50.667,93,50.333,93,50z"/>
		<path style="fill-rule:evenodd;clip-rule:evenodd;fill:#ECE8E6;" d="M110,50c0.667,0,1.333,0,2,0c2.45,3.026,6.509-0.758,10,0
			c-0.016,1.651-2.773,0.56-3,2c-8.667,0-17.333,0-26,0c0-0.333,0-0.667,0-1c3.039-0.627,8.613,1.28,10-1
			C105.333,50,107.667,50,110,50z"/>
		<path style="fill-rule:evenodd;clip-rule:evenodd;fill:#A5A4A4;" d="M14,16c3.333,0,6.667,0,10,0c2.48-0.147,4.853-0.186,5,2
			C23.29,18.043,18.049,17.618,14,16z"/>
	</g>
</g>
</svg>
