<?xml version="1.0" encoding="iso-8859-1"?>
<!-- Generator: Adobe Illustrator 13.0.2, SVG Export Plug-In . SVG Version: 6.00 Build 14948)  -->
<!DOCTYPE svg PUBLIC "-//W3C//DTD SVG 1.1//EN" "http://www.w3.org/Graphics/SVG/1.1/DTD/svg11.dtd">
<svg version="1.1" id="Layer_1" xmlns="http://www.w3.org/2000/svg" xmlns:xlink="http://www.w3.org/1999/xlink" x="0px" y="0px"
	 width="144px" height="52px" viewBox="0 0 144 52" style="enable-background:new 0 0 144 52;" xml:space="preserve">
<g>
	<g>
		<path style="fill-rule:evenodd;clip-rule:evenodd;fill:#E8E7E5;" d="M66,2c1.078-1.655,8.922-1.655,10,0C72.667,2,69.333,2,66,2z"
			/>
		<path style="fill-rule:evenodd;clip-rule:evenodd;fill:#EEED2E;" d="M57,9c5.03-0.697,6.97,1.697,12,1c0.054,1.72-0.77,2.563-2,3
			c-4.382-0.284-10.018,0.685-11-3C56.61,9.943,57.184,9.851,57,9z"/>
		<path style="fill-rule:evenodd;clip-rule:evenodd;fill:#E8E7E5;" d="M30,15c1.078-1.655,8.922-1.655,10,0c-3,0-6,0-9,0
			C30.667,15,30.333,15,30,15z"/>
		<path style="fill-rule:evenodd;clip-rule:evenodd;fill:#CECCCA;" d="M7,16c5.678-2.322,15.658-0.342,23-1c0.333,0,0.667,0,1,0
			c0.168,2.168-3.547,0.453-5,1C19.667,16,13.333,16,7,16z"/>
		<path style="fill-rule:evenodd;clip-rule:evenodd;fill:#434343;" d="M55,20c0.333,0,0.667,0,1,0c-0.052,2.976,2.942,5.074,1,7
			c-0.333,0-0.667,0-1,0c-0.314-1.352-1.423-1.91-1-4C54.61,21.573,53.8,21.313,55,20z"/>
		<path style="fill-rule:evenodd;clip-rule:evenodd;fill:#AA8F6A;" d="M23,36c1.052-0.055,0.787-1.282-1-1
			c2.269-2.107,7.726-3.249,12-3c1.793-0.127,2.109,1.225,4,1c0.877,3.21-2.593,2.073-3,4c-4,0-8,0-12,0C23,36.667,23,36.333,23,36z
			"/>
		<path style="fill-rule:evenodd;clip-rule:evenodd;fill:#666666;" d="M95,45c-1.496-0.171-3.69,0.357-4-1c3.667,0,7.333,0,11,0
			c0.61,0.057,1.184,0.149,1,1C100.333,45,97.667,45,95,45z"/>
		<path style="fill-rule:evenodd;clip-rule:evenodd;fill:#CECCCA;" d="M124,45c1.667,0,3.333,0,5,0c0.802,3.802-4.729,1.271-7,2
			C122.012,45.679,123.753,46.086,124,45z"/>
		<path style="fill-rule:evenodd;clip-rule:evenodd;fill:#E8E7E5;" d="M109,24c5.651,5.682,16.414,6.252,22,12
			c-4.066,0.066-4.829-3.171-9-3c-3.494-3.506-9.91-4.09-14-7C108.19,25.19,109.003,25.003,109,24z"/>
		<path style="fill-rule:evenodd;clip-rule:evenodd;fill:#FFFFFF;" d="M0,52C0,34.667,0,17.333,0,0c48,0,96,0,144,0
			c0,17.333,0,34.667,0,52C96,52,48,52,0,52z M12,25c2.537,1.794-2.37,6.138,2,7c1.419,2.914,4.213,4.454,9,4c0,0.333,0,0.667,0,1
			c1.725,1.658,10.275,1.658,12,0c0.407-1.927,3.877-0.79,3-4c1.003-0.003,1.19,0.81,2,1c1.352,0.314,1.91,1.424,4,1
			c1.513,1.486,4.389,1.611,7,2c6.144,0.522,9.034,4.3,16,4c2.465-0.132,4.818-0.151,6,1c-0.792,3.458,1.111,4.222,2,6c1,0,2,0,3,0
			c4.072,3.246,13.605,4.111,17,0c0.856-2.81,5.408-1.925,9-2c1.479,0.521,2.521,1.479,4,2c0.42,2.246,5.306,0.027,6,2
			c6.883,3.194,15.305-0.68,19-4c3.597-0.736,6.312-2.354,10-3c-1.5-4.833-6.318-6.348-12-7c-5.586-5.748-16.349-6.318-22-12
			c-1.479-0.521-2.521-1.479-4-2c-0.426-1.907-2.857-1.81-2-5c-0.707-2.626-4.693-1.974-6-4c-2.659-3.34-5.935-6.065-11-7
			c-2.767-1.234-5.354-2.646-9-3c-0.057-0.61-0.149-1.184-1-1c-1.078-1.655-8.922-1.655-10,0c-0.776,0.224-1.973,0.027-2,1
			c-0.776,0.224-1.973,0.027-2,1c-2.826-0.826-2.591,1.409-5,1c-1.674,1.326-3.351,2.649-7,2c0.043,1.376-0.471,2.196-1,3
			c-0.606,1.727-4.744-0.077-5,2c-1.22,0.113-2.368,0.299-2,2c-0.221,0.779-0.837,1.163-2,1c-1.078-1.655-8.922-1.655-10,0
			c-7.342,0.658-17.322-1.322-23,1c-0.61,0.057-1.184,0.149-1,1c-5.085,1.709,3.884,4.998,5,7C11.057,24.61,11.149,25.184,12,25z"/>
		<path style="fill-rule:evenodd;clip-rule:evenodd;fill:#987343;" d="M66,3c3,0,6,0,9,0c-0.224,0.776-0.027,1.973-1,2
			c-1.313-1.2-1.573-0.39-3,0c-1.456-0.367-6.291-0.201-7,2c-0.333,0-0.667,0-1,0C63.294,4.961,65.706,5.039,66,3z"/>
		<path style="fill-rule:evenodd;clip-rule:evenodd;fill:#9F6E64;" d="M64,3c0.667,0,1.333,0,2,0c-0.294,2.039-2.706,1.961-3,4
			c-1,0-2,0-3,0c0.658-1.342,2.138-1.862,4-2c-0.027-0.973-1.224-0.776-2-1C62.027,3.027,63.224,3.224,64,3z"/>
		<path style="fill-rule:evenodd;clip-rule:evenodd;fill:#987343;" d="M57,5c2.409,0.409,2.174-1.826,5-1
			c0.776,0.224,1.973,0.027,2,1c-1.862,0.138-3.342,0.658-4,2c-1.71,0.21-2.59-1.705-3,0C55.546,6.557,57.102,6.122,57,5z"/>
		<path style="fill-rule:evenodd;clip-rule:evenodd;fill:#987343;" d="M86,6c5.065,0.935,8.341,3.66,11,7
			c-0.846,2.356-4.387-0.832-6-1C90.256,9.077,85.602,10.065,86,6z"/>
		<path style="fill-rule:evenodd;clip-rule:evenodd;fill:#A89D96;" d="M49,10c4.104,2.67,7.001-1.143,8-3c0.41-1.705,1.29,0.21,3,0
			c1,0,2,0,3,0c0.333,0,0.667,0,1,0c0.851-0.184,0.943,0.39,1,1c-2.391,0.609-7.255-1.255-8,1c0.184,0.851-0.39,0.943-1,1
			c0.982,3.685,6.618,2.716,11,3c0,0.333,0,0.667,0,1c-5.006,0.673-7.74-0.926-12-1c-3.507-0.493-6.509-1.491-11-1
			C44.256,9.923,48.394,11.727,49,10z"/>
		<path style="fill-rule:evenodd;clip-rule:evenodd;fill:#858585;" d="M49,10c0.529-0.804,1.043-1.624,1-3
			c3.649,0.649,5.326-0.674,7-2c0.102,1.122-1.454,1.557,0,2C56.001,8.857,53.104,12.67,49,10z"/>
		<path style="fill-rule:evenodd;clip-rule:evenodd;fill:#B5B2B0;" d="M57,9c0.745-2.255,5.609-0.391,8-1c1.333,0,2.667,0,4,0
			c1.163-0.163,1.779,0.221,2,1c-2.226,0.42-0.783,5.306,0,6c-1.793,0.127-2.109-1.224-4-1c0-0.333,0-0.667,0-1
			c1.23-0.437,2.054-1.28,2-3C63.97,10.697,62.03,8.303,57,9z"/>
		<path style="fill-rule:evenodd;clip-rule:evenodd;fill:#CECCCA;" d="M72,9c1.333,0,2.667,0,4,0c1.419-0.086,2.832-0.165,3,1
			c-2.612-0.279-5.004-0.338-4,3c0.125,2.208,4.242,0.425,6,1c1.786,3.223,7.773-0.362,4-3c0.333,0,0.667,0,1,0
			c2.826-0.826,2.591,1.409,5,1c1.613,0.168,5.154,3.356,6,1c1.307,2.026,5.293,1.374,6,4c-3.77,1.286-14.006-1.395-17,1
			c-1.419-0.086-2.832-0.165-3,1c-1.453-0.547-5.169,1.168-5-1c1.667,0,3.333,0,5,0c-3.481-1.519-6.859-3.141-12-3
			c-0.783-0.694-2.226-5.58,0-6C71.333,9,71.667,9,72,9z"/>
		<path style="fill-rule:evenodd;clip-rule:evenodd;fill:#E8E7E5;" d="M81,10c2.09-0.423,2.647,0.686,4,1
			c3.773,2.638-2.214,6.223-4,3C87.89,13.537,82.537,12.222,81,10z"/>
		<path style="fill-rule:evenodd;clip-rule:evenodd;fill:#858585;" d="M67,14c1.891-0.224,2.207,1.127,4,1
			c5.141-0.141,8.519,1.481,12,3c-1.667,0-3.333,0-5,0c-3.292-0.042-4.979-1.688-9-1c0-0.333,0-0.667,0-1
			c-0.221-0.779-0.837-1.163-2-1C67,14.667,67,14.333,67,14z"/>
		<path style="fill-rule:evenodd;clip-rule:evenodd;fill:#434343;" d="M11,24c-1.116-2.002-10.085-5.291-5-7c6.667,0,13.333,0,20,0
			c2.515,3.298-2.015,1.434-4,1c-0.689,2.689,2.067,1.933,3,3c-3.238,3.815-3.195-4.072-7-3c-2.378,0.294,1.111,2.706,2,3
			C17.534,21.517,15.234,22.955,11,24z"/>
		<path style="fill-rule:evenodd;clip-rule:evenodd;fill:#4D4D4D;" d="M26,17c10.742-0.075,20.416,0.918,29,3
			c-1.2,1.313-0.39,1.573,0,3c-4.103-2.23-10.524-2.143-17-2c0.261,1.406,2.193,1.14,3,2c-8.516,2.713-16.477-1.885-28,2
			c-0.333,0-0.667,0-1,0c-0.851,0.184-0.943-0.39-1-1c4.234-1.045,6.534-2.483,9-3c-0.889-0.294-4.378-2.706-2-3
			c3.805-1.072,3.762,6.815,7,3c-0.933-1.067-3.689-0.311-3-3C23.985,18.434,28.515,20.298,26,17z"/>
		<path style="fill-rule:evenodd;clip-rule:evenodd;fill:#555555;" d="M13,25c11.523-3.885,19.484,0.713,28-2
			c-0.807-0.86-2.739-0.594-3-2c6.476-0.143,12.897-0.23,17,2c-0.423,2.09,0.686,2.648,1,4c-3.023,0.311-7.777-1.11-8,2
			c-0.293,4.96,3.982,5.351,6,8c-1,0-2,0-3,0c-2.611-0.389-5.487-0.514-7-2c8.817-0.144-2.364-1.577-4-3
			c-1.454,0.443,0.102,0.878,0,2c-0.81-0.19-0.997-1.003-2-1c-1.891,0.225-2.207-1.127-4-1c-2.847-2.153-6.968-3.032-11-4
			c-4.001-1.134-5.234-0.575-10-2C13,25.667,13,25.333,13,25z"/>
		<path style="fill-rule:evenodd;clip-rule:evenodd;fill:#A89D96;" d="M86,18c5.207-0.54,7.413,1.92,12,2
			c-0.221,0.779-0.837,1.163-2,1c0.012,1.322,1.753,0.914,2,2c-5.059-1.274-9.801-2.866-15-4C83.168,17.835,84.581,17.914,86,18z"/>
		<path style="fill-rule:evenodd;clip-rule:evenodd;fill:#B5B2B0;" d="M98,23c5.062-0.728,5.922,2.745,10,3
			c4.09,2.91,10.506,3.494,14,7c-3.606-0.394-6.706-1.294-10-2c-2.891-2.442-8.449-2.218-13-3c-7.006-1.327-13.717-2.949-21-4
			c-5.49-1.176-11.507-1.826-17-3c-0.027-0.973-1.224-0.776-2-1c2.75-1.583,5.229-3.438,10-3c4.021-0.688,5.708,0.958,9,1
			c-0.169,2.168,3.547,0.453,5,1C88.199,20.134,92.941,21.726,98,23z"/>
		<path style="fill-rule:evenodd;clip-rule:evenodd;fill:#858585;" d="M98,20c2.223,0.777,3.899,2.101,7,2
			c1.479,0.521,2.521,1.479,4,2c0.003,1.003-0.81,1.19-1,2c-4.078-0.255-4.938-3.728-10-3c-0.247-1.086-1.988-0.678-2-2
			C97.163,21.163,97.779,20.779,98,20z"/>
		<path style="fill-rule:evenodd;clip-rule:evenodd;fill:#555555;" d="M57,20c0.89,0.777,2.258,1.075,4,1
			c5.493,1.174,11.51,1.824,17,3c0.472,3.577-4.677-0.525-7,2c1.84,5.033,3.81,6.011,6,9c2.358-0.274-0.092-3.726-1-4
			c1.736-1.019,10.314-0.353,10,4c4.138-3.517,1.566,1.253,7,1c-2.89,2.572-9.786-1.624-14,0c-0.973,3.64,4.871,0.462,3,5
			c2.061-1.767,8.1-1.449,7,3c-1.333,0-2.667,0-4,0c-1.161-0.839-2.681-1.319-5-1c-0.92-1.746-3.126-2.207-6-2
			c-1.798-2.532,1.902-5.67-2-7c-1.121-3.213-3.875-4.791-8-5c-2.09,0.424-2.648-0.686-4-1c-0.162-1.172-1.823-0.844-3-1
			c1.942-1.926-1.052-4.024-1-7C56.333,20,56.667,20,57,20z"/>
		<path style="fill-rule:evenodd;clip-rule:evenodd;fill:#AA8F6A;" d="M13,25c0,0.333,0,0.667,0,1c4.766,1.425,5.999,0.866,10,2
			c-1.454,3.476-12.512-0.07-9,3c0,0.333,0,0.667,0,1c-4.37-0.862,0.537-5.206-2-7C12.333,25,12.667,25,13,25z"/>
		<path style="fill-rule:evenodd;clip-rule:evenodd;fill:#666666;" d="M99,28c4.551,0.782,10.109,0.558,13,3c-1.333,0-2.667,0-4,0
			c1.936,2.064,6.092,1.908,9,3c-9.569,6.782-25.759-3.672-38-4C81.594,21.429,96.752,33.177,99,28z"/>
		<path style="fill-rule:evenodd;clip-rule:evenodd;fill:#9F6E64;" d="M23,28c4.032,0.968,8.153,1.847,11,4
			c-4.274-0.249-9.731,0.893-12,3c1.787-0.282,2.052,0.945,1,1c-4.787,0.454-7.581-1.086-9-4c0-0.333,0-0.667,0-1
			C10.488,27.93,21.546,31.476,23,28z"/>
		<path style="fill-rule:evenodd;clip-rule:evenodd;fill:#B5B2B0;" d="M64,30c2.503-0.17,3.13,1.536,4,3c0,0.667,0,1.333,0,2
			c-6.089-0.911-10.36-3.64-16-5c-1.793,0.127-2.109-1.225-4-1c0.223-3.11,4.977-1.689,8-2c0.333,0,0.667,0,1,0
			c1.177,0.156,2.838-0.172,3,1c-2.333,0-4.667,0-7,0c2.651,1.048,11.475,5.355,11,3C64,30.667,64,30.333,64,30z"/>
		<path style="fill-rule:evenodd;clip-rule:evenodd;fill:#A89D96;" d="M55,32c-0.807-0.86-2.739-0.594-3-2
			c5.64,1.36,9.911,4.089,16,5c0-0.667,0-1.333,0-2C70.024,39.665,58.146,32.719,55,32z"/>
		<path style="fill-rule:evenodd;clip-rule:evenodd;fill:#AA8F6A;" d="M55,32c3.146,0.719,15.024,7.665,13,1
			c-0.87-1.464-1.497-3.17-4-3c0-0.333,0-0.667,0-1c4.125,0.209,6.879,1.787,8,5c-1.067,2.267-3.033,3.634-6,4
			c-3.863,0.196-7.369,0.035-10-1c-0.65-1.017-2.299-1.034-2-3c0.89,0.776,2.258,1.075,4,1C57.889,33.111,54.694,34.306,55,32z"/>
		<path style="fill-rule:evenodd;clip-rule:evenodd;fill:#9F6E64;" d="M54,37c-2.018-2.649-6.293-3.04-6-8
			c1.891-0.225,2.207,1.127,4,1c0.261,1.406,2.193,1.14,3,2c-0.306,2.306,2.889,1.111,3,3c-1.742,0.075-3.11-0.224-4-1
			c-0.299,1.966,1.35,1.983,2,3C55.333,37,54.667,37,54,37z"/>
		<path style="fill-rule:evenodd;clip-rule:evenodd;fill:#5D5C5C;" d="M112,31c3.294,0.706,6.394,1.606,10,2
			c4.171-0.171,4.934,3.066,9,3c5.682,0.652,10.5,2.167,12,7c-3.688,0.646-6.403,2.264-10,3c-1.742,0.075-3.11-0.224-4-1
			c-1.64-4.36-9.757-2.243-14-4c-3.965,0.369-9.583-0.917-12,1c-0.779,0.221-1.162,0.838-1,2c-3.667,0-7.333,0-11,0
			c-0.667,0-1.333,0-2,0c1.1-4.449-4.939-4.767-7-3c1.871-4.538-3.973-1.36-3-5c4.214-1.624,11.11,2.572,14,0
			c-5.434,0.253-2.862-4.517-7-1c0.314-4.353-8.264-5.019-10-4c0.908,0.274,3.358,3.726,1,4c-2.19-2.989-4.16-3.967-6-9
			c2.323-2.525,7.472,1.577,7-2c7.283,1.051,13.994,2.673,21,4c-2.248,5.177-17.406-6.571-20,2c12.241,0.328,28.431,10.782,38,4
			c-2.908-1.092-7.064-0.936-9-3C109.333,31,110.667,31,112,31z M132,43c-0.593-2.375,8.666,0.155,5-2c-2.551-0.116-5.146-0.188-5-3
			c-3.235-1.235-0.765,3.235-4,2c0.055-1.278,1.282-1.385,1-3c-1.862,0.138-3.342,0.658-4,2c2.827-0.16,2.329,3.004,5,3
			c0.113-1.22,0.299-2.367,2-2C132.395,41.721,130.516,42.563,132,43z M119,38c1.353,0.314,1.91,1.424,4,1
			c-0.043-1.377,0.471-2.195,1-3C121.52,35.853,119.147,35.813,119,38z"/>
		<path style="fill-rule:evenodd;clip-rule:evenodd;fill:#666666;" d="M132,40c-1.701-0.367-1.887,0.78-2,2
			c-2.671,0.004-2.173-3.16-5-3c0.658-1.342,2.138-1.862,4-2c0.282,1.615-0.945,1.722-1,3c3.235,1.235,0.765-3.235,4-2
			c-0.146,2.812,2.449,2.884,5,3c3.666,2.155-5.593-0.375-5,2C130.516,42.563,132.395,41.721,132,40z"/>
		<path style="fill-rule:evenodd;clip-rule:evenodd;fill:#666666;" d="M51,37c1,0,2,0,3,0c0.667,0,1.333,0,2,0
			c2.631,1.035,6.137,1.196,10,1c-2.409,1.547-4.273,2.1,1,2c0,0.333,0,0.667,0,1C60.034,41.3,57.144,37.522,51,37z"/>
		<path style="fill-rule:evenodd;clip-rule:evenodd;fill:#9F6E64;" d="M102,44c-0.162-1.162,0.221-1.779,1-2
			c-1.067,2.041,11.765,2.17,12-1c4.243,1.757,12.36-0.36,14,4c-1.667,0-3.333,0-5,0c-2.483-0.15-4.15,0.517-5,2
			c-4.491-0.491-7.493,0.507-11,1c-1.479-0.521-2.521-1.479-4-2c-0.057-0.61-0.149-1.184-1-1C103.184,44.149,102.61,44.057,102,44z"
			/>
		<path style="fill-rule:evenodd;clip-rule:evenodd;fill:#AA8F6A;" d="M108,48c3.507-0.493,6.509-1.491,11-1
			c0.42,2.246,5.306,0.027,6,2c-1.712,2.288-7.633,0.367-11,1C113.306,48.027,108.42,50.246,108,48z"/>
		<path style="fill-rule:evenodd;clip-rule:evenodd;fill:#9F6E64;" d="M73,42c3.156-0.489,3.531,1.802,7,1
			c2.319-0.319,3.839,0.161,5,1c-2.038,1.629-5.232,2.101-7,4c-1,0-2,0-3,0C74.111,46.222,72.208,45.458,73,42z"/>
		<path style="fill-rule:evenodd;clip-rule:evenodd;fill:#AA8F6A;" d="M85,44c1.333,0,2.667,0,4,0c0.667,0,1.333,0,2,0
			c0.31,1.357,2.504,0.829,4,1c0,1,0,2,0,3c-3.395,4.111-12.928,3.246-17,0C79.768,46.101,82.962,45.629,85,44z"/>
		<path style="fill-rule:evenodd;clip-rule:evenodd;fill:#B5B2B0;" d="M119,47c0.85-1.483,2.517-2.15,5-2
			c-0.247,1.086-1.988,0.679-2,2c2.271-0.729,7.802,1.802,7-2c0.89,0.776,2.258,1.075,4,1c-3.695,3.32-12.117,7.194-19,4
			c3.367-0.633,9.288,1.288,11-1C124.306,47.027,119.42,49.246,119,47z"/>
		<path style="fill-rule:evenodd;clip-rule:evenodd;fill:#B5B2B0;" d="M64,3c0.027-0.973,1.224-0.776,2-1c3.333,0,6.667,0,10,0
			c0.851-0.184,0.943,0.39,1,1c-0.667,0-1.333,0-2,0c-3,0-6,0-9,0C65.333,3,64.667,3,64,3z"/>
		<path style="fill-rule:evenodd;clip-rule:evenodd;fill:#9F6E64;" d="M77,3c3.646,0.354,6.233,1.766,9,3
			c-0.398,4.065,4.256,3.077,5,6c-2.409,0.409-2.174-1.826-5-1c0.154-2.488-1.571-3.096-2-5c-3.417-0.75-1.271,4.063-5,3
			c0-1.333,0-2.667,0-4c-1.464,0.87-3.17,1.497-3,4c-1.333,0-2.667,0-4,0c-0.729-2.729,1.987-2.013,2-4c0.973-0.027,0.776-1.224,1-2
			C75.667,3,76.333,3,77,3z"/>
		<path style="fill-rule:evenodd;clip-rule:evenodd;fill:#9F6E64;" d="M64,7c0.709-2.201,5.544-2.367,7-2
			c-0.354,1.313-1.761,1.573-2,3c-1.333,0-2.667,0-4,0C64.943,7.39,64.851,6.816,64,7z"/>
		<path style="fill-rule:evenodd;clip-rule:evenodd;fill:#AA8F6A;" d="M74,5c-0.013,1.987-2.729,1.271-2,4c-0.333,0-0.667,0-1,0
			c-0.221-0.779-0.837-1.163-2-1c0.239-1.427,1.646-1.687,2-3C72.427,4.61,72.687,3.8,74,5z"/>
		<path style="fill-rule:evenodd;clip-rule:evenodd;fill:#AA8F6A;" d="M85,11c-1.353-0.314-1.91-1.423-4-1c-0.667,0-1.333,0-2,0
			c-0.168-1.165-1.581-1.086-3-1c-0.17-2.503,1.536-3.13,3-4c0,1.333,0,2.667,0,4c3.729,1.063,1.583-3.75,5-3
			c0.429,1.904,2.154,2.512,2,5C85.667,11,85.333,11,85,11z"/>
		<path style="fill-rule:evenodd;clip-rule:evenodd;fill:#4D4D4D;" d="M55,13c-2.039,2.295-8.305,0.362-12,1
			c-0.003-1.003,0.81-1.19,1-2C48.491,11.509,51.493,12.507,55,13z"/>
		<path style="fill-rule:evenodd;clip-rule:evenodd;fill:#5D5C5C;" d="M7,16c6.333,0,12.667,0,19,0c0,0.333,0,0.667,0,1
			c-6.667,0-13.333,0-20,0C5.816,16.149,6.39,16.057,7,16z"/>
		<path style="fill-rule:evenodd;clip-rule:evenodd;fill:#A89D96;" d="M61,21c-1.742,0.075-3.11-0.223-4-1c0-0.667,0-1.333,0-2
			c4.557,1.223,3.923-2.743,8-2c1.333,0,2.667,0,4,0c0,0.333,0,0.667,0,1c-4.771-0.438-7.25,1.417-10,3
			C59.776,20.224,60.973,20.027,61,21z"/>
		<path style="fill-rule:evenodd;clip-rule:evenodd;fill:#B5B2B0;" d="M103,17c-0.857,3.19,1.574,3.093,2,5
			c-3.101,0.101-4.777-1.223-7-2c-4.587-0.08-6.793-2.54-12-2C88.994,15.605,99.23,18.286,103,17z"/>
		<path style="fill-rule:evenodd;clip-rule:evenodd;fill:#E8E7E5;" d="M64,30c0,0.333,0,0.667,0,1c0.475,2.355-8.349-1.952-11-3
			c2.333,0,4.667,0,7,0c1.352,0.314,1.91,1.424,4,1C64,29.333,64,29.667,64,30z"/>
		<path style="fill-rule:evenodd;clip-rule:evenodd;fill:#4D4D4D;" d="M44,35c-2.09,0.424-2.648-0.686-4-1
			c0.102-1.122-1.454-1.557,0-2C41.636,33.423,52.817,34.856,44,35z"/>
		<path style="fill-rule:evenodd;clip-rule:evenodd;fill:#A89D96;" d="M23,37c4,0,8,0,12,0C33.275,38.658,24.725,38.658,23,37z"/>
		<path style="fill-rule:evenodd;clip-rule:evenodd;fill:#5D5C5C;" d="M73,42c-1.182-1.151-3.535-1.132-6-1c0-0.333,0-0.667,0-1
			c-5.273,0.1-3.409-0.453-1-2c2.967-0.366,4.933-1.733,6-4c3.902,1.33,0.202,4.468,2,7c2.874-0.207,5.08,0.254,6,2
			C76.531,43.802,76.156,41.511,73,42z"/>
		<path style="fill-rule:evenodd;clip-rule:evenodd;fill:#CECCCA;" d="M95,45c2.667,0,5.333,0,8,0c0.851-0.184,0.943,0.39,1,1
			c-3.592,0.075-8.144-0.81-9,2C95,47,95,46,95,45z"/>
		<path style="fill-rule:evenodd;clip-rule:evenodd;fill:#666666;" d="M55,13c4.26,0.074,6.994,1.673,12,1c0,0.333,0,0.667,0,1
			c1.163-0.163,1.779,0.221,2,1c-1.333,0-2.667,0-4,0c-5.436-2.898-17.534,0.867-23-2c-0.368-1.701,0.78-1.887,2-2
			c-0.19,0.81-1.003,0.997-1,2C46.695,13.362,52.961,15.295,55,13z"/>
		<path style="fill-rule:evenodd;clip-rule:evenodd;fill:#666666;" d="M124,36c-0.529,0.805-1.043,1.623-1,3
			c-2.09,0.424-2.647-0.686-4-1C119.147,35.813,121.52,35.853,124,36z"/>
		<path style="fill-rule:evenodd;clip-rule:evenodd;fill:#FFFFFF;" d="M81,14c-1.758-0.575-5.875,1.208-6-1
			c-1.004-3.338,1.388-3.279,4-3c0.667,0,1.333,0,2,0C82.537,12.222,87.89,13.537,81,14z"/>
		<path style="fill-rule:evenodd;clip-rule:evenodd;fill:#B5B2B0;" d="M26,16c1.453-0.547,5.168,1.168,5-1c3,0,6,0,9,0
			c1.163,0.163,1.779-0.221,2-1c5.466,2.867,17.564-0.898,23,2c-4.077-0.743-3.443,3.223-8,2c0,0.667,0,1.333,0,2
			c-0.333,0-0.667,0-1,0s-0.667,0-1,0c-8.584-2.082-18.258-3.075-29-3C26,16.667,26,16.333,26,16z"/>
		<path style="fill-rule:evenodd;clip-rule:evenodd;fill:#AA8F6A;" d="M103,42c2.417-1.917,8.035-0.631,12-1
			C114.765,44.17,101.933,44.041,103,42z"/>
	</g>
</g>
</svg>
