<?xml version="1.0" encoding="iso-8859-1"?>
<!-- Generator: Adobe Illustrator 13.0.2, SVG Export Plug-In . SVG Version: 6.00 Build 14948)  -->
<!DOCTYPE svg PUBLIC "-//W3C//DTD SVG 1.1//EN" "http://www.w3.org/Graphics/SVG/1.1/DTD/svg11.dtd">
<svg version="1.1" id="Layer_1" xmlns="http://www.w3.org/2000/svg" xmlns:xlink="http://www.w3.org/1999/xlink" x="0px" y="0px"
	 width="144px" height="52px" viewBox="0 0 144 52" style="enable-background:new 0 0 144 52;" xml:space="preserve">
<g>
	<g>
		<path style="fill-rule:evenodd;clip-rule:evenodd;fill:#E5E5E4;" d="M66,2c1.078-1.655,8.922-1.655,10,0C72.667,2,69.333,2,66,2z"
			/>
		<path style="fill-rule:evenodd;clip-rule:evenodd;fill:#F2F231;" d="M64,9c4.772-0.772,6.436,1.564,11,1c0,1,0,2,0,3
			c-0.333,0-0.667,0-1,0c-5.25,0.584-7.571-1.762-13-1C60.818,9.818,61.818,8.818,64,9z"/>
		<path style="fill-rule:evenodd;clip-rule:evenodd;fill:#CFCCC8;" d="M14,16c3.687-2.313,11.651-0.349,17-1c0,0.333,0,0.667,0,1
			C25.333,16,19.667,16,14,16z"/>
		<path style="fill-rule:evenodd;clip-rule:evenodd;fill:#B6B1AD;" d="M31,16c0-0.333,0-0.667,0-1c3.333,0,6.667,0,10,0
			c-0.221,0.779-0.837,1.163-2,1C36.333,16,33.667,16,31,16z"/>
		<path style="fill-rule:evenodd;clip-rule:evenodd;fill:#FFFFFF;" d="M0,52C0,34.667,0,17.333,0,0c48,0,96,0,144,0
			c0,17.333,0,34.667,0,52C96,52,48,52,0,52z M115,27c-3.561-1.439-6.601-3.399-9-6c-3.812-0.854-1.771-7.563-7-7
			c-2.041-1.292-2.529-4.138-5-5c-3.078,0.745-1.922-2.745-5-2c0-0.333,0-0.667,0-1c-2.802-0.532-5.198-1.468-8-2
			c-0.333,0-0.667,0-1,0c-0.221-0.779-0.837-1.163-2-1c-0.221-0.779-0.838-1.163-2-1c-1.078-1.655-8.922-1.655-10,0
			c-0.776,0.224-1.973,0.027-2,1c-1.892,1.108-4.724,1.276-7,2c-1.987,0.013-1.271,2.729-4,2c-3.562-0.229-5.229,1.438-5,5
			c-3.059-0.725-2.941,1.725-6,1c-0.779,0.221-1.163,0.837-1,2c-3.333,0-6.667,0-10,0c-5.349,0.651-13.313-1.313-17,1
			c-1.496,0.17-3.69-0.357-4,1c-2.337,0.329-4.131,1.202-6,2c0.454,4.212,4.729,4.604,6,8c0.667,0,1.333,0,2,0
			c0.043,1.377-0.471,2.195-1,3c0.229,3.438,2.976,4.357,6,5c0,0.333,0,0.667,0,1c1.453,0.547,5.168-1.169,5,1
			c1.4,1.657,9.6,1.657,11,0c1.333,0,2.667,0,4,0c4.715-0.048,7.577,1.757,12,2c2.712,2.288,8.873,1.127,12,3
			c0.17,1.496-0.357,3.69,1,4c0.909,2.092,2.951,3.049,6,3c0,0.333,0,0.667,0,1c6.149,1.779,14.26,0.548,16-5
			c4.738-0.738,6.875,1.125,11,1c1.712,2.288,7.633,0.367,11,1c4.169-0.502,4.411,2.923,9,2c0.057,0.61,0.149,1.184,1,1
			c1.4,1.657,9.6,1.657,11,0c3.779,0.112,5.377-1.957,6-5c0.667,0,1.333,0,2,0c0.739-3.261,4.992-3.008,8-4
			c-1.885-8.782-13.474-7.859-21-11c0-0.333,0-0.667,0-1C117.522,30.478,118.929,26.071,115,27z"/>
		<path style="fill-rule:evenodd;clip-rule:evenodd;fill:#876B56;" d="M64,3c4,0,8,0,12,0c-1.02,1.314-0.98,3.686-2,5
			c-0.667,0-1.333,0-2,0c-2.367-2.3-8.975-0.358-13-1c-1,0-2,0-3,0c0.19-0.81,1.003-0.997,1-2C59.276,4.276,62.108,4.108,64,3z"/>
		<path style="fill-rule:evenodd;clip-rule:evenodd;fill:#A29C98;" d="M53,7c2.729,0.729,2.013-1.987,4-2c0.003,1.003-0.81,1.19-1,2
			c1,0,2,0,3,0c-0.027,0.973-1.224,0.776-2,1c0.245,3.389-3.35,3.349,3,5c-3.438,0.438-5.605-0.395-8-1
			C53.036,9.493,56.534,8.837,53,7z"/>
		<path style="fill-rule:evenodd;clip-rule:evenodd;fill:#A78F6A;" d="M81,4c2.802,0.532,5.198,1.468,8,2c0,0.333,0,0.667,0,1
			c-2.363,0.279,1.146,2.671,1,4c-1.161-0.839-2.681-1.319-5-1c-0.31-1.357-2.504-0.83-4-1C82.877,7.093,80.406,7.19,81,4z"/>
		<path style="fill-rule:evenodd;clip-rule:evenodd;fill:#FFFFFF;" d="M75,10c0.805-0.529,1.623-1.043,3-1c0.667,0,1.333,0,2,0
			c0.628,2.039,5.053,0.281,4,4c-2.333,0-4.667,0-7,0c-0.667,0-1.333,0-2,0C75,12,75,11,75,10z"/>
		<path style="fill-rule:evenodd;clip-rule:evenodd;fill:#876B56;" d="M89,7c3.078-0.745,1.922,2.745,5,2
			c0.212,1.122,1.109,1.557,2,2c-1.232,3.038-3.438-1.084-6,0C90.146,9.671,86.637,7.279,89,7z"/>
		<path style="fill-rule:evenodd;clip-rule:evenodd;fill:#818181;" d="M63,13c4.125-0.125,6.262,1.738,11,1
			c0.156,1.177-0.172,2.838,1,3c-3.787,3.772,2.967,2.108,4,4c-1,0-2,0-3,0c-0.667,0-1.333,0-2,0c0.184-0.851-0.39-0.943-1-1
			c0-1.667,0-3.333,0-5c-5.718,0.815-16.386-0.537-25,0C50.707,12.04,60.293,15.96,63,13z"/>
		<path style="fill-rule:evenodd;clip-rule:evenodd;fill:#A29C98;" d="M75,13c0.667,0,1.333,0,2,0c-0.169,2.168,3.547,0.453,5,1
			c0.027,0.973,1.224,0.776,2,1c8.519,3.033,15.169,2.106,22,6c2.399,2.601,5.439,4.561,9,6c-5.694,0.027-8.793-2.541-15-2
			c0.31-1.357,2.504-0.83,4-1c-8.179-3.821-17.997-6.003-29-7c-1.172-0.162-0.844-1.823-1-3c0-0.333,0-0.667,0-1
			C74.333,13,74.667,13,75,13z"/>
		<path style="fill-rule:evenodd;clip-rule:evenodd;fill:#A29C98;" d="M41,15c-0.163-1.163,0.221-1.779,1-2
			c0.113,1.22,0.299,2.368,2,2c-0.451,2.784,5.451-0.784,5,2c-3,0-6,0-9,0c-0.333,0-0.667,0-1,0c0-0.333,0-0.667,0-1
			C40.163,16.163,40.779,15.779,41,15z"/>
		<path style="fill-rule:evenodd;clip-rule:evenodd;fill:#B6B1AD;" d="M99,14c5.229-0.563,3.188,6.146,7,7
			c-6.831-3.894-13.481-2.967-22-6C90.727,13.607,96.879,19.543,99,14z"/>
		<path style="fill-rule:evenodd;clip-rule:evenodd;fill:#4B4B4B;" d="M10,17c9.667,0,19.333,0,29,0c0.333,0,0.667,0,1,0
			c-2.595,2.677-7.665,2.825-9,1c-0.511,2.362-1.167,4.43-3,0c-1.086,0.248-0.678,1.988-2,2c0.162,1.172,1.823,0.843,3,1
			c-1.47,4.355-4.912-1.659-6-1c0.971,1.861-4.267,6.99-6,2c-1.177,1.49-2.51,2.823-4,4c-0.851-0.184-0.943,0.39-1,1
			c-0.667,0-1.333,0-2,0c-1.271-3.396-5.546-3.788-6-8C5.869,18.202,7.663,17.329,10,17z"/>
		<path style="fill-rule:evenodd;clip-rule:evenodd;fill:#5A5A5A;" d="M59,19c2.714,0.619,7.936-1.27,9,1
			c-5.852-0.338-1.776,2.86-6,7c-0.443,0.891-0.878,1.788-2,2c-0.111-2.448-3.306-0.212-3,1c-3.46-3.993,3.799-3.502,5-4
			c-0.344-2.322-0.647-4.686-4-4C58.055,20.722,59.282,20.615,59,19z"/>
		<path style="fill-rule:evenodd;clip-rule:evenodd;fill:#555555;" d="M40,17c3,0,6,0,9,0c1.514,2.486,8.614-0.614,10,2
			c0.282,1.615-0.945,1.722-1,3c3.353-0.686,3.656,1.678,4,4c-1.201,0.498-8.46,0.007-5,4c-0.306-1.212,2.889-3.448,3-1c0,1,0,2,0,3
			c-0.163,1.163,0.221,1.779,1,2c-1.808,3.174-7.496-0.51-7,3c-0.973-0.027-0.776-1.224-1-2c-1.85,0.15-0.614,3.386-2,4
			c-0.667,0-1.333,0-2,0c-4.423-0.243-7.285-2.048-12-2c3.069-4.992-1.934-6.298-6-7c-1.513-1.486-4.389-1.611-7-2
			c-2.711-1.622-7.378-1.288-11-2c1.49-1.177,2.823-2.51,4-4c1.733,4.99,6.971-0.139,6-2c1.088-0.659,4.53,5.355,6,1
			c-1.177-0.157-2.838,0.172-3-1c1.322-0.012,0.914-1.752,2-2c1.833,4.43,2.489,2.362,3,0C32.335,19.825,37.405,19.677,40,17z"/>
		<path style="fill-rule:evenodd;clip-rule:evenodd;fill:#605F5E;" d="M62,27c4.224-4.14,0.148-7.338,6-7c1.667,0,3.333,0,5,0
			c0.61,0.057,1.184,0.149,1,1c0.132,2.465,0.151,4.818-1,6c-2.667,0-5.333,0-8,0C64,27,63,27,62,27z"/>
		<path style="fill-rule:evenodd;clip-rule:evenodd;fill:#666666;" d="M81,21c6.426,1.24,13.33,2.003,19,4
			c6.207-0.541,9.306,2.027,15,2c3.929-0.929,2.522,3.478,7,2c0,0.333,0,0.667,0,1c-4.93,1.299,4.842,3.317,7,4
			c-1.733,1.267-2.62,3.38-6,3c-0.333,0-0.667,0-1,0c-5.146-2.574-10.507-2.977-15-4c-0.667,0-1.333,0-2,0
			c-0.221-0.779-0.838-1.162-2-1c-6.313-0.021-9.687-2.979-16-3c-1.851-0.883-7.357-3.219-9-1c-2.826,0.826-2.591-1.409-5-1
			c1.151-1.182,1.132-3.535,1-6c0.667,0,1.333,0,2,0c0.907,3.426,6.271,2.396,10,3c-0.847-1.486-3.22-1.447-5-2
			C81,21.667,81,21.333,81,21z"/>
		<path style="fill-rule:evenodd;clip-rule:evenodd;fill:#605F5E;" d="M78,28c1.643-2.219,7.149,0.117,9,1
			c-7.767-1.162,0.554,2.76-3,5C85.074,28.926,80.155,29.845,78,28z"/>
		<path style="fill-rule:evenodd;clip-rule:evenodd;fill:#CFCCC8;" d="M65,28c5.216,1.45,9.691,3.642,16,4
			C79.637,34.403,67.801,30.747,65,28z"/>
		<path style="fill-rule:evenodd;clip-rule:evenodd;fill:#E5E5E4;" d="M81,32c-6.309-0.358-10.784-2.55-16-4c0-0.333,0-0.667,0-1
			c2.667,0,5.333,0,8,0c2.409-0.409,2.174,1.826,5,1c2.155,1.845,7.074,0.926,6,6c-0.057,0.61-0.149,1.184-1,1
			C84.282,31.455,78.215,28.271,81,32z"/>
		<path style="fill-rule:evenodd;clip-rule:evenodd;fill:#B6B1AD;" d="M81,32c-2.785-3.729,3.282-0.545,2,3
			c-4.626,0.9-10.406-1.072-15-3c-0.89-0.776-2.258-1.075-4-1c-0.027-0.973-1.224-0.776-2-1c0.437-1.23,1.28-2.054,3-2
			C67.801,30.747,79.637,34.403,81,32z"/>
		<path style="fill-rule:evenodd;clip-rule:evenodd;fill:#5A5A5A;" d="M84,34c3.554-2.24-4.767-6.162,3-5
			c6.313,0.021,9.687,2.979,16,3c0.089,3.313-5.028,1.126-8,0c-0.095,1.512-2.372,3.428-3,7c-2.146-1.5,0.716-2.445-1-5
			c-2.924,1.614-0.394,3.166-2,5c4.582,2.751,8.668,5.999,16,6c0,0.333,0,0.667,0,1c-3.333,0-6.667,0-10,0
			c-4.125,0.125-6.262-1.738-11-1c-0.125-2.209-4.242-0.425-6-1c-2.673-1.994-8.817-0.517-12-2c-2.483,1.301-4.15-2.934-5,0
			c-3.127-1.873-9.288-0.712-12-3c0.667,0,1.333,0,2,0c1.386-0.614,0.15-3.85,2-4c0.224,0.776,0.027,1.973,1,2
			c-0.496-3.51,5.192,0.174,7-3c-0.779-0.221-1.163-0.837-1-2c0.333,0,0.667,0,1,0c1.181,1.485,0.865,4.468,4,4
			c3.246,2.822,16.165,3.585,18-1C83.851,35.184,83.943,34.61,84,34z"/>
		<path style="fill-rule:evenodd;clip-rule:evenodd;fill:#A78F6A;" d="M68,32c4.594,1.928,10.374,3.9,15,3
			c-1.835,4.585-14.754,3.822-18,1c-2.591-3.646,1.601,0.096,5-1C69.646,33.687,68.24,33.427,68,32z"/>
		<path style="fill-rule:evenodd;clip-rule:evenodd;fill:#9D7062;" d="M65,36c-3.135,0.468-2.819-2.515-4-4
			c0.804-0.529,1.624-1.043,3-1c1.742-0.075,3.11,0.224,4,1c0.24,1.427,1.646,1.687,2,3C66.601,36.096,62.409,32.354,65,36z"/>
		<path style="fill-rule:evenodd;clip-rule:evenodd;fill:#5A5A5A;" d="M105,33c0.667,0,1.333,0,2,0c-0.212,1.122-1.109,1.557-2,2
			c0.314,2.352,4.74,0.594,4,4c-5-5.008-13.594,1.287-15-4c2.039,2.009,1.961-0.442,4-1C100.977,35.325,103.074,35.025,105,33z"/>
		<path style="fill-rule:evenodd;clip-rule:evenodd;fill:#5A5A5A;" d="M122,37c0.333,0,0.667,0,1,0c0.224,0.776,0.027,1.973,1,2
			c-1.134,0.462-4.432,0.508-8,1c0-0.667,0-1.333,0-2C119.244,35.513,119.176,40.81,122,37z"/>
		<path style="fill-rule:evenodd;clip-rule:evenodd;fill:#9D7062;" d="M115,41c7.008,0.325,15.396-0.729,18,4c-0.333,0-0.667,0-1,0
			c-5.504-5.099-13.043,3.666-19,2c-0.943,1.85,5.724,0.614,2,2c-4.589,0.923-4.831-2.502-9-2c-0.057-0.61-0.149-1.184-1-1
			c0-0.333,0-0.667,0-1s0-0.667,0-1C107.854,41.402,115.667,44.699,115,41z"/>
		<path style="fill-rule:evenodd;clip-rule:evenodd;fill:#A78F6A;" d="M115,49c3.724-1.386-2.943-0.15-2-2
			c5.957,1.666,13.496-7.099,19-2c0,0.333,0,0.667,0,1c-3.246-0.58-4.652,0.681-7,1c-0.169,2.169,3.547,0.453,5,1
			c-0.227,1.44-2.984,0.349-3,2c-3.667,0-7.333,0-11,0C115.149,50.184,115.057,49.61,115,49z"/>
		<path style="fill-rule:evenodd;clip-rule:evenodd;fill:#9D7062;" d="M66,42c3.183,1.483,9.327,0.006,12,2
			c-5.731-0.731-7.563,2.437-10,5c-3.049,0.049-5.091-0.908-6-3c0-1,0-2,0-3c2.409-0.409,2.174,1.826,5,1
			c-0.057-0.61-0.149-1.184-1-1C66,42.667,66,42.333,66,42z"/>
		<path style="fill-rule:evenodd;clip-rule:evenodd;fill:#B6B1AD;" d="M127,50c0.016-1.651,2.773-0.56,3-2
			c-1.453-0.547-5.169,1.169-5-1c2.348-0.319,3.754-1.58,7-1c0-0.333,0-0.667,0-1c0.333,0,0.667,0,1,0
			C132.377,48.043,130.779,50.112,127,50z"/>
		<path style="fill-rule:evenodd;clip-rule:evenodd;fill:#B6B1AD;" d="M66,2c3.333,0,6.667,0,10,0c1.162-0.163,1.779,0.221,2,1
			c-0.667,0-1.333,0-2,0c-4,0-8,0-12,0C64.027,2.027,65.224,2.224,66,2z"/>
		<path style="fill-rule:evenodd;clip-rule:evenodd;fill:#A78F6A;" d="M78,3c1.163-0.163,1.779,0.221,2,1
			c-4.677-0.26-1.396,1.187-3,4c-1,0-2,0-3,0c1.02-1.314,0.98-3.686,2-5C76.667,3,77.333,3,78,3z"/>
		<path style="fill-rule:evenodd;clip-rule:evenodd;fill:#9D7062;" d="M77,8c1.604-2.813-1.677-4.26,3-4c0.333,0,0.667,0,1,0
			c-0.594,3.19,1.877,3.093,0,5c-0.333,0-0.667,0-1,0c-0.667,0-1.333,0-2,0C78.184,8.149,77.61,8.057,77,8z"/>
		<path style="fill-rule:evenodd;clip-rule:evenodd;fill:#CFCCC8;" d="M64,9c0.745-2.255,5.609-0.391,8-1c0.667,0,1.333,0,2,0
			c1,0,2,0,3,0c0.61,0.057,1.184,0.149,1,1c-1.377-0.043-2.195,0.471-3,1C70.436,10.564,68.772,8.228,64,9z"/>
		<path style="fill-rule:evenodd;clip-rule:evenodd;fill:#818181;" d="M48,12c-0.229-3.562,1.438-5.229,5-5
			c3.534,1.837,0.036,2.493-1,5C50.667,12,49.333,12,48,12z"/>
		<path style="fill-rule:evenodd;clip-rule:evenodd;fill:#B6B1AD;" d="M64,9c-2.182-0.182-3.182,0.818-3,3
			c5.429-0.762,7.75,1.584,13,1c0,0.333,0,0.667,0,1c-4.738,0.738-6.875-1.125-11-1c-1,0-2,0-3,0c-6.35-1.651-2.755-1.611-3-5
			c0.776-0.224,1.973-0.027,2-1c4.025,0.642,10.633-1.3,13,1C69.609,8.609,64.745,6.745,64,9z"/>
		<path style="fill-rule:evenodd;clip-rule:evenodd;fill:#CFCCC8;" d="M90,11c2.562-1.084,4.768,3.038,6,0
			c-0.891-0.443-1.788-0.878-2-2c2.471,0.862,2.959,3.708,5,5c-2.121,5.543-8.273-0.393-15,1c-0.776-0.224-1.973-0.027-2-1
			c3.519,0.757,4.476-2.617,3-4C87.319,9.681,88.839,10.161,90,11z"/>
		<path style="fill-rule:evenodd;clip-rule:evenodd;fill:#4B4B4B;" d="M52,12c2.395,0.605,4.562,1.438,8,1c1,0,2,0,3,0
			c-2.707,2.96-12.293-0.96-15,2c-1.333,0-2.667,0-4,0c-1.701,0.368-1.887-0.78-2-2c3.059,0.725,2.941-1.725,6-1
			C49.333,12,50.667,12,52,12z"/>
		<path style="fill-rule:evenodd;clip-rule:evenodd;fill:#B6B1AD;" d="M48,15c8.614-0.537,19.282,0.815,25,0c0,1.667,0,3.333,0,5
			c-1.667,0-3.333,0-5,0c-1.064-2.27-6.286-0.381-9-1c-1.386-2.614-8.486,0.486-10-2c0.451-2.784-5.451,0.784-5-2
			C45.333,15,46.667,15,48,15z"/>
		<path style="fill-rule:evenodd;clip-rule:evenodd;fill:#666666;" d="M14,16c5.667,0,11.333,0,17,0c2.667,0,5.333,0,8,0
			c0,0.333,0,0.667,0,1c-9.667,0-19.333,0-29,0C10.31,15.643,12.504,16.17,14,16z"/>
		<path style="fill-rule:evenodd;clip-rule:evenodd;fill:#605F5E;" d="M76,21c1,0,2,0,3,0c0.667,0,1.333,0,2,0c0,0.333,0,0.667,0,1
			c1.78,0.553,4.153,0.514,5,2C82.271,23.396,76.907,24.426,76,21z"/>
		<path style="fill-rule:evenodd;clip-rule:evenodd;fill:#B6B1AD;" d="M100,25c-5.67-1.997-12.574-2.76-19-4c-0.667,0-1.333,0-2,0
			c-1.033-1.892-7.787-0.228-4-4c11.003,0.997,20.821,3.179,29,7C102.504,24.17,100.31,23.643,100,25z"/>
		<path style="fill-rule:evenodd;clip-rule:evenodd;fill:#A78F6A;" d="M13,26c3.622,0.712,8.289,0.378,11,2
			c-2.921,2.079-9.628,0.371-13,2c0.529-0.805,1.043-1.623,1-3C12.057,26.39,12.149,25.816,13,26z"/>
		<path style="fill-rule:evenodd;clip-rule:evenodd;fill:#9D7062;" d="M24,28c2.611,0.389,5.487,0.514,7,2
			c-1.787-0.282-2.052,0.945-1,1c-4.113,2.794-7.462,1.819-13,4c-3.024-0.643-5.771-1.562-6-5C14.372,28.371,21.079,30.079,24,28z"
			/>
		<path style="fill-rule:evenodd;clip-rule:evenodd;fill:#A78F6A;" d="M31,30c4.066,0.702,9.069,2.008,6,7c-1.333,0-2.667,0-4,0
			c-3.667,0-7.333,0-11,0c0.168-2.169-3.547-0.453-5-1c0-0.333,0-0.667,0-1c5.538-2.181,8.887-1.206,13-4
			C28.948,30.945,29.213,29.718,31,30z"/>
		<path style="fill-rule:evenodd;clip-rule:evenodd;fill:#A78F6A;" d="M60,32c0-1,0-2,0-3c1.122-0.212,1.557-1.109,2-2c1,0,2,0,3,0
			c0,0.333,0,0.667,0,1c-1.72-0.054-2.563,0.77-3,2c0.776,0.224,1.973,0.027,2,1c-1.376-0.043-2.196,0.471-3,1
			C60.667,32,60.333,32,60,32z"/>
		<path style="fill-rule:evenodd;clip-rule:evenodd;fill:#605F5E;" d="M122,30c7.526,3.141,19.115,2.218,21,11
			c-3.008,0.992-7.261,0.739-8,4c-0.667,0-1.333,0-2,0c-2.604-4.729-10.992-3.675-18-4c-4.1-0.1-8.196-0.196-11,1
			c-0.163,1.162,0.221,1.779,1,2c0,0.333,0,0.667,0,1c-7.332-0.001-11.418-3.249-16-6c1.606-1.834-0.924-3.386,2-5
			c1.716,2.555-1.146,3.5,1,5c0.628-3.572,2.905-5.488,3-7c2.972,1.126,8.089,3.313,8,0c1.162-0.162,1.779,0.221,2,1
			c-1.926,2.025-4.023,2.325-7,1c-2.039,0.558-1.961,3.009-4,1c1.406,5.287,10-1.008,15,4c0.74-3.406-3.686-1.648-4-4
			c0.891-0.443,1.788-0.878,2-2c4.493,1.023,9.854,1.426,15,4c-2.824,3.81-2.756-1.487-6,1c0,0.667,0,1.333,0,2
			c3.568-0.492,6.866-0.538,8-1c-0.973-0.027-0.776-1.224-1-2c3.38,0.38,4.267-1.733,6-3C126.842,33.317,117.07,31.299,122,30z"/>
		<path style="fill-rule:evenodd;clip-rule:evenodd;fill:#A29C98;" d="M22,37c3.667,0,7.333,0,11,0C31.6,38.657,23.4,38.657,22,37z"
			/>
		<path style="fill-rule:evenodd;clip-rule:evenodd;fill:#A78F6A;" d="M105,44c-0.779-0.221-1.163-0.838-1-2
			c2.804-1.196,6.9-1.1,11-1C115.667,44.699,107.854,41.402,105,44z"/>
		<path style="fill-rule:evenodd;clip-rule:evenodd;fill:#A78F6A;" d="M78,44c1.758,0.575,5.875-1.209,6,1
			c-1.74,5.548-9.851,6.779-16,5c0-0.333,0-0.667,0-1C70.437,46.437,72.269,43.269,78,44z"/>
		<path style="fill-rule:evenodd;clip-rule:evenodd;fill:#A29C98;" d="M95,46c3.333,0,6.667,0,10,0c0.851-0.184,0.943,0.39,1,1
			C102.633,46.367,96.712,48.288,95,46z"/>
		<path style="fill-rule:evenodd;clip-rule:evenodd;fill:#A29C98;" d="M116,50c3.667,0,7.333,0,11,0
			C125.6,51.657,117.4,51.657,116,50z"/>
		<path style="fill-rule:evenodd;clip-rule:evenodd;fill:#E5E5E4;" d="M85,10c1.476,1.383,0.519,4.757-3,4
			c-1.453-0.547-5.169,1.168-5-1c2.333,0,4.667,0,7,0c1.053-3.719-3.372-1.961-4-4c0.333,0,0.667,0,1,0
			C82.496,9.17,84.69,8.643,85,10z"/>
		<path style="fill-rule:evenodd;clip-rule:evenodd;fill:#A78F6A;" d="M61,42c0.85-2.934,2.517,1.301,5,0c0,0.333,0,0.667,0,1
			c0.851-0.184,0.943,0.39,1,1c-2.826,0.826-2.591-1.409-5-1c0,1,0,2,0,3C60.643,45.69,61.17,43.496,61,42z"/>
	</g>
</g>
</svg>
