<?xml version="1.0" encoding="iso-8859-1"?>
<!-- Generator: Adobe Illustrator 13.0.2, SVG Export Plug-In . SVG Version: 6.00 Build 14948)  -->
<!DOCTYPE svg PUBLIC "-//W3C//DTD SVG 1.1//EN" "http://www.w3.org/Graphics/SVG/1.1/DTD/svg11.dtd">
<svg version="1.1" id="Layer_1" xmlns="http://www.w3.org/2000/svg" xmlns:xlink="http://www.w3.org/1999/xlink" x="0px" y="0px"
	 width="144px" height="52px" viewBox="0 0 144 52" style="enable-background:new 0 0 144 52;" xml:space="preserve">
<g>
	<g>
		<path style="fill-rule:evenodd;clip-rule:evenodd;fill:#F4F448;" d="M74,9c2.983,1.077,6.121,1.284,7,2
			c-0.003,1.003,0.81,1.19,1,2c-5.006,0.673-7.74-0.926-12-1c-1.177-0.157-2.838,0.172-3-1C66.198,7.198,71.729,9.729,74,9z"/>
		<path style="fill-rule:evenodd;clip-rule:evenodd;fill:#9C9795;" d="M59,15c0.057-0.61,0.149-1.184,1-1
			c2.714,0.619,7.936-1.27,9,1C65.667,15,62.333,15,59,15z"/>
		<path style="fill-rule:evenodd;clip-rule:evenodd;fill:#B6AEA8;" d="M95,20c-1,0-2,0-3,0C83.471,16.663,101.967,18.275,95,20z"/>
		<path style="fill-rule:evenodd;clip-rule:evenodd;fill:#605F5F;" d="M66,24c3.367,0.633,9.288-1.289,11,1
			C73.633,24.367,67.711,26.288,66,24z"/>
		<path style="fill-rule:evenodd;clip-rule:evenodd;fill:#CCCBC8;" d="M92,8c3.858,1.809,6.98,4.353,10,7
			c-0.807-0.86-2.739-0.594-3-2c-2.767,4.079-11.584,0.551-16,0c-0.333,0-0.667,0-1,0c-0.19-0.81-1.003-0.997-1-2
			c0.89,0.777,2.258,1.075,4,1c0.282-1.615-0.945-1.722-1-3c4.447-0.447,7.289,0.711,10,2C97.085,9.999,91.831,9.352,92,8z"/>
		<path style="fill-rule:evenodd;clip-rule:evenodd;fill:#FFFFFF;" d="M0,52C0,34.667,0,17.333,0,0c48,0,96,0,144,0
			c0,17.333,0,34.667,0,52C96,52,48,52,0,52z M92,8c-3.864-2.469-9.086-3.581-14-5c-2.051-1.659-10.949-1.659-13,0
			c-3.472,1.195-7.768,1.566-10,4c-1.177,0.157-2.838-0.172-3,1c-3.698-0.698-4.418,1.582-4,5c-2.465-0.132-4.818-0.151-6,1
			c-3.879,2.454-13.272-0.605-17,2c-0.61,0.057-1.184,0.149-1,1c-8.607,0.06-16.504,0.83-21,5c1.528,4.806,5.79,6.877,10,9
			c0.057,0.61,0.149,1.184,1,1c0.239,1.427,1.646,1.687,2,3c0.667,0,1.333,0,2,0c2.725,2.941,9.826,1.508,14,3
			c4.003,2.664,10.867,2.466,16,4c-0.003,1.003,0.81,1.19,1,2c0.623,3.043,2.221,5.112,6,5c6.958,6.408,14.543-2.393,21-3
			c0.667,0,1.333,0,2,0c2.445,2.888,8.869,1.798,14,2c5.333,0,10.667,0,16,0c0.667,0,1.333,0,2,0c0.15,1.85,3.386,0.613,4,2
			c1.725,1.658,10.275,1.658,12,0c1.799-1.868,5.937-1.397,5-6c0-0.333,0-0.667,0-1c2.651-0.016,5.889,0.555,6-2
			c2.59-1.41,6.767-1.233,6-6c-2.003-1.663-3.704-3.629-7-4c-1.381-2.953-6.362-2.305-10-3c-3.372-1.962-7.666-3-12-4
			c-2.737-1.596-7.975-0.692-9-4c-0.057-0.61-0.149-1.184-1-1c-0.43-1.57-3.146-0.854-2-4C98.98,12.353,95.858,9.809,92,8z"/>
		<path style="fill-rule:evenodd;clip-rule:evenodd;fill:#9C9795;" d="M55,7c1,0,2,0,3,0c-0.565,2.081-2.857,3.232-1,5c-2,0-4,0-6,0
			c-0.149-1.332,4.066-3.018,1-4C52.162,6.828,53.823,7.157,55,7z"/>
		<path style="fill-rule:evenodd;clip-rule:evenodd;fill:#E5E6E3;" d="M81,11c-0.879-0.716-4.017-0.923-7-2
			c-0.169-2.168,3.547-0.453,5-1c1.453,0.547,5.169-1.168,5,1c0.055,1.278,1.282,1.385,1,3C83.258,12.075,81.89,11.777,81,11z"/>
		<path style="fill-rule:evenodd;clip-rule:evenodd;fill:#B6AEA8;" d="M104,19c-2.635,0.301-3.282-1.385-3-4
			c-3.105,3.465-14.742,0.778-18-2c4.416,0.551,13.233,4.079,16,0c0.261,1.406,2.193,1.14,3,2C100.854,18.146,103.57,17.43,104,19z"
			/>
		<path style="fill-rule:evenodd;clip-rule:evenodd;fill:#9C9795;" d="M70,12c4.26,0.074,6.994,1.673,12,1c0.333,0,0.667,0,1,0
			c3.258,2.778,14.895,5.465,18,2c-0.282,2.615,0.365,4.301,3,4c0.851-0.184,0.943,0.39,1,1c-0.556-0.003-1.135,0.81,0,1
			c-2.098,2.354-7.902-0.04-10-1c6.967-1.725-11.529-3.337-3,0c-0.333,0-0.667,0-1,0c-0.667,0-1.333,0-2,0s-1.333,0-2,0
			c-0.845-2.155-6.375,0.375-7-2c1.333,0,2.667,0,4,0c-1.749-3.584-9.781-0.885-13-3c-0.224-0.776-0.027-1.973-1-2
			C70,12.667,70,12.333,70,12z"/>
		<path style="fill-rule:evenodd;clip-rule:evenodd;fill:#CCCBC8;" d="M25,16c3.728-2.605,13.121,0.454,17-2
			c0.003,1.003-0.81,1.19-1,2c-2.333,0-4.667,0-7,0C31,16,28,16,25,16z"/>
		<path style="fill-rule:evenodd;clip-rule:evenodd;fill:#9C9795;" d="M55,16c-15.787,0.574-11.102-1.6-1-1
			c0.614-0.292,3.85-2.487,4,0C56.581,14.914,55.168,14.835,55,16z"/>
		<path style="fill-rule:evenodd;clip-rule:evenodd;fill:#777777;" d="M95,20c2.098,0.96,7.902,3.354,10,1
			c-1.135-0.19-0.556-1.003,0-1c1.025,3.308,6.263,2.404,9,4c-2,0-4,0-6,0c4.351,0.982,6.146,4.521,12,4
			c-2.003,2.183-2.992,2.329-8,3c-5.942-2.725-14.619-2.715-21-5c0-1,0-2,0-3c1.2-1.313,0.39-1.573,0-3c0.333,0,0.667,0,1,0
			C93,20,94,20,95,20z"/>
		<path style="fill-rule:evenodd;clip-rule:evenodd;fill:#5A5A5A;" d="M73,29c-0.333,0-0.667,0-1,0c0,1.333,0,2.667,0,4
			c2.452,1.332-1.802,3.019,1,4c-0.887,2.446-5.583,1.083-5,5c-1.667,0-3.333,0-5,0c-2.333,0-4.667,0-7,0s-4.667,0-7,0
			c2.81-2.711,0.79-2.489,0-6c9.126-2.132,6.535-4.189,15-2c-6.214-4.41,2.163-3.683,5-7c-2.085-1.02-4.074-0.078-7-2
			c-1.535,0.239-0.147,1.646,1,2c-1.384,0.979-6.488,0.236-8,0c-2.147-3.624,6.788-1.017,3-3c0.14-1.65,4.171,1.047,7,0
			c0.333,0,0.667,0,1,0c1.711,2.288,7.633,0.367,11,1c2.271,0.729,7.802-1.802,7,2c-0.667,0-1.333,0-2,0c-1,0-2,0-3,0
			c-1.667,0-3.333,0-5,0C74.163,28.162,73.779,28.779,73,29z M57,37c2.039,0.294,1.961,2.706,4,3c0.299-1.966-1.35-1.983-2-3
			c1.003,0.003,1.19-0.81,2-1c0.56,1.44,1.56,2.44,3,3c1.236-3.235-3.236-0.765-2-4C60.22,35.553,57.847,35.514,57,37z M63,41
			c6.86,0.056,2.898-3.65,4-6c-1.496,0.171-3.69-0.357-4,1C68.355,36.352,64.046,38.995,63,41z"/>
		<path style="fill-rule:evenodd;clip-rule:evenodd;fill:#5A5A5A;" d="M29,27c0.667,0,1.333,0,2,0c-0.41-1.257-1.29-2.044-3-2
			c-1.375-2.908,4.312,1.604,7,1c-0.239,1.427-1.647,1.687-2,3c-1.352-0.314-1.91-1.424-4-1C29,27.667,29,27.333,29,27z"/>
		<path style="fill-rule:evenodd;clip-rule:evenodd;fill:#605F5F;" d="M65,18c3.708-0.708,4.292,1.708,8,1
			C72.341,20.778,64.912,22.468,65,18z"/>
		<path style="fill-rule:evenodd;clip-rule:evenodd;fill:#666666;" d="M61,17c7.285-0.618,11.59,1.743,19,1
			c0.625,2.375,6.155-0.155,7,2c-1.197,3.651-1.404,4.491-2,7c-0.333,0-0.667,0-1,0c0.802-3.802-4.729-1.271-7-2
			c-1.712-2.289-7.633-0.367-11-1c-0.333,0-0.667,0-1,0c-0.904-2.096-5.645-0.355-6-3c-1.053-4.698,3.373,1.643,4-2
			C62.988,17.678,61.248,18.086,61,17z M73,19c-3.708,0.708-4.292-1.708-8-1C64.912,22.468,72.341,20.778,73,19z"/>
		<path style="fill-rule:evenodd;clip-rule:evenodd;fill:#555555;" d="M89,20c0.667,0,1.333,0,2,0c0.39,1.427,1.2,1.687,0,3
			c-1.85,0.15-0.614,3.386-2,4C86.307,25.817,89.004,21.786,89,20z"/>
		<path style="fill-rule:evenodd;clip-rule:evenodd;fill:#666666;" d="M112,31c5.008-0.671,5.997-0.817,8-3
			c-5.854,0.521-7.649-3.018-12-4c2,0,4,0,6,0c4.334,1,8.628,2.038,12,4c-4.985,1.859,10.097,2.508,5,8
			C124.819,35.436,119.368,33.028,112,31z"/>
		<path style="fill-rule:evenodd;clip-rule:evenodd;fill:#605F5F;" d="M112,31c7.368,2.028,12.819,4.436,19,5
			c5.097-5.492-9.985-6.141-5-8c3.638,0.695,8.619,0.047,10,3c-4.79,0.188,1.717,1.739,0,5c-2.09-0.424-2.647,0.686-4,1
			c2.539,2.796,5.187-2.757,9-2c-1.104,4.23-6.27,4.396-10,6c1.011,2.815,4.247-0.276,6,0c-0.111,2.555-3.349,1.984-6,2
			c-2.06-2.071-9.118-2.903-11-2c-0.481-4.519-6.598-3.402-9-6c0.821,3.179,4.292,3.708,7,5c0,0.333,0,0.667,0,1
			c-3.498-0.457-16.448-1.125-14,4c-5.603,0.835-9.472-1.605-13,0c3.882-2.416,5.338-5.819-1-7c0.271-2.062,4.428-0.238,4-3
			c1.96,0.483,3.221-4.585,1-5c-1.987-0.013-1.271-2.729-4-2c-0.027-0.973-1.224-0.776-2-1c1.386-0.614,0.15-3.85,2-4c0,1,0,2,0,3
			C97.381,28.285,106.058,28.275,112,31z M97,33c4.954,1.457,8.997,2.917,13,2c-1.597-2.069-6.103-1.231-8-3
			c1.553-2.863,4.666,2.083,6-1C104.275,28.962,98.054,31.781,97,33z"/>
		<path style="fill-rule:evenodd;clip-rule:evenodd;fill:#9D6D62;" d="M24,27c1.667,0,3.333,0,5,0c0,0.333,0,0.667,0,1
			c2.09-0.424,2.648,0.686,4,1c1.177,0.156,2.838-0.172,3,1c-8.455,1.973-10.529,1.698-18,5c-0.667,0-1.333,0-2,0
			c-0.354-1.313-1.761-1.573-2-3c0-0.667,0-1.333,0-2C16.381,28.048,23.276,30.609,24,27z"/>
		<path style="fill-rule:evenodd;clip-rule:evenodd;fill:#9D6D62;" d="M72,33c0-1.333,0-2.667,0-4c0.333,0,0.667,0,1,0c0,1,0,2,0,3
			c0.805-0.529,1.623-1.043,3-1c2.319-0.319,3.839,0.161,5,1c0.529,0.805,1.043,1.623,1,3c-3.693,0.112-2.894,1.833-1,3
			c-2.826,0.826-2.591-1.409-5-1C75.097,35.237,73.763,33.903,72,33z"/>
		<path style="fill-rule:evenodd;clip-rule:evenodd;fill:#B6AEA8;" d="M95,30c2.221,0.415,0.96,5.483-1,5
			c-5.226-0.107-9.63-1.037-13-3c-1.161-0.839-2.681-1.319-5-1c-2.064-1.976,0.688-2.666,3-3c3.109,2.911,11.183,6.123,16,4
			C95,31.333,95,30.667,95,30z"/>
		<path style="fill-rule:evenodd;clip-rule:evenodd;fill:#5A5A5A;" d="M108,31c-1.334,3.083-4.447-1.863-6,1
			c1.897,1.769,6.403,0.931,8,3c-4.003,0.917-8.046-0.543-13-2C98.054,31.781,104.275,28.962,108,31z"/>
		<path style="fill-rule:evenodd;clip-rule:evenodd;fill:#605F5F;" d="M72,33c1.763,0.903,3.097,2.237,4,4
			c0.225,1.7-1.127,2.475-1,0c-1.567,2.433-6.608,1.392-6,6c-1.758-0.575-5.875,1.209-6-1c1.667,0,3.333,0,5,0
			c-0.583-3.917,4.113-2.554,5-5C70.198,36.019,74.452,34.332,72,33z"/>
		<path style="fill-rule:evenodd;clip-rule:evenodd;fill:#A58F6A;" d="M81,32c3.37,1.963,7.774,2.893,13,3
			c0.428,2.762-3.729,0.938-4,3c-3,0-6,0-9,0c-1.894-1.167-2.693-2.888,1-3C82.043,33.623,81.529,32.805,81,32z"/>
		<path style="fill-rule:evenodd;clip-rule:evenodd;fill:#5A5A5A;" d="M137,41c-1.753-0.276-4.989,2.815-6,0
			c3.73-1.604,8.896-1.77,10-6c-3.813-0.757-6.461,4.796-9,2c1.353-0.314,1.91-1.424,4-1c1.717-3.261-4.79-4.812,0-5
			c3.296,0.371,4.997,2.337,7,4C143.767,39.767,139.59,39.59,137,41z"/>
		<path style="fill-rule:evenodd;clip-rule:evenodd;fill:#555555;" d="M118,41c0-0.333,0-0.667,0-1c-2.708-1.292-6.179-1.821-7-5
			c2.402,2.598,8.519,1.481,9,6C119.333,41,118.667,41,118,41z"/>
		<path style="fill-rule:evenodd;clip-rule:evenodd;fill:#5A5A5A;" d="M69,43c-0.608-4.608,4.433-3.567,6-6
			c-0.127,2.475,1.225,1.7,1,0c2.409-0.409,2.174,1.826,5,1c3,0,6,0,9,0c6.338,1.181,4.882,4.584,1,7c0,0.333,0,0.667,0,1
			c-1.333,0-2.667,0-4,0c-3,0-6,0-9,0c-0.667,0-1.333,0-2,0c-0.257-2.077-4.394-0.273-5-2C70.779,43.221,70.163,42.838,69,43z
			 M93,41c-1.353-0.314-1.91-1.424-4-1c-0.923,1.495-1.589,7.224,1,4c-0.779-0.221-1.163-0.838-1-2
			C90.332,39.548,92.019,43.802,93,41z"/>
		<path style="fill-rule:evenodd;clip-rule:evenodd;fill:#605F5F;" d="M62,35c-1.236,3.235,3.236,0.765,2,4
			c-1.44-0.56-2.44-1.56-3-3c-0.81,0.19-0.997,1.003-2,1c0.65,1.017,2.299,1.034,2,3c-2.039-0.294-1.961-2.706-4-3
			C57.847,35.514,60.22,35.553,62,35z"/>
		<path style="fill-rule:evenodd;clip-rule:evenodd;fill:#605F5F;" d="M63,36c0.31-1.357,2.504-0.829,4-1
			c-1.102,2.35,2.86,6.056-4,6C64.046,38.995,68.355,36.352,63,36z"/>
		<path style="fill-rule:evenodd;clip-rule:evenodd;fill:#605F5F;" d="M89,42c-0.163,1.162,0.221,1.779,1,2
			c-2.589,3.224-1.923-2.505-1-4c2.09-0.424,2.647,0.686,4,1C92.019,43.802,90.332,39.548,89,42z"/>
		<path style="fill-rule:evenodd;clip-rule:evenodd;fill:#9D6D62;" d="M104,45c-2.448-5.125,10.502-4.457,14-4c0.667,0,1.333,0,2,0
			c1.882-0.903,8.94-0.071,11,2c0,0.333,0,0.667,0,1c-5.789-1.03-14.785,1.146-21,4c-0.667,0-1.333,0-2,0
			c-0.186-1.48-2.417-0.917-4-1c0-0.333,0-0.667,0-1S104,45.333,104,45z"/>
		<path style="fill-rule:evenodd;clip-rule:evenodd;fill:#B6AEA8;" d="M65,3c2.051-1.659,10.949-1.659,13,0C73.667,3,69.333,3,65,3z
			"/>
		<path style="fill-rule:evenodd;clip-rule:evenodd;fill:#9D6D62;" d="M65,3c4.333,0,8.667,0,13,0c4.914,1.419,10.136,2.531,14,5
			c-0.169,1.352,5.085,1.999,2,3c-2.711-1.289-5.553-2.447-10-2c0.169-2.168-3.547-0.453-5-1c-2.366-2.3-8.975-0.358-13-1
			c-2.667,0-5.333,0-8,0c-1,0-2,0-3,0C57.232,4.566,61.528,4.195,65,3z"/>
		<path style="fill-rule:evenodd;clip-rule:evenodd;fill:#CCCBC8;" d="M66,7c4.025,0.642,10.634-1.3,13,1
			c-1.453,0.547-5.169-1.168-5,1c-2.271,0.729-7.802-1.802-7,2c-3.146,1.146-2.43-1.57-4-2C63.226,7.56,65.985,8.651,66,7z"/>
		<path style="fill-rule:evenodd;clip-rule:evenodd;fill:#777777;" d="M52,8c3.066,0.982-1.149,2.668-1,4c2,0,4,0,6,0
			c4.9-0.234,7.571,1.762,13,1c0.973,0.027,0.776,1.224,1,2c-0.667,0-1.333,0-2,0c-1.064-2.27-6.286-0.381-9-1
			c-2.039-2.295-8.305-0.362-12-1C47.582,9.582,48.302,7.302,52,8z"/>
		<path style="fill-rule:evenodd;clip-rule:evenodd;fill:#B6AEA8;" d="M67,11c0.162,1.172,1.823,0.843,3,1c0,0.333,0,0.667,0,1
			c-5.429,0.762-8.1-1.234-13-1c-1.857-1.768,0.435-2.919,1-5c2.667,0,5.333,0,8,0c-0.015,1.651-2.774,0.56-3,2
			C64.57,9.43,63.854,12.146,67,11z"/>
		<path style="fill-rule:evenodd;clip-rule:evenodd;fill:#605F5F;" d="M58,15c-0.15-2.487-3.386-0.292-4,0
			c-10.102-0.6-14.787,1.574,1,1c3.056-0.723,3.644,1.022,6,1c0.248,1.086,1.988,0.678,2,2c-0.627,3.643-5.053-2.698-4,2
			c0.355,2.645,5.096,0.904,6,3c-2.829,1.047-6.86-1.65-7,0c-0.333,0-0.667,0-1,0c-1.687-3.282,0.531-4.409,2-7
			c-1.667,0-3.333,0-5,0c-4.262-0.405-10.302,0.968-13-1c0.19-0.81,1.003-0.997,1-2c1.182-1.151,3.535-1.132,6-1
			c3.695,0.638,9.961-1.295,12,1c-0.851-0.184-0.943,0.39-1,1C58.667,15,58.333,15,58,15z"/>
		<path style="fill-rule:evenodd;clip-rule:evenodd;fill:#666666;" d="M25,16c3,0,6,0,9,0c-1.386,2.28-6.96,0.373-10,1
			C23.816,16.149,24.39,16.057,25,16z"/>
		<path style="fill-rule:evenodd;clip-rule:evenodd;fill:#5A5A5A;" d="M54,17c1.667,0,3.333,0,5,0c-1.469,2.591-3.687,3.718-2,7
			C54.119,23.531,51.626,19.668,54,17z"/>
		<path style="fill-rule:evenodd;clip-rule:evenodd;fill:#B6AEA8;" d="M80,18c-7.41,0.743-11.715-1.618-19-1
			c-2.356,0.022-2.944-1.723-6-1c0.168-1.165,1.581-1.086,3-1c0.333,0,0.667,0,1,0c3.333,0,6.667,0,10,0c0.667,0,1.333,0,2,0
			c3.219,2.115,11.251-0.584,13,3C82.667,18,81.333,18,80,18z"/>
		<path style="fill-rule:evenodd;clip-rule:evenodd;fill:#A58F6A;" d="M13,31c-1.441-6.146,7.638-5.85,11-4
			c-0.724,3.609-7.619,1.048-10,3c0,0.667,0,1.333,0,2C13.149,32.184,13.057,31.61,13,31z"/>
		<path style="fill-rule:evenodd;clip-rule:evenodd;fill:#A58F6A;" d="M73,29c0.779-0.221,1.163-0.838,1-2c1.667,0,3.333,0,5,0
			c0,0.333,0,0.667,0,1c-2.312,0.334-5.064,1.024-3,3c-1.377-0.043-2.195,0.471-3,1C73,31,73,30,73,29z"/>
		<path style="fill-rule:evenodd;clip-rule:evenodd;fill:#CCCBC8;" d="M79,27c1,0,2,0,3,0c-0.027,0.973-1.224,0.776-2,1
			c4.396,1.938,9.95,2.716,15,4c-4.817,2.123-12.891-1.089-16-4C79,27.667,79,27.333,79,27z"/>
		<path style="fill-rule:evenodd;clip-rule:evenodd;fill:#777777;" d="M89,20c0.004,1.786-2.693,5.817,0,7
			c0.776,0.224,1.973,0.027,2,1c-1.758-0.575-5.875,1.209-6-1c0.596-2.509,0.803-3.349,2-7C87.667,20,88.333,20,89,20z"/>
		<path style="fill-rule:evenodd;clip-rule:evenodd;fill:#A58F6A;" d="M36,30c0.658,1.342,2.138,1.862,4,2
			c-0.498,4.169-4.521,4.812-8,6c-4.174-1.492-11.275-0.059-14-3C25.471,31.698,27.545,31.973,36,30z"/>
		<path style="fill-rule:evenodd;clip-rule:evenodd;fill:#9D6D62;" d="M56,42c2.333,0,4.667,0,7,0c0.125,2.209,4.242,0.425,6,1
			c1.163-0.162,1.779,0.221,2,1c-7.968-0.968-11.747,2.253-16,5c-3.779,0.112-5.377-1.957-6-5C51.611,43.611,54.487,43.486,56,42z"
			/>
		<path style="fill-rule:evenodd;clip-rule:evenodd;fill:#A58F6A;" d="M71,44c0.606,1.727,4.743-0.077,5,2
			c-6.457,0.607-14.042,9.408-21,3C59.253,46.253,63.032,43.032,71,44z"/>
		<path style="fill-rule:evenodd;clip-rule:evenodd;fill:#555555;" d="M91,46c0-0.333,0-0.667,0-1c3.528-1.605,7.397,0.835,13,0
			c0,0.333,0,0.667,0,1C99.667,46,95.333,46,91,46z"/>
		<path style="fill-rule:evenodd;clip-rule:evenodd;fill:#E5E6E3;" d="M78,46c3,0,6,0,9,0c-0.169,2.169,3.547,0.453,5,1
			c0,0.333,0,0.667,0,1C86.869,47.798,80.445,48.888,78,46z"/>
		<path style="fill-rule:evenodd;clip-rule:evenodd;fill:#777777;" d="M91,46c4.333,0,8.667,0,13,0c0,0.333,0,0.667,0,1
			c-4,0-8,0-12,0c-1.453-0.547-5.169,1.169-5-1C88.333,46,89.667,46,91,46z"/>
		<path style="fill-rule:evenodd;clip-rule:evenodd;fill:#CCCBC8;" d="M104,47c1.583,0.083,3.814-0.48,4,1c-5.333,0-10.667,0-16,0
			c0-0.333,0-0.667,0-1C96,47,100,47,104,47z"/>
		<path style="fill-rule:evenodd;clip-rule:evenodd;fill:#A58F6A;" d="M114,50c-0.614-1.387-3.85-0.15-4-2
			c6.215-2.854,15.211-5.03,21-4c0.937,4.603-3.201,4.132-5,6C122,50,118,50,114,50z"/>
		<path style="fill-rule:evenodd;clip-rule:evenodd;fill:#B6AEA8;" d="M114,50c4,0,8,0,12,0C124.275,51.658,115.725,51.658,114,50z"
			/>
		<path style="fill-rule:evenodd;clip-rule:evenodd;fill:#555555;" d="M34,16c2.333,0,4.667,0,7,0c2.698,1.968,8.738,0.595,13,1
			c-2.374,2.668,0.119,6.531,3,7c0.333,0,0.667,0,1,0c3.788,1.983-5.147-0.624-3,3c1.512,0.236,6.616,0.979,8,0
			c-1.147-0.354-2.535-1.761-1-2c2.926,1.922,4.915,0.98,7,2c-2.837,3.317-11.214,2.59-5,7c-8.465-2.189-5.874-0.132-15,2
			c0.79,3.511,2.81,3.289,0,6c-0.333,0-0.667,0-1,0c-5.133-1.534-11.997-1.336-16-4c3.479-1.188,7.502-1.831,8-6
			c-1.862-0.138-3.342-0.658-4-2c-0.162-1.172-1.823-0.844-3-1c0.353-1.313,1.761-1.573,2-3c-2.688,0.604-8.375-3.908-7-1
			c1.71-0.044,2.59,0.743,3,2c-0.667,0-1.333,0-2,0c-1.667,0-3.333,0-5,0c-3.362-1.85-12.441-2.146-11,4
			c-4.21-2.123-8.472-4.194-10-9c4.496-4.17,12.393-4.94,21-5C27.04,16.373,32.614,18.28,34,16z"/>
		<path style="fill-rule:evenodd;clip-rule:evenodd;fill:#E5E6E3;" d="M95,32c-5.05-1.284-10.604-2.062-15-4
			c0.776-0.224,1.973-0.027,2-1c0.667,0,1.333,0,2,0c0.333,0,0.667,0,1,0c0.125,2.209,4.242,0.425,6,1c2.729-0.729,2.013,1.987,4,2
			C95,30.667,95,31.333,95,32z"/>
		<path style="fill-rule:evenodd;clip-rule:evenodd;fill:#A58F6A;" d="M49,42c2.333,0,4.667,0,7,0c-1.513,1.486-4.389,1.611-7,2
			c-0.19-0.81-1.003-0.997-1-2C48.333,42,48.667,42,49,42z"/>
	</g>
</g>
</svg>
