<?xml version="1.0" encoding="iso-8859-1"?>
<!-- Generator: Adobe Illustrator 13.0.2, SVG Export Plug-In . SVG Version: 6.00 Build 14948)  -->
<!DOCTYPE svg PUBLIC "-//W3C//DTD SVG 1.1//EN" "http://www.w3.org/Graphics/SVG/1.1/DTD/svg11.dtd">
<svg version="1.1" id="Layer_1" xmlns="http://www.w3.org/2000/svg" xmlns:xlink="http://www.w3.org/1999/xlink" x="0px" y="0px"
	 width="144px" height="52px" viewBox="0 0 144 52" style="enable-background:new 0 0 144 52;" xml:space="preserve">
<g>
	<g>
		<path style="fill-rule:evenodd;clip-rule:evenodd;fill:#E6E8E6;" d="M67,2c1.078-1.655,8.922-1.655,10,0C73.667,2,70.333,2,67,2z"
			/>
		<path style="fill-rule:evenodd;clip-rule:evenodd;fill:#F2F251;" d="M73,12c0.483-5.981,14.894-3.066,15,1c-2,0-4,0-6,0
			C80.341,11.326,76.129,12.204,73,12z"/>
		<path style="fill-rule:evenodd;clip-rule:evenodd;fill:#4F4F4F;" d="M43,18c1.936,1.397,5.455,1.212,5,5
			C45.691,21.975,42.678,21.655,43,18z"/>
		<path style="fill-rule:evenodd;clip-rule:evenodd;fill:#4F4F4F;" d="M46,26c1.733-3.244,2.62,2.598,6,1
			C50.629,31.336,47.882,26.924,46,26z"/>
		<path style="fill-rule:evenodd;clip-rule:evenodd;fill:#666666;" d="M113,35c-1.064,1.936-3.387,2.613-5,4
			C107.607,35.876,108.379,35.789,113,35z"/>
		<path style="fill-rule:evenodd;clip-rule:evenodd;fill:#4F4F4F;" d="M119,41c-0.839-1.161-1.319-2.681-1-5
			c1.427,0.239,1.687,1.646,3,2c0.043,1.377-0.471,2.195-1,3C119.667,41,119.333,41,119,41z"/>
		<path style="fill-rule:evenodd;clip-rule:evenodd;fill:#A6906B;" d="M38,43c1.064-2.27,6.286-0.381,9-1
			c-1.977,1.689-6.241,1.092-9,2C38,43.667,38,43.333,38,43z"/>
		<path style="fill-rule:evenodd;clip-rule:evenodd;fill:#767676;" d="M73,47c0-0.333,0-0.667,0-1c5.681,0.653,13.981-1.315,18,1
			c-5.333,0-10.667,0-16,0C74.333,47,73.667,47,73,47z"/>
		<path style="fill-rule:evenodd;clip-rule:evenodd;fill:#CDCBC9;" d="M101,47c-6.348,1.664-19.652,1.664-26,0
			c5.333,0,10.667,0,16,0C94.333,47,97.667,47,101,47z"/>
		<path style="fill-rule:evenodd;clip-rule:evenodd;fill:#A6906B;" d="M72,3c0.333,0,0.667,0,1,0c0,1,0,2,0,3
			c1.419-0.086,2.832-0.165,3,1c-4.897-0.647-4.698-0.174-10,0c-1,0-2,0-3,0c1.807-3.262,3.669-0.263,8-1
			C70.718,4.385,71.945,4.278,72,3z"/>
		<path style="fill-rule:evenodd;clip-rule:evenodd;fill:#9D6C60;" d="M56,6c2.594-1.406,6.614-1.386,9-3c2.333,0,4.667,0,7,0
			c-0.055,1.278-1.282,1.385-1,3c-4.331,0.737-6.193-2.262-8,1c-2.656,0.01-5.711-0.378-7,1C56,7.333,56,6.667,56,6z"/>
		<path style="fill-rule:evenodd;clip-rule:evenodd;fill:#A6906B;" d="M82,4c4.095,0.239,5.633,3.034,10,3
			c2.791,3.917-7.868,1.476-9,0C85.896,6.44,81.466,5.44,82,4z"/>
		<path style="fill-rule:evenodd;clip-rule:evenodd;fill:#B7ADA7;" d="M56,8c1.289-1.378,4.344-0.99,7-1c1,0,2,0,3,0
			c-9.562,3.345,1.915,3.929,6,5c-3,0-6,0-9,0c-3.164,1.374-3.342,0.218-7,0c-0.667,0-1.333,0-2,0C54.521,10.521,55.479,9.479,56,8z
			"/>
		<path style="fill-rule:evenodd;clip-rule:evenodd;fill:#9C9794;" d="M50,9c1.333-1.667,4.447-1.553,6-3c0,0.667,0,1.333,0,2
			c-0.521,1.479-1.479,2.521-2,4c0.667,0,1.333,0,2,0c0,0.333,0,0.667,0,1c-3.15-1.121-2.264-0.09-6,0c-0.689-2.689,2.067-1.933,3-3
			c-0.027-0.973-1.224-0.776-2-1C50.667,9,50.333,9,50,9z"/>
		<path style="fill-rule:evenodd;clip-rule:evenodd;fill:#B7ADA7;" d="M82,13c2,0,4,0,6,0c3.868-0.535,4.882,1.785,9,1
			c1.567-0.354-0.875-1.761,1-2c1.615-0.282,1.722,0.945,3,1c-0.424,2.09,0.686,2.648,1,4c-3.749-1.584-8.46-2.207-13-3
			c-1.997,1.443,1.564,4.027-4,3c-0.667,0-1.333,0-2,0c0.183-0.829-0.389-0.972-1-1c-16.109-0.742-1.6-0.916,5-1
			C87.45,12.216,81.55,15.784,82,13z"/>
		<path style="fill-rule:evenodd;clip-rule:evenodd;fill:#666666;" d="M46,14c1.02-1.314,0.98-3.686,2-5c0.667,0,1.333,0,2,0
			c0.333,0,0.667,0,1,0c0.776,0.224,1.973,0.027,2,1c-0.933,1.067-3.689,0.311-3,3c3.736-0.09,2.85-1.121,6,0
			c6.908,0.201-3.715,2.676-7,2c0.125,2.208,4.242,0.425,6,1c1,0,2,0,3,0c4.277,2.39,13.458-0.125,18,2
			c-0.202,1.342-4.153,1.862,0,2c-0.847,1.486-3.22,1.447-5,2c0.136,2.864,6.864-0.864,7,2c-8.792-0.874-19.428,0.095-26-3
			c0.325-2.341,4.362-0.971,5-3c-2.91-1.647-8.677-1.543-11-1c-0.306-2.306,2.889-1.111,3-3C48,14,47,14,46,14z"/>
		<path style="fill-rule:evenodd;clip-rule:evenodd;fill:#767676;" d="M56,13c0-0.333,0-0.667,0-1c3.658,0.218,3.836,1.374,7,0
			c11.325,3.137-5.371,0.683-8,4c-1.758-0.575-5.875,1.208-6-1C52.285,15.676,62.908,13.201,56,13z"/>
		<path style="fill-rule:evenodd;clip-rule:evenodd;fill:#9C9794;" d="M63,12c3,0,6,0,9,0c0.333,0,0.667,0,1,0
			c3.129,0.204,7.341-0.674,9,1c-0.45,2.784,5.45-0.784,5,2c-6.6,0.084-21.109,0.258-5,1c0.611,0.028,1.183,0.171,1,1
			c-8.96,0.293-15.565-1.768-25-1c-1,0-2,0-3,0C57.629,12.683,74.325,15.137,63,12z"/>
		<path style="fill-rule:evenodd;clip-rule:evenodd;fill:#5C5C5C;" d="M43,15c0.162-1.172,1.823-0.843,3-1c1,0,2,0,3,0
			c-0.111,1.889-3.306,0.694-3,3c2.323-0.543,8.09-0.647,11,1c-0.638,2.029-4.675,0.659-5,3c6.572,3.095,17.208,2.126,26,3
			c2.08,0.64,31.488,0.023,18,3c-1.333,0-2.667,0-4,0c-3.827,0.506-7.76,0.907-8,5c-0.072,3.405,2.941,3.725,5,5
			c6.283,2.367,17.048,1.23,19-4c-0.083-1.583,0.48-3.814-1-4c-2.656-4.101,6.225-0.688,8,0c1.394,1.606,4.936,1.064,6,3
			c-1.367,2.935-2.714,3.386,0,6c-1.313-0.354-1.573-1.761-3-2c-0.319,2.319,0.161,3.839,1,5c-6.786,1.214-18.104-2.104-18,6
			c-3.333,0-6.667,0-10,0c-4.019-2.315-12.319-0.347-18-1c-3.667,0-7.333,0-11,0c-0.634-3.699-5.615-3.051-10-3
			c0.168-2.169-3.547-0.453-5-1c-2.714,0.619-7.936-1.27-9,1c-0.694-1.973-5.58,0.246-6-2c2.656-0.011,5.711,0.378,7-1
			c-1.762,0.019-8.029-2.128-11,0c-2.651-0.016-5.888,0.555-6-2c0.667,0,1.333,0,2,0c-5.185-2.923-8.292-4.414-12-7
			c0.388-2.945,4.711-1.955,6-4c0.333,0,0.667,0,1,0c-0.777,0.89-1.075,2.258-1,4c1.242,2.092,2.908,3.759,5,5
			c6.307,2.93,19.193,3.245,22-3c-0.233-3.1-3.546-3.12-6-4c-1.849-1.484-4.751-1.916-8-2c-3.667,0-7.333,0-11,0
			c6.01-3.36,17.153,1.628,19-4c1.904,0.429,2.512,2.154,5,2c2.142-1.248-2.489-4.099-2-7C42.339,16.883,47.31,14.75,43,15z M108,39
			c1.613-1.387,3.936-2.064,5-4C108.379,35.789,107.607,35.876,108,39z M44,40c2.869,1.087,7.442-1.068,4-3
			c1.555,2.461-3.396,2.94-3,1c-1.323-2.506,4.656-2.428,1-4C45.112,35.778,43.208,36.542,44,40z M48,23
			c0.455-3.788-3.064-3.603-5-5C42.678,21.655,45.691,21.975,48,23z M52,27c-3.38,1.598-4.267-4.244-6-1
			C47.882,26.924,50.629,31.336,52,27z"/>
		<path style="fill-rule:evenodd;clip-rule:evenodd;fill:#666666;" d="M115,29c3.727-0.061,6.325,1.009,9,2
			c2.675,0.296-2.658-3.88,2-3c0.302-2.635-1.385-3.282-4-3c-0.169-2.168,3.547-0.453,5-1c2.557,2.11,7.771,1.562,10,4c-1,0-2,0-3,0
			c1.067,0.933,0.312,3.688,3,3c1.382,4.049-2.171,3.163-2,6c-4.47-1.143-1.274-0.59-3,2c-1.85,0.943-0.614-5.724-2-2
			c0.838-2.932-4.253-4.753-8-6c-2.114,0.309,1.051,3.473,3,3c-1.326,1.674-2.649,3.351-2,7c-1,0-2,0-3,0
			c0.529-0.805,1.043-1.623,1-3c-2.714-2.614-1.367-3.065,0-6C119.936,30.064,116.394,30.606,115,29z"/>
		<path style="fill-rule:evenodd;clip-rule:evenodd;fill:#4F4F4F;" d="M46,34c3.656,1.572-2.323,1.494-1,4
			c-0.396,1.94,4.555,1.461,3-1c3.442,1.932-1.131,4.087-4,3C43.208,36.542,45.112,35.778,46,34z"/>
		<path style="fill-rule:evenodd;clip-rule:evenodd;fill:#4F4F4F;" d="M43,15c4.31-0.25-0.661,1.883-1,3
			c-0.489,2.901,4.142,5.752,2,7c-2.488,0.154-3.096-1.571-5-2c-1.847,5.628-12.99,0.64-19,4c-0.333,0-0.667,0-1,0s-0.667,0-1,0
			c-1.289,2.045-5.612,1.055-6,4c3.708,2.586,6.815,4.077,12,7c-0.667,0-1.333,0-2,0c-8.348-1.985-15.164-5.503-19-12
			C9.638,15.638,30.289,19.289,43,15z"/>
		<path style="fill-rule:evenodd;clip-rule:evenodd;fill:#5C5C5C;" d="M108,20c1.312,2.29-2.286,6.583-6,7
			c0.833-3.167,2.917-5.083,5-7C107.333,20,107.667,20,108,20z"/>
		<path style="fill-rule:evenodd;clip-rule:evenodd;fill:#767676;" d="M107,20c-2.083,1.917-4.167,3.833-5,7
			c3.714-0.417,7.312-4.71,6-7c2.071,0.595,6.569-1.236,7,1c1.719,1.948,5.178,2.155,9,2c1.419-0.086,2.832-0.165,3,1
			c-1.453,0.547-5.169-1.168-5,1c2.615-0.282,4.302,0.365,4,3c-4.658-0.88,0.675,3.296-2,3c-2.675-0.991-5.273-2.061-9-2
			c-1.775-0.688-10.656-4.101-8,0c-3.113-1.22-6.339-2.328-11-2c13.488-2.977-15.92-2.36-18-3c-0.136-2.864-6.864,0.864-7-2
			c1.78-0.553,4.153-0.514,5-2c-4.153-0.138-0.202-0.658,0-2c-4.542-2.125-13.723,0.39-18-2c9.435-0.768,16.04,1.293,25,1
			c0.667,0,1.333,0,2,0c7.853,2.004,12.431,1.112,21,2C106.851,18.816,106.943,19.39,107,20z"/>
		<path style="fill-rule:evenodd;clip-rule:evenodd;fill:#5C5C5C;" d="M123,41c-0.649-3.649,0.674-5.326,2-7
			c-1.949,0.473-5.114-2.691-3-3c3.747,1.247,8.838,3.068,8,6c1.386-3.724,0.15,2.943,2,2c1.726-2.59-1.47-3.143,3-2
			c-0.171-2.837,3.382-1.951,2-6c-2.688,0.688-1.933-2.067-3-3c1,0,2,0,3,0c3.651,0.016,4.491,2.843,7,4c0,1,0,2,0,3
			c-5.2,2.8-10.131,5.869-16,8c-0.333,0-0.667,0-1,0c-0.805-0.529-1.623-1.043-3-1C123.149,42.184,123.057,41.61,123,41z"/>
		<path style="fill-rule:evenodd;clip-rule:evenodd;fill:#A6906B;" d="M20,27c3.667,0,7.333,0,11,0c-0.226,1.44-2.985,0.349-3,2
			c-2.039-1.104-10.788-2.321-7,2c-1,0-2,0-3,0c-0.075-1.742,0.223-3.11,1-4C19.333,27,19.667,27,20,27z"/>
		<path style="fill-rule:evenodd;clip-rule:evenodd;fill:#A6906B;" d="M25,32c2.194,1.14,4.086,2.581,8,2
			c0.729-2.729-1.987-2.013-2-4c2.167,3.024,5.451,0.837,8-1c2.454,0.88,5.767,0.9,6,4c-2.807,6.245-15.693,5.93-22,3
			C23.076,33.43,27.659,34.57,25,32z"/>
		<path style="fill-rule:evenodd;clip-rule:evenodd;fill:#B7ADA7;" d="M21,31c-3.788-4.321,4.961-3.104,7-2
			c0.804,0.529,1.624,1.043,3,1c0.013,1.987,2.729,1.271,2,4c-3.914,0.581-5.806-0.86-8-2C24.11,31.224,22.742,30.925,21,31z"/>
		<path style="fill-rule:evenodd;clip-rule:evenodd;fill:#CDCBC9;" d="M92,28c4.729,0.881,11.044,4.576,15,3
			C105.685,34.057,90.625,30.834,92,28z"/>
		<path style="fill-rule:evenodd;clip-rule:evenodd;fill:#B7ADA7;" d="M107,31c0-0.667,0-1.333,0-2c1.48,0.186,0.917,2.417,1,4
			c-4.262,2.961-12.18,1.021-17-1c-0.333,0-0.667,0-1,0c-0.161-1.172-1.823-0.844-3-1c0.691-1.976,2.667-2.666,5-3
			C90.625,30.834,105.685,34.057,107,31z"/>
		<path style="fill-rule:evenodd;clip-rule:evenodd;fill:#A6906B;" d="M91,32c4.82,2.021,12.738,3.961,17,1
			c-1.952,5.23-12.717,6.367-19,4c-2.282-3.337,1.441-0.063,4-2C92.646,33.687,91.239,33.427,91,32z"/>
		<path style="fill-rule:evenodd;clip-rule:evenodd;fill:#9D6C60;" d="M89,37c-2.059-1.275-5.072-1.595-5-5c2,0,4,0,6,0
			c0.333,0,0.667,0,1,0c0.239,1.427,1.646,1.687,2,3C90.441,36.937,86.718,33.663,89,37z"/>
		<path style="fill-rule:evenodd;clip-rule:evenodd;fill:#CDCBC9;" d="M127,43c0.333,0,0.667,0,1,0c0.306,4.639-1.754,6.913-6,7
			c1.812-0.854,2.758-2.575,5-3C127,45.667,127,44.333,127,43z"/>
		<path style="fill-rule:evenodd;clip-rule:evenodd;fill:#B7ADA7;" d="M67,2c3.333,0,6.667,0,10,0c1.419-0.086,2.832-0.165,3,1
			c-2.333,0-4.667,0-7,0c-0.333,0-0.667,0-1,0c-2.333,0-4.667,0-7,0C65.027,2.027,66.224,2.224,67,2z"/>
		<path style="fill-rule:evenodd;clip-rule:evenodd;fill:#9D6C60;" d="M73,3c2.333,0,4.667,0,7,0c0.81,0.19,0.997,1.003,2,1
			c-0.534,1.44,3.896,2.44,1,3c-2.333,0-4.667,0-7,0c-0.168-1.165-1.581-1.086-3-1C73,5,73,4,73,3z"/>
		<path style="fill-rule:evenodd;clip-rule:evenodd;fill:#CDCBC9;" d="M88,13c-0.106-4.066-14.517-6.981-15-1c-0.333,0-0.667,0-1,0
			c-4.085-1.071-15.562-1.655-6-5c5.302-0.174,5.103-0.647,10,0c2.333,0,4.667,0,7,0c1.132,1.476,11.791,3.917,9,0
			c1.512,3.488,6.837,3.164,9,6c-1.278-0.055-1.385-1.282-3-1c-1.875,0.239,0.567,1.646-1,2C92.882,14.785,91.868,12.465,88,13z"/>
		<path style="fill-rule:evenodd;clip-rule:evenodd;fill:#9C9794;" d="M102,17c0.614,1.386,3.85,0.15,4,2
			c-8.569-0.888-13.147,0.004-21-2c5.564,1.027,2.003-1.557,4-3C93.54,14.793,98.251,15.416,102,17z"/>
		<path style="fill-rule:evenodd;clip-rule:evenodd;fill:#CDCBC9;" d="M115,21c3.371,0.295,6.831,0.502,9,2
			C120.178,23.155,116.719,22.948,115,21z"/>
		<path style="fill-rule:evenodd;clip-rule:evenodd;fill:#E6E8E6;" d="M96,27c4.661-0.328,7.887,0.78,11,2c0,0.667,0,1.333,0,2
			c-3.956,1.576-10.271-2.119-15-3c0-0.333,0-0.667,0-1C93.333,27,94.667,27,96,27z"/>
		<path style="fill-rule:evenodd;clip-rule:evenodd;fill:#9D6C60;" d="M31,30c-1.376,0.043-2.196-0.471-3-1
			c0.015-1.651,2.774-0.56,3-2c3.249,0.084,6.151,0.516,8,2C36.451,30.837,33.167,33.024,31,30z"/>
		<path style="fill-rule:evenodd;clip-rule:evenodd;fill:#FFFFFF;" d="M127,24c-0.168-1.165-1.581-1.086-3-1
			c-2.169-1.498-5.629-1.705-9-2c-0.431-2.236-4.929-0.405-7-1c-0.333,0-0.667,0-1,0c-0.057-0.61-0.149-1.184-1-1
			c-0.15-1.85-3.386-0.614-4-2c-0.314-1.352-1.424-1.91-1-4c-2.163-2.836-7.488-2.512-9-6c-4.367,0.034-5.905-2.761-10-3
			c-1.003,0.003-1.19-0.81-2-1c-0.168-1.165-1.581-1.086-3-1c-1.078-1.655-8.922-1.655-10,0c-0.776,0.224-1.973,0.027-2,1
			c-2.386,1.614-6.406,1.594-9,3c-1.553,1.447-4.667,1.333-6,3c-0.667,0-1.333,0-2,0c-1.02,1.314-0.98,3.686-2,5
			c-1.177,0.157-2.838-0.172-3,1C30.289,19.289,9.638,15.638,3,26c3.836,6.497,10.652,10.015,19,12c0.112,2.555,3.349,1.984,6,2
			c0.31,1.357,2.504,0.829,4,1c0.42,2.246,5.306,0.027,6,2c0,0.333,0,0.667,0,1c-0.229,3.562,1.438,5.229,5,5
			c0.248,1.086,1.988,0.679,2,2c6.771,0.104,11.924-1.409,16-4c4,0,8,0,12,0c0.667,0,1.333,0,2,0c6.348,1.664,19.652,1.664,26,0
			c2.09-0.424,2.647,0.686,4,1c-0.45,2.784,5.45-0.784,5,2c1.4,1.657,9.6,1.657,11,0c0.333,0,0.667,0,1,0
			c4.246-0.087,6.306-2.361,6-7c5.869-2.131,10.8-5.2,16-8c0,5.667,0,11.333,0,17c-48,0-96,0-144,0C0,34.667,0,17.333,0,0
			c48,0,96,0,144,0c0,10.667,0,21.333,0,32c-2.509-1.157-3.349-3.984-7-4C134.771,25.562,129.557,26.11,127,24z"/>
		<path style="fill-rule:evenodd;clip-rule:evenodd;fill:#9D6C60;" d="M21,31c1.742-0.075,3.11,0.224,4,1c2.659,2.57-1.924,1.43-2,4
			c-2.092-1.241-3.758-2.908-5-5C19,31,20,31,21,31z"/>
		<path style="fill-rule:evenodd;clip-rule:evenodd;fill:#4F4F4F;" d="M32,41c-1.496-0.171-3.69,0.357-4-1
			c2.971-2.128,9.238,0.019,11,0C37.711,41.378,34.656,40.989,32,41z"/>
		<path style="fill-rule:evenodd;clip-rule:evenodd;fill:#A6906B;" d="M124,42c1.377-0.043,2.195,0.471,3,1c0,1.333,0,2.667,0,4
			c-2.242,0.425-3.188,2.146-5,3c-0.333,0-0.667,0-1,0c-3.667,0-7.333,0-11,0c0.45-2.784-5.45,0.784-5-2
			C110.091,44.746,115.291,44.342,124,42z"/>
		<path style="fill-rule:evenodd;clip-rule:evenodd;fill:#B7ADA7;" d="M62,46c3.667,0,7.333,0,11,0c0,0.333,0,0.667,0,1
			c-4,0-8,0-12,0C60.816,46.149,61.39,46.057,62,46z"/>
		<path style="fill-rule:evenodd;clip-rule:evenodd;fill:#9D6C60;" d="M105,48c-1.353-0.314-1.91-1.424-4-1
			c-0.104-8.104,11.214-4.786,18-6c0.333,0,0.667,0,1,0c1,0,2,0,3,0c0.057,0.61,0.149,1.184,1,1
			C115.291,44.342,110.091,44.746,105,48z"/>
		<path style="fill-rule:evenodd;clip-rule:evenodd;fill:#9D6C60;" d="M43,49c-3.562,0.229-5.229-1.438-5-5
			c2.759-0.908,7.023-0.311,9-2c1.453,0.547,5.168-1.169,5,1C50.887,46.887,46.259,47.259,43,49z"/>
		<path style="fill-rule:evenodd;clip-rule:evenodd;fill:#A6906B;" d="M61,47c-4.076,2.591-9.229,4.104-16,4
			c-0.012-1.321-1.752-0.914-2-2c3.259-1.741,7.887-2.113,9-6c4.385-0.051,9.366-0.699,10,3C61.39,46.057,60.816,46.149,61,47z"/>
		<path style="fill-rule:evenodd;clip-rule:evenodd;fill:#B7ADA7;" d="M110,50c3.667,0,7.333,0,11,0
			C119.6,51.657,111.4,51.657,110,50z"/>
		<path style="fill-rule:evenodd;clip-rule:evenodd;fill:#A6906B;" d="M84,32c0.24-4.093,4.173-4.494,8-5c0,0.333,0,0.667,0,1
			c-2.333,0.334-4.309,1.024-5,3c1.177,0.156,2.839-0.172,3,1C88,32,86,32,84,32z"/>
	</g>
</g>
</svg>
