<?xml version="1.0" encoding="iso-8859-1"?>
<!-- Generator: Adobe Illustrator 13.0.2, SVG Export Plug-In . SVG Version: 6.00 Build 14948)  -->
<!DOCTYPE svg PUBLIC "-//W3C//DTD SVG 1.1//EN" "http://www.w3.org/Graphics/SVG/1.1/DTD/svg11.dtd">
<svg version="1.1" xmlns="http://www.w3.org/2000/svg" xmlns:xlink="http://www.w3.org/1999/xlink" x="0px" y="0px" width="300px"
	 height="186.667px" viewBox="0 0 300 186.667" style="enable-background:new 0 0 300 186.667;" xml:space="preserve">
<g id="Layer_3">
	<g>
		
			<image style="overflow:visible;opacity:0.75;" width="601" height="153" xlink:href="resources/9F24712F.png"  transform="matrix(0.48 0 0 0.48 11.3335 113.333)">
		</image>
		<g>
			<polygon points="40,139 26.333,161.333 273,148.333 284.334,136 233,118.333 			"/>
		</g>
	</g>
</g>
<g id="Layer_1">
	<g>
		<path style="fill-rule:evenodd;clip-rule:evenodd;fill:#FFFFFF;stroke:#BFBFBF;stroke-width:4;" d="M-174.932-278.618
			c15.078-2.161,24.934,10.933,33,19c4.873,4.873,25.221,19.38,23,37c-1.539,12.217-37.047,47.48-49,49
			c-16.536,2.103-27.939-13.94-36-22c-6.888-6.888-20.643-16.07-21-30c-0.333-12.957,10.916-20.916,20-30
			C-194.579-265.972-188.691-276.646-174.932-278.618z"/>
	</g>
	<g>
		<path style="fill-rule:evenodd;clip-rule:evenodd;fill:#FFFFFF;" d="M-174.932-278.618c15.078-2.161,24.934,10.933,33,19
			c4.873,4.873,25.221,19.38,23,37c-1.539,12.217-37.047,47.48-49,49c-16.536,2.103-27.94-13.94-36-22
			c-6.888-6.888-20.642-16.07-21-30c-0.333-12.957,10.916-20.916,20-30C-194.578-265.972-188.691-276.646-174.932-278.618z
			 M-156.932-259.618c-3.402-19.19-36.637-12.22-29,9C-177.72-235.082-153.894-242.481-156.932-259.618z M-153.932-209.618
			c13.797,2.539,27.018-4.611,27-17c-0.012-8.558-5.915-10.915-11-16c-3.713-3.712-6.852-9.903-11-9
			c-1.054,15.312-16.666,20.161-31,19C-174.955-224.365-166.148-211.866-153.932-209.618z M-215.932-230.618
			c-1.918,8.935,3.429,14.456,7,18c1.258,1.248,5.278,6.359,6,3c-3.04-11.139,0.393-29.532,1-37
			C-204.601-240.178-214.335-238.057-215.932-230.618z M-170.932-181.618c10.04-0.341,16.639-13.089,23-19
			c-27.062-2.271-37.842-20.824-45-43C-199.273-218.5-192.434-180.888-170.932-181.618z"/>
		<path style="fill-rule:evenodd;clip-rule:evenodd;fill:#FFB53E;" d="M-185.932-250.618c-7.637-21.22,25.598-28.19,29-9
			C-153.894-242.481-177.72-235.082-185.932-250.618z"/>
		<path style="fill-rule:evenodd;clip-rule:evenodd;fill:#FFB53E;" d="M-179.932-232.618c14.334,1.161,29.946-3.688,31-19
			c4.148-0.903,7.287,5.288,11,9c5.085,5.085,10.988,7.442,11,16c0.018,12.389-13.203,19.539-27,17
			C-166.148-211.866-174.955-224.365-179.932-232.618z"/>
		<path style="fill-rule:evenodd;clip-rule:evenodd;fill:#FFB53E;" d="M-192.932-243.618c7.158,22.176,17.938,40.729,45,43
			c-6.361,5.911-12.96,18.659-23,19C-192.434-180.888-199.273-218.5-192.932-243.618z"/>
		<path style="fill-rule:evenodd;clip-rule:evenodd;fill:#FFB53E;" d="M-201.932-246.618c-0.607,7.468-4.04,25.861-1,37
			c-0.722,3.359-4.742-1.752-6-3c-3.571-3.544-8.918-9.065-7-18C-214.335-238.057-204.601-240.178-201.932-246.618z"/>
	</g>
	<g>
		<path style="fill:#FFF3DE;" d="M33.668,160.156c-6.589,0.378-12.536-4.684-13.215-11.249l-5.03-48.627
			c-0.679-6.565,3.645-14.249,9.609-17.076l146.562-69.471c5.964-2.827,15.849-3.112,21.966-0.635l87.006,35.24
			c6.117,2.478,10.631,9.882,10.03,16.455l-6.316,69.1c-0.601,6.572-6.483,12.26-13.072,12.638L33.668,160.156z"/>
		<path style="fill:none;stroke:#666059;stroke-width:5;" d="M33.668,160.156c-6.589,0.378-12.536-4.684-13.215-11.249l-5.03-48.627
			c-0.679-6.565,3.645-14.249,9.609-17.076l146.562-69.471c5.964-2.827,15.849-3.112,21.966-0.635l87.006,35.24
			c6.117,2.478,10.631,9.882,10.03,16.455l-6.316,69.1c-0.601,6.572-6.483,12.26-13.072,12.638L33.668,160.156z"/>
	</g>
	<g>
		<defs>
			<filter id="Adobe_OpacityMaskFilter" filterUnits="userSpaceOnUse" x="21.304" y="58.782" width="263.398" height="96.425">
				<feFlood  style="flood-color:white;flood-opacity:1" result="back"/>
				<feBlend  in="SourceGraphic" in2="back" mode="normal"/>
			</filter>
		</defs>
		<mask maskUnits="userSpaceOnUse" x="21.304" y="58.782" width="263.398" height="96.425" id="SVGID_1_">
			<g style="filter:url(#Adobe_OpacityMaskFilter);">
				
					<image style="overflow:visible;" width="558" height="210" xlink:href="resources/9F24712D.jpg"  transform="matrix(0.48 0 0 0.48 19.3042 56.7822)">
				</image>
			</g>
		</mask>
		<g style="mask:url(#SVGID_1_);">
			<linearGradient id="SVGID_2_" gradientUnits="userSpaceOnUse" x1="158.9375" y1="152.1719" x2="151.7092" y2="69.5519">
				<stop  offset="0" style="stop-color:#FFE8C2"/>
				<stop  offset="0.0374" style="stop-color:#F4DDB7"/>
				<stop  offset="0.1216" style="stop-color:#E2CAA4"/>
				<stop  offset="0.2198" style="stop-color:#D6BD96"/>
				<stop  offset="0.3437" style="stop-color:#CEB58E"/>
				<stop  offset="0.5769" style="stop-color:#CCB38C"/>
				<stop  offset="0.795" style="stop-color:#CEB58E"/>
				<stop  offset="0.9115" style="stop-color:#D6BD94"/>
				<stop  offset="1" style="stop-color:#E3C99D"/>
			</linearGradient>
			<path style="fill:url(#SVGID_2_);" d="M39.242,155.189c-6.59,0.36-12.565-4.714-13.279-11.275l-4.588-42.213
				c-0.713-6.562,4.063-12.582,10.615-13.38L273.881,58.87c6.552-0.797,11.396,3.925,10.766,10.495l-5.844,60.861
				c-0.631,6.57-6.538,12.239-13.129,12.6L39.242,155.189z"/>
		</g>
	</g>
	<g>
		<path style="fill:#E3C99D;" d="M-365.425,130.522c-6.59,0.36-12.565-4.714-13.279-11.275l-4.588-42.213
			c-0.713-6.562,4.063-12.582,10.615-13.38l241.891-29.451c6.552-0.797,11.396,3.925,10.766,10.495l-5.844,60.861
			c-0.631,6.57-6.538,12.239-13.129,12.6L-365.425,130.522z"/>
	</g>
	<ellipse style="fill:#FFE2B0;" cx="222.938" cy="65.844" rx="12.5" ry="8.5"/>
	<g>
		<g>
			<path style="fill:#FFF3DE;" d="M233.301,61.09c0.23,0.645,0.387,1.311,0.387,2.004c0,4.695-5.598,8.5-12.5,8.5
				c-4.312,0-8.117-1.486-10.363-3.746c1.332,3.723,6.23,6.496,12.113,6.496c6.902,0,12.5-3.805,12.5-8.5
				C235.438,64.082,234.648,62.445,233.301,61.09z"/>
		</g>
	</g>
	<g>
		<path style="fill-rule:evenodd;clip-rule:evenodd;fill:#FFFFFF;" d="M-361.599-253.951c15.078-2.161,24.934,10.933,33,19
			c4.873,4.873,25.221,19.38,23,37c-1.539,12.217-37.047,47.48-49,49c-16.537,2.103-27.94-13.94-36-22
			c-6.888-6.888-20.642-16.07-21-30c-0.333-12.957,10.916-20.916,20-30C-381.245-241.305-375.358-251.979-361.599-253.951z
			 M-343.599-234.951c-3.402-19.19-36.637-12.22-29,9C-364.388-210.415-340.561-217.814-343.599-234.951z M-340.599-184.951
			c13.797,2.539,27.018-4.611,27-17c-0.012-8.558-5.915-10.915-11-16c-3.713-3.712-6.852-9.903-11-9
			c-1.054,15.312-16.666,20.161-31,19C-361.622-199.698-352.815-187.199-340.599-184.951z M-402.599-205.951
			c-1.918,8.935,3.429,14.456,7,18c1.258,1.248,5.278,6.359,6,3c-3.04-11.139,0.393-29.532,1-37
			C-391.268-215.511-401.002-213.39-402.599-205.951z M-357.599-156.951c10.04-0.341,16.639-13.089,23-19
			c-27.062-2.271-37.842-20.824-45-43C-385.94-193.833-379.101-156.222-357.599-156.951z"/>
		<path style="fill-rule:evenodd;clip-rule:evenodd;fill:#FFB53E;" d="M-372.599-225.951c-7.637-21.22,25.598-28.19,29-9
			C-340.561-217.814-364.388-210.415-372.599-225.951z"/>
		<path style="fill-rule:evenodd;clip-rule:evenodd;fill:#FFB53E;" d="M-366.599-207.951c14.334,1.161,29.946-3.688,31-19
			c4.148-0.903,7.287,5.288,11,9c5.085,5.085,10.988,7.442,11,16c0.018,12.389-13.203,19.539-27,17
			C-352.815-187.199-361.622-199.698-366.599-207.951z"/>
		<path style="fill-rule:evenodd;clip-rule:evenodd;fill:#FFB53E;" d="M-379.599-218.951c7.158,22.176,17.938,40.729,45,43
			c-6.361,5.911-12.96,18.659-23,19C-379.101-156.222-385.94-193.833-379.599-218.951z"/>
		<path style="fill-rule:evenodd;clip-rule:evenodd;fill:#FFB53E;" d="M-388.599-221.951c-0.607,7.468-4.04,25.861-1,37
			c-0.722,3.359-4.742-1.752-6-3c-3.571-3.544-8.918-9.065-7-18C-401.002-213.39-391.268-215.511-388.599-221.951z"/>
	</g>
</g>
<g id="Layer_2">
</g>
</svg>
