<?xml version="1.0" encoding="utf-8"?>
<!-- Generator: Adobe Illustrator 13.0.2, SVG Export Plug-In . SVG Version: 6.00 Build 14948)  -->
<!DOCTYPE svg PUBLIC "-//W3C//DTD SVG 1.0//EN" "http://www.w3.org/TR/2001/REC-SVG-20010904/DTD/svg10.dtd">
<svg version="1.0" id="Layer_1" xmlns="http://www.w3.org/2000/svg" xmlns:xlink="http://www.w3.org/1999/xlink" x="0px" y="0px"
	 width="80px" height="80px" viewBox="0 0 80 80" enable-background="new 0 0 80 80" xml:space="preserve">
<polygon fill="#FFF59F" points="24.408,66.997 7.448,45.729 13.501,19.208 38.01,7.406 62.519,19.208 68.572,45.729 51.611,66.997 
	"/>
<polygon fill="#00FFDE" stroke="#000000" stroke-width="0.5" points="39.084,1.543 45.413,26.591 68.944,15.923 53.308,36.489 
	76.319,48.234 50.491,48.831 55.655,74.146 39.084,54.324 22.513,74.146 27.679,48.831 1.85,48.234 24.862,36.489 9.225,15.923 
	32.755,26.591 "/>
<polygon fill="#3FA2FF" points="38.865,38.447 76.319,48.234 53.308,36.489 68.944,15.923 39.084,38 39.084,1.543 32.755,26.591 
	9.225,15.923 38.418,38 24.862,36.489 1.85,48.234 38.646,38.229 27.679,48.832 22.513,74.146 39.084,38.667 39.062,54.188 
	22.513,74.146 39.084,54.324 55.655,74.146 50.491,48.832 "/>
</svg>
