<?xml version="1.0" encoding="utf-8"?>
<!-- Generator: Adobe Illustrator 13.0.2, SVG Export Plug-In . SVG Version: 6.00 Build 14948)  -->
<!DOCTYPE svg PUBLIC "-//W3C//DTD SVG 1.0//EN" "http://www.w3.org/TR/2001/REC-SVG-20010904/DTD/svg10.dtd">
<svg version="1.0" id="Layer_1" xmlns="http://www.w3.org/2000/svg" xmlns:xlink="http://www.w3.org/1999/xlink" x="0px" y="0px"
	 width="10.959px" height="17.375px" viewBox="0 0 10.959 17.375" enable-background="new 0 0 10.959 17.375" xml:space="preserve">
<path fill="#FFF81F" d="M1.906,0.802l7.219,0.281c0,0,0.938,3.25,0,7.625s-3.625,7-3.625,8.188c0,0,0.625-2.75,0-4.25
	c0,0-1.125,1.312-1.125,2.438c0,0-0.312-3.25-0.75-3.375c0,0-0.875,0.25-0.312,2.938c0,0-2.188-5.875-2.188-7.875L1.906,0.802"/>
<path fill="#9FFFFD" d="M2.625,1.521h5.812c0,0-1,3.875-3.166,5.456C5.272,6.977,2.547,3.958,2.625,1.521z"/>
<path fill="#FFFFFF" d="M3.75,2.042h3.5c0,0-1.625,2.583-1.875,2.583C5.375,4.625,3.75,2.75,3.75,2.042z"/>
</svg>
