<?xml version="1.0" encoding="utf-8"?>
<!-- Generator: Adobe Illustrator 13.0.2, SVG Export Plug-In . SVG Version: 6.00 Build 14948)  -->
<!DOCTYPE svg PUBLIC "-//W3C//DTD SVG 1.0//EN" "http://www.w3.org/TR/2001/REC-SVG-20010904/DTD/svg10.dtd">
<svg version="1.0" id="Layer_1" xmlns="http://www.w3.org/2000/svg" xmlns:xlink="http://www.w3.org/1999/xlink" x="0px" y="0px"
	 width="72.5px" height="68.25px" viewBox="0 0 72.5 68.25" enable-background="new 0 0 72.5 68.25" xml:space="preserve">
<path fill="#151717" d="M69.153,3.758c-3.346,1.499,0.103,6.773,0,1c1.356,0.311,0.83,2.504,1,4
	C64.746,9.454,64.021,3.807,69.153,3.758z"/>
<path fill="#30FFCF" d="M4.163,31.754c-2.234-4.272,3.458-14.5,5.999-13.999C8.831,23.091,7.105,28.031,4.163,31.754z"/>
<path fill="#536565" d="M12.162,16.756c1.615-0.282,1.721,0.945,3,1C11.474,23.4,12.834,34.094,4.163,34.754
	C8.254,30.18,10.745,24.005,12.162,16.756z"/>
<path fill="#151717" d="M64.154,25.755c-1.605,0.881-8.881-6.393-7.999-7.999C59.242,20.002,61.908,22.669,64.154,25.755z"/>
<path fill="#30FFCF" d="M36.158,50.752c-18.903-0.466-12.626-31.688,7-22.997c0.903,1.763,2.236,3.096,4,4
	c0.152,3.18,2.268,4.398,2,7.999C46.518,45.112,41.658,48.252,36.158,50.752z"/>
<path fill="#536565" d="M64.154,28.754c2.569,0.097,1.43,3.903,4,4C58.652,46.25,49.414,60.007,29.16,62.75
	c4.721-1.945,9.627-3.705,12.999-7c-0.223-1.428-4.977,0.929-7.998,0c-0.225-0.776-0.027-1.972-1-2
	c6.561-1.439,13.305-2.692,15.999-7.999C55.276,45.195,60.804,35.41,64.154,28.754z"/>
<path fill="#CDCDCD" d="M51.156,54.751c4.578-3.421,8.1-7.899,11.998-11.999C60.184,47.78,56.556,52.151,51.156,54.751z"/>
<path fill="none" d="M25.161,68.75c1.393-1.273,0.435-4.897,3-5c11.539,0.872,16.282-5.049,22.998-8.999
	c5.398-2.6,9.026-6.971,11.998-11.999c3.557-4.089,8.744-9.722,3-14.998c-0.214-1.121-1.111-1.556-2.002-1.999
	c-2.246-3.086-4.912-5.752-7.999-7.999c-0.211-1.122-1.108-1.557-2-2c-0.778-0.221-1.161-0.837-0.999-2
	c3.301-3.031,8.241-4.423,11.998-6.999c-7.966-0.633-11.803,2.862-16.998,5c-1.479-0.521-2.52-1.479-3.998-2
	c-0.058-0.609-0.15-1.184-1-1C37.449,6.466,31.737,4.178,25.16,2.758c-3.307,4.358-5.655,9.676-8.999,13.998
	c-2.09-0.576-2.854-2.479-5.999-2C4.387,18.98,1.835,26.428,1.163,35.754c3.16-0.16,6.035-0.036,7,2c-1.927,1.852-0.79,1.832-4,1
	c1.07,5.262,2.634,10.031,4.999,13.998c1.848,2.485,3.023,5.644,6,6.999c1.812,2.521,6.568,2.097,7.999,5
	c-1.165,0.168-1.086,1.58-1,2.999"/>
<path fill="none" d="M70.153,8.757c-0.17-1.496,0.356-3.689-1-4c0.103,5.773-3.346,0.5,0-1C64.021,3.807,64.746,9.454,70.153,8.757z
	"/>
<path fill="#151717" d="M9.162,52.751c-2.365-3.967-3.929-8.736-4.999-13.998c3.209,0.832,2.073,0.852,4-1
	c-0.965-2.035-3.84-2.16-7-2c0.673-9.326,3.224-16.773,8.999-20.998c3.146-0.479,3.909,1.424,5.999,2
	c3.344-4.322,5.692-9.64,8.999-13.998c6.578,1.421,12.29,3.709,17.999,5.999c-4.797,2.103-9.562-4.417-15.999-4
	c-9.857,8.142-13.658,22.338-18.998,34.996c4.018,5.647,11.196,8.135,15.998,12.998c6.162-5.985-4.022-9.561-3-18.998
	c1.377-12.7,19.008-11.603,21.999-5.999c-19.628-8.69-25.903,22.531-7,22.997c8.233,0.235,11.385-4.613,12.998-10.999
	c0.268-3.601-1.847-4.819-2-7.999c-0.56-1.439-1.56-2.439-2.998-3c5.434-2.31,7.662,11.042,4.998,16.998
	c-2.691,5.307-9.438,6.56-15.998,7.999c0.972,0.027,0.776,1.224,1,2c-1.229,0.437-2.054,1.28-2,3
	C21.794,54.782,15.744,46.5,6.162,41.751C5.898,46.054,11.275,49.919,9.162,52.751z M10.162,17.756
	c-2.542-0.502-8.233,9.726-5.999,13.999C7.105,28.031,8.831,23.091,10.162,17.756z M4.163,34.754
	c8.672-0.66,7.31-11.354,10.999-16.998c-1.278-0.055-1.385-1.282-3-1C10.745,24.005,8.254,30.18,4.163,34.754z M24.16,32.754
	c0.388-3.945,4.065-4.601,6-6.999C26.538,25.843,21.938,30.141,24.16,32.754z M26.16,53.751c3.958-1.292,2.042,3.291,5.999,2
	C31.938,53.04,27.019,49.923,26.16,53.751z"/>
<path fill="#536565" d="M54.155,17.756c1.454-0.442-0.102-0.878,0-2c0.892,0.443,1.789,0.878,2,2
	c-0.882,1.606,6.394,8.88,7.999,7.999c0.891,0.443,1.788,0.878,2,2c-0.891-0.615-1.787-1.208-2,0
	C60.402,24.84,57.07,21.507,54.155,17.756z"/>
<path fill="#151717" d="M44.158,9.757c1.479,0.521,2.52,1.479,3.998,2c5.195-2.138,9.032-5.633,16.998-5
	c-3.757,2.576-8.697,3.968-11.998,6.999c-0.162,1.163,0.221,1.779,0.999,2c-0.102,1.122,1.454,1.558,0,2
	c-3.396-2.604-6.761-5.237-10.997-6.999C42.975,9.906,43.547,9.813,44.158,9.757z M50.156,13.756c2.717-0.616,4.684-1.982,5.999-4
	C53.703,10.636,50.391,10.656,50.156,13.756z"/>
<path fill="#536565" d="M56.155,9.757c-1.315,2.018-3.282,3.383-5.999,4C50.391,10.656,53.703,10.636,56.155,9.757z"/>
<path fill="#536565" d="M49.156,39.753c-1.613,6.386-4.765,11.233-12.998,10.999C41.658,48.252,46.518,45.112,49.156,39.753z"/>
<path fill="#536565" d="M30.16,25.755c-1.935,2.398-5.612,3.054-6,6.999C21.938,30.141,26.538,25.843,30.16,25.755z"/>
<path fill="#9E8E91" d="M34.158,55.751c3.022,0.929,7.776-1.428,8,0c-3.371,3.295-8.279,5.054-13,7
	c-6.939,0.606-10.529-2.137-13.998-5c-1.454,0.443,0.102,0.878,0,2c-2.976-1.355-4.152-4.514-6-6.999
	c2.114-2.832-3.263-6.697-3-10.999c9.582,4.75,15.632,13.031,25.997,16.998C32.104,57.03,32.929,56.188,34.158,55.751z"/>
<path fill="#9E8E91" d="M32.159,55.751c-3.958,1.292-2.042-3.291-5.999-2C27.019,49.923,31.938,53.04,32.159,55.751z"/>
<path fill="#9E8E91" d="M43.158,27.755c-2.99-5.604-20.622-6.701-21.999,5.999c-1.023,9.438,9.161,13.012,3,18.998
	c-4.802-4.863-11.98-7.351-15.998-12.998c5.34-12.658,9.141-26.854,18.998-34.996c6.437-0.417,11.202,6.103,15.999,4
	c0.85-0.184,0.942,0.391,1,1c-0.611,0.058-1.185,0.149-1,1c4.236,1.763,7.602,4.396,10.997,6.999
	c2.915,3.751,6.247,7.084,9.999,9.999c0,0.333,0,0.667,0,1c-3.352,6.656-8.878,16.441-14.998,16.998
	c2.664-5.956,0.436-19.308-4.998-16.998c1.438,0.561,2.438,1.561,2.998,3C45.395,30.85,44.062,29.517,43.158,27.755z"/>
<path fill="#151717" d="M23.159,64.751c-1.431-2.903-6.187-2.479-7.999-5c0.102-1.122-1.454-1.557,0-2
	c3.469,2.863,7.059,5.606,13.998,5c20.254-2.743,29.494-16.5,38.996-29.997c-2.569-0.097-1.431-3.903-4-4c0-0.333,0-0.667,0-1
	c0.212-1.208,1.109-0.615,2,0c5.744,5.276,0.558,10.909-3,14.998c-3.897,4.1-7.419,8.578-11.997,11.999
	c-6.449,3.794-11.08,9.404-21.656,9.071c-0.437-0.014-0.426,0.421-0.884,0.386l-0.458,0.709"/>
</svg>
