<?xml version="1.0" encoding="utf-8"?>
<!-- Generator: Adobe Illustrator 13.0.2, SVG Export Plug-In . SVG Version: 6.00 Build 14948)  -->
<!DOCTYPE svg PUBLIC "-//W3C//DTD SVG 1.1//EN" "http://www.w3.org/Graphics/SVG/1.1/DTD/svg11.dtd">
<svg version="1.1" id="Layer_1" xmlns="http://www.w3.org/2000/svg" xmlns:xlink="http://www.w3.org/1999/xlink" x="0px" y="0px"
	 width="39px" height="61px" viewBox="0 0 39 61" enable-background="new 0 0 39 61" xml:space="preserve">
<g>
	<path fill="#536565" d="M25.678,0.508"/>
	<path fill="#536565" d="M11.68,6.507c-0.013,1.987-2.728,1.271-2,4C5.465,9.912,8.798,2.854,11.68,6.507z"/>
	<path fill="#536565" d="M30.677,8.507c0.132,2.465,0.151,4.817-1,5.999c-1.333,0-2.667,0-4,0
		C22.767,10.85,26.619,5.502,30.677,8.507z"/>
	<path fill="#151717" d="M15.679,25.505c-3.533-0.468-5.474-2.526-7.999-4c0.056-3.276,2.844-3.822,2-7.999
		c4.438-1.465,5.867,0.008,10.999,0c0.168,1.165,1.581,1.086,3,1c0.801,5.134-1.072,7.594-2,10.999
		C19.679,25.505,17.679,25.505,15.679,25.505z M9.68,21.505c3.602,0.729,5.051,3.614,9.999,3c1.442-2.226,2.511-4.822,2-8.999
		c-3.507-0.493-6.509-1.491-10.999-1C11.48,17.975,9.189,18.35,9.68,21.505z"/>
	<path fill="#536565" d="M10.68,14.506c4.49-0.491,7.492,0.507,10.999,1c0.511,4.177-0.558,6.773-2,8.999
		c-4.948,0.614-6.397-2.271-9.999-3C9.189,18.35,11.48,17.975,10.68,14.506z"/>
	<path fill="#151717" d="M1.681,49.502c2.336-3.997,2.783-9.883,6-13c0.627,3.039-1.28,8.613,1,10c0,0.666,0,1.332,0,2
		c0.914,1.752,0.344,4.988,2,5.998c-1.311,3.86-7.479,3.396-9.999,1c-0.827-2.825,1.409-2.59,1-5
		C1.681,50.168,1.681,49.834,1.681,49.502z M4.681,45.502c-1.081,2.919-2.239,5.761-2,9.998c1.333,0,2.667,0,4,0
		c0.333,0,0.667,0,1,0C8.255,54.047,6.656,35.627,4.681,45.502z"/>
	<path fill="#151717" d="M18.679,47.502c2.147-3.188,2.769-7.896,5-11c2.353,1.979,1.704,6.963,3,10
		c0.735,3.931,2.085,7.246,3,10.998c-1.89,2.879-8.747,2.328-11.999,1C17.554,54.375,19.416,52.241,18.679,47.502z M24.678,58.5
		c5.747-2.154-0.014-14.08-2-17.998c0.043,1.377-0.471,2.195-1,3C21.07,47.37,15.544,59.741,24.678,58.5z"/>
	<path fill="#536565" d="M6.68,55.5c-1.83-2.17,0.188-8.188-2-9.998c1.975-9.875,3.575,8.545,3,9.998
		C7.347,55.5,7.014,55.5,6.68,55.5z"/>
	<path fill="#9E8E91" d="M25.677,0.509"/>
	<path fill="#536565" d="M22.678,12.506c0.561,1.439,1.561,2.439,3,3c0.599,8.746-4.375,16.754-10.999,14.998
		c2.085-1.457,4.405-3.293,1-4.999c2,0,4,0,5.999,0c0.928-3.405,2.801-5.865,2-10.999c-1.419,0.086-2.832,0.165-3-1
		C21.488,13.317,21.675,12.502,22.678,12.506z"/>
	<path fill="#9E8E91" d="M20.678,13.506c-5.131,0.008-6.561-1.465-10.999,0c0.844,4.177-1.943,4.723-2,7.999
		c2.525,1.474,4.466,3.532,7.999,4c3.404,1.706,1.085,3.542-1,4.999c-3.532-0.467-5.474-2.525-7.999-4
		c-0.833-9.165,2.785-13.879,5.999-18.997c3.395,0.271,8.107-0.774,9.999,1c0,1.333,0,2.666,0,3.999
		C21.675,12.502,21.488,13.317,20.678,13.506z"/>
	<path fill="#536565" d="M21.678,43.502c0.529-0.805,1.043-1.623,1-3c1.984,3.918,7.747,15.844,2,17.998
		C23.025,54.155,23.637,47.543,21.678,43.502z"/>
	<path fill="#151717" d="M24.677,0.758c-2.563,0.102-1.606,4.476-3,5.75c2.836,2.303,6.581-1.484,9.999,1
		c-0.163,1.162,0.221,1.779,1,2c-2.065,5.934-3.709,12.288-4,19.997c0.574,2.084,6.469,1.251,5.999-1c1.053,0.737-0.687,3.812,3,4
		c-0.515,3.483-6.533,1.466-9.999,1.999c0-3.666,0-7.332,0-10.998c-4.146,7.834-14.661,11.984-21.998,3.999
		c0.073-11.509,2.39-14.91,2-22.997c4.124-0.124,6.261,1.738,10.999,1c-0.087-1.419-0.165-2.831,1-2.999
		c-1.431-2.903,0.381,0.437-1.431-2.084 M9.68,10.507c-0.728-2.729,1.987-2.013,2-4C8.798,2.854,5.465,9.912,9.68,10.507z
		 M22.678,12.506c0-1.333,0-2.666,0-3.999c-1.893-1.774-6.604-0.729-9.999-1c-3.214,5.118-6.832,9.832-5.999,18.997
		c2.525,1.475,4.467,3.534,7.999,4c6.623,1.756,11.598-6.252,10.999-14.998C24.238,14.948,23.238,13.948,22.678,12.506z
		 M25.678,14.506c1.333,0,2.667,0,4,0c1.15-1.182,1.132-3.534,1-5.999C26.619,5.502,22.767,10.85,25.678,14.506z"/>
	<path fill="#9E8E91" d="M7.68,36.502c2.28,1.388,0.373,6.961,1,10C6.399,45.116,8.307,39.542,7.68,36.502z"/>
	<path fill="#9E8E91" d="M6.68,55.5c-1.333,0-2.667,0-4,0c-0.239-4.237,0.919-7.079,2-9.998C6.869,47.314,4.851,53.331,6.68,55.5z"
		/>
	<path fill="#9E8E91" d="M24.678,58.5c-9.133,1.24-3.607-11.133-3-14.998C23.637,47.543,23.025,54.155,24.678,58.5z"/>
</g>
</svg>
